M48
; DRILL file {KiCad 5.1.7} date Sat Dec  5 21:44:07 2020
; FORMAT={-:-/ absolute / metric / decimal}
; #@! TF.CreationDate,2020-12-05T21:44:07-08:00
; #@! TF.GenerationSoftware,Kicad,Pcbnew,5.1.7
; #@! TF.FileFunction,Plated,1,2,PTH
FMAT,2
METRIC
T1C0.400
T2C0.750
T3C1.000
%
G90
G05
T1
X96.0Y-81.0
X98.0Y-84.0
X98.9Y-117.8
X101.6Y-117.8
X103.3Y-138.7
X103.9Y-78.7
X103.964Y-141.455
X105.0Y-77.8
X109.0Y-85.0
X109.375Y-80.431
X109.9Y-74.5
X110.231Y-81.243
X110.75Y-75.05
X111.875Y-82.8
X113.6Y-110.5
X114.887Y-83.175
X114.9Y-84.175
X115.0Y-80.2
X115.236Y-85.747
X115.454Y-86.744
X116.425Y-109.0
X118.3Y-118.0
X118.4Y-101.8
X119.161Y-110.114
X119.575Y-85.0
X120.1Y-116.1
X120.6Y-131.1
T2
X107.2Y-118.9
X107.2Y-120.9
T3
X96.7Y-68.0
X98.943Y-66.808
X101.185Y-65.615
X113.729Y-66.658
X115.186Y-68.739
X116.643Y-70.819
X118.1Y-72.9
T0
M30
