G04 #@! TF.GenerationSoftware,KiCad,Pcbnew,5.1.7*
G04 #@! TF.CreationDate,2020-12-05T21:44:05-08:00*
G04 #@! TF.ProjectId,xmascard2020,786d6173-6361-4726-9432-3032302e6b69,rev?*
G04 #@! TF.SameCoordinates,Original*
G04 #@! TF.FileFunction,Copper,L2,Bot*
G04 #@! TF.FilePolarity,Positive*
%FSLAX46Y46*%
G04 Gerber Fmt 4.6, Leading zero omitted, Abs format (unit mm)*
G04 Created by KiCad (PCBNEW 5.1.7) date 2020-12-05 21:44:05*
%MOMM*%
%LPD*%
G01*
G04 APERTURE LIST*
G04 #@! TA.AperFunction,SMDPad,CuDef*
%ADD10C,0.100000*%
G04 #@! TD*
G04 #@! TA.AperFunction,SMDPad,CuDef*
%ADD11C,17.800000*%
G04 #@! TD*
G04 #@! TA.AperFunction,ComponentPad*
%ADD12O,1.750000X1.200000*%
G04 #@! TD*
G04 #@! TA.AperFunction,ComponentPad*
%ADD13C,0.100000*%
G04 #@! TD*
G04 #@! TA.AperFunction,SMDPad,CuDef*
%ADD14R,0.900000X0.800000*%
G04 #@! TD*
G04 #@! TA.AperFunction,SMDPad,CuDef*
%ADD15R,0.750000X1.000000*%
G04 #@! TD*
G04 #@! TA.AperFunction,SMDPad,CuDef*
%ADD16R,1.000000X0.750000*%
G04 #@! TD*
G04 #@! TA.AperFunction,SMDPad,CuDef*
%ADD17R,1.300000X0.900000*%
G04 #@! TD*
G04 #@! TA.AperFunction,SMDPad,CuDef*
%ADD18R,0.400000X1.200000*%
G04 #@! TD*
G04 #@! TA.AperFunction,ViaPad*
%ADD19C,0.800000*%
G04 #@! TD*
G04 #@! TA.AperFunction,Conductor*
%ADD20C,0.500000*%
G04 #@! TD*
G04 #@! TA.AperFunction,Conductor*
%ADD21C,0.250000*%
G04 #@! TD*
G04 APERTURE END LIST*
G04 #@! TA.AperFunction,SMDPad,CuDef*
G36*
G01*
X117425000Y-80450000D02*
X117425000Y-80950000D01*
G75*
G02*
X117200000Y-81175000I-225000J0D01*
G01*
X116750000Y-81175000D01*
G75*
G02*
X116525000Y-80950000I0J225000D01*
G01*
X116525000Y-80450000D01*
G75*
G02*
X116750000Y-80225000I225000J0D01*
G01*
X117200000Y-80225000D01*
G75*
G02*
X117425000Y-80450000I0J-225000D01*
G01*
G37*
G04 #@! TD.AperFunction*
G04 #@! TA.AperFunction,SMDPad,CuDef*
G36*
G01*
X115875000Y-80450000D02*
X115875000Y-80950000D01*
G75*
G02*
X115650000Y-81175000I-225000J0D01*
G01*
X115200000Y-81175000D01*
G75*
G02*
X114975000Y-80950000I0J225000D01*
G01*
X114975000Y-80450000D01*
G75*
G02*
X115200000Y-80225000I225000J0D01*
G01*
X115650000Y-80225000D01*
G75*
G02*
X115875000Y-80450000I0J-225000D01*
G01*
G37*
G04 #@! TD.AperFunction*
G04 #@! TA.AperFunction,SMDPad,CuDef*
D10*
G36*
X110009705Y-105793215D02*
G01*
X105610295Y-108333215D01*
X104975295Y-107233363D01*
X109374705Y-104693363D01*
X110009705Y-105793215D01*
G37*
G04 #@! TD.AperFunction*
G04 #@! TA.AperFunction,SMDPad,CuDef*
G36*
X99024705Y-86766637D02*
G01*
X94625295Y-89306637D01*
X93990295Y-88206785D01*
X98389705Y-85666785D01*
X99024705Y-86766637D01*
G37*
G04 #@! TD.AperFunction*
D11*
X102000000Y-97000000D03*
X120600000Y-131100000D03*
G04 #@! TA.AperFunction,SMDPad,CuDef*
D10*
G36*
X123575295Y-141333363D02*
G01*
X127974705Y-138793363D01*
X128609705Y-139893215D01*
X124210295Y-142433215D01*
X123575295Y-141333363D01*
G37*
G04 #@! TD.AperFunction*
G04 #@! TA.AperFunction,SMDPad,CuDef*
G36*
X112590295Y-122306785D02*
G01*
X116989705Y-119766785D01*
X117624705Y-120866637D01*
X113225295Y-123406637D01*
X112590295Y-122306785D01*
G37*
G04 #@! TD.AperFunction*
G04 #@! TA.AperFunction,SMDPad,CuDef*
G36*
G01*
X97025000Y-83850000D02*
X97025000Y-83350000D01*
G75*
G02*
X97250000Y-83125000I225000J0D01*
G01*
X97700000Y-83125000D01*
G75*
G02*
X97925000Y-83350000I0J-225000D01*
G01*
X97925000Y-83850000D01*
G75*
G02*
X97700000Y-84075000I-225000J0D01*
G01*
X97250000Y-84075000D01*
G75*
G02*
X97025000Y-83850000I0J225000D01*
G01*
G37*
G04 #@! TD.AperFunction*
G04 #@! TA.AperFunction,SMDPad,CuDef*
G36*
G01*
X95475000Y-83850000D02*
X95475000Y-83350000D01*
G75*
G02*
X95700000Y-83125000I225000J0D01*
G01*
X96150000Y-83125000D01*
G75*
G02*
X96375000Y-83350000I0J-225000D01*
G01*
X96375000Y-83850000D01*
G75*
G02*
X96150000Y-84075000I-225000J0D01*
G01*
X95700000Y-84075000D01*
G75*
G02*
X95475000Y-83850000I0J225000D01*
G01*
G37*
G04 #@! TD.AperFunction*
G04 #@! TA.AperFunction,ComponentPad*
G36*
G01*
X107825001Y-121500000D02*
X106574999Y-121500000D01*
G75*
G02*
X106325000Y-121250001I0J249999D01*
G01*
X106325000Y-120549999D01*
G75*
G02*
X106574999Y-120300000I249999J0D01*
G01*
X107825001Y-120300000D01*
G75*
G02*
X108075000Y-120549999I0J-249999D01*
G01*
X108075000Y-121250001D01*
G75*
G02*
X107825001Y-121500000I-249999J0D01*
G01*
G37*
G04 #@! TD.AperFunction*
D12*
X107200000Y-118900000D03*
G04 #@! TA.AperFunction,ComponentPad*
D13*
G36*
X95550444Y-67648545D02*
G01*
X97051455Y-66850444D01*
X97849556Y-68351455D01*
X96348545Y-69149556D01*
X95550444Y-67648545D01*
G37*
G04 #@! TD.AperFunction*
G04 #@! TA.AperFunction,ComponentPad*
G36*
G01*
X98543636Y-66057037D02*
X98543636Y-66057037D01*
G75*
G02*
X99693192Y-66408491I399051J-750505D01*
G01*
X99693192Y-66408491D01*
G75*
G02*
X99341738Y-67558047I-750505J-399051D01*
G01*
X99341738Y-67558047D01*
G75*
G02*
X98192182Y-67206593I-399051J750505D01*
G01*
X98192182Y-67206593D01*
G75*
G02*
X98543636Y-66057037I750505J399051D01*
G01*
G37*
G04 #@! TD.AperFunction*
G04 #@! TA.AperFunction,ComponentPad*
G36*
G01*
X100786323Y-64864579D02*
X100786323Y-64864579D01*
G75*
G02*
X101935879Y-65216033I399051J-750505D01*
G01*
X101935879Y-65216033D01*
G75*
G02*
X101584425Y-66365589I-750505J-399051D01*
G01*
X101584425Y-66365589D01*
G75*
G02*
X100434869Y-66014135I-399051J750505D01*
G01*
X100434869Y-66014135D01*
G75*
G02*
X100786323Y-64864579I750505J399051D01*
G01*
G37*
G04 #@! TD.AperFunction*
G04 #@! TA.AperFunction,ComponentPad*
G36*
X117891261Y-74083819D02*
G01*
X116916181Y-72691261D01*
X118308739Y-71716181D01*
X119283819Y-73108739D01*
X117891261Y-74083819D01*
G37*
G04 #@! TD.AperFunction*
G04 #@! TA.AperFunction,ComponentPad*
G36*
G01*
X115946837Y-71306894D02*
X115946837Y-71306894D01*
G75*
G02*
X116155576Y-70123075I696279J487540D01*
G01*
X116155576Y-70123075D01*
G75*
G02*
X117339395Y-70331814I487540J-696279D01*
G01*
X117339395Y-70331814D01*
G75*
G02*
X117130656Y-71515633I-696279J-487540D01*
G01*
X117130656Y-71515633D01*
G75*
G02*
X115946837Y-71306894I-487540J696279D01*
G01*
G37*
G04 #@! TD.AperFunction*
G04 #@! TA.AperFunction,ComponentPad*
G36*
G01*
X114489953Y-69226248D02*
X114489953Y-69226248D01*
G75*
G02*
X114698692Y-68042429I696279J487540D01*
G01*
X114698692Y-68042429D01*
G75*
G02*
X115882511Y-68251168I487540J-696279D01*
G01*
X115882511Y-68251168D01*
G75*
G02*
X115673772Y-69434987I-696279J-487540D01*
G01*
X115673772Y-69434987D01*
G75*
G02*
X114489953Y-69226248I-487540J696279D01*
G01*
G37*
G04 #@! TD.AperFunction*
G04 #@! TA.AperFunction,ComponentPad*
G36*
G01*
X113033069Y-67145601D02*
X113033069Y-67145601D01*
G75*
G02*
X113241808Y-65961782I696279J487540D01*
G01*
X113241808Y-65961782D01*
G75*
G02*
X114425627Y-66170521I487540J-696279D01*
G01*
X114425627Y-66170521D01*
G75*
G02*
X114216888Y-67354340I-696279J-487540D01*
G01*
X114216888Y-67354340D01*
G75*
G02*
X113033069Y-67145601I-487540J696279D01*
G01*
G37*
G04 #@! TD.AperFunction*
D14*
X114200000Y-102850000D03*
X114200000Y-100950000D03*
X116200000Y-101900000D03*
G04 #@! TA.AperFunction,SMDPad,CuDef*
G36*
G01*
X104225000Y-80375000D02*
X104775000Y-80375000D01*
G75*
G02*
X104975000Y-80575000I0J-200000D01*
G01*
X104975000Y-80975000D01*
G75*
G02*
X104775000Y-81175000I-200000J0D01*
G01*
X104225000Y-81175000D01*
G75*
G02*
X104025000Y-80975000I0J200000D01*
G01*
X104025000Y-80575000D01*
G75*
G02*
X104225000Y-80375000I200000J0D01*
G01*
G37*
G04 #@! TD.AperFunction*
G04 #@! TA.AperFunction,SMDPad,CuDef*
G36*
G01*
X104225000Y-82025000D02*
X104775000Y-82025000D01*
G75*
G02*
X104975000Y-82225000I0J-200000D01*
G01*
X104975000Y-82625000D01*
G75*
G02*
X104775000Y-82825000I-200000J0D01*
G01*
X104225000Y-82825000D01*
G75*
G02*
X104025000Y-82625000I0J200000D01*
G01*
X104025000Y-82225000D01*
G75*
G02*
X104225000Y-82025000I200000J0D01*
G01*
G37*
G04 #@! TD.AperFunction*
G04 #@! TA.AperFunction,SMDPad,CuDef*
G36*
G01*
X107375000Y-85575000D02*
X107375000Y-85025000D01*
G75*
G02*
X107575000Y-84825000I200000J0D01*
G01*
X107975000Y-84825000D01*
G75*
G02*
X108175000Y-85025000I0J-200000D01*
G01*
X108175000Y-85575000D01*
G75*
G02*
X107975000Y-85775000I-200000J0D01*
G01*
X107575000Y-85775000D01*
G75*
G02*
X107375000Y-85575000I0J200000D01*
G01*
G37*
G04 #@! TD.AperFunction*
G04 #@! TA.AperFunction,SMDPad,CuDef*
G36*
G01*
X109025000Y-85575000D02*
X109025000Y-85025000D01*
G75*
G02*
X109225000Y-84825000I200000J0D01*
G01*
X109625000Y-84825000D01*
G75*
G02*
X109825000Y-85025000I0J-200000D01*
G01*
X109825000Y-85575000D01*
G75*
G02*
X109625000Y-85775000I-200000J0D01*
G01*
X109225000Y-85775000D01*
G75*
G02*
X109025000Y-85575000I0J200000D01*
G01*
G37*
G04 #@! TD.AperFunction*
G04 #@! TA.AperFunction,SMDPad,CuDef*
G36*
G01*
X115725000Y-99375000D02*
X115725000Y-98825000D01*
G75*
G02*
X115925000Y-98625000I200000J0D01*
G01*
X116325000Y-98625000D01*
G75*
G02*
X116525000Y-98825000I0J-200000D01*
G01*
X116525000Y-99375000D01*
G75*
G02*
X116325000Y-99575000I-200000J0D01*
G01*
X115925000Y-99575000D01*
G75*
G02*
X115725000Y-99375000I0J200000D01*
G01*
G37*
G04 #@! TD.AperFunction*
G04 #@! TA.AperFunction,SMDPad,CuDef*
G36*
G01*
X114075000Y-99375000D02*
X114075000Y-98825000D01*
G75*
G02*
X114275000Y-98625000I200000J0D01*
G01*
X114675000Y-98625000D01*
G75*
G02*
X114875000Y-98825000I0J-200000D01*
G01*
X114875000Y-99375000D01*
G75*
G02*
X114675000Y-99575000I-200000J0D01*
G01*
X114275000Y-99575000D01*
G75*
G02*
X114075000Y-99375000I0J200000D01*
G01*
G37*
G04 #@! TD.AperFunction*
G04 #@! TA.AperFunction,SMDPad,CuDef*
G36*
G01*
X116900000Y-110049999D02*
X116900000Y-110950001D01*
G75*
G02*
X116650001Y-111200000I-249999J0D01*
G01*
X115949999Y-111200000D01*
G75*
G02*
X115700000Y-110950001I0J249999D01*
G01*
X115700000Y-110049999D01*
G75*
G02*
X115949999Y-109800000I249999J0D01*
G01*
X116650001Y-109800000D01*
G75*
G02*
X116900000Y-110049999I0J-249999D01*
G01*
G37*
G04 #@! TD.AperFunction*
G04 #@! TA.AperFunction,SMDPad,CuDef*
G36*
G01*
X114900000Y-110049999D02*
X114900000Y-110950001D01*
G75*
G02*
X114650001Y-111200000I-249999J0D01*
G01*
X113949999Y-111200000D01*
G75*
G02*
X113700000Y-110950001I0J249999D01*
G01*
X113700000Y-110049999D01*
G75*
G02*
X113949999Y-109800000I249999J0D01*
G01*
X114650001Y-109800000D01*
G75*
G02*
X114900000Y-110049999I0J-249999D01*
G01*
G37*
G04 #@! TD.AperFunction*
D15*
X116675000Y-93200000D03*
X116675000Y-87200000D03*
X112925000Y-87200000D03*
X112925000Y-93200000D03*
D16*
X102400000Y-69825000D03*
X108400000Y-69825000D03*
X108400000Y-73575000D03*
X102400000Y-73575000D03*
D17*
X96050000Y-80700000D03*
X96050000Y-77700000D03*
G04 #@! TA.AperFunction,SMDPad,CuDef*
D10*
G36*
X100000000Y-80066500D02*
G01*
X96875000Y-80066500D01*
X96875000Y-79650000D01*
X95400000Y-79650000D01*
X95400000Y-78750000D01*
X96875000Y-78750000D01*
X96875000Y-78333500D01*
X100000000Y-78333500D01*
X100000000Y-80066500D01*
G37*
G04 #@! TD.AperFunction*
G04 #@! TA.AperFunction,SMDPad,CuDef*
G36*
G01*
X107200000Y-83925000D02*
X107200000Y-83725000D01*
G75*
G02*
X107300000Y-83625000I100000J0D01*
G01*
X108575000Y-83625000D01*
G75*
G02*
X108675000Y-83725000I0J-100000D01*
G01*
X108675000Y-83925000D01*
G75*
G02*
X108575000Y-84025000I-100000J0D01*
G01*
X107300000Y-84025000D01*
G75*
G02*
X107200000Y-83925000I0J100000D01*
G01*
G37*
G04 #@! TD.AperFunction*
G04 #@! TA.AperFunction,SMDPad,CuDef*
G36*
G01*
X107200000Y-83275000D02*
X107200000Y-83075000D01*
G75*
G02*
X107300000Y-82975000I100000J0D01*
G01*
X108575000Y-82975000D01*
G75*
G02*
X108675000Y-83075000I0J-100000D01*
G01*
X108675000Y-83275000D01*
G75*
G02*
X108575000Y-83375000I-100000J0D01*
G01*
X107300000Y-83375000D01*
G75*
G02*
X107200000Y-83275000I0J100000D01*
G01*
G37*
G04 #@! TD.AperFunction*
G04 #@! TA.AperFunction,SMDPad,CuDef*
G36*
G01*
X107200000Y-82625000D02*
X107200000Y-82425000D01*
G75*
G02*
X107300000Y-82325000I100000J0D01*
G01*
X108575000Y-82325000D01*
G75*
G02*
X108675000Y-82425000I0J-100000D01*
G01*
X108675000Y-82625000D01*
G75*
G02*
X108575000Y-82725000I-100000J0D01*
G01*
X107300000Y-82725000D01*
G75*
G02*
X107200000Y-82625000I0J100000D01*
G01*
G37*
G04 #@! TD.AperFunction*
G04 #@! TA.AperFunction,SMDPad,CuDef*
G36*
G01*
X107200000Y-81975000D02*
X107200000Y-81775000D01*
G75*
G02*
X107300000Y-81675000I100000J0D01*
G01*
X108575000Y-81675000D01*
G75*
G02*
X108675000Y-81775000I0J-100000D01*
G01*
X108675000Y-81975000D01*
G75*
G02*
X108575000Y-82075000I-100000J0D01*
G01*
X107300000Y-82075000D01*
G75*
G02*
X107200000Y-81975000I0J100000D01*
G01*
G37*
G04 #@! TD.AperFunction*
G04 #@! TA.AperFunction,SMDPad,CuDef*
G36*
G01*
X107200000Y-81325000D02*
X107200000Y-81125000D01*
G75*
G02*
X107300000Y-81025000I100000J0D01*
G01*
X108575000Y-81025000D01*
G75*
G02*
X108675000Y-81125000I0J-100000D01*
G01*
X108675000Y-81325000D01*
G75*
G02*
X108575000Y-81425000I-100000J0D01*
G01*
X107300000Y-81425000D01*
G75*
G02*
X107200000Y-81325000I0J100000D01*
G01*
G37*
G04 #@! TD.AperFunction*
G04 #@! TA.AperFunction,SMDPad,CuDef*
G36*
G01*
X107200000Y-80675000D02*
X107200000Y-80475000D01*
G75*
G02*
X107300000Y-80375000I100000J0D01*
G01*
X108575000Y-80375000D01*
G75*
G02*
X108675000Y-80475000I0J-100000D01*
G01*
X108675000Y-80675000D01*
G75*
G02*
X108575000Y-80775000I-100000J0D01*
G01*
X107300000Y-80775000D01*
G75*
G02*
X107200000Y-80675000I0J100000D01*
G01*
G37*
G04 #@! TD.AperFunction*
G04 #@! TA.AperFunction,SMDPad,CuDef*
G36*
G01*
X107200000Y-80025000D02*
X107200000Y-79825000D01*
G75*
G02*
X107300000Y-79725000I100000J0D01*
G01*
X108575000Y-79725000D01*
G75*
G02*
X108675000Y-79825000I0J-100000D01*
G01*
X108675000Y-80025000D01*
G75*
G02*
X108575000Y-80125000I-100000J0D01*
G01*
X107300000Y-80125000D01*
G75*
G02*
X107200000Y-80025000I0J100000D01*
G01*
G37*
G04 #@! TD.AperFunction*
G04 #@! TA.AperFunction,SMDPad,CuDef*
G36*
G01*
X107200000Y-79375000D02*
X107200000Y-79175000D01*
G75*
G02*
X107300000Y-79075000I100000J0D01*
G01*
X108575000Y-79075000D01*
G75*
G02*
X108675000Y-79175000I0J-100000D01*
G01*
X108675000Y-79375000D01*
G75*
G02*
X108575000Y-79475000I-100000J0D01*
G01*
X107300000Y-79475000D01*
G75*
G02*
X107200000Y-79375000I0J100000D01*
G01*
G37*
G04 #@! TD.AperFunction*
G04 #@! TA.AperFunction,SMDPad,CuDef*
G36*
G01*
X107200000Y-78725000D02*
X107200000Y-78525000D01*
G75*
G02*
X107300000Y-78425000I100000J0D01*
G01*
X108575000Y-78425000D01*
G75*
G02*
X108675000Y-78525000I0J-100000D01*
G01*
X108675000Y-78725000D01*
G75*
G02*
X108575000Y-78825000I-100000J0D01*
G01*
X107300000Y-78825000D01*
G75*
G02*
X107200000Y-78725000I0J100000D01*
G01*
G37*
G04 #@! TD.AperFunction*
G04 #@! TA.AperFunction,SMDPad,CuDef*
G36*
G01*
X107200000Y-78075000D02*
X107200000Y-77875000D01*
G75*
G02*
X107300000Y-77775000I100000J0D01*
G01*
X108575000Y-77775000D01*
G75*
G02*
X108675000Y-77875000I0J-100000D01*
G01*
X108675000Y-78075000D01*
G75*
G02*
X108575000Y-78175000I-100000J0D01*
G01*
X107300000Y-78175000D01*
G75*
G02*
X107200000Y-78075000I0J100000D01*
G01*
G37*
G04 #@! TD.AperFunction*
G04 #@! TA.AperFunction,SMDPad,CuDef*
G36*
G01*
X112925000Y-78075000D02*
X112925000Y-77875000D01*
G75*
G02*
X113025000Y-77775000I100000J0D01*
G01*
X114300000Y-77775000D01*
G75*
G02*
X114400000Y-77875000I0J-100000D01*
G01*
X114400000Y-78075000D01*
G75*
G02*
X114300000Y-78175000I-100000J0D01*
G01*
X113025000Y-78175000D01*
G75*
G02*
X112925000Y-78075000I0J100000D01*
G01*
G37*
G04 #@! TD.AperFunction*
G04 #@! TA.AperFunction,SMDPad,CuDef*
G36*
G01*
X112925000Y-78725000D02*
X112925000Y-78525000D01*
G75*
G02*
X113025000Y-78425000I100000J0D01*
G01*
X114300000Y-78425000D01*
G75*
G02*
X114400000Y-78525000I0J-100000D01*
G01*
X114400000Y-78725000D01*
G75*
G02*
X114300000Y-78825000I-100000J0D01*
G01*
X113025000Y-78825000D01*
G75*
G02*
X112925000Y-78725000I0J100000D01*
G01*
G37*
G04 #@! TD.AperFunction*
G04 #@! TA.AperFunction,SMDPad,CuDef*
G36*
G01*
X112925000Y-79375000D02*
X112925000Y-79175000D01*
G75*
G02*
X113025000Y-79075000I100000J0D01*
G01*
X114300000Y-79075000D01*
G75*
G02*
X114400000Y-79175000I0J-100000D01*
G01*
X114400000Y-79375000D01*
G75*
G02*
X114300000Y-79475000I-100000J0D01*
G01*
X113025000Y-79475000D01*
G75*
G02*
X112925000Y-79375000I0J100000D01*
G01*
G37*
G04 #@! TD.AperFunction*
G04 #@! TA.AperFunction,SMDPad,CuDef*
G36*
G01*
X112925000Y-80025000D02*
X112925000Y-79825000D01*
G75*
G02*
X113025000Y-79725000I100000J0D01*
G01*
X114300000Y-79725000D01*
G75*
G02*
X114400000Y-79825000I0J-100000D01*
G01*
X114400000Y-80025000D01*
G75*
G02*
X114300000Y-80125000I-100000J0D01*
G01*
X113025000Y-80125000D01*
G75*
G02*
X112925000Y-80025000I0J100000D01*
G01*
G37*
G04 #@! TD.AperFunction*
G04 #@! TA.AperFunction,SMDPad,CuDef*
G36*
G01*
X112925000Y-80675000D02*
X112925000Y-80475000D01*
G75*
G02*
X113025000Y-80375000I100000J0D01*
G01*
X114300000Y-80375000D01*
G75*
G02*
X114400000Y-80475000I0J-100000D01*
G01*
X114400000Y-80675000D01*
G75*
G02*
X114300000Y-80775000I-100000J0D01*
G01*
X113025000Y-80775000D01*
G75*
G02*
X112925000Y-80675000I0J100000D01*
G01*
G37*
G04 #@! TD.AperFunction*
G04 #@! TA.AperFunction,SMDPad,CuDef*
G36*
G01*
X112925000Y-81325000D02*
X112925000Y-81125000D01*
G75*
G02*
X113025000Y-81025000I100000J0D01*
G01*
X114300000Y-81025000D01*
G75*
G02*
X114400000Y-81125000I0J-100000D01*
G01*
X114400000Y-81325000D01*
G75*
G02*
X114300000Y-81425000I-100000J0D01*
G01*
X113025000Y-81425000D01*
G75*
G02*
X112925000Y-81325000I0J100000D01*
G01*
G37*
G04 #@! TD.AperFunction*
G04 #@! TA.AperFunction,SMDPad,CuDef*
G36*
G01*
X112925000Y-81975000D02*
X112925000Y-81775000D01*
G75*
G02*
X113025000Y-81675000I100000J0D01*
G01*
X114300000Y-81675000D01*
G75*
G02*
X114400000Y-81775000I0J-100000D01*
G01*
X114400000Y-81975000D01*
G75*
G02*
X114300000Y-82075000I-100000J0D01*
G01*
X113025000Y-82075000D01*
G75*
G02*
X112925000Y-81975000I0J100000D01*
G01*
G37*
G04 #@! TD.AperFunction*
G04 #@! TA.AperFunction,SMDPad,CuDef*
G36*
G01*
X112925000Y-82625000D02*
X112925000Y-82425000D01*
G75*
G02*
X113025000Y-82325000I100000J0D01*
G01*
X114300000Y-82325000D01*
G75*
G02*
X114400000Y-82425000I0J-100000D01*
G01*
X114400000Y-82625000D01*
G75*
G02*
X114300000Y-82725000I-100000J0D01*
G01*
X113025000Y-82725000D01*
G75*
G02*
X112925000Y-82625000I0J100000D01*
G01*
G37*
G04 #@! TD.AperFunction*
G04 #@! TA.AperFunction,SMDPad,CuDef*
G36*
G01*
X112925000Y-83275000D02*
X112925000Y-83075000D01*
G75*
G02*
X113025000Y-82975000I100000J0D01*
G01*
X114300000Y-82975000D01*
G75*
G02*
X114400000Y-83075000I0J-100000D01*
G01*
X114400000Y-83275000D01*
G75*
G02*
X114300000Y-83375000I-100000J0D01*
G01*
X113025000Y-83375000D01*
G75*
G02*
X112925000Y-83275000I0J100000D01*
G01*
G37*
G04 #@! TD.AperFunction*
G04 #@! TA.AperFunction,SMDPad,CuDef*
G36*
G01*
X112925000Y-83925000D02*
X112925000Y-83725000D01*
G75*
G02*
X113025000Y-83625000I100000J0D01*
G01*
X114300000Y-83625000D01*
G75*
G02*
X114400000Y-83725000I0J-100000D01*
G01*
X114400000Y-83925000D01*
G75*
G02*
X114300000Y-84025000I-100000J0D01*
G01*
X113025000Y-84025000D01*
G75*
G02*
X112925000Y-83925000I0J100000D01*
G01*
G37*
G04 #@! TD.AperFunction*
D18*
X117592500Y-118000000D03*
X116957500Y-118000000D03*
X116322500Y-118000000D03*
X115687500Y-118000000D03*
X115052500Y-118000000D03*
X114417500Y-118000000D03*
X113782500Y-118000000D03*
X113147500Y-118000000D03*
X112512500Y-118000000D03*
X111877500Y-118000000D03*
X111242500Y-118000000D03*
X110607500Y-118000000D03*
X110607500Y-112800000D03*
X111242500Y-112800000D03*
X111877500Y-112800000D03*
X112512500Y-112800000D03*
X113147500Y-112800000D03*
X113782500Y-112800000D03*
X114417500Y-112800000D03*
X115052500Y-112800000D03*
X115687500Y-112800000D03*
X116322500Y-112800000D03*
X116957500Y-112800000D03*
X117592500Y-112800000D03*
G04 #@! TA.AperFunction,SMDPad,CuDef*
G36*
G01*
X121428024Y-78134000D02*
X121428024Y-79384000D01*
G75*
G02*
X121178024Y-79634000I-250000J0D01*
G01*
X120253024Y-79634000D01*
G75*
G02*
X120003024Y-79384000I0J250000D01*
G01*
X120003024Y-78134000D01*
G75*
G02*
X120253024Y-77884000I250000J0D01*
G01*
X121178024Y-77884000D01*
G75*
G02*
X121428024Y-78134000I0J-250000D01*
G01*
G37*
G04 #@! TD.AperFunction*
G04 #@! TA.AperFunction,SMDPad,CuDef*
G36*
G01*
X118453024Y-78134000D02*
X118453024Y-79384000D01*
G75*
G02*
X118203024Y-79634000I-250000J0D01*
G01*
X117278024Y-79634000D01*
G75*
G02*
X117028024Y-79384000I0J250000D01*
G01*
X117028024Y-78134000D01*
G75*
G02*
X117278024Y-77884000I250000J0D01*
G01*
X118203024Y-77884000D01*
G75*
G02*
X118453024Y-78134000I0J-250000D01*
G01*
G37*
G04 #@! TD.AperFunction*
G04 #@! TA.AperFunction,SMDPad,CuDef*
G36*
G01*
X108234436Y-64890000D02*
X109484436Y-64890000D01*
G75*
G02*
X109734436Y-65140000I0J-250000D01*
G01*
X109734436Y-66065000D01*
G75*
G02*
X109484436Y-66315000I-250000J0D01*
G01*
X108234436Y-66315000D01*
G75*
G02*
X107984436Y-66065000I0J250000D01*
G01*
X107984436Y-65140000D01*
G75*
G02*
X108234436Y-64890000I250000J0D01*
G01*
G37*
G04 #@! TD.AperFunction*
G04 #@! TA.AperFunction,SMDPad,CuDef*
G36*
G01*
X108234436Y-61915000D02*
X109484436Y-61915000D01*
G75*
G02*
X109734436Y-62165000I0J-250000D01*
G01*
X109734436Y-63090000D01*
G75*
G02*
X109484436Y-63340000I-250000J0D01*
G01*
X108234436Y-63340000D01*
G75*
G02*
X107984436Y-63090000I0J250000D01*
G01*
X107984436Y-62165000D01*
G75*
G02*
X108234436Y-61915000I250000J0D01*
G01*
G37*
G04 #@! TD.AperFunction*
G04 #@! TA.AperFunction,SMDPad,CuDef*
G36*
G01*
X90790972Y-73958000D02*
X90790972Y-75208000D01*
G75*
G02*
X90540972Y-75458000I-250000J0D01*
G01*
X89615972Y-75458000D01*
G75*
G02*
X89365972Y-75208000I0J250000D01*
G01*
X89365972Y-73958000D01*
G75*
G02*
X89615972Y-73708000I250000J0D01*
G01*
X90540972Y-73708000D01*
G75*
G02*
X90790972Y-73958000I0J-250000D01*
G01*
G37*
G04 #@! TD.AperFunction*
G04 #@! TA.AperFunction,SMDPad,CuDef*
G36*
G01*
X87815972Y-73958000D02*
X87815972Y-75208000D01*
G75*
G02*
X87565972Y-75458000I-250000J0D01*
G01*
X86640972Y-75458000D01*
G75*
G02*
X86390972Y-75208000I0J250000D01*
G01*
X86390972Y-73958000D01*
G75*
G02*
X86640972Y-73708000I250000J0D01*
G01*
X87565972Y-73708000D01*
G75*
G02*
X87815972Y-73958000I0J-250000D01*
G01*
G37*
G04 #@! TD.AperFunction*
G04 #@! TA.AperFunction,SMDPad,CuDef*
G36*
G01*
X131234814Y-138411244D02*
X132317346Y-139036244D01*
G75*
G02*
X132408852Y-139377750I-125000J-216506D01*
G01*
X131946352Y-140178824D01*
G75*
G02*
X131604846Y-140270330I-216506J125000D01*
G01*
X130522314Y-139645330D01*
G75*
G02*
X130430808Y-139303824I125000J216506D01*
G01*
X130893308Y-138502750D01*
G75*
G02*
X131234814Y-138411244I216506J-125000D01*
G01*
G37*
G04 #@! TD.AperFunction*
G04 #@! TA.AperFunction,SMDPad,CuDef*
G36*
G01*
X129747314Y-140987670D02*
X130829846Y-141612670D01*
G75*
G02*
X130921352Y-141954176I-125000J-216506D01*
G01*
X130458852Y-142755250D01*
G75*
G02*
X130117346Y-142846756I-216506J125000D01*
G01*
X129034814Y-142221756D01*
G75*
G02*
X128943308Y-141880250I125000J216506D01*
G01*
X129405808Y-141079176D01*
G75*
G02*
X129747314Y-140987670I216506J-125000D01*
G01*
G37*
G04 #@! TD.AperFunction*
G04 #@! TA.AperFunction,SMDPad,CuDef*
G36*
G01*
X106625000Y-130675000D02*
X106625000Y-131925000D01*
G75*
G02*
X106375000Y-132175000I-250000J0D01*
G01*
X105450000Y-132175000D01*
G75*
G02*
X105200000Y-131925000I0J250000D01*
G01*
X105200000Y-130675000D01*
G75*
G02*
X105450000Y-130425000I250000J0D01*
G01*
X106375000Y-130425000D01*
G75*
G02*
X106625000Y-130675000I0J-250000D01*
G01*
G37*
G04 #@! TD.AperFunction*
G04 #@! TA.AperFunction,SMDPad,CuDef*
G36*
G01*
X109600000Y-130675000D02*
X109600000Y-131925000D01*
G75*
G02*
X109350000Y-132175000I-250000J0D01*
G01*
X108425000Y-132175000D01*
G75*
G02*
X108175000Y-131925000I0J250000D01*
G01*
X108175000Y-130675000D01*
G75*
G02*
X108425000Y-130425000I250000J0D01*
G01*
X109350000Y-130425000D01*
G75*
G02*
X109600000Y-130675000I0J-250000D01*
G01*
G37*
G04 #@! TD.AperFunction*
G04 #@! TA.AperFunction,SMDPad,CuDef*
G36*
G01*
X109400000Y-128175000D02*
X109400000Y-129425000D01*
G75*
G02*
X109150000Y-129675000I-250000J0D01*
G01*
X108225000Y-129675000D01*
G75*
G02*
X107975000Y-129425000I0J250000D01*
G01*
X107975000Y-128175000D01*
G75*
G02*
X108225000Y-127925000I250000J0D01*
G01*
X109150000Y-127925000D01*
G75*
G02*
X109400000Y-128175000I0J-250000D01*
G01*
G37*
G04 #@! TD.AperFunction*
G04 #@! TA.AperFunction,SMDPad,CuDef*
G36*
G01*
X106425000Y-128175000D02*
X106425000Y-129425000D01*
G75*
G02*
X106175000Y-129675000I-250000J0D01*
G01*
X105250000Y-129675000D01*
G75*
G02*
X105000000Y-129425000I0J250000D01*
G01*
X105000000Y-128175000D01*
G75*
G02*
X105250000Y-127925000I250000J0D01*
G01*
X106175000Y-127925000D01*
G75*
G02*
X106425000Y-128175000I0J-250000D01*
G01*
G37*
G04 #@! TD.AperFunction*
G04 #@! TA.AperFunction,SMDPad,CuDef*
G36*
G01*
X106225000Y-125675000D02*
X106225000Y-126925000D01*
G75*
G02*
X105975000Y-127175000I-250000J0D01*
G01*
X105050000Y-127175000D01*
G75*
G02*
X104800000Y-126925000I0J250000D01*
G01*
X104800000Y-125675000D01*
G75*
G02*
X105050000Y-125425000I250000J0D01*
G01*
X105975000Y-125425000D01*
G75*
G02*
X106225000Y-125675000I0J-250000D01*
G01*
G37*
G04 #@! TD.AperFunction*
G04 #@! TA.AperFunction,SMDPad,CuDef*
G36*
G01*
X109200000Y-125675000D02*
X109200000Y-126925000D01*
G75*
G02*
X108950000Y-127175000I-250000J0D01*
G01*
X108025000Y-127175000D01*
G75*
G02*
X107775000Y-126925000I0J250000D01*
G01*
X107775000Y-125675000D01*
G75*
G02*
X108025000Y-125425000I250000J0D01*
G01*
X108950000Y-125425000D01*
G75*
G02*
X109200000Y-125675000I0J-250000D01*
G01*
G37*
G04 #@! TD.AperFunction*
G04 #@! TA.AperFunction,SMDPad,CuDef*
G36*
G01*
X99533344Y-144948000D02*
X99533344Y-146198000D01*
G75*
G02*
X99283344Y-146448000I-250000J0D01*
G01*
X98358344Y-146448000D01*
G75*
G02*
X98108344Y-146198000I0J250000D01*
G01*
X98108344Y-144948000D01*
G75*
G02*
X98358344Y-144698000I250000J0D01*
G01*
X99283344Y-144698000D01*
G75*
G02*
X99533344Y-144948000I0J-250000D01*
G01*
G37*
G04 #@! TD.AperFunction*
G04 #@! TA.AperFunction,SMDPad,CuDef*
G36*
G01*
X96558344Y-144948000D02*
X96558344Y-146198000D01*
G75*
G02*
X96308344Y-146448000I-250000J0D01*
G01*
X95383344Y-146448000D01*
G75*
G02*
X95133344Y-146198000I0J250000D01*
G01*
X95133344Y-144948000D01*
G75*
G02*
X95383344Y-144698000I250000J0D01*
G01*
X96308344Y-144698000D01*
G75*
G02*
X96558344Y-144948000I0J-250000D01*
G01*
G37*
G04 #@! TD.AperFunction*
G04 #@! TA.AperFunction,SMDPad,CuDef*
G36*
G01*
X101863279Y-113316000D02*
X101863279Y-114566000D01*
G75*
G02*
X101613279Y-114816000I-250000J0D01*
G01*
X100688279Y-114816000D01*
G75*
G02*
X100438279Y-114566000I0J250000D01*
G01*
X100438279Y-113316000D01*
G75*
G02*
X100688279Y-113066000I250000J0D01*
G01*
X101613279Y-113066000D01*
G75*
G02*
X101863279Y-113316000I0J-250000D01*
G01*
G37*
G04 #@! TD.AperFunction*
G04 #@! TA.AperFunction,SMDPad,CuDef*
G36*
G01*
X104838279Y-113316000D02*
X104838279Y-114566000D01*
G75*
G02*
X104588279Y-114816000I-250000J0D01*
G01*
X103663279Y-114816000D01*
G75*
G02*
X103413279Y-114566000I0J250000D01*
G01*
X103413279Y-113316000D01*
G75*
G02*
X103663279Y-113066000I250000J0D01*
G01*
X104588279Y-113066000D01*
G75*
G02*
X104838279Y-113316000I0J-250000D01*
G01*
G37*
G04 #@! TD.AperFunction*
G04 #@! TA.AperFunction,SMDPad,CuDef*
G36*
G01*
X110249830Y-109978000D02*
X110249830Y-111228000D01*
G75*
G02*
X109999830Y-111478000I-250000J0D01*
G01*
X109074830Y-111478000D01*
G75*
G02*
X108824830Y-111228000I0J250000D01*
G01*
X108824830Y-109978000D01*
G75*
G02*
X109074830Y-109728000I250000J0D01*
G01*
X109999830Y-109728000D01*
G75*
G02*
X110249830Y-109978000I0J-250000D01*
G01*
G37*
G04 #@! TD.AperFunction*
G04 #@! TA.AperFunction,SMDPad,CuDef*
G36*
G01*
X107274830Y-109978000D02*
X107274830Y-111228000D01*
G75*
G02*
X107024830Y-111478000I-250000J0D01*
G01*
X106099830Y-111478000D01*
G75*
G02*
X105849830Y-111228000I0J250000D01*
G01*
X105849830Y-109978000D01*
G75*
G02*
X106099830Y-109728000I250000J0D01*
G01*
X107024830Y-109728000D01*
G75*
G02*
X107274830Y-109978000I0J-250000D01*
G01*
G37*
G04 #@! TD.AperFunction*
G04 #@! TA.AperFunction,SMDPad,CuDef*
G36*
G01*
X112132443Y-106768000D02*
X112132443Y-108018000D01*
G75*
G02*
X111882443Y-108268000I-250000J0D01*
G01*
X110957443Y-108268000D01*
G75*
G02*
X110707443Y-108018000I0J250000D01*
G01*
X110707443Y-106768000D01*
G75*
G02*
X110957443Y-106518000I250000J0D01*
G01*
X111882443Y-106518000D01*
G75*
G02*
X112132443Y-106768000I0J-250000D01*
G01*
G37*
G04 #@! TD.AperFunction*
G04 #@! TA.AperFunction,SMDPad,CuDef*
G36*
G01*
X115107443Y-106768000D02*
X115107443Y-108018000D01*
G75*
G02*
X114857443Y-108268000I-250000J0D01*
G01*
X113932443Y-108268000D01*
G75*
G02*
X113682443Y-108018000I0J250000D01*
G01*
X113682443Y-106768000D01*
G75*
G02*
X113932443Y-106518000I250000J0D01*
G01*
X114857443Y-106518000D01*
G75*
G02*
X115107443Y-106768000I0J-250000D01*
G01*
G37*
G04 #@! TD.AperFunction*
D19*
X109000000Y-85000000D03*
X96000000Y-81000000D03*
X103300000Y-138700000D03*
X103963893Y-141455271D03*
X98000000Y-84000000D03*
X115000000Y-80200000D03*
X118300000Y-118000000D03*
X113600000Y-110500000D03*
X120600000Y-131100000D03*
X101600000Y-117800000D03*
X98900000Y-117800000D03*
X115454450Y-86743797D03*
X103900000Y-78700000D03*
X115236054Y-85746927D03*
X105000000Y-77800000D03*
X114887183Y-83175061D03*
X118400000Y-101800000D03*
X120100000Y-116100000D03*
X114900000Y-84174990D03*
X110230894Y-81243177D03*
X110750001Y-75049999D03*
X109374990Y-80430866D03*
X109900000Y-74500000D03*
X119161357Y-110113633D03*
X116424710Y-109000000D03*
X111874980Y-82800000D03*
X119575021Y-85000000D03*
D20*
X96507500Y-84182500D02*
X95925000Y-83600000D01*
X96507500Y-87486711D02*
X96507500Y-84182500D01*
X95925000Y-83600000D02*
X95245472Y-83600000D01*
X95245472Y-83600000D02*
X92472736Y-80827264D01*
X110540232Y-106513289D02*
X111419943Y-107393000D01*
X107492500Y-106513289D02*
X110540232Y-106513289D01*
X105849830Y-110603000D02*
X106562330Y-110603000D01*
X105757649Y-108248140D02*
X105757649Y-110510819D01*
X105757649Y-110510819D02*
X105849830Y-110603000D01*
X107492500Y-106513289D02*
X105757649Y-108248140D01*
X101150779Y-113941000D02*
X101150779Y-113066000D01*
X95845844Y-144698000D02*
X95845844Y-145573000D01*
X95845844Y-143745844D02*
X95845844Y-144698000D01*
X107200000Y-120900000D02*
X107200000Y-124512500D01*
X107200000Y-124512500D02*
X105412500Y-126300000D01*
X100749998Y-118208002D02*
X103441996Y-120900000D01*
X103441996Y-120900000D02*
X107200000Y-120900000D01*
X106562330Y-110603000D02*
X103830316Y-110603000D01*
X103830316Y-110603000D02*
X100749998Y-113683318D01*
X100749998Y-113683318D02*
X100749998Y-118208002D01*
X87678460Y-73133012D02*
X87103472Y-73708000D01*
X87103472Y-73708000D02*
X87103472Y-74583000D01*
X95845844Y-143745844D02*
X95845844Y-146232281D01*
X100961824Y-147175010D02*
X103736834Y-144400000D01*
X96788573Y-147175010D02*
X100961824Y-147175010D01*
X105712500Y-131300000D02*
X105712500Y-137535804D01*
X99502460Y-143745844D02*
X95845844Y-143745844D01*
X105712500Y-137535804D02*
X99502460Y-143745844D01*
X95845844Y-146232281D02*
X96788573Y-147175010D01*
X127449543Y-144400000D02*
X129932330Y-141917213D01*
X103736834Y-144400000D02*
X127449543Y-144400000D01*
X105912500Y-126300000D02*
X105912500Y-128800000D01*
X105912500Y-128800000D02*
X105912500Y-131300000D01*
X103096792Y-65602500D02*
X101809375Y-64315083D01*
X108859436Y-65602500D02*
X103096792Y-65602500D01*
X97283683Y-64315083D02*
X95686234Y-65125238D01*
X101809375Y-64315083D02*
X97283683Y-64315083D01*
X95686234Y-65125238D02*
X89205736Y-71605736D01*
X89205736Y-71605736D02*
X87678460Y-73133012D01*
X89705736Y-71605736D02*
X89205736Y-71605736D01*
X92472736Y-74372736D02*
X89705736Y-71605736D01*
X92500000Y-79200000D02*
X92472736Y-79172736D01*
X96137500Y-79200000D02*
X92500000Y-79200000D01*
X92472736Y-80827264D02*
X92472736Y-79172736D01*
X92472736Y-79172736D02*
X92472736Y-74372736D01*
X117059000Y-78759000D02*
X117740524Y-78759000D01*
X114900000Y-76600000D02*
X117059000Y-78759000D01*
X109700000Y-76600000D02*
X114900000Y-76600000D01*
X106600000Y-73500000D02*
X109700000Y-76600000D01*
X108859436Y-65602500D02*
X106600000Y-67861936D01*
X106600000Y-67861936D02*
X106600000Y-73500000D01*
X99800000Y-99200000D02*
X102000000Y-97000000D01*
X103300000Y-138700000D02*
X99800000Y-135200000D01*
X99800000Y-135200000D02*
X99800000Y-99200000D01*
X126092500Y-140613289D02*
X104805875Y-140613289D01*
X104805875Y-140613289D02*
X103963893Y-141455271D01*
X97600000Y-83600000D02*
X98000000Y-84000000D01*
X97475000Y-83600000D02*
X97600000Y-83600000D01*
X109125000Y-85000000D02*
X109425000Y-85300000D01*
X109000000Y-85000000D02*
X109125000Y-85000000D01*
X115300000Y-80575000D02*
X115325000Y-80600000D01*
X113662500Y-80575000D02*
X115300000Y-80575000D01*
D21*
X115325000Y-80600000D02*
X115325000Y-80525000D01*
X115325000Y-80525000D02*
X115000000Y-80200000D01*
D20*
X117592500Y-118000000D02*
X118300000Y-118000000D01*
D21*
X114300000Y-110500000D02*
X113600000Y-110500000D01*
D20*
X104950000Y-81225000D02*
X104500000Y-80775000D01*
X107937500Y-81225000D02*
X104950000Y-81225000D01*
X103077912Y-80775000D02*
X104500000Y-80775000D01*
X100002912Y-77700000D02*
X103077912Y-80775000D01*
X96050000Y-77700000D02*
X100002912Y-77700000D01*
X96125000Y-77625000D02*
X96050000Y-77700000D01*
X114275000Y-100950000D02*
X116125000Y-99100000D01*
X114200000Y-100950000D02*
X114275000Y-100950000D01*
X116125000Y-93750000D02*
X116675000Y-93200000D01*
X116125000Y-99100000D02*
X116125000Y-93750000D01*
X116675000Y-87200000D02*
X116675000Y-93200000D01*
X116767563Y-80707437D02*
X116875000Y-80600000D01*
X116675000Y-87200000D02*
X116767563Y-87107437D01*
X116767563Y-87107437D02*
X116767563Y-80707437D01*
X104500000Y-79897166D02*
X107072176Y-77324990D01*
X104500000Y-80775000D02*
X104500000Y-79897166D01*
X107072176Y-77324990D02*
X108324990Y-77324990D01*
X116578014Y-80303014D02*
X116875000Y-80600000D01*
X114527824Y-77324990D02*
X116578014Y-79375180D01*
X116578014Y-79375180D02*
X116578014Y-80303014D01*
X108324990Y-77324990D02*
X114527824Y-77324990D01*
X114950638Y-81552010D02*
X116122990Y-81552010D01*
X116122990Y-81552010D02*
X116975000Y-80700000D01*
X114623628Y-81225000D02*
X114950638Y-81552010D01*
X113662500Y-81225000D02*
X114623628Y-81225000D01*
X107072176Y-75372176D02*
X107072176Y-77324990D01*
X102400000Y-70700000D02*
X107072176Y-75372176D01*
X102400000Y-69825000D02*
X102400000Y-70700000D01*
D21*
X118850011Y-101177007D02*
X118850011Y-83186400D01*
X122203045Y-77709420D02*
X121866203Y-77372579D01*
X119125002Y-102148002D02*
X119125002Y-101451998D01*
X118850011Y-83186400D02*
X122203045Y-79833366D01*
X121866203Y-77372579D02*
X121866203Y-73055914D01*
X122203045Y-79833366D02*
X122203045Y-77709420D01*
X119125002Y-101451998D02*
X118850011Y-101177007D01*
X111437789Y-62627500D02*
X108859436Y-62627500D01*
X121866203Y-73055914D02*
X111437789Y-62627500D01*
X118299742Y-102973262D02*
X119125002Y-102148002D01*
X118436355Y-108999722D02*
X118299742Y-108863109D01*
X118299742Y-108863109D02*
X118299742Y-102973262D01*
X118436355Y-110461635D02*
X118436355Y-108999722D01*
X118649988Y-110675268D02*
X118436355Y-110461635D01*
X118649988Y-113648277D02*
X118649988Y-110675268D01*
X115052500Y-117245765D02*
X118649988Y-113648277D01*
X115052500Y-118000000D02*
X115052500Y-117245765D01*
X118199977Y-113461877D02*
X118199977Y-110861668D01*
X114417500Y-118000000D02*
X114417500Y-117244354D01*
X114417500Y-117244354D02*
X118199977Y-113461877D01*
X117674998Y-102148002D02*
X117674998Y-82674526D01*
X117674998Y-82674526D02*
X120715524Y-79634000D01*
X118199977Y-110861668D02*
X117986344Y-110648035D01*
X117986344Y-109186122D02*
X117849731Y-109049509D01*
X120715524Y-79634000D02*
X120715524Y-78759000D01*
X117849731Y-109049509D02*
X117849731Y-102322735D01*
X117986344Y-110648035D02*
X117986344Y-109186122D01*
X117849731Y-102322735D02*
X117674998Y-102148002D01*
X92500000Y-101153002D02*
X92500000Y-97726416D01*
X91500000Y-76004528D02*
X90078472Y-74583000D01*
X92500000Y-97726416D02*
X91500000Y-96726416D01*
X98900000Y-117800000D02*
X98900000Y-107553002D01*
X91500000Y-96726416D02*
X91500000Y-76004528D01*
X98900000Y-107553002D02*
X92500000Y-101153002D01*
X102625001Y-116774999D02*
X101600000Y-117800000D01*
X113407499Y-116774999D02*
X102625001Y-116774999D01*
X113782500Y-117150000D02*
X113407499Y-116774999D01*
X113782500Y-118000000D02*
X113782500Y-117150000D01*
X113147500Y-118850000D02*
X113222501Y-118925001D01*
X128665031Y-125465031D02*
X131500000Y-130739084D01*
X131500000Y-139260617D02*
X131419830Y-139340787D01*
X113147500Y-118000000D02*
X113147500Y-118850000D01*
X122125001Y-118925001D02*
X128665031Y-125465031D01*
X113222501Y-118925001D02*
X122125001Y-118925001D01*
X131500000Y-130739084D02*
X131500000Y-139260617D01*
X110900022Y-120499978D02*
X110900022Y-133493822D01*
X110900022Y-133493822D02*
X98820844Y-145573000D01*
X112512500Y-118000000D02*
X112512500Y-118887500D01*
X112512500Y-118887500D02*
X110900022Y-120499978D01*
X110450011Y-129537489D02*
X109369815Y-130617685D01*
X111877500Y-118850000D02*
X110450011Y-120277489D01*
X110450011Y-120277489D02*
X110450011Y-129537489D01*
X111877500Y-118000000D02*
X111877500Y-118850000D01*
X110000000Y-127187500D02*
X108943185Y-128244315D01*
X110000000Y-120091090D02*
X110000000Y-127187500D01*
X111242500Y-118848590D02*
X110000000Y-120091090D01*
X111242500Y-118000000D02*
X111242500Y-118848590D01*
X108810355Y-119797145D02*
X108810355Y-125877145D01*
X110607500Y-118000000D02*
X108810355Y-119797145D01*
X105266779Y-112800000D02*
X104125779Y-113941000D01*
X110607500Y-112800000D02*
X105266779Y-112800000D01*
X111242500Y-111595670D02*
X111242500Y-112800000D01*
X110249830Y-110603000D02*
X111242500Y-111595670D01*
X109537330Y-110603000D02*
X110249830Y-110603000D01*
X114394943Y-107866706D02*
X114394943Y-107393000D01*
X111877500Y-110384149D02*
X114394943Y-107866706D01*
X111877500Y-112800000D02*
X111877500Y-110384149D01*
X115475556Y-82054021D02*
X116075013Y-82653478D01*
X113662500Y-81875000D02*
X113841521Y-82054021D01*
X116075013Y-86123234D02*
X115454450Y-86743797D01*
X116075013Y-82653478D02*
X116075013Y-86123234D01*
X113841521Y-82054021D02*
X115475556Y-82054021D01*
X96700000Y-71500000D02*
X96700000Y-68000000D01*
X103900000Y-78700000D02*
X96700000Y-71500000D01*
X115625002Y-85357979D02*
X115236054Y-85746927D01*
X115223064Y-82450060D02*
X115625002Y-82851998D01*
X113662500Y-82525000D02*
X113737440Y-82450060D01*
X115625002Y-82851998D02*
X115625002Y-85357979D01*
X113737440Y-82450060D02*
X115223064Y-82450060D01*
X98942687Y-72742687D02*
X98942687Y-66807542D01*
X105000000Y-77800000D02*
X104000000Y-77800000D01*
X104000000Y-77800000D02*
X98942687Y-72742687D01*
X113662500Y-83175000D02*
X114887122Y-83175000D01*
X114887122Y-83175000D02*
X114887183Y-83175061D01*
X121753034Y-77895820D02*
X121753034Y-79646966D01*
X118100000Y-74242786D02*
X121753034Y-77895820D01*
X118100000Y-72900000D02*
X118100000Y-74242786D01*
X118400000Y-83000000D02*
X118400000Y-101800000D01*
X121753034Y-79646966D02*
X118400000Y-83000000D01*
X118107498Y-116100000D02*
X116957500Y-117249998D01*
X120100000Y-116100000D02*
X118107498Y-116100000D01*
X116957500Y-117249998D02*
X116957500Y-118000000D01*
X113662500Y-83825000D02*
X114550010Y-83825000D01*
X114550010Y-83825000D02*
X114900000Y-84174990D01*
X105050000Y-81875000D02*
X104500000Y-82425000D01*
X107937500Y-81875000D02*
X105050000Y-81875000D01*
X107937500Y-81875000D02*
X109599071Y-81875000D01*
X109599071Y-81875000D02*
X110230894Y-81243177D01*
X115186232Y-70613768D02*
X110750001Y-75049999D01*
X115186232Y-68738708D02*
X115186232Y-70613768D01*
X113424999Y-101610001D02*
X113424999Y-100289999D01*
X114200000Y-102024990D02*
X113850011Y-101675001D01*
X113489999Y-101675001D02*
X113424999Y-101610001D01*
X114200000Y-102850000D02*
X114200000Y-102024990D01*
X113850011Y-101675001D02*
X113489999Y-101675001D01*
X113825001Y-100224999D02*
X114475000Y-99575000D01*
X113424999Y-100289999D02*
X113489999Y-100224999D01*
X113489999Y-100224999D02*
X113825001Y-100224999D01*
X114475000Y-99575000D02*
X114475000Y-99100000D01*
X112925000Y-78625000D02*
X112599990Y-78950010D01*
X112599990Y-78950010D02*
X112599990Y-84183865D01*
X112599990Y-84183865D02*
X114525023Y-86108898D01*
X114525023Y-86108898D02*
X114525023Y-99049977D01*
X114525023Y-99049977D02*
X114475000Y-99100000D01*
X113662500Y-78625000D02*
X112925000Y-78625000D01*
D20*
X117274720Y-102974720D02*
X117274720Y-109287686D01*
X117274720Y-109287686D02*
X117411333Y-109424299D01*
X117411333Y-109424299D02*
X117411333Y-110886212D01*
X117411333Y-110886212D02*
X117607501Y-111082380D01*
X117607501Y-111082380D02*
X117607501Y-112784999D01*
X116200000Y-101900000D02*
X117274720Y-102974720D01*
D21*
X107775000Y-83987500D02*
X107937500Y-83825000D01*
X107775000Y-85300000D02*
X107775000Y-83987500D01*
X109200000Y-87200000D02*
X112925000Y-87200000D01*
X107775000Y-85775000D02*
X109200000Y-87200000D01*
X107775000Y-85300000D02*
X107775000Y-85775000D01*
X116957500Y-112800000D02*
X116957500Y-111950000D01*
X116957500Y-111950000D02*
X116300000Y-111292500D01*
X116300000Y-111292500D02*
X116300000Y-110500000D01*
X107937500Y-80575000D02*
X109230856Y-80575000D01*
X109230856Y-80575000D02*
X109374990Y-80430866D01*
X108975000Y-73575000D02*
X109900000Y-74500000D01*
X108400000Y-73575000D02*
X108975000Y-73575000D01*
X115687500Y-111500690D02*
X115374990Y-111188180D01*
X111699968Y-102797335D02*
X111699968Y-89885034D01*
X115687500Y-106784866D02*
X111699968Y-102797335D01*
X113625000Y-87960002D02*
X113625000Y-86481698D01*
X115374990Y-109811820D02*
X115687500Y-109499310D01*
X115374990Y-111188180D02*
X115374990Y-109811820D01*
X110955904Y-82009663D02*
X110955904Y-80892316D01*
X110699968Y-82265599D02*
X110955904Y-82009663D01*
X113625000Y-86481698D02*
X110699968Y-83556666D01*
X111699968Y-89885034D02*
X113625000Y-87960002D01*
X109338590Y-79275000D02*
X107937500Y-79275000D01*
X110699968Y-83556666D02*
X110699968Y-82265599D01*
X115687500Y-109499310D02*
X115687500Y-106784866D01*
X110955904Y-80892316D02*
X109338590Y-79275000D01*
X115687500Y-112800000D02*
X115687500Y-111500690D01*
X108675000Y-77975000D02*
X111405915Y-80705915D01*
X107937500Y-77975000D02*
X108675000Y-77975000D01*
X114075011Y-86295298D02*
X114075011Y-98282511D01*
X111405915Y-80705915D02*
X111405915Y-82196063D01*
X111149979Y-83370266D02*
X114075011Y-86295298D01*
X116424710Y-106509711D02*
X116424710Y-109000000D01*
X111405915Y-82196063D02*
X111149979Y-82451999D01*
X112974991Y-99382531D02*
X112974988Y-103059989D01*
X111149979Y-82451999D02*
X111149979Y-83370266D01*
X112974988Y-103059989D02*
X116424710Y-106509711D01*
X114075011Y-98282511D02*
X112974991Y-99382531D01*
X115687500Y-118000000D02*
X115687500Y-117247176D01*
X119161357Y-113773319D02*
X119161357Y-110113633D01*
X115687500Y-117247176D02*
X119161357Y-113773319D01*
X112925000Y-77975000D02*
X113662500Y-77975000D01*
X111874980Y-79025020D02*
X112925000Y-77975000D01*
X111874980Y-82800000D02*
X111874980Y-79025020D01*
X120287682Y-110214638D02*
X118749753Y-108676709D01*
X119575021Y-102334394D02*
X119575021Y-85000000D01*
X120287682Y-113283405D02*
X120287682Y-110214638D01*
X116322500Y-118000000D02*
X116322500Y-117248587D01*
X116322500Y-117248587D02*
X120287682Y-113283405D01*
X118749753Y-103159662D02*
X119575021Y-102334394D01*
X118749753Y-108676709D02*
X118749753Y-103159662D01*
M02*
