G04 #@! TF.GenerationSoftware,KiCad,Pcbnew,5.1.7*
G04 #@! TF.CreationDate,2020-12-05T21:44:05-08:00*
G04 #@! TF.ProjectId,xmascard2020,786d6173-6361-4726-9432-3032302e6b69,rev?*
G04 #@! TF.SameCoordinates,Original*
G04 #@! TF.FileFunction,Copper,L1,Top*
G04 #@! TF.FilePolarity,Positive*
%FSLAX46Y46*%
G04 Gerber Fmt 4.6, Leading zero omitted, Abs format (unit mm)*
G04 Created by KiCad (PCBNEW 5.1.7) date 2020-12-05 21:44:05*
%MOMM*%
%LPD*%
G01*
G04 APERTURE LIST*
G04 #@! TA.AperFunction,ComponentPad*
%ADD10O,1.750000X1.200000*%
G04 #@! TD*
G04 #@! TA.AperFunction,ComponentPad*
%ADD11C,0.100000*%
G04 #@! TD*
G04 #@! TA.AperFunction,ViaPad*
%ADD12C,0.800000*%
G04 #@! TD*
G04 #@! TA.AperFunction,Conductor*
%ADD13C,0.500000*%
G04 #@! TD*
G04 #@! TA.AperFunction,Conductor*
%ADD14C,0.250000*%
G04 #@! TD*
G04 #@! TA.AperFunction,Conductor*
%ADD15C,0.254000*%
G04 #@! TD*
G04 #@! TA.AperFunction,Conductor*
%ADD16C,0.100000*%
G04 #@! TD*
G04 APERTURE END LIST*
G04 #@! TA.AperFunction,ComponentPad*
G36*
G01*
X107825001Y-121500000D02*
X106574999Y-121500000D01*
G75*
G02*
X106325000Y-121250001I0J249999D01*
G01*
X106325000Y-120549999D01*
G75*
G02*
X106574999Y-120300000I249999J0D01*
G01*
X107825001Y-120300000D01*
G75*
G02*
X108075000Y-120549999I0J-249999D01*
G01*
X108075000Y-121250001D01*
G75*
G02*
X107825001Y-121500000I-249999J0D01*
G01*
G37*
G04 #@! TD.AperFunction*
D10*
X107200000Y-118900000D03*
G04 #@! TA.AperFunction,ComponentPad*
D11*
G36*
X95550444Y-67648545D02*
G01*
X97051455Y-66850444D01*
X97849556Y-68351455D01*
X96348545Y-69149556D01*
X95550444Y-67648545D01*
G37*
G04 #@! TD.AperFunction*
G04 #@! TA.AperFunction,ComponentPad*
G36*
G01*
X98543636Y-66057037D02*
X98543636Y-66057037D01*
G75*
G02*
X99693192Y-66408491I399051J-750505D01*
G01*
X99693192Y-66408491D01*
G75*
G02*
X99341738Y-67558047I-750505J-399051D01*
G01*
X99341738Y-67558047D01*
G75*
G02*
X98192182Y-67206593I-399051J750505D01*
G01*
X98192182Y-67206593D01*
G75*
G02*
X98543636Y-66057037I750505J399051D01*
G01*
G37*
G04 #@! TD.AperFunction*
G04 #@! TA.AperFunction,ComponentPad*
G36*
G01*
X100786323Y-64864579D02*
X100786323Y-64864579D01*
G75*
G02*
X101935879Y-65216033I399051J-750505D01*
G01*
X101935879Y-65216033D01*
G75*
G02*
X101584425Y-66365589I-750505J-399051D01*
G01*
X101584425Y-66365589D01*
G75*
G02*
X100434869Y-66014135I-399051J750505D01*
G01*
X100434869Y-66014135D01*
G75*
G02*
X100786323Y-64864579I750505J399051D01*
G01*
G37*
G04 #@! TD.AperFunction*
G04 #@! TA.AperFunction,ComponentPad*
G36*
X117891261Y-74083819D02*
G01*
X116916181Y-72691261D01*
X118308739Y-71716181D01*
X119283819Y-73108739D01*
X117891261Y-74083819D01*
G37*
G04 #@! TD.AperFunction*
G04 #@! TA.AperFunction,ComponentPad*
G36*
G01*
X115946837Y-71306894D02*
X115946837Y-71306894D01*
G75*
G02*
X116155576Y-70123075I696279J487540D01*
G01*
X116155576Y-70123075D01*
G75*
G02*
X117339395Y-70331814I487540J-696279D01*
G01*
X117339395Y-70331814D01*
G75*
G02*
X117130656Y-71515633I-696279J-487540D01*
G01*
X117130656Y-71515633D01*
G75*
G02*
X115946837Y-71306894I-487540J696279D01*
G01*
G37*
G04 #@! TD.AperFunction*
G04 #@! TA.AperFunction,ComponentPad*
G36*
G01*
X114489953Y-69226248D02*
X114489953Y-69226248D01*
G75*
G02*
X114698692Y-68042429I696279J487540D01*
G01*
X114698692Y-68042429D01*
G75*
G02*
X115882511Y-68251168I487540J-696279D01*
G01*
X115882511Y-68251168D01*
G75*
G02*
X115673772Y-69434987I-696279J-487540D01*
G01*
X115673772Y-69434987D01*
G75*
G02*
X114489953Y-69226248I-487540J696279D01*
G01*
G37*
G04 #@! TD.AperFunction*
G04 #@! TA.AperFunction,ComponentPad*
G36*
G01*
X113033069Y-67145601D02*
X113033069Y-67145601D01*
G75*
G02*
X113241808Y-65961782I696279J487540D01*
G01*
X113241808Y-65961782D01*
G75*
G02*
X114425627Y-66170521I487540J-696279D01*
G01*
X114425627Y-66170521D01*
G75*
G02*
X114216888Y-67354340I-696279J-487540D01*
G01*
X114216888Y-67354340D01*
G75*
G02*
X113033069Y-67145601I-487540J696279D01*
G01*
G37*
G04 #@! TD.AperFunction*
D12*
X109000000Y-85000000D03*
X96000000Y-81000000D03*
X103300000Y-138700000D03*
X103963893Y-141455271D03*
X98000000Y-84000000D03*
X115000000Y-80200000D03*
X118300000Y-118000000D03*
X113600000Y-110500000D03*
X120600000Y-131100000D03*
X101600000Y-117800000D03*
X98900000Y-117800000D03*
X115454450Y-86743797D03*
X103900000Y-78700000D03*
X115236054Y-85746927D03*
X105000000Y-77800000D03*
X114887183Y-83175061D03*
X118400000Y-101800000D03*
X120100000Y-116100000D03*
X114900000Y-84174990D03*
X110230894Y-81243177D03*
X110750001Y-75049999D03*
X109374990Y-80430866D03*
X109900000Y-74500000D03*
X119161357Y-110113633D03*
X116424710Y-109000000D03*
X111874980Y-82800000D03*
X119575021Y-85000000D03*
D13*
X103963893Y-139363893D02*
X103963893Y-141455271D01*
X103300000Y-138700000D02*
X103963893Y-139363893D01*
D14*
X101600000Y-117800000D02*
X98900000Y-117800000D01*
X113343797Y-86743797D02*
X115454450Y-86743797D01*
X105300000Y-78700000D02*
X113343797Y-86743797D01*
X103900000Y-78700000D02*
X105300000Y-78700000D01*
X112983337Y-85746927D02*
X115236054Y-85746927D01*
X105036410Y-77800000D02*
X112983337Y-85746927D01*
X105000000Y-77800000D02*
X105036410Y-77800000D01*
X118400000Y-101800000D02*
X118400000Y-108200000D01*
X118400000Y-108200000D02*
X120100000Y-109900000D01*
X120100000Y-109900000D02*
X120100000Y-116100000D01*
X115324939Y-83175061D02*
X114887183Y-83175061D01*
X117400000Y-81100000D02*
X115324939Y-83175061D01*
X117400000Y-76726998D02*
X117400000Y-81100000D01*
X118100000Y-72900000D02*
X118100000Y-76026998D01*
X118100000Y-76026998D02*
X117400000Y-76726998D01*
X117871546Y-70819354D02*
X119608829Y-72556637D01*
X119608829Y-76417049D02*
X117903023Y-78122855D01*
X117903023Y-81737652D02*
X115465685Y-84174990D01*
X119608829Y-72556637D02*
X119608829Y-76417049D01*
X116643116Y-70819354D02*
X117871546Y-70819354D01*
X115465685Y-84174990D02*
X114900000Y-84174990D01*
X117903023Y-78122855D02*
X117903023Y-81737652D01*
X110230894Y-81243177D02*
X110230894Y-75569106D01*
X110230894Y-75569106D02*
X110750001Y-75049999D01*
X109374990Y-80430866D02*
X109374990Y-75025010D01*
X109374990Y-75025010D02*
X109900000Y-74500000D01*
X118047724Y-109000000D02*
X116424710Y-109000000D01*
X119161357Y-110113633D02*
X118047724Y-109000000D01*
X114074980Y-85000000D02*
X119575021Y-85000000D01*
X111874980Y-82800000D02*
X114074980Y-85000000D01*
D15*
X112236728Y-62144075D02*
X112482452Y-62194144D01*
X112719276Y-62276592D01*
X112942961Y-62389942D01*
X113149504Y-62532167D01*
X113335190Y-62700708D01*
X113499436Y-62895807D01*
X123378183Y-76366825D01*
X123517912Y-76587684D01*
X123624274Y-76821595D01*
X123697616Y-77067869D01*
X123736554Y-77321859D01*
X123740357Y-77578793D01*
X123708417Y-77838170D01*
X119126280Y-101512544D01*
X119092113Y-101430058D01*
X119006642Y-101302141D01*
X118897859Y-101193358D01*
X118769942Y-101107887D01*
X118627809Y-101049013D01*
X118476922Y-101019000D01*
X118323078Y-101019000D01*
X118172191Y-101049013D01*
X118030058Y-101107887D01*
X117902141Y-101193358D01*
X117793358Y-101302141D01*
X117707887Y-101430058D01*
X117649013Y-101572191D01*
X117619000Y-101723078D01*
X117619000Y-101876922D01*
X117649013Y-102027809D01*
X117707887Y-102169942D01*
X117793358Y-102297859D01*
X117894000Y-102398501D01*
X117894001Y-108175144D01*
X117891553Y-108200000D01*
X117901322Y-108299192D01*
X117930255Y-108394574D01*
X117930256Y-108394575D01*
X117977242Y-108482479D01*
X117986697Y-108494000D01*
X117023211Y-108494000D01*
X116922569Y-108393358D01*
X116794652Y-108307887D01*
X116652519Y-108249013D01*
X116501632Y-108219000D01*
X116347788Y-108219000D01*
X116196901Y-108249013D01*
X116054768Y-108307887D01*
X115926851Y-108393358D01*
X115818068Y-108502141D01*
X115732597Y-108630058D01*
X115673723Y-108772191D01*
X115643710Y-108923078D01*
X115643710Y-109076922D01*
X115673723Y-109227809D01*
X115732597Y-109369942D01*
X115818068Y-109497859D01*
X115926851Y-109606642D01*
X116054768Y-109692113D01*
X116196901Y-109750987D01*
X116347788Y-109781000D01*
X116501632Y-109781000D01*
X116652519Y-109750987D01*
X116794652Y-109692113D01*
X116922569Y-109606642D01*
X117023211Y-109506000D01*
X117838133Y-109506000D01*
X118380357Y-110048225D01*
X118380357Y-110190555D01*
X118410370Y-110341442D01*
X118469244Y-110483575D01*
X118554715Y-110611492D01*
X118663498Y-110720275D01*
X118791415Y-110805746D01*
X118933548Y-110864620D01*
X119084435Y-110894633D01*
X119238279Y-110894633D01*
X119389166Y-110864620D01*
X119419245Y-110852161D01*
X119594000Y-111170831D01*
X119594001Y-115501498D01*
X119493358Y-115602141D01*
X119407887Y-115730058D01*
X119349013Y-115872191D01*
X119319000Y-116023078D01*
X119319000Y-116176922D01*
X119349013Y-116327809D01*
X119407887Y-116469942D01*
X119493358Y-116597859D01*
X119602141Y-116706642D01*
X119730058Y-116792113D01*
X119872191Y-116850987D01*
X120023078Y-116881000D01*
X120176922Y-116881000D01*
X120327809Y-116850987D01*
X120469942Y-116792113D01*
X120597859Y-116706642D01*
X120706642Y-116597859D01*
X120792113Y-116469942D01*
X120850987Y-116327809D01*
X120881000Y-116176922D01*
X120881000Y-116023078D01*
X120850987Y-115872191D01*
X120792113Y-115730058D01*
X120706642Y-115602141D01*
X120606000Y-115501499D01*
X120606000Y-113016243D01*
X134382669Y-138138404D01*
X134492699Y-138376646D01*
X134567659Y-138623544D01*
X134607972Y-138878408D01*
X134612869Y-139136384D01*
X134582257Y-139392591D01*
X134516720Y-139642155D01*
X134415809Y-139884401D01*
X132357010Y-144002001D01*
X132223755Y-144228083D01*
X132063426Y-144430252D01*
X131876828Y-144608464D01*
X131667506Y-144759334D01*
X131439428Y-144880003D01*
X131196941Y-144968170D01*
X130940331Y-145023091D01*
X97976152Y-149732260D01*
X97724756Y-149751317D01*
X97477262Y-149737242D01*
X97233789Y-149690599D01*
X96998611Y-149612206D01*
X96775845Y-149503436D01*
X96569400Y-149366197D01*
X96379730Y-149200124D01*
X93811537Y-146631931D01*
X93643300Y-146439426D01*
X93504711Y-146229675D01*
X93395467Y-146003260D01*
X93317534Y-145764255D01*
X93272314Y-145516956D01*
X93268628Y-145437762D01*
X95952344Y-145437762D01*
X95952344Y-145709796D01*
X96005415Y-145976602D01*
X96109518Y-146227928D01*
X96260651Y-146454115D01*
X96453008Y-146646472D01*
X96679195Y-146797605D01*
X96930521Y-146901708D01*
X97197327Y-146954779D01*
X97469361Y-146954779D01*
X97736167Y-146901708D01*
X97987493Y-146797605D01*
X98213680Y-146646472D01*
X98406037Y-146454115D01*
X98557170Y-146227928D01*
X98661273Y-145976602D01*
X98714344Y-145709796D01*
X98714344Y-145437762D01*
X98661273Y-145170956D01*
X98557170Y-144919630D01*
X98406037Y-144693443D01*
X98213680Y-144501086D01*
X97987493Y-144349953D01*
X97736167Y-144245850D01*
X97469361Y-144192779D01*
X97197327Y-144192779D01*
X96930521Y-144245850D01*
X96679195Y-144349953D01*
X96453008Y-144501086D01*
X96260651Y-144693443D01*
X96109518Y-144919630D01*
X96005415Y-145170956D01*
X95952344Y-145437762D01*
X93268628Y-145437762D01*
X93260624Y-145265833D01*
X93283050Y-145011147D01*
X94281185Y-138623078D01*
X102519000Y-138623078D01*
X102519000Y-138776922D01*
X102549013Y-138927809D01*
X102607887Y-139069942D01*
X102693358Y-139197859D01*
X102802141Y-139306642D01*
X102930058Y-139392113D01*
X103072191Y-139450987D01*
X103180079Y-139472447D01*
X103332893Y-139625261D01*
X103332894Y-140993865D01*
X103271780Y-141085329D01*
X103212906Y-141227462D01*
X103182893Y-141378349D01*
X103182893Y-141532193D01*
X103212906Y-141683080D01*
X103271780Y-141825213D01*
X103357251Y-141953130D01*
X103466034Y-142061913D01*
X103593951Y-142147384D01*
X103736084Y-142206258D01*
X103886971Y-142236271D01*
X104040815Y-142236271D01*
X104191702Y-142206258D01*
X104333835Y-142147384D01*
X104461752Y-142061913D01*
X104570535Y-141953130D01*
X104656006Y-141825213D01*
X104714880Y-141683080D01*
X104744893Y-141532193D01*
X104744893Y-141378349D01*
X104714880Y-141227462D01*
X104656006Y-141085329D01*
X104594893Y-140993866D01*
X104594893Y-140493492D01*
X129295080Y-140493492D01*
X129295080Y-140765526D01*
X129348151Y-141032332D01*
X129452254Y-141283658D01*
X129603387Y-141509845D01*
X129795744Y-141702202D01*
X130021931Y-141853335D01*
X130273257Y-141957438D01*
X130540063Y-142010509D01*
X130812097Y-142010509D01*
X131078903Y-141957438D01*
X131330229Y-141853335D01*
X131556416Y-141702202D01*
X131748773Y-141509845D01*
X131899906Y-141283658D01*
X132004009Y-141032332D01*
X132057080Y-140765526D01*
X132057080Y-140493492D01*
X132004009Y-140226686D01*
X131899906Y-139975360D01*
X131748773Y-139749173D01*
X131556416Y-139556816D01*
X131330229Y-139405683D01*
X131078903Y-139301580D01*
X130812097Y-139248509D01*
X130540063Y-139248509D01*
X130273257Y-139301580D01*
X130021931Y-139405683D01*
X129795744Y-139556816D01*
X129603387Y-139749173D01*
X129452254Y-139975360D01*
X129348151Y-140226686D01*
X129295080Y-140493492D01*
X104594893Y-140493492D01*
X104594893Y-139394880D01*
X104597945Y-139363892D01*
X104594893Y-139332904D01*
X104594893Y-139332895D01*
X104585763Y-139240195D01*
X104549682Y-139121251D01*
X104491089Y-139011632D01*
X104412236Y-138915550D01*
X104388157Y-138895789D01*
X104072447Y-138580079D01*
X104050987Y-138472191D01*
X103992113Y-138330058D01*
X103906642Y-138202141D01*
X103797859Y-138093358D01*
X103669942Y-138007887D01*
X103527809Y-137949013D01*
X103376922Y-137919000D01*
X103223078Y-137919000D01*
X103072191Y-137949013D01*
X102930058Y-138007887D01*
X102802141Y-138093358D01*
X102693358Y-138202141D01*
X102607887Y-138330058D01*
X102549013Y-138472191D01*
X102519000Y-138623078D01*
X94281185Y-138623078D01*
X95452109Y-131129160D01*
X107270681Y-131129160D01*
X107270681Y-131351948D01*
X107314145Y-131570454D01*
X107399402Y-131776283D01*
X107523176Y-131961524D01*
X107680711Y-132119059D01*
X107865952Y-132242833D01*
X108071781Y-132328090D01*
X108290287Y-132371554D01*
X108513075Y-132371554D01*
X108731581Y-132328090D01*
X108937410Y-132242833D01*
X109122651Y-132119059D01*
X109280186Y-131961524D01*
X109403960Y-131776283D01*
X109489217Y-131570454D01*
X109532681Y-131351948D01*
X109532681Y-131129160D01*
X109489217Y-130910654D01*
X109403960Y-130704825D01*
X109280186Y-130519584D01*
X109122651Y-130362049D01*
X108937410Y-130238275D01*
X108731581Y-130153018D01*
X108513075Y-130109554D01*
X108290287Y-130109554D01*
X108071781Y-130153018D01*
X107865952Y-130238275D01*
X107680711Y-130362049D01*
X107523176Y-130519584D01*
X107399402Y-130704825D01*
X107314145Y-130910654D01*
X107270681Y-131129160D01*
X95452109Y-131129160D01*
X95862589Y-128502089D01*
X107037184Y-128502089D01*
X107037184Y-128695329D01*
X107074883Y-128884856D01*
X107148833Y-129063387D01*
X107256191Y-129224060D01*
X107392833Y-129360702D01*
X107553506Y-129468060D01*
X107732037Y-129542010D01*
X107921564Y-129579709D01*
X108114804Y-129579709D01*
X108304331Y-129542010D01*
X108482862Y-129468060D01*
X108643535Y-129360702D01*
X108780177Y-129224060D01*
X108887535Y-129063387D01*
X108961485Y-128884856D01*
X108999184Y-128695329D01*
X108999184Y-128502089D01*
X108961485Y-128312562D01*
X108887535Y-128134031D01*
X108780177Y-127973358D01*
X108643535Y-127836716D01*
X108482862Y-127729358D01*
X108304331Y-127655408D01*
X108114804Y-127617709D01*
X107921564Y-127617709D01*
X107732037Y-127655408D01*
X107553506Y-127729358D01*
X107392833Y-127836716D01*
X107256191Y-127973358D01*
X107148833Y-128134031D01*
X107074883Y-128312562D01*
X107037184Y-128502089D01*
X95862589Y-128502089D01*
X96199923Y-126343151D01*
X107022979Y-126343151D01*
X107022979Y-126536391D01*
X107060678Y-126725918D01*
X107134628Y-126904449D01*
X107241986Y-127065122D01*
X107378628Y-127201764D01*
X107539301Y-127309122D01*
X107717832Y-127383072D01*
X107907359Y-127420771D01*
X108100599Y-127420771D01*
X108290126Y-127383072D01*
X108468657Y-127309122D01*
X108629330Y-127201764D01*
X108765972Y-127065122D01*
X108873330Y-126904449D01*
X108947280Y-126725918D01*
X108984979Y-126536391D01*
X108984979Y-126343151D01*
X108947280Y-126153624D01*
X108873330Y-125975093D01*
X108765972Y-125814420D01*
X108629330Y-125677778D01*
X108468657Y-125570420D01*
X108290126Y-125496470D01*
X108100599Y-125458771D01*
X107907359Y-125458771D01*
X107717832Y-125496470D01*
X107539301Y-125570420D01*
X107378628Y-125677778D01*
X107241986Y-125814420D01*
X107134628Y-125975093D01*
X107060678Y-126153624D01*
X107022979Y-126343151D01*
X96199923Y-126343151D01*
X97105103Y-120549999D01*
X105942157Y-120549999D01*
X105942157Y-121250001D01*
X105954317Y-121373462D01*
X105990329Y-121492179D01*
X106048810Y-121601589D01*
X106127512Y-121697488D01*
X106223411Y-121776190D01*
X106332821Y-121834671D01*
X106451538Y-121870683D01*
X106574999Y-121882843D01*
X107825001Y-121882843D01*
X107948462Y-121870683D01*
X108067179Y-121834671D01*
X108176589Y-121776190D01*
X108272488Y-121697488D01*
X108351190Y-121601589D01*
X108409671Y-121492179D01*
X108445683Y-121373462D01*
X108457843Y-121250001D01*
X108457843Y-120549999D01*
X108445683Y-120426538D01*
X108409671Y-120307821D01*
X108351190Y-120198411D01*
X108272488Y-120102512D01*
X108176589Y-120023810D01*
X108067179Y-119965329D01*
X107948462Y-119929317D01*
X107825001Y-119917157D01*
X106574999Y-119917157D01*
X106451538Y-119929317D01*
X106332821Y-119965329D01*
X106223411Y-120023810D01*
X106127512Y-120102512D01*
X106048810Y-120198411D01*
X105990329Y-120307821D01*
X105954317Y-120426538D01*
X105942157Y-120549999D01*
X97105103Y-120549999D01*
X97319539Y-119177607D01*
X105984098Y-119177607D01*
X106038771Y-119339418D01*
X106141526Y-119503869D01*
X106274389Y-119645114D01*
X106432255Y-119757725D01*
X106609057Y-119837374D01*
X106798000Y-119881000D01*
X107073000Y-119881000D01*
X107073000Y-119027000D01*
X107327000Y-119027000D01*
X107327000Y-119881000D01*
X107602000Y-119881000D01*
X107790943Y-119837374D01*
X107967745Y-119757725D01*
X108125611Y-119645114D01*
X108258474Y-119503869D01*
X108361229Y-119339418D01*
X108415902Y-119177607D01*
X108351598Y-119027000D01*
X107327000Y-119027000D01*
X107073000Y-119027000D01*
X106048402Y-119027000D01*
X105984098Y-119177607D01*
X97319539Y-119177607D01*
X97406291Y-118622393D01*
X105984098Y-118622393D01*
X106048402Y-118773000D01*
X107073000Y-118773000D01*
X107073000Y-117919000D01*
X107327000Y-117919000D01*
X107327000Y-118773000D01*
X108351598Y-118773000D01*
X108415902Y-118622393D01*
X108361229Y-118460582D01*
X108258474Y-118296131D01*
X108125611Y-118154886D01*
X107967745Y-118042275D01*
X107790943Y-117962626D01*
X107602000Y-117919000D01*
X107327000Y-117919000D01*
X107073000Y-117919000D01*
X106798000Y-117919000D01*
X106609057Y-117962626D01*
X106432255Y-118042275D01*
X106274389Y-118154886D01*
X106141526Y-118296131D01*
X106038771Y-118460582D01*
X105984098Y-118622393D01*
X97406291Y-118622393D01*
X97546810Y-117723078D01*
X98119000Y-117723078D01*
X98119000Y-117876922D01*
X98149013Y-118027809D01*
X98207887Y-118169942D01*
X98293358Y-118297859D01*
X98402141Y-118406642D01*
X98530058Y-118492113D01*
X98672191Y-118550987D01*
X98823078Y-118581000D01*
X98976922Y-118581000D01*
X99127809Y-118550987D01*
X99269942Y-118492113D01*
X99397859Y-118406642D01*
X99498501Y-118306000D01*
X101001499Y-118306000D01*
X101102141Y-118406642D01*
X101230058Y-118492113D01*
X101372191Y-118550987D01*
X101523078Y-118581000D01*
X101676922Y-118581000D01*
X101827809Y-118550987D01*
X101969942Y-118492113D01*
X102097859Y-118406642D01*
X102206642Y-118297859D01*
X102292113Y-118169942D01*
X102350987Y-118027809D01*
X102381000Y-117876922D01*
X102381000Y-117723078D01*
X102350987Y-117572191D01*
X102292113Y-117430058D01*
X102206642Y-117302141D01*
X102097859Y-117193358D01*
X101969942Y-117107887D01*
X101827809Y-117049013D01*
X101676922Y-117019000D01*
X101523078Y-117019000D01*
X101372191Y-117049013D01*
X101230058Y-117107887D01*
X101102141Y-117193358D01*
X101001499Y-117294000D01*
X99498501Y-117294000D01*
X99397859Y-117193358D01*
X99269942Y-117107887D01*
X99127809Y-117049013D01*
X98976922Y-117019000D01*
X98823078Y-117019000D01*
X98672191Y-117049013D01*
X98530058Y-117107887D01*
X98402141Y-117193358D01*
X98293358Y-117302141D01*
X98207887Y-117430058D01*
X98149013Y-117572191D01*
X98119000Y-117723078D01*
X97546810Y-117723078D01*
X98045325Y-114532582D01*
X98046316Y-114524580D01*
X98069508Y-114271819D01*
X98069959Y-114255708D01*
X98060951Y-114002045D01*
X98059358Y-113986006D01*
X98029688Y-113805022D01*
X101257279Y-113805022D01*
X101257279Y-114077056D01*
X101310350Y-114343862D01*
X101414453Y-114595188D01*
X101565586Y-114821375D01*
X101757943Y-115013732D01*
X101984130Y-115164865D01*
X102235456Y-115268968D01*
X102502262Y-115322039D01*
X102774296Y-115322039D01*
X103041102Y-115268968D01*
X103292428Y-115164865D01*
X103518615Y-115013732D01*
X103710972Y-114821375D01*
X103862105Y-114595188D01*
X103966208Y-114343862D01*
X104019279Y-114077056D01*
X104019279Y-113805022D01*
X103966208Y-113538216D01*
X103862105Y-113286890D01*
X103710972Y-113060703D01*
X103518615Y-112868346D01*
X103292428Y-112717213D01*
X103041102Y-112613110D01*
X102774296Y-112560039D01*
X102502262Y-112560039D01*
X102235456Y-112613110D01*
X101984130Y-112717213D01*
X101757943Y-112868346D01*
X101565586Y-113060703D01*
X101414453Y-113286890D01*
X101310350Y-113538216D01*
X101257279Y-113805022D01*
X98029688Y-113805022D01*
X98018294Y-113735527D01*
X98014682Y-113719819D01*
X97942225Y-113476558D01*
X97939680Y-113468907D01*
X96833786Y-110467194D01*
X106668830Y-110467194D01*
X106668830Y-110739228D01*
X106721901Y-111006034D01*
X106826004Y-111257360D01*
X106977137Y-111483547D01*
X107169494Y-111675904D01*
X107395681Y-111827037D01*
X107647007Y-111931140D01*
X107913813Y-111984211D01*
X108185847Y-111984211D01*
X108452653Y-111931140D01*
X108703979Y-111827037D01*
X108930166Y-111675904D01*
X109122523Y-111483547D01*
X109273656Y-111257360D01*
X109377759Y-111006034D01*
X109430830Y-110739228D01*
X109430830Y-110467194D01*
X109377759Y-110200388D01*
X109273656Y-109949062D01*
X109122523Y-109722875D01*
X108930166Y-109530518D01*
X108703979Y-109379385D01*
X108452653Y-109275282D01*
X108185847Y-109222211D01*
X107913813Y-109222211D01*
X107647007Y-109275282D01*
X107395681Y-109379385D01*
X107169494Y-109530518D01*
X106977137Y-109722875D01*
X106826004Y-109949062D01*
X106721901Y-110200388D01*
X106668830Y-110467194D01*
X96833786Y-110467194D01*
X95651152Y-107257187D01*
X111526443Y-107257187D01*
X111526443Y-107529221D01*
X111579514Y-107796027D01*
X111683617Y-108047353D01*
X111834750Y-108273540D01*
X112027107Y-108465897D01*
X112253294Y-108617030D01*
X112504620Y-108721133D01*
X112771426Y-108774204D01*
X113043460Y-108774204D01*
X113310266Y-108721133D01*
X113561592Y-108617030D01*
X113787779Y-108465897D01*
X113980136Y-108273540D01*
X114131269Y-108047353D01*
X114235372Y-107796027D01*
X114288443Y-107529221D01*
X114288443Y-107257187D01*
X114235372Y-106990381D01*
X114131269Y-106739055D01*
X113980136Y-106512868D01*
X113787779Y-106320511D01*
X113561592Y-106169378D01*
X113310266Y-106065275D01*
X113043460Y-106012204D01*
X112771426Y-106012204D01*
X112504620Y-106065275D01*
X112253294Y-106169378D01*
X112027107Y-106320511D01*
X111834750Y-106512868D01*
X111683617Y-106739055D01*
X111579514Y-106990381D01*
X111526443Y-107257187D01*
X95651152Y-107257187D01*
X85101743Y-78623078D01*
X103119000Y-78623078D01*
X103119000Y-78776922D01*
X103149013Y-78927809D01*
X103207887Y-79069942D01*
X103293358Y-79197859D01*
X103402141Y-79306642D01*
X103530058Y-79392113D01*
X103672191Y-79450987D01*
X103823078Y-79481000D01*
X103976922Y-79481000D01*
X104127809Y-79450987D01*
X104269942Y-79392113D01*
X104397859Y-79306642D01*
X104498501Y-79206000D01*
X105090409Y-79206000D01*
X112968425Y-87084017D01*
X112984270Y-87103324D01*
X113061318Y-87166556D01*
X113149222Y-87213542D01*
X113244604Y-87242475D01*
X113343797Y-87252245D01*
X113368651Y-87249797D01*
X114855949Y-87249797D01*
X114956591Y-87350439D01*
X115084508Y-87435910D01*
X115226641Y-87494784D01*
X115377528Y-87524797D01*
X115531372Y-87524797D01*
X115682259Y-87494784D01*
X115824392Y-87435910D01*
X115952309Y-87350439D01*
X116061092Y-87241656D01*
X116146563Y-87113739D01*
X116205437Y-86971606D01*
X116235450Y-86820719D01*
X116235450Y-86666875D01*
X116205437Y-86515988D01*
X116146563Y-86373855D01*
X116061092Y-86245938D01*
X115952309Y-86137155D01*
X115926248Y-86119741D01*
X115928167Y-86116869D01*
X115987041Y-85974736D01*
X116017054Y-85823849D01*
X116017054Y-85670005D01*
X115987041Y-85519118D01*
X115981607Y-85506000D01*
X118976520Y-85506000D01*
X119077162Y-85606642D01*
X119205079Y-85692113D01*
X119347212Y-85750987D01*
X119498099Y-85781000D01*
X119651943Y-85781000D01*
X119802830Y-85750987D01*
X119944963Y-85692113D01*
X120072880Y-85606642D01*
X120181663Y-85497859D01*
X120267134Y-85369942D01*
X120326008Y-85227809D01*
X120356021Y-85076922D01*
X120356021Y-84923078D01*
X120326008Y-84772191D01*
X120267134Y-84630058D01*
X120181663Y-84502141D01*
X120072880Y-84393358D01*
X119944963Y-84307887D01*
X119802830Y-84249013D01*
X119651943Y-84219000D01*
X119498099Y-84219000D01*
X119347212Y-84249013D01*
X119205079Y-84307887D01*
X119077162Y-84393358D01*
X118976520Y-84494000D01*
X115862266Y-84494000D01*
X118243243Y-82113024D01*
X118262550Y-82097179D01*
X118325782Y-82020131D01*
X118372768Y-81932227D01*
X118394967Y-81859045D01*
X118401701Y-81836846D01*
X118402675Y-81826958D01*
X118409023Y-81762506D01*
X118409023Y-81762499D01*
X118411470Y-81737653D01*
X118409023Y-81712807D01*
X118409023Y-79872532D01*
X118573875Y-79982682D01*
X118825201Y-80086785D01*
X119092007Y-80139856D01*
X119364041Y-80139856D01*
X119630847Y-80086785D01*
X119882173Y-79982682D01*
X120108360Y-79831549D01*
X120300717Y-79639192D01*
X120451850Y-79413005D01*
X120555953Y-79161679D01*
X120609024Y-78894873D01*
X120609024Y-78622839D01*
X120555953Y-78356033D01*
X120451850Y-78104707D01*
X120300717Y-77878520D01*
X120108360Y-77686163D01*
X119882173Y-77535030D01*
X119630847Y-77430927D01*
X119364041Y-77377856D01*
X119363614Y-77377856D01*
X119949049Y-76792421D01*
X119968356Y-76776576D01*
X120031588Y-76699528D01*
X120078574Y-76611624D01*
X120107507Y-76516242D01*
X120114829Y-76441903D01*
X120114829Y-76441895D01*
X120117276Y-76417049D01*
X120114829Y-76392203D01*
X120114829Y-72581482D01*
X120117276Y-72556636D01*
X120114829Y-72531790D01*
X120114829Y-72531783D01*
X120107507Y-72457444D01*
X120087520Y-72391552D01*
X120078574Y-72362062D01*
X120031588Y-72274158D01*
X119968356Y-72197110D01*
X119949049Y-72181265D01*
X118246922Y-70479139D01*
X118231073Y-70459827D01*
X118154025Y-70396595D01*
X118066121Y-70349609D01*
X117970739Y-70320676D01*
X117896400Y-70313354D01*
X117896392Y-70313354D01*
X117871546Y-70310907D01*
X117846700Y-70313354D01*
X117765948Y-70313354D01*
X117734014Y-70236257D01*
X117599296Y-70034637D01*
X117427833Y-69863174D01*
X117226213Y-69728456D01*
X117002185Y-69635661D01*
X116764359Y-69588354D01*
X116521873Y-69588354D01*
X116284047Y-69635661D01*
X116060019Y-69728456D01*
X115858399Y-69863174D01*
X115686936Y-70034637D01*
X115552218Y-70236257D01*
X115459423Y-70460285D01*
X115412116Y-70698111D01*
X115412116Y-70940597D01*
X115459423Y-71178423D01*
X115552218Y-71402451D01*
X115686936Y-71604071D01*
X115858399Y-71775534D01*
X116060019Y-71910252D01*
X116284047Y-72003047D01*
X116521873Y-72050354D01*
X116764359Y-72050354D01*
X117002185Y-72003047D01*
X117226213Y-71910252D01*
X117427833Y-71775534D01*
X117599296Y-71604071D01*
X117734014Y-71402451D01*
X117735490Y-71398889D01*
X117883307Y-71546706D01*
X116696591Y-72377654D01*
X116639629Y-72426520D01*
X116593294Y-72485560D01*
X116559368Y-72552504D01*
X116539154Y-72624781D01*
X116533429Y-72699613D01*
X116542413Y-72774123D01*
X116565760Y-72845450D01*
X116602574Y-72910851D01*
X117577654Y-74303409D01*
X117594000Y-74322464D01*
X117594001Y-75817405D01*
X117059785Y-76351622D01*
X117040473Y-76367471D01*
X116977241Y-76444519D01*
X116930255Y-76532424D01*
X116901322Y-76627806D01*
X116894000Y-76702145D01*
X116894000Y-76702152D01*
X116891553Y-76726998D01*
X116894000Y-76751844D01*
X116894001Y-80890407D01*
X115283702Y-82500706D01*
X115257125Y-82482948D01*
X115114992Y-82424074D01*
X114964105Y-82394061D01*
X114810261Y-82394061D01*
X114659374Y-82424074D01*
X114517241Y-82482948D01*
X114389324Y-82568419D01*
X114280541Y-82677202D01*
X114195070Y-82805119D01*
X114136196Y-82947252D01*
X114106183Y-83098139D01*
X114106183Y-83251983D01*
X114136196Y-83402870D01*
X114195070Y-83545003D01*
X114280541Y-83672920D01*
X114289911Y-83682290D01*
X114207887Y-83805048D01*
X114149013Y-83947181D01*
X114119000Y-84098068D01*
X114119000Y-84251912D01*
X114137999Y-84347427D01*
X112655980Y-82865409D01*
X112655980Y-82723078D01*
X112625967Y-82572191D01*
X112567093Y-82430058D01*
X112481622Y-82302141D01*
X112372839Y-82193358D01*
X112244922Y-82107887D01*
X112102789Y-82049013D01*
X111951902Y-82019000D01*
X111798058Y-82019000D01*
X111647171Y-82049013D01*
X111505038Y-82107887D01*
X111377121Y-82193358D01*
X111268338Y-82302141D01*
X111182867Y-82430058D01*
X111123993Y-82572191D01*
X111093980Y-82723078D01*
X111093980Y-82876922D01*
X111123993Y-83027809D01*
X111182867Y-83169942D01*
X111268338Y-83297859D01*
X111377121Y-83406642D01*
X111505038Y-83492113D01*
X111647171Y-83550987D01*
X111798058Y-83581000D01*
X111940389Y-83581000D01*
X113600315Y-85240927D01*
X113192929Y-85240927D01*
X109905917Y-81953915D01*
X110003085Y-81994164D01*
X110153972Y-82024177D01*
X110307816Y-82024177D01*
X110458703Y-81994164D01*
X110600836Y-81935290D01*
X110728753Y-81849819D01*
X110837536Y-81741036D01*
X110923007Y-81613119D01*
X110981881Y-81470986D01*
X111011894Y-81320099D01*
X111011894Y-81166255D01*
X110981881Y-81015368D01*
X110923007Y-80873235D01*
X110837536Y-80745318D01*
X110736894Y-80644676D01*
X110736894Y-75830999D01*
X110826923Y-75830999D01*
X110977810Y-75800986D01*
X111119943Y-75742112D01*
X111247860Y-75656641D01*
X111356643Y-75547858D01*
X111442114Y-75419941D01*
X111500988Y-75277808D01*
X111531001Y-75126921D01*
X111531001Y-74973077D01*
X111500988Y-74822190D01*
X111442114Y-74680057D01*
X111356643Y-74552140D01*
X111247860Y-74443357D01*
X111119943Y-74357886D01*
X110977810Y-74299012D01*
X110826923Y-74268999D01*
X110673079Y-74268999D01*
X110651217Y-74273348D01*
X110650987Y-74272191D01*
X110592113Y-74130058D01*
X110506642Y-74002141D01*
X110397859Y-73893358D01*
X110269942Y-73807887D01*
X110127809Y-73749013D01*
X109976922Y-73719000D01*
X109823078Y-73719000D01*
X109672191Y-73749013D01*
X109530058Y-73807887D01*
X109402141Y-73893358D01*
X109293358Y-74002141D01*
X109207887Y-74130058D01*
X109149013Y-74272191D01*
X109119000Y-74423078D01*
X109119000Y-74565409D01*
X109034770Y-74649639D01*
X109015464Y-74665483D01*
X108952232Y-74742531D01*
X108930879Y-74782479D01*
X108905245Y-74830436D01*
X108876312Y-74925818D01*
X108866543Y-75025010D01*
X108868991Y-75049866D01*
X108868990Y-79832365D01*
X108768348Y-79933007D01*
X108682877Y-80060924D01*
X108624003Y-80203057D01*
X108593990Y-80353944D01*
X108593990Y-80507788D01*
X108624003Y-80658675D01*
X108633426Y-80681425D01*
X105781000Y-77828999D01*
X105781000Y-77723078D01*
X105750987Y-77572191D01*
X105692113Y-77430058D01*
X105606642Y-77302141D01*
X105497859Y-77193358D01*
X105369942Y-77107887D01*
X105227809Y-77049013D01*
X105076922Y-77019000D01*
X104923078Y-77019000D01*
X104772191Y-77049013D01*
X104630058Y-77107887D01*
X104502141Y-77193358D01*
X104393358Y-77302141D01*
X104307887Y-77430058D01*
X104249013Y-77572191D01*
X104219000Y-77723078D01*
X104219000Y-77876922D01*
X104242815Y-77996651D01*
X104127809Y-77949013D01*
X103976922Y-77919000D01*
X103823078Y-77919000D01*
X103672191Y-77949013D01*
X103530058Y-78007887D01*
X103402141Y-78093358D01*
X103293358Y-78202141D01*
X103207887Y-78330058D01*
X103149013Y-78472191D01*
X103119000Y-78623078D01*
X85101743Y-78623078D01*
X84333916Y-76538979D01*
X84255792Y-76265488D01*
X84219882Y-75988114D01*
X84225682Y-75708485D01*
X84273871Y-75428154D01*
X84519159Y-74446996D01*
X87209972Y-74446996D01*
X87209972Y-74719030D01*
X87263043Y-74985836D01*
X87367146Y-75237162D01*
X87518279Y-75463349D01*
X87710636Y-75655706D01*
X87936823Y-75806839D01*
X88188149Y-75910942D01*
X88454955Y-75964013D01*
X88726989Y-75964013D01*
X88993795Y-75910942D01*
X89245121Y-75806839D01*
X89471308Y-75655706D01*
X89663665Y-75463349D01*
X89814798Y-75237162D01*
X89918901Y-74985836D01*
X89971972Y-74719030D01*
X89971972Y-74446996D01*
X89918901Y-74180190D01*
X89814798Y-73928864D01*
X89663665Y-73702677D01*
X89471308Y-73510320D01*
X89245121Y-73359187D01*
X88993795Y-73255084D01*
X88726989Y-73202013D01*
X88454955Y-73202013D01*
X88188149Y-73255084D01*
X87936823Y-73359187D01*
X87710636Y-73510320D01*
X87518279Y-73702677D01*
X87367146Y-73928864D01*
X87263043Y-74180190D01*
X87209972Y-74446996D01*
X84519159Y-74446996D01*
X84893300Y-72950432D01*
X84980810Y-72684967D01*
X85104140Y-72439339D01*
X85262091Y-72214415D01*
X85451264Y-72015033D01*
X85667584Y-71845486D01*
X85910455Y-71707114D01*
X94356392Y-67685239D01*
X95169364Y-67685239D01*
X95183844Y-67758879D01*
X95212414Y-67828279D01*
X96010515Y-69329290D01*
X96052074Y-69391783D01*
X96105027Y-69444967D01*
X96167338Y-69486799D01*
X96236612Y-69515671D01*
X96310189Y-69530473D01*
X96385239Y-69530636D01*
X96458879Y-69516156D01*
X96528279Y-69487586D01*
X98029290Y-68689485D01*
X98091783Y-68647926D01*
X98122376Y-68617465D01*
X113955232Y-68617465D01*
X113955232Y-68859951D01*
X114002539Y-69097777D01*
X114095334Y-69321805D01*
X114230052Y-69523425D01*
X114401515Y-69694888D01*
X114603135Y-69829606D01*
X114827163Y-69922401D01*
X115064989Y-69969708D01*
X115307475Y-69969708D01*
X115545301Y-69922401D01*
X115769329Y-69829606D01*
X115970949Y-69694888D01*
X116142412Y-69523425D01*
X116277130Y-69321805D01*
X116369925Y-69097777D01*
X116417232Y-68859951D01*
X116417232Y-68617465D01*
X116369925Y-68379639D01*
X116277130Y-68155611D01*
X116142412Y-67953991D01*
X115970949Y-67782528D01*
X115769329Y-67647810D01*
X115545301Y-67555015D01*
X115307475Y-67507708D01*
X115064989Y-67507708D01*
X114827163Y-67555015D01*
X114603135Y-67647810D01*
X114401515Y-67782528D01*
X114230052Y-67953991D01*
X114095334Y-68155611D01*
X114002539Y-68379639D01*
X113955232Y-68617465D01*
X98122376Y-68617465D01*
X98144967Y-68594973D01*
X98186799Y-68532662D01*
X98215671Y-68463388D01*
X98230473Y-68389811D01*
X98230636Y-68314761D01*
X98216156Y-68241121D01*
X98187586Y-68171721D01*
X97389485Y-66670710D01*
X97347926Y-66608217D01*
X97294973Y-66555033D01*
X97232662Y-66513201D01*
X97163388Y-66484329D01*
X97089811Y-66469527D01*
X97014761Y-66469364D01*
X96941121Y-66483844D01*
X96871721Y-66512414D01*
X95370710Y-67310515D01*
X95308217Y-67352074D01*
X95255033Y-67405027D01*
X95213201Y-67467338D01*
X95184329Y-67536612D01*
X95169527Y-67610189D01*
X95169364Y-67685239D01*
X94356392Y-67685239D01*
X98112912Y-65896420D01*
X97986507Y-66022825D01*
X97851789Y-66224445D01*
X97758994Y-66448473D01*
X97711687Y-66686299D01*
X97711687Y-66928785D01*
X97758994Y-67166611D01*
X97851789Y-67390639D01*
X97986507Y-67592259D01*
X98157970Y-67763722D01*
X98359590Y-67898440D01*
X98583618Y-67991235D01*
X98821444Y-68038542D01*
X99063930Y-68038542D01*
X99301756Y-67991235D01*
X99525784Y-67898440D01*
X99727404Y-67763722D01*
X99898867Y-67592259D01*
X100021017Y-67409447D01*
X112877675Y-67409447D01*
X112936788Y-67599979D01*
X113002801Y-67651794D01*
X113210630Y-67774442D01*
X113438391Y-67854188D01*
X113677335Y-67887968D01*
X113918277Y-67874482D01*
X114151959Y-67814251D01*
X114272991Y-67655881D01*
X113698160Y-66834938D01*
X112877675Y-67409447D01*
X100021017Y-67409447D01*
X100033585Y-67390639D01*
X100126380Y-67166611D01*
X100173687Y-66928785D01*
X100173687Y-66686299D01*
X100126380Y-66448473D01*
X100047211Y-66257340D01*
X100247984Y-66257340D01*
X100283926Y-66453396D01*
X100464793Y-66613151D01*
X100673352Y-66734552D01*
X100901588Y-66812933D01*
X101140729Y-66845280D01*
X101381587Y-66830352D01*
X101463929Y-66814154D01*
X101513082Y-66763672D01*
X112502881Y-66763672D01*
X112547051Y-67000915D01*
X112573163Y-67080669D01*
X112731987Y-67201383D01*
X113463388Y-66689249D01*
X113906225Y-66689249D01*
X114481055Y-67510193D01*
X114671270Y-67450625D01*
X114807792Y-67251637D01*
X114902872Y-67029838D01*
X114952853Y-66793751D01*
X114955815Y-66552450D01*
X114911645Y-66315207D01*
X114885533Y-66235453D01*
X114726709Y-66114739D01*
X113906225Y-66689249D01*
X113463388Y-66689249D01*
X113552471Y-66626873D01*
X112977641Y-65805929D01*
X112787426Y-65865497D01*
X112650904Y-66064485D01*
X112555824Y-66286284D01*
X112505843Y-66522371D01*
X112502881Y-66763672D01*
X101513082Y-66763672D01*
X101603098Y-66671225D01*
X101132863Y-65786841D01*
X100247984Y-66257340D01*
X100047211Y-66257340D01*
X100033585Y-66224445D01*
X99898867Y-66022825D01*
X99727404Y-65851362D01*
X99525784Y-65716644D01*
X99301756Y-65623849D01*
X99063930Y-65576542D01*
X98821444Y-65576542D01*
X98758265Y-65589109D01*
X100180891Y-64911668D01*
X100140530Y-64964179D01*
X100033621Y-65180525D01*
X99970974Y-65413571D01*
X99954995Y-65654360D01*
X99986299Y-65893640D01*
X100128738Y-66033071D01*
X100816099Y-65667595D01*
X101357131Y-65667595D01*
X101827367Y-66551980D01*
X102023682Y-66516527D01*
X102083156Y-66457321D01*
X102230218Y-66265989D01*
X102337127Y-66049643D01*
X102399774Y-65816597D01*
X102410149Y-65660241D01*
X113185705Y-65660241D01*
X113760536Y-66481184D01*
X114581021Y-65906675D01*
X114521908Y-65716143D01*
X114455895Y-65664328D01*
X114248066Y-65541680D01*
X114020305Y-65461934D01*
X113781361Y-65428154D01*
X113540419Y-65441640D01*
X113306737Y-65501871D01*
X113185705Y-65660241D01*
X102410149Y-65660241D01*
X102415753Y-65575808D01*
X102384449Y-65336528D01*
X102242010Y-65197097D01*
X101357131Y-65667595D01*
X100816099Y-65667595D01*
X101013617Y-65562573D01*
X101004228Y-65544914D01*
X101228496Y-65425668D01*
X101237885Y-65443327D01*
X102122764Y-64972828D01*
X102086822Y-64776772D01*
X101905955Y-64617017D01*
X101697396Y-64495616D01*
X101469160Y-64417235D01*
X101274496Y-64390904D01*
X102139536Y-63978980D01*
X107478436Y-63978980D01*
X107478436Y-64251014D01*
X107531507Y-64517820D01*
X107635610Y-64769146D01*
X107786743Y-64995333D01*
X107979100Y-65187690D01*
X108205287Y-65338823D01*
X108456613Y-65442926D01*
X108723419Y-65495997D01*
X108995453Y-65495997D01*
X109262259Y-65442926D01*
X109513585Y-65338823D01*
X109739772Y-65187690D01*
X109932129Y-64995333D01*
X110083262Y-64769146D01*
X110187365Y-64517820D01*
X110240436Y-64251014D01*
X110240436Y-63978980D01*
X110187365Y-63712174D01*
X110083262Y-63460848D01*
X109932129Y-63234661D01*
X109739772Y-63042304D01*
X109513585Y-62891171D01*
X109262259Y-62787068D01*
X108995453Y-62733997D01*
X108723419Y-62733997D01*
X108456613Y-62787068D01*
X108205287Y-62891171D01*
X107979100Y-63042304D01*
X107786743Y-63234661D01*
X107635610Y-63460848D01*
X107531507Y-63712174D01*
X107478436Y-63978980D01*
X102139536Y-63978980D01*
X105642359Y-62310969D01*
X105905142Y-62208940D01*
X106175476Y-62147860D01*
X106456589Y-62127000D01*
X111982267Y-62127000D01*
X112236728Y-62144075D01*
G04 #@! TA.AperFunction,Conductor*
D16*
G36*
X112236728Y-62144075D02*
G01*
X112482452Y-62194144D01*
X112719276Y-62276592D01*
X112942961Y-62389942D01*
X113149504Y-62532167D01*
X113335190Y-62700708D01*
X113499436Y-62895807D01*
X123378183Y-76366825D01*
X123517912Y-76587684D01*
X123624274Y-76821595D01*
X123697616Y-77067869D01*
X123736554Y-77321859D01*
X123740357Y-77578793D01*
X123708417Y-77838170D01*
X119126280Y-101512544D01*
X119092113Y-101430058D01*
X119006642Y-101302141D01*
X118897859Y-101193358D01*
X118769942Y-101107887D01*
X118627809Y-101049013D01*
X118476922Y-101019000D01*
X118323078Y-101019000D01*
X118172191Y-101049013D01*
X118030058Y-101107887D01*
X117902141Y-101193358D01*
X117793358Y-101302141D01*
X117707887Y-101430058D01*
X117649013Y-101572191D01*
X117619000Y-101723078D01*
X117619000Y-101876922D01*
X117649013Y-102027809D01*
X117707887Y-102169942D01*
X117793358Y-102297859D01*
X117894000Y-102398501D01*
X117894001Y-108175144D01*
X117891553Y-108200000D01*
X117901322Y-108299192D01*
X117930255Y-108394574D01*
X117930256Y-108394575D01*
X117977242Y-108482479D01*
X117986697Y-108494000D01*
X117023211Y-108494000D01*
X116922569Y-108393358D01*
X116794652Y-108307887D01*
X116652519Y-108249013D01*
X116501632Y-108219000D01*
X116347788Y-108219000D01*
X116196901Y-108249013D01*
X116054768Y-108307887D01*
X115926851Y-108393358D01*
X115818068Y-108502141D01*
X115732597Y-108630058D01*
X115673723Y-108772191D01*
X115643710Y-108923078D01*
X115643710Y-109076922D01*
X115673723Y-109227809D01*
X115732597Y-109369942D01*
X115818068Y-109497859D01*
X115926851Y-109606642D01*
X116054768Y-109692113D01*
X116196901Y-109750987D01*
X116347788Y-109781000D01*
X116501632Y-109781000D01*
X116652519Y-109750987D01*
X116794652Y-109692113D01*
X116922569Y-109606642D01*
X117023211Y-109506000D01*
X117838133Y-109506000D01*
X118380357Y-110048225D01*
X118380357Y-110190555D01*
X118410370Y-110341442D01*
X118469244Y-110483575D01*
X118554715Y-110611492D01*
X118663498Y-110720275D01*
X118791415Y-110805746D01*
X118933548Y-110864620D01*
X119084435Y-110894633D01*
X119238279Y-110894633D01*
X119389166Y-110864620D01*
X119419245Y-110852161D01*
X119594000Y-111170831D01*
X119594001Y-115501498D01*
X119493358Y-115602141D01*
X119407887Y-115730058D01*
X119349013Y-115872191D01*
X119319000Y-116023078D01*
X119319000Y-116176922D01*
X119349013Y-116327809D01*
X119407887Y-116469942D01*
X119493358Y-116597859D01*
X119602141Y-116706642D01*
X119730058Y-116792113D01*
X119872191Y-116850987D01*
X120023078Y-116881000D01*
X120176922Y-116881000D01*
X120327809Y-116850987D01*
X120469942Y-116792113D01*
X120597859Y-116706642D01*
X120706642Y-116597859D01*
X120792113Y-116469942D01*
X120850987Y-116327809D01*
X120881000Y-116176922D01*
X120881000Y-116023078D01*
X120850987Y-115872191D01*
X120792113Y-115730058D01*
X120706642Y-115602141D01*
X120606000Y-115501499D01*
X120606000Y-113016243D01*
X134382669Y-138138404D01*
X134492699Y-138376646D01*
X134567659Y-138623544D01*
X134607972Y-138878408D01*
X134612869Y-139136384D01*
X134582257Y-139392591D01*
X134516720Y-139642155D01*
X134415809Y-139884401D01*
X132357010Y-144002001D01*
X132223755Y-144228083D01*
X132063426Y-144430252D01*
X131876828Y-144608464D01*
X131667506Y-144759334D01*
X131439428Y-144880003D01*
X131196941Y-144968170D01*
X130940331Y-145023091D01*
X97976152Y-149732260D01*
X97724756Y-149751317D01*
X97477262Y-149737242D01*
X97233789Y-149690599D01*
X96998611Y-149612206D01*
X96775845Y-149503436D01*
X96569400Y-149366197D01*
X96379730Y-149200124D01*
X93811537Y-146631931D01*
X93643300Y-146439426D01*
X93504711Y-146229675D01*
X93395467Y-146003260D01*
X93317534Y-145764255D01*
X93272314Y-145516956D01*
X93268628Y-145437762D01*
X95952344Y-145437762D01*
X95952344Y-145709796D01*
X96005415Y-145976602D01*
X96109518Y-146227928D01*
X96260651Y-146454115D01*
X96453008Y-146646472D01*
X96679195Y-146797605D01*
X96930521Y-146901708D01*
X97197327Y-146954779D01*
X97469361Y-146954779D01*
X97736167Y-146901708D01*
X97987493Y-146797605D01*
X98213680Y-146646472D01*
X98406037Y-146454115D01*
X98557170Y-146227928D01*
X98661273Y-145976602D01*
X98714344Y-145709796D01*
X98714344Y-145437762D01*
X98661273Y-145170956D01*
X98557170Y-144919630D01*
X98406037Y-144693443D01*
X98213680Y-144501086D01*
X97987493Y-144349953D01*
X97736167Y-144245850D01*
X97469361Y-144192779D01*
X97197327Y-144192779D01*
X96930521Y-144245850D01*
X96679195Y-144349953D01*
X96453008Y-144501086D01*
X96260651Y-144693443D01*
X96109518Y-144919630D01*
X96005415Y-145170956D01*
X95952344Y-145437762D01*
X93268628Y-145437762D01*
X93260624Y-145265833D01*
X93283050Y-145011147D01*
X94281185Y-138623078D01*
X102519000Y-138623078D01*
X102519000Y-138776922D01*
X102549013Y-138927809D01*
X102607887Y-139069942D01*
X102693358Y-139197859D01*
X102802141Y-139306642D01*
X102930058Y-139392113D01*
X103072191Y-139450987D01*
X103180079Y-139472447D01*
X103332893Y-139625261D01*
X103332894Y-140993865D01*
X103271780Y-141085329D01*
X103212906Y-141227462D01*
X103182893Y-141378349D01*
X103182893Y-141532193D01*
X103212906Y-141683080D01*
X103271780Y-141825213D01*
X103357251Y-141953130D01*
X103466034Y-142061913D01*
X103593951Y-142147384D01*
X103736084Y-142206258D01*
X103886971Y-142236271D01*
X104040815Y-142236271D01*
X104191702Y-142206258D01*
X104333835Y-142147384D01*
X104461752Y-142061913D01*
X104570535Y-141953130D01*
X104656006Y-141825213D01*
X104714880Y-141683080D01*
X104744893Y-141532193D01*
X104744893Y-141378349D01*
X104714880Y-141227462D01*
X104656006Y-141085329D01*
X104594893Y-140993866D01*
X104594893Y-140493492D01*
X129295080Y-140493492D01*
X129295080Y-140765526D01*
X129348151Y-141032332D01*
X129452254Y-141283658D01*
X129603387Y-141509845D01*
X129795744Y-141702202D01*
X130021931Y-141853335D01*
X130273257Y-141957438D01*
X130540063Y-142010509D01*
X130812097Y-142010509D01*
X131078903Y-141957438D01*
X131330229Y-141853335D01*
X131556416Y-141702202D01*
X131748773Y-141509845D01*
X131899906Y-141283658D01*
X132004009Y-141032332D01*
X132057080Y-140765526D01*
X132057080Y-140493492D01*
X132004009Y-140226686D01*
X131899906Y-139975360D01*
X131748773Y-139749173D01*
X131556416Y-139556816D01*
X131330229Y-139405683D01*
X131078903Y-139301580D01*
X130812097Y-139248509D01*
X130540063Y-139248509D01*
X130273257Y-139301580D01*
X130021931Y-139405683D01*
X129795744Y-139556816D01*
X129603387Y-139749173D01*
X129452254Y-139975360D01*
X129348151Y-140226686D01*
X129295080Y-140493492D01*
X104594893Y-140493492D01*
X104594893Y-139394880D01*
X104597945Y-139363892D01*
X104594893Y-139332904D01*
X104594893Y-139332895D01*
X104585763Y-139240195D01*
X104549682Y-139121251D01*
X104491089Y-139011632D01*
X104412236Y-138915550D01*
X104388157Y-138895789D01*
X104072447Y-138580079D01*
X104050987Y-138472191D01*
X103992113Y-138330058D01*
X103906642Y-138202141D01*
X103797859Y-138093358D01*
X103669942Y-138007887D01*
X103527809Y-137949013D01*
X103376922Y-137919000D01*
X103223078Y-137919000D01*
X103072191Y-137949013D01*
X102930058Y-138007887D01*
X102802141Y-138093358D01*
X102693358Y-138202141D01*
X102607887Y-138330058D01*
X102549013Y-138472191D01*
X102519000Y-138623078D01*
X94281185Y-138623078D01*
X95452109Y-131129160D01*
X107270681Y-131129160D01*
X107270681Y-131351948D01*
X107314145Y-131570454D01*
X107399402Y-131776283D01*
X107523176Y-131961524D01*
X107680711Y-132119059D01*
X107865952Y-132242833D01*
X108071781Y-132328090D01*
X108290287Y-132371554D01*
X108513075Y-132371554D01*
X108731581Y-132328090D01*
X108937410Y-132242833D01*
X109122651Y-132119059D01*
X109280186Y-131961524D01*
X109403960Y-131776283D01*
X109489217Y-131570454D01*
X109532681Y-131351948D01*
X109532681Y-131129160D01*
X109489217Y-130910654D01*
X109403960Y-130704825D01*
X109280186Y-130519584D01*
X109122651Y-130362049D01*
X108937410Y-130238275D01*
X108731581Y-130153018D01*
X108513075Y-130109554D01*
X108290287Y-130109554D01*
X108071781Y-130153018D01*
X107865952Y-130238275D01*
X107680711Y-130362049D01*
X107523176Y-130519584D01*
X107399402Y-130704825D01*
X107314145Y-130910654D01*
X107270681Y-131129160D01*
X95452109Y-131129160D01*
X95862589Y-128502089D01*
X107037184Y-128502089D01*
X107037184Y-128695329D01*
X107074883Y-128884856D01*
X107148833Y-129063387D01*
X107256191Y-129224060D01*
X107392833Y-129360702D01*
X107553506Y-129468060D01*
X107732037Y-129542010D01*
X107921564Y-129579709D01*
X108114804Y-129579709D01*
X108304331Y-129542010D01*
X108482862Y-129468060D01*
X108643535Y-129360702D01*
X108780177Y-129224060D01*
X108887535Y-129063387D01*
X108961485Y-128884856D01*
X108999184Y-128695329D01*
X108999184Y-128502089D01*
X108961485Y-128312562D01*
X108887535Y-128134031D01*
X108780177Y-127973358D01*
X108643535Y-127836716D01*
X108482862Y-127729358D01*
X108304331Y-127655408D01*
X108114804Y-127617709D01*
X107921564Y-127617709D01*
X107732037Y-127655408D01*
X107553506Y-127729358D01*
X107392833Y-127836716D01*
X107256191Y-127973358D01*
X107148833Y-128134031D01*
X107074883Y-128312562D01*
X107037184Y-128502089D01*
X95862589Y-128502089D01*
X96199923Y-126343151D01*
X107022979Y-126343151D01*
X107022979Y-126536391D01*
X107060678Y-126725918D01*
X107134628Y-126904449D01*
X107241986Y-127065122D01*
X107378628Y-127201764D01*
X107539301Y-127309122D01*
X107717832Y-127383072D01*
X107907359Y-127420771D01*
X108100599Y-127420771D01*
X108290126Y-127383072D01*
X108468657Y-127309122D01*
X108629330Y-127201764D01*
X108765972Y-127065122D01*
X108873330Y-126904449D01*
X108947280Y-126725918D01*
X108984979Y-126536391D01*
X108984979Y-126343151D01*
X108947280Y-126153624D01*
X108873330Y-125975093D01*
X108765972Y-125814420D01*
X108629330Y-125677778D01*
X108468657Y-125570420D01*
X108290126Y-125496470D01*
X108100599Y-125458771D01*
X107907359Y-125458771D01*
X107717832Y-125496470D01*
X107539301Y-125570420D01*
X107378628Y-125677778D01*
X107241986Y-125814420D01*
X107134628Y-125975093D01*
X107060678Y-126153624D01*
X107022979Y-126343151D01*
X96199923Y-126343151D01*
X97105103Y-120549999D01*
X105942157Y-120549999D01*
X105942157Y-121250001D01*
X105954317Y-121373462D01*
X105990329Y-121492179D01*
X106048810Y-121601589D01*
X106127512Y-121697488D01*
X106223411Y-121776190D01*
X106332821Y-121834671D01*
X106451538Y-121870683D01*
X106574999Y-121882843D01*
X107825001Y-121882843D01*
X107948462Y-121870683D01*
X108067179Y-121834671D01*
X108176589Y-121776190D01*
X108272488Y-121697488D01*
X108351190Y-121601589D01*
X108409671Y-121492179D01*
X108445683Y-121373462D01*
X108457843Y-121250001D01*
X108457843Y-120549999D01*
X108445683Y-120426538D01*
X108409671Y-120307821D01*
X108351190Y-120198411D01*
X108272488Y-120102512D01*
X108176589Y-120023810D01*
X108067179Y-119965329D01*
X107948462Y-119929317D01*
X107825001Y-119917157D01*
X106574999Y-119917157D01*
X106451538Y-119929317D01*
X106332821Y-119965329D01*
X106223411Y-120023810D01*
X106127512Y-120102512D01*
X106048810Y-120198411D01*
X105990329Y-120307821D01*
X105954317Y-120426538D01*
X105942157Y-120549999D01*
X97105103Y-120549999D01*
X97319539Y-119177607D01*
X105984098Y-119177607D01*
X106038771Y-119339418D01*
X106141526Y-119503869D01*
X106274389Y-119645114D01*
X106432255Y-119757725D01*
X106609057Y-119837374D01*
X106798000Y-119881000D01*
X107073000Y-119881000D01*
X107073000Y-119027000D01*
X107327000Y-119027000D01*
X107327000Y-119881000D01*
X107602000Y-119881000D01*
X107790943Y-119837374D01*
X107967745Y-119757725D01*
X108125611Y-119645114D01*
X108258474Y-119503869D01*
X108361229Y-119339418D01*
X108415902Y-119177607D01*
X108351598Y-119027000D01*
X107327000Y-119027000D01*
X107073000Y-119027000D01*
X106048402Y-119027000D01*
X105984098Y-119177607D01*
X97319539Y-119177607D01*
X97406291Y-118622393D01*
X105984098Y-118622393D01*
X106048402Y-118773000D01*
X107073000Y-118773000D01*
X107073000Y-117919000D01*
X107327000Y-117919000D01*
X107327000Y-118773000D01*
X108351598Y-118773000D01*
X108415902Y-118622393D01*
X108361229Y-118460582D01*
X108258474Y-118296131D01*
X108125611Y-118154886D01*
X107967745Y-118042275D01*
X107790943Y-117962626D01*
X107602000Y-117919000D01*
X107327000Y-117919000D01*
X107073000Y-117919000D01*
X106798000Y-117919000D01*
X106609057Y-117962626D01*
X106432255Y-118042275D01*
X106274389Y-118154886D01*
X106141526Y-118296131D01*
X106038771Y-118460582D01*
X105984098Y-118622393D01*
X97406291Y-118622393D01*
X97546810Y-117723078D01*
X98119000Y-117723078D01*
X98119000Y-117876922D01*
X98149013Y-118027809D01*
X98207887Y-118169942D01*
X98293358Y-118297859D01*
X98402141Y-118406642D01*
X98530058Y-118492113D01*
X98672191Y-118550987D01*
X98823078Y-118581000D01*
X98976922Y-118581000D01*
X99127809Y-118550987D01*
X99269942Y-118492113D01*
X99397859Y-118406642D01*
X99498501Y-118306000D01*
X101001499Y-118306000D01*
X101102141Y-118406642D01*
X101230058Y-118492113D01*
X101372191Y-118550987D01*
X101523078Y-118581000D01*
X101676922Y-118581000D01*
X101827809Y-118550987D01*
X101969942Y-118492113D01*
X102097859Y-118406642D01*
X102206642Y-118297859D01*
X102292113Y-118169942D01*
X102350987Y-118027809D01*
X102381000Y-117876922D01*
X102381000Y-117723078D01*
X102350987Y-117572191D01*
X102292113Y-117430058D01*
X102206642Y-117302141D01*
X102097859Y-117193358D01*
X101969942Y-117107887D01*
X101827809Y-117049013D01*
X101676922Y-117019000D01*
X101523078Y-117019000D01*
X101372191Y-117049013D01*
X101230058Y-117107887D01*
X101102141Y-117193358D01*
X101001499Y-117294000D01*
X99498501Y-117294000D01*
X99397859Y-117193358D01*
X99269942Y-117107887D01*
X99127809Y-117049013D01*
X98976922Y-117019000D01*
X98823078Y-117019000D01*
X98672191Y-117049013D01*
X98530058Y-117107887D01*
X98402141Y-117193358D01*
X98293358Y-117302141D01*
X98207887Y-117430058D01*
X98149013Y-117572191D01*
X98119000Y-117723078D01*
X97546810Y-117723078D01*
X98045325Y-114532582D01*
X98046316Y-114524580D01*
X98069508Y-114271819D01*
X98069959Y-114255708D01*
X98060951Y-114002045D01*
X98059358Y-113986006D01*
X98029688Y-113805022D01*
X101257279Y-113805022D01*
X101257279Y-114077056D01*
X101310350Y-114343862D01*
X101414453Y-114595188D01*
X101565586Y-114821375D01*
X101757943Y-115013732D01*
X101984130Y-115164865D01*
X102235456Y-115268968D01*
X102502262Y-115322039D01*
X102774296Y-115322039D01*
X103041102Y-115268968D01*
X103292428Y-115164865D01*
X103518615Y-115013732D01*
X103710972Y-114821375D01*
X103862105Y-114595188D01*
X103966208Y-114343862D01*
X104019279Y-114077056D01*
X104019279Y-113805022D01*
X103966208Y-113538216D01*
X103862105Y-113286890D01*
X103710972Y-113060703D01*
X103518615Y-112868346D01*
X103292428Y-112717213D01*
X103041102Y-112613110D01*
X102774296Y-112560039D01*
X102502262Y-112560039D01*
X102235456Y-112613110D01*
X101984130Y-112717213D01*
X101757943Y-112868346D01*
X101565586Y-113060703D01*
X101414453Y-113286890D01*
X101310350Y-113538216D01*
X101257279Y-113805022D01*
X98029688Y-113805022D01*
X98018294Y-113735527D01*
X98014682Y-113719819D01*
X97942225Y-113476558D01*
X97939680Y-113468907D01*
X96833786Y-110467194D01*
X106668830Y-110467194D01*
X106668830Y-110739228D01*
X106721901Y-111006034D01*
X106826004Y-111257360D01*
X106977137Y-111483547D01*
X107169494Y-111675904D01*
X107395681Y-111827037D01*
X107647007Y-111931140D01*
X107913813Y-111984211D01*
X108185847Y-111984211D01*
X108452653Y-111931140D01*
X108703979Y-111827037D01*
X108930166Y-111675904D01*
X109122523Y-111483547D01*
X109273656Y-111257360D01*
X109377759Y-111006034D01*
X109430830Y-110739228D01*
X109430830Y-110467194D01*
X109377759Y-110200388D01*
X109273656Y-109949062D01*
X109122523Y-109722875D01*
X108930166Y-109530518D01*
X108703979Y-109379385D01*
X108452653Y-109275282D01*
X108185847Y-109222211D01*
X107913813Y-109222211D01*
X107647007Y-109275282D01*
X107395681Y-109379385D01*
X107169494Y-109530518D01*
X106977137Y-109722875D01*
X106826004Y-109949062D01*
X106721901Y-110200388D01*
X106668830Y-110467194D01*
X96833786Y-110467194D01*
X95651152Y-107257187D01*
X111526443Y-107257187D01*
X111526443Y-107529221D01*
X111579514Y-107796027D01*
X111683617Y-108047353D01*
X111834750Y-108273540D01*
X112027107Y-108465897D01*
X112253294Y-108617030D01*
X112504620Y-108721133D01*
X112771426Y-108774204D01*
X113043460Y-108774204D01*
X113310266Y-108721133D01*
X113561592Y-108617030D01*
X113787779Y-108465897D01*
X113980136Y-108273540D01*
X114131269Y-108047353D01*
X114235372Y-107796027D01*
X114288443Y-107529221D01*
X114288443Y-107257187D01*
X114235372Y-106990381D01*
X114131269Y-106739055D01*
X113980136Y-106512868D01*
X113787779Y-106320511D01*
X113561592Y-106169378D01*
X113310266Y-106065275D01*
X113043460Y-106012204D01*
X112771426Y-106012204D01*
X112504620Y-106065275D01*
X112253294Y-106169378D01*
X112027107Y-106320511D01*
X111834750Y-106512868D01*
X111683617Y-106739055D01*
X111579514Y-106990381D01*
X111526443Y-107257187D01*
X95651152Y-107257187D01*
X85101743Y-78623078D01*
X103119000Y-78623078D01*
X103119000Y-78776922D01*
X103149013Y-78927809D01*
X103207887Y-79069942D01*
X103293358Y-79197859D01*
X103402141Y-79306642D01*
X103530058Y-79392113D01*
X103672191Y-79450987D01*
X103823078Y-79481000D01*
X103976922Y-79481000D01*
X104127809Y-79450987D01*
X104269942Y-79392113D01*
X104397859Y-79306642D01*
X104498501Y-79206000D01*
X105090409Y-79206000D01*
X112968425Y-87084017D01*
X112984270Y-87103324D01*
X113061318Y-87166556D01*
X113149222Y-87213542D01*
X113244604Y-87242475D01*
X113343797Y-87252245D01*
X113368651Y-87249797D01*
X114855949Y-87249797D01*
X114956591Y-87350439D01*
X115084508Y-87435910D01*
X115226641Y-87494784D01*
X115377528Y-87524797D01*
X115531372Y-87524797D01*
X115682259Y-87494784D01*
X115824392Y-87435910D01*
X115952309Y-87350439D01*
X116061092Y-87241656D01*
X116146563Y-87113739D01*
X116205437Y-86971606D01*
X116235450Y-86820719D01*
X116235450Y-86666875D01*
X116205437Y-86515988D01*
X116146563Y-86373855D01*
X116061092Y-86245938D01*
X115952309Y-86137155D01*
X115926248Y-86119741D01*
X115928167Y-86116869D01*
X115987041Y-85974736D01*
X116017054Y-85823849D01*
X116017054Y-85670005D01*
X115987041Y-85519118D01*
X115981607Y-85506000D01*
X118976520Y-85506000D01*
X119077162Y-85606642D01*
X119205079Y-85692113D01*
X119347212Y-85750987D01*
X119498099Y-85781000D01*
X119651943Y-85781000D01*
X119802830Y-85750987D01*
X119944963Y-85692113D01*
X120072880Y-85606642D01*
X120181663Y-85497859D01*
X120267134Y-85369942D01*
X120326008Y-85227809D01*
X120356021Y-85076922D01*
X120356021Y-84923078D01*
X120326008Y-84772191D01*
X120267134Y-84630058D01*
X120181663Y-84502141D01*
X120072880Y-84393358D01*
X119944963Y-84307887D01*
X119802830Y-84249013D01*
X119651943Y-84219000D01*
X119498099Y-84219000D01*
X119347212Y-84249013D01*
X119205079Y-84307887D01*
X119077162Y-84393358D01*
X118976520Y-84494000D01*
X115862266Y-84494000D01*
X118243243Y-82113024D01*
X118262550Y-82097179D01*
X118325782Y-82020131D01*
X118372768Y-81932227D01*
X118394967Y-81859045D01*
X118401701Y-81836846D01*
X118402675Y-81826958D01*
X118409023Y-81762506D01*
X118409023Y-81762499D01*
X118411470Y-81737653D01*
X118409023Y-81712807D01*
X118409023Y-79872532D01*
X118573875Y-79982682D01*
X118825201Y-80086785D01*
X119092007Y-80139856D01*
X119364041Y-80139856D01*
X119630847Y-80086785D01*
X119882173Y-79982682D01*
X120108360Y-79831549D01*
X120300717Y-79639192D01*
X120451850Y-79413005D01*
X120555953Y-79161679D01*
X120609024Y-78894873D01*
X120609024Y-78622839D01*
X120555953Y-78356033D01*
X120451850Y-78104707D01*
X120300717Y-77878520D01*
X120108360Y-77686163D01*
X119882173Y-77535030D01*
X119630847Y-77430927D01*
X119364041Y-77377856D01*
X119363614Y-77377856D01*
X119949049Y-76792421D01*
X119968356Y-76776576D01*
X120031588Y-76699528D01*
X120078574Y-76611624D01*
X120107507Y-76516242D01*
X120114829Y-76441903D01*
X120114829Y-76441895D01*
X120117276Y-76417049D01*
X120114829Y-76392203D01*
X120114829Y-72581482D01*
X120117276Y-72556636D01*
X120114829Y-72531790D01*
X120114829Y-72531783D01*
X120107507Y-72457444D01*
X120087520Y-72391552D01*
X120078574Y-72362062D01*
X120031588Y-72274158D01*
X119968356Y-72197110D01*
X119949049Y-72181265D01*
X118246922Y-70479139D01*
X118231073Y-70459827D01*
X118154025Y-70396595D01*
X118066121Y-70349609D01*
X117970739Y-70320676D01*
X117896400Y-70313354D01*
X117896392Y-70313354D01*
X117871546Y-70310907D01*
X117846700Y-70313354D01*
X117765948Y-70313354D01*
X117734014Y-70236257D01*
X117599296Y-70034637D01*
X117427833Y-69863174D01*
X117226213Y-69728456D01*
X117002185Y-69635661D01*
X116764359Y-69588354D01*
X116521873Y-69588354D01*
X116284047Y-69635661D01*
X116060019Y-69728456D01*
X115858399Y-69863174D01*
X115686936Y-70034637D01*
X115552218Y-70236257D01*
X115459423Y-70460285D01*
X115412116Y-70698111D01*
X115412116Y-70940597D01*
X115459423Y-71178423D01*
X115552218Y-71402451D01*
X115686936Y-71604071D01*
X115858399Y-71775534D01*
X116060019Y-71910252D01*
X116284047Y-72003047D01*
X116521873Y-72050354D01*
X116764359Y-72050354D01*
X117002185Y-72003047D01*
X117226213Y-71910252D01*
X117427833Y-71775534D01*
X117599296Y-71604071D01*
X117734014Y-71402451D01*
X117735490Y-71398889D01*
X117883307Y-71546706D01*
X116696591Y-72377654D01*
X116639629Y-72426520D01*
X116593294Y-72485560D01*
X116559368Y-72552504D01*
X116539154Y-72624781D01*
X116533429Y-72699613D01*
X116542413Y-72774123D01*
X116565760Y-72845450D01*
X116602574Y-72910851D01*
X117577654Y-74303409D01*
X117594000Y-74322464D01*
X117594001Y-75817405D01*
X117059785Y-76351622D01*
X117040473Y-76367471D01*
X116977241Y-76444519D01*
X116930255Y-76532424D01*
X116901322Y-76627806D01*
X116894000Y-76702145D01*
X116894000Y-76702152D01*
X116891553Y-76726998D01*
X116894000Y-76751844D01*
X116894001Y-80890407D01*
X115283702Y-82500706D01*
X115257125Y-82482948D01*
X115114992Y-82424074D01*
X114964105Y-82394061D01*
X114810261Y-82394061D01*
X114659374Y-82424074D01*
X114517241Y-82482948D01*
X114389324Y-82568419D01*
X114280541Y-82677202D01*
X114195070Y-82805119D01*
X114136196Y-82947252D01*
X114106183Y-83098139D01*
X114106183Y-83251983D01*
X114136196Y-83402870D01*
X114195070Y-83545003D01*
X114280541Y-83672920D01*
X114289911Y-83682290D01*
X114207887Y-83805048D01*
X114149013Y-83947181D01*
X114119000Y-84098068D01*
X114119000Y-84251912D01*
X114137999Y-84347427D01*
X112655980Y-82865409D01*
X112655980Y-82723078D01*
X112625967Y-82572191D01*
X112567093Y-82430058D01*
X112481622Y-82302141D01*
X112372839Y-82193358D01*
X112244922Y-82107887D01*
X112102789Y-82049013D01*
X111951902Y-82019000D01*
X111798058Y-82019000D01*
X111647171Y-82049013D01*
X111505038Y-82107887D01*
X111377121Y-82193358D01*
X111268338Y-82302141D01*
X111182867Y-82430058D01*
X111123993Y-82572191D01*
X111093980Y-82723078D01*
X111093980Y-82876922D01*
X111123993Y-83027809D01*
X111182867Y-83169942D01*
X111268338Y-83297859D01*
X111377121Y-83406642D01*
X111505038Y-83492113D01*
X111647171Y-83550987D01*
X111798058Y-83581000D01*
X111940389Y-83581000D01*
X113600315Y-85240927D01*
X113192929Y-85240927D01*
X109905917Y-81953915D01*
X110003085Y-81994164D01*
X110153972Y-82024177D01*
X110307816Y-82024177D01*
X110458703Y-81994164D01*
X110600836Y-81935290D01*
X110728753Y-81849819D01*
X110837536Y-81741036D01*
X110923007Y-81613119D01*
X110981881Y-81470986D01*
X111011894Y-81320099D01*
X111011894Y-81166255D01*
X110981881Y-81015368D01*
X110923007Y-80873235D01*
X110837536Y-80745318D01*
X110736894Y-80644676D01*
X110736894Y-75830999D01*
X110826923Y-75830999D01*
X110977810Y-75800986D01*
X111119943Y-75742112D01*
X111247860Y-75656641D01*
X111356643Y-75547858D01*
X111442114Y-75419941D01*
X111500988Y-75277808D01*
X111531001Y-75126921D01*
X111531001Y-74973077D01*
X111500988Y-74822190D01*
X111442114Y-74680057D01*
X111356643Y-74552140D01*
X111247860Y-74443357D01*
X111119943Y-74357886D01*
X110977810Y-74299012D01*
X110826923Y-74268999D01*
X110673079Y-74268999D01*
X110651217Y-74273348D01*
X110650987Y-74272191D01*
X110592113Y-74130058D01*
X110506642Y-74002141D01*
X110397859Y-73893358D01*
X110269942Y-73807887D01*
X110127809Y-73749013D01*
X109976922Y-73719000D01*
X109823078Y-73719000D01*
X109672191Y-73749013D01*
X109530058Y-73807887D01*
X109402141Y-73893358D01*
X109293358Y-74002141D01*
X109207887Y-74130058D01*
X109149013Y-74272191D01*
X109119000Y-74423078D01*
X109119000Y-74565409D01*
X109034770Y-74649639D01*
X109015464Y-74665483D01*
X108952232Y-74742531D01*
X108930879Y-74782479D01*
X108905245Y-74830436D01*
X108876312Y-74925818D01*
X108866543Y-75025010D01*
X108868991Y-75049866D01*
X108868990Y-79832365D01*
X108768348Y-79933007D01*
X108682877Y-80060924D01*
X108624003Y-80203057D01*
X108593990Y-80353944D01*
X108593990Y-80507788D01*
X108624003Y-80658675D01*
X108633426Y-80681425D01*
X105781000Y-77828999D01*
X105781000Y-77723078D01*
X105750987Y-77572191D01*
X105692113Y-77430058D01*
X105606642Y-77302141D01*
X105497859Y-77193358D01*
X105369942Y-77107887D01*
X105227809Y-77049013D01*
X105076922Y-77019000D01*
X104923078Y-77019000D01*
X104772191Y-77049013D01*
X104630058Y-77107887D01*
X104502141Y-77193358D01*
X104393358Y-77302141D01*
X104307887Y-77430058D01*
X104249013Y-77572191D01*
X104219000Y-77723078D01*
X104219000Y-77876922D01*
X104242815Y-77996651D01*
X104127809Y-77949013D01*
X103976922Y-77919000D01*
X103823078Y-77919000D01*
X103672191Y-77949013D01*
X103530058Y-78007887D01*
X103402141Y-78093358D01*
X103293358Y-78202141D01*
X103207887Y-78330058D01*
X103149013Y-78472191D01*
X103119000Y-78623078D01*
X85101743Y-78623078D01*
X84333916Y-76538979D01*
X84255792Y-76265488D01*
X84219882Y-75988114D01*
X84225682Y-75708485D01*
X84273871Y-75428154D01*
X84519159Y-74446996D01*
X87209972Y-74446996D01*
X87209972Y-74719030D01*
X87263043Y-74985836D01*
X87367146Y-75237162D01*
X87518279Y-75463349D01*
X87710636Y-75655706D01*
X87936823Y-75806839D01*
X88188149Y-75910942D01*
X88454955Y-75964013D01*
X88726989Y-75964013D01*
X88993795Y-75910942D01*
X89245121Y-75806839D01*
X89471308Y-75655706D01*
X89663665Y-75463349D01*
X89814798Y-75237162D01*
X89918901Y-74985836D01*
X89971972Y-74719030D01*
X89971972Y-74446996D01*
X89918901Y-74180190D01*
X89814798Y-73928864D01*
X89663665Y-73702677D01*
X89471308Y-73510320D01*
X89245121Y-73359187D01*
X88993795Y-73255084D01*
X88726989Y-73202013D01*
X88454955Y-73202013D01*
X88188149Y-73255084D01*
X87936823Y-73359187D01*
X87710636Y-73510320D01*
X87518279Y-73702677D01*
X87367146Y-73928864D01*
X87263043Y-74180190D01*
X87209972Y-74446996D01*
X84519159Y-74446996D01*
X84893300Y-72950432D01*
X84980810Y-72684967D01*
X85104140Y-72439339D01*
X85262091Y-72214415D01*
X85451264Y-72015033D01*
X85667584Y-71845486D01*
X85910455Y-71707114D01*
X94356392Y-67685239D01*
X95169364Y-67685239D01*
X95183844Y-67758879D01*
X95212414Y-67828279D01*
X96010515Y-69329290D01*
X96052074Y-69391783D01*
X96105027Y-69444967D01*
X96167338Y-69486799D01*
X96236612Y-69515671D01*
X96310189Y-69530473D01*
X96385239Y-69530636D01*
X96458879Y-69516156D01*
X96528279Y-69487586D01*
X98029290Y-68689485D01*
X98091783Y-68647926D01*
X98122376Y-68617465D01*
X113955232Y-68617465D01*
X113955232Y-68859951D01*
X114002539Y-69097777D01*
X114095334Y-69321805D01*
X114230052Y-69523425D01*
X114401515Y-69694888D01*
X114603135Y-69829606D01*
X114827163Y-69922401D01*
X115064989Y-69969708D01*
X115307475Y-69969708D01*
X115545301Y-69922401D01*
X115769329Y-69829606D01*
X115970949Y-69694888D01*
X116142412Y-69523425D01*
X116277130Y-69321805D01*
X116369925Y-69097777D01*
X116417232Y-68859951D01*
X116417232Y-68617465D01*
X116369925Y-68379639D01*
X116277130Y-68155611D01*
X116142412Y-67953991D01*
X115970949Y-67782528D01*
X115769329Y-67647810D01*
X115545301Y-67555015D01*
X115307475Y-67507708D01*
X115064989Y-67507708D01*
X114827163Y-67555015D01*
X114603135Y-67647810D01*
X114401515Y-67782528D01*
X114230052Y-67953991D01*
X114095334Y-68155611D01*
X114002539Y-68379639D01*
X113955232Y-68617465D01*
X98122376Y-68617465D01*
X98144967Y-68594973D01*
X98186799Y-68532662D01*
X98215671Y-68463388D01*
X98230473Y-68389811D01*
X98230636Y-68314761D01*
X98216156Y-68241121D01*
X98187586Y-68171721D01*
X97389485Y-66670710D01*
X97347926Y-66608217D01*
X97294973Y-66555033D01*
X97232662Y-66513201D01*
X97163388Y-66484329D01*
X97089811Y-66469527D01*
X97014761Y-66469364D01*
X96941121Y-66483844D01*
X96871721Y-66512414D01*
X95370710Y-67310515D01*
X95308217Y-67352074D01*
X95255033Y-67405027D01*
X95213201Y-67467338D01*
X95184329Y-67536612D01*
X95169527Y-67610189D01*
X95169364Y-67685239D01*
X94356392Y-67685239D01*
X98112912Y-65896420D01*
X97986507Y-66022825D01*
X97851789Y-66224445D01*
X97758994Y-66448473D01*
X97711687Y-66686299D01*
X97711687Y-66928785D01*
X97758994Y-67166611D01*
X97851789Y-67390639D01*
X97986507Y-67592259D01*
X98157970Y-67763722D01*
X98359590Y-67898440D01*
X98583618Y-67991235D01*
X98821444Y-68038542D01*
X99063930Y-68038542D01*
X99301756Y-67991235D01*
X99525784Y-67898440D01*
X99727404Y-67763722D01*
X99898867Y-67592259D01*
X100021017Y-67409447D01*
X112877675Y-67409447D01*
X112936788Y-67599979D01*
X113002801Y-67651794D01*
X113210630Y-67774442D01*
X113438391Y-67854188D01*
X113677335Y-67887968D01*
X113918277Y-67874482D01*
X114151959Y-67814251D01*
X114272991Y-67655881D01*
X113698160Y-66834938D01*
X112877675Y-67409447D01*
X100021017Y-67409447D01*
X100033585Y-67390639D01*
X100126380Y-67166611D01*
X100173687Y-66928785D01*
X100173687Y-66686299D01*
X100126380Y-66448473D01*
X100047211Y-66257340D01*
X100247984Y-66257340D01*
X100283926Y-66453396D01*
X100464793Y-66613151D01*
X100673352Y-66734552D01*
X100901588Y-66812933D01*
X101140729Y-66845280D01*
X101381587Y-66830352D01*
X101463929Y-66814154D01*
X101513082Y-66763672D01*
X112502881Y-66763672D01*
X112547051Y-67000915D01*
X112573163Y-67080669D01*
X112731987Y-67201383D01*
X113463388Y-66689249D01*
X113906225Y-66689249D01*
X114481055Y-67510193D01*
X114671270Y-67450625D01*
X114807792Y-67251637D01*
X114902872Y-67029838D01*
X114952853Y-66793751D01*
X114955815Y-66552450D01*
X114911645Y-66315207D01*
X114885533Y-66235453D01*
X114726709Y-66114739D01*
X113906225Y-66689249D01*
X113463388Y-66689249D01*
X113552471Y-66626873D01*
X112977641Y-65805929D01*
X112787426Y-65865497D01*
X112650904Y-66064485D01*
X112555824Y-66286284D01*
X112505843Y-66522371D01*
X112502881Y-66763672D01*
X101513082Y-66763672D01*
X101603098Y-66671225D01*
X101132863Y-65786841D01*
X100247984Y-66257340D01*
X100047211Y-66257340D01*
X100033585Y-66224445D01*
X99898867Y-66022825D01*
X99727404Y-65851362D01*
X99525784Y-65716644D01*
X99301756Y-65623849D01*
X99063930Y-65576542D01*
X98821444Y-65576542D01*
X98758265Y-65589109D01*
X100180891Y-64911668D01*
X100140530Y-64964179D01*
X100033621Y-65180525D01*
X99970974Y-65413571D01*
X99954995Y-65654360D01*
X99986299Y-65893640D01*
X100128738Y-66033071D01*
X100816099Y-65667595D01*
X101357131Y-65667595D01*
X101827367Y-66551980D01*
X102023682Y-66516527D01*
X102083156Y-66457321D01*
X102230218Y-66265989D01*
X102337127Y-66049643D01*
X102399774Y-65816597D01*
X102410149Y-65660241D01*
X113185705Y-65660241D01*
X113760536Y-66481184D01*
X114581021Y-65906675D01*
X114521908Y-65716143D01*
X114455895Y-65664328D01*
X114248066Y-65541680D01*
X114020305Y-65461934D01*
X113781361Y-65428154D01*
X113540419Y-65441640D01*
X113306737Y-65501871D01*
X113185705Y-65660241D01*
X102410149Y-65660241D01*
X102415753Y-65575808D01*
X102384449Y-65336528D01*
X102242010Y-65197097D01*
X101357131Y-65667595D01*
X100816099Y-65667595D01*
X101013617Y-65562573D01*
X101004228Y-65544914D01*
X101228496Y-65425668D01*
X101237885Y-65443327D01*
X102122764Y-64972828D01*
X102086822Y-64776772D01*
X101905955Y-64617017D01*
X101697396Y-64495616D01*
X101469160Y-64417235D01*
X101274496Y-64390904D01*
X102139536Y-63978980D01*
X107478436Y-63978980D01*
X107478436Y-64251014D01*
X107531507Y-64517820D01*
X107635610Y-64769146D01*
X107786743Y-64995333D01*
X107979100Y-65187690D01*
X108205287Y-65338823D01*
X108456613Y-65442926D01*
X108723419Y-65495997D01*
X108995453Y-65495997D01*
X109262259Y-65442926D01*
X109513585Y-65338823D01*
X109739772Y-65187690D01*
X109932129Y-64995333D01*
X110083262Y-64769146D01*
X110187365Y-64517820D01*
X110240436Y-64251014D01*
X110240436Y-63978980D01*
X110187365Y-63712174D01*
X110083262Y-63460848D01*
X109932129Y-63234661D01*
X109739772Y-63042304D01*
X109513585Y-62891171D01*
X109262259Y-62787068D01*
X108995453Y-62733997D01*
X108723419Y-62733997D01*
X108456613Y-62787068D01*
X108205287Y-62891171D01*
X107979100Y-63042304D01*
X107786743Y-63234661D01*
X107635610Y-63460848D01*
X107531507Y-63712174D01*
X107478436Y-63978980D01*
X102139536Y-63978980D01*
X105642359Y-62310969D01*
X105905142Y-62208940D01*
X106175476Y-62147860D01*
X106456589Y-62127000D01*
X111982267Y-62127000D01*
X112236728Y-62144075D01*
G37*
G04 #@! TD.AperFunction*
M02*
