G04 #@! TF.GenerationSoftware,KiCad,Pcbnew,5.1.7*
G04 #@! TF.CreationDate,2020-12-05T21:44:05-08:00*
G04 #@! TF.ProjectId,xmascard2020,786d6173-6361-4726-9432-3032302e6b69,rev?*
G04 #@! TF.SameCoordinates,Original*
G04 #@! TF.FileFunction,Legend,Top*
G04 #@! TF.FilePolarity,Positive*
%FSLAX46Y46*%
G04 Gerber Fmt 4.6, Leading zero omitted, Abs format (unit mm)*
G04 Created by KiCad (PCBNEW 5.1.7) date 2020-12-05 21:44:05*
%MOMM*%
%LPD*%
G01*
G04 APERTURE LIST*
%ADD10C,0.150000*%
%ADD11C,0.010000*%
G04 APERTURE END LIST*
D10*
X123035595Y-151302380D02*
X123035595Y-150302380D01*
X123607023Y-151302380D01*
X123607023Y-150302380D01*
X124273690Y-150302380D02*
X124464166Y-150302380D01*
X124559404Y-150350000D01*
X124654642Y-150445238D01*
X124702261Y-150635714D01*
X124702261Y-150969047D01*
X124654642Y-151159523D01*
X124559404Y-151254761D01*
X124464166Y-151302380D01*
X124273690Y-151302380D01*
X124178452Y-151254761D01*
X124083214Y-151159523D01*
X124035595Y-150969047D01*
X124035595Y-150635714D01*
X124083214Y-150445238D01*
X124178452Y-150350000D01*
X124273690Y-150302380D01*
X124987976Y-150302380D02*
X125559404Y-150302380D01*
X125273690Y-151302380D02*
X125273690Y-150302380D01*
X125892738Y-150778571D02*
X126226071Y-150778571D01*
X126368928Y-151302380D02*
X125892738Y-151302380D01*
X125892738Y-150302380D01*
X126368928Y-150302380D01*
X126749880Y-151254761D02*
X126892738Y-151302380D01*
X127130833Y-151302380D01*
X127226071Y-151254761D01*
X127273690Y-151207142D01*
X127321309Y-151111904D01*
X127321309Y-151016666D01*
X127273690Y-150921428D01*
X127226071Y-150873809D01*
X127130833Y-150826190D01*
X126940357Y-150778571D01*
X126845119Y-150730952D01*
X126797500Y-150683333D01*
X126749880Y-150588095D01*
X126749880Y-150492857D01*
X126797500Y-150397619D01*
X126845119Y-150350000D01*
X126940357Y-150302380D01*
X127178452Y-150302380D01*
X127321309Y-150350000D01*
X127749880Y-151207142D02*
X127797500Y-151254761D01*
X127749880Y-151302380D01*
X127702261Y-151254761D01*
X127749880Y-151207142D01*
X127749880Y-151302380D01*
X127749880Y-150683333D02*
X127797500Y-150730952D01*
X127749880Y-150778571D01*
X127702261Y-150730952D01*
X127749880Y-150683333D01*
X127749880Y-150778571D01*
X123035595Y-152952380D02*
X123035595Y-151952380D01*
X123035595Y-152428571D02*
X123607023Y-152428571D01*
X123607023Y-152952380D02*
X123607023Y-151952380D01*
X124226071Y-152952380D02*
X124130833Y-152904761D01*
X124083214Y-152857142D01*
X124035595Y-152761904D01*
X124035595Y-152476190D01*
X124083214Y-152380952D01*
X124130833Y-152333333D01*
X124226071Y-152285714D01*
X124368928Y-152285714D01*
X124464166Y-152333333D01*
X124511785Y-152380952D01*
X124559404Y-152476190D01*
X124559404Y-152761904D01*
X124511785Y-152857142D01*
X124464166Y-152904761D01*
X124368928Y-152952380D01*
X124226071Y-152952380D01*
X125130833Y-152952380D02*
X125035595Y-152904761D01*
X124987976Y-152809523D01*
X124987976Y-151952380D01*
X125892738Y-152904761D02*
X125797500Y-152952380D01*
X125607023Y-152952380D01*
X125511785Y-152904761D01*
X125464166Y-152809523D01*
X125464166Y-152428571D01*
X125511785Y-152333333D01*
X125607023Y-152285714D01*
X125797500Y-152285714D01*
X125892738Y-152333333D01*
X125940357Y-152428571D01*
X125940357Y-152523809D01*
X125464166Y-152619047D01*
X126321309Y-152904761D02*
X126416547Y-152952380D01*
X126607023Y-152952380D01*
X126702261Y-152904761D01*
X126749880Y-152809523D01*
X126749880Y-152761904D01*
X126702261Y-152666666D01*
X126607023Y-152619047D01*
X126464166Y-152619047D01*
X126368928Y-152571428D01*
X126321309Y-152476190D01*
X126321309Y-152428571D01*
X126368928Y-152333333D01*
X126464166Y-152285714D01*
X126607023Y-152285714D01*
X126702261Y-152333333D01*
X127940357Y-152952380D02*
X127940357Y-152285714D01*
X127940357Y-151952380D02*
X127892738Y-152000000D01*
X127940357Y-152047619D01*
X127987976Y-152000000D01*
X127940357Y-151952380D01*
X127940357Y-152047619D01*
X128416547Y-152285714D02*
X128416547Y-152952380D01*
X128416547Y-152380952D02*
X128464166Y-152333333D01*
X128559404Y-152285714D01*
X128702261Y-152285714D01*
X128797500Y-152333333D01*
X128845119Y-152428571D01*
X128845119Y-152952380D01*
X130083214Y-152952380D02*
X130083214Y-151952380D01*
X130321309Y-151952380D01*
X130464166Y-152000000D01*
X130559404Y-152095238D01*
X130607023Y-152190476D01*
X130654642Y-152380952D01*
X130654642Y-152523809D01*
X130607023Y-152714285D01*
X130559404Y-152809523D01*
X130464166Y-152904761D01*
X130321309Y-152952380D01*
X130083214Y-152952380D01*
X130987976Y-152952380D02*
X131511785Y-152285714D01*
X130987976Y-152285714D02*
X131511785Y-152952380D01*
X132654642Y-152285714D02*
X132654642Y-153285714D01*
X132654642Y-152333333D02*
X132749880Y-152285714D01*
X132940357Y-152285714D01*
X133035595Y-152333333D01*
X133083214Y-152380952D01*
X133130833Y-152476190D01*
X133130833Y-152761904D01*
X133083214Y-152857142D01*
X133035595Y-152904761D01*
X132940357Y-152952380D01*
X132749880Y-152952380D01*
X132654642Y-152904761D01*
X133987976Y-152952380D02*
X133987976Y-152428571D01*
X133940357Y-152333333D01*
X133845119Y-152285714D01*
X133654642Y-152285714D01*
X133559404Y-152333333D01*
X133987976Y-152904761D02*
X133892738Y-152952380D01*
X133654642Y-152952380D01*
X133559404Y-152904761D01*
X133511785Y-152809523D01*
X133511785Y-152714285D01*
X133559404Y-152619047D01*
X133654642Y-152571428D01*
X133892738Y-152571428D01*
X133987976Y-152523809D01*
X134892738Y-152952380D02*
X134892738Y-151952380D01*
X134892738Y-152904761D02*
X134797500Y-152952380D01*
X134607023Y-152952380D01*
X134511785Y-152904761D01*
X134464166Y-152857142D01*
X134416547Y-152761904D01*
X134416547Y-152476190D01*
X134464166Y-152380952D01*
X134511785Y-152333333D01*
X134607023Y-152285714D01*
X134797500Y-152285714D01*
X134892738Y-152333333D01*
X135321309Y-152904761D02*
X135416547Y-152952380D01*
X135607023Y-152952380D01*
X135702261Y-152904761D01*
X135749880Y-152809523D01*
X135749880Y-152761904D01*
X135702261Y-152666666D01*
X135607023Y-152619047D01*
X135464166Y-152619047D01*
X135368928Y-152571428D01*
X135321309Y-152476190D01*
X135321309Y-152428571D01*
X135368928Y-152333333D01*
X135464166Y-152285714D01*
X135607023Y-152285714D01*
X135702261Y-152333333D01*
X136940357Y-152952380D02*
X136940357Y-151952380D01*
X137273690Y-152666666D01*
X137607023Y-151952380D01*
X137607023Y-152952380D01*
X138083214Y-151952380D02*
X138083214Y-152761904D01*
X138130833Y-152857142D01*
X138178452Y-152904761D01*
X138273690Y-152952380D01*
X138464166Y-152952380D01*
X138559404Y-152904761D01*
X138607023Y-152857142D01*
X138654642Y-152761904D01*
X138654642Y-151952380D01*
X139083214Y-152904761D02*
X139226071Y-152952380D01*
X139464166Y-152952380D01*
X139559404Y-152904761D01*
X139607023Y-152857142D01*
X139654642Y-152761904D01*
X139654642Y-152666666D01*
X139607023Y-152571428D01*
X139559404Y-152523809D01*
X139464166Y-152476190D01*
X139273690Y-152428571D01*
X139178452Y-152380952D01*
X139130833Y-152333333D01*
X139083214Y-152238095D01*
X139083214Y-152142857D01*
X139130833Y-152047619D01*
X139178452Y-152000000D01*
X139273690Y-151952380D01*
X139511785Y-151952380D01*
X139654642Y-152000000D01*
X139940357Y-151952380D02*
X140511785Y-151952380D01*
X140226071Y-152952380D02*
X140226071Y-151952380D01*
X141940357Y-152428571D02*
X142083214Y-152476190D01*
X142130833Y-152523809D01*
X142178452Y-152619047D01*
X142178452Y-152761904D01*
X142130833Y-152857142D01*
X142083214Y-152904761D01*
X141987976Y-152952380D01*
X141607023Y-152952380D01*
X141607023Y-151952380D01*
X141940357Y-151952380D01*
X142035595Y-152000000D01*
X142083214Y-152047619D01*
X142130833Y-152142857D01*
X142130833Y-152238095D01*
X142083214Y-152333333D01*
X142035595Y-152380952D01*
X141940357Y-152428571D01*
X141607023Y-152428571D01*
X142607023Y-152428571D02*
X142940357Y-152428571D01*
X143083214Y-152952380D02*
X142607023Y-152952380D01*
X142607023Y-151952380D01*
X143083214Y-151952380D01*
X144273690Y-152952380D02*
X144273690Y-151952380D01*
X144845119Y-152952380D01*
X144845119Y-151952380D01*
X145511785Y-151952380D02*
X145702261Y-151952380D01*
X145797500Y-152000000D01*
X145892738Y-152095238D01*
X145940357Y-152285714D01*
X145940357Y-152619047D01*
X145892738Y-152809523D01*
X145797500Y-152904761D01*
X145702261Y-152952380D01*
X145511785Y-152952380D01*
X145416547Y-152904761D01*
X145321309Y-152809523D01*
X145273690Y-152619047D01*
X145273690Y-152285714D01*
X145321309Y-152095238D01*
X145416547Y-152000000D01*
X145511785Y-151952380D01*
X146368928Y-152952380D02*
X146368928Y-151952380D01*
X146940357Y-152952380D01*
X146940357Y-151952380D01*
X147416547Y-152571428D02*
X148178452Y-152571428D01*
X148654642Y-152952380D02*
X148654642Y-151952380D01*
X149035595Y-151952380D01*
X149130833Y-152000000D01*
X149178452Y-152047619D01*
X149226071Y-152142857D01*
X149226071Y-152285714D01*
X149178452Y-152380952D01*
X149130833Y-152428571D01*
X149035595Y-152476190D01*
X148654642Y-152476190D01*
X150130833Y-152952380D02*
X149654642Y-152952380D01*
X149654642Y-151952380D01*
X150416547Y-152666666D02*
X150892738Y-152666666D01*
X150321309Y-152952380D02*
X150654642Y-151952380D01*
X150987976Y-152952380D01*
X151178452Y-151952380D02*
X151749880Y-151952380D01*
X151464166Y-152952380D02*
X151464166Y-151952380D01*
X152083214Y-152428571D02*
X152416547Y-152428571D01*
X152559404Y-152952380D02*
X152083214Y-152952380D01*
X152083214Y-151952380D01*
X152559404Y-151952380D01*
X152987976Y-152952380D02*
X152987976Y-151952380D01*
X153226071Y-151952380D01*
X153368928Y-152000000D01*
X153464166Y-152095238D01*
X153511785Y-152190476D01*
X153559404Y-152380952D01*
X153559404Y-152523809D01*
X153511785Y-152714285D01*
X153464166Y-152809523D01*
X153368928Y-152904761D01*
X153226071Y-152952380D01*
X152987976Y-152952380D01*
X122987976Y-154316666D02*
X123464166Y-154316666D01*
X122892738Y-154602380D02*
X123226071Y-153602380D01*
X123559404Y-154602380D01*
X124035595Y-154602380D02*
X123940357Y-154554761D01*
X123892738Y-154459523D01*
X123892738Y-153602380D01*
X124559404Y-154602380D02*
X124464166Y-154554761D01*
X124416547Y-154459523D01*
X124416547Y-153602380D01*
X125702261Y-154602380D02*
X125702261Y-153935714D01*
X125702261Y-154126190D02*
X125749880Y-154030952D01*
X125797500Y-153983333D01*
X125892738Y-153935714D01*
X125987976Y-153935714D01*
X126464166Y-154602380D02*
X126368928Y-154554761D01*
X126321309Y-154507142D01*
X126273690Y-154411904D01*
X126273690Y-154126190D01*
X126321309Y-154030952D01*
X126368928Y-153983333D01*
X126464166Y-153935714D01*
X126607023Y-153935714D01*
X126702261Y-153983333D01*
X126749880Y-154030952D01*
X126797500Y-154126190D01*
X126797500Y-154411904D01*
X126749880Y-154507142D01*
X126702261Y-154554761D01*
X126607023Y-154602380D01*
X126464166Y-154602380D01*
X127654642Y-153935714D02*
X127654642Y-154602380D01*
X127226071Y-153935714D02*
X127226071Y-154459523D01*
X127273690Y-154554761D01*
X127368928Y-154602380D01*
X127511785Y-154602380D01*
X127607023Y-154554761D01*
X127654642Y-154507142D01*
X127987976Y-153935714D02*
X128368928Y-153935714D01*
X128130833Y-153602380D02*
X128130833Y-154459523D01*
X128178452Y-154554761D01*
X128273690Y-154602380D01*
X128368928Y-154602380D01*
X129083214Y-154554761D02*
X128987976Y-154602380D01*
X128797500Y-154602380D01*
X128702261Y-154554761D01*
X128654642Y-154459523D01*
X128654642Y-154078571D01*
X128702261Y-153983333D01*
X128797500Y-153935714D01*
X128987976Y-153935714D01*
X129083214Y-153983333D01*
X129130833Y-154078571D01*
X129130833Y-154173809D01*
X128654642Y-154269047D01*
X129987976Y-154602380D02*
X129987976Y-153602380D01*
X129987976Y-154554761D02*
X129892738Y-154602380D01*
X129702261Y-154602380D01*
X129607023Y-154554761D01*
X129559404Y-154507142D01*
X129511785Y-154411904D01*
X129511785Y-154126190D01*
X129559404Y-154030952D01*
X129607023Y-153983333D01*
X129702261Y-153935714D01*
X129892738Y-153935714D01*
X129987976Y-153983333D01*
X131607023Y-154554761D02*
X131511785Y-154602380D01*
X131321309Y-154602380D01*
X131226071Y-154554761D01*
X131178452Y-154459523D01*
X131178452Y-154078571D01*
X131226071Y-153983333D01*
X131321309Y-153935714D01*
X131511785Y-153935714D01*
X131607023Y-153983333D01*
X131654642Y-154078571D01*
X131654642Y-154173809D01*
X131178452Y-154269047D01*
X132511785Y-154602380D02*
X132511785Y-153602380D01*
X132511785Y-154554761D02*
X132416547Y-154602380D01*
X132226071Y-154602380D01*
X132130833Y-154554761D01*
X132083214Y-154507142D01*
X132035595Y-154411904D01*
X132035595Y-154126190D01*
X132083214Y-154030952D01*
X132130833Y-153983333D01*
X132226071Y-153935714D01*
X132416547Y-153935714D01*
X132511785Y-153983333D01*
X133416547Y-153935714D02*
X133416547Y-154745238D01*
X133368928Y-154840476D01*
X133321309Y-154888095D01*
X133226071Y-154935714D01*
X133083214Y-154935714D01*
X132987976Y-154888095D01*
X133416547Y-154554761D02*
X133321309Y-154602380D01*
X133130833Y-154602380D01*
X133035595Y-154554761D01*
X132987976Y-154507142D01*
X132940357Y-154411904D01*
X132940357Y-154126190D01*
X132987976Y-154030952D01*
X133035595Y-153983333D01*
X133130833Y-153935714D01*
X133321309Y-153935714D01*
X133416547Y-153983333D01*
X134273690Y-154554761D02*
X134178452Y-154602380D01*
X133987976Y-154602380D01*
X133892738Y-154554761D01*
X133845119Y-154459523D01*
X133845119Y-154078571D01*
X133892738Y-153983333D01*
X133987976Y-153935714D01*
X134178452Y-153935714D01*
X134273690Y-153983333D01*
X134321309Y-154078571D01*
X134321309Y-154173809D01*
X133845119Y-154269047D01*
X134702261Y-154554761D02*
X134797500Y-154602380D01*
X134987976Y-154602380D01*
X135083214Y-154554761D01*
X135130833Y-154459523D01*
X135130833Y-154411904D01*
X135083214Y-154316666D01*
X134987976Y-154269047D01*
X134845119Y-154269047D01*
X134749880Y-154221428D01*
X134702261Y-154126190D01*
X134702261Y-154078571D01*
X134749880Y-153983333D01*
X134845119Y-153935714D01*
X134987976Y-153935714D01*
X135083214Y-153983333D01*
X136321309Y-154602380D02*
X136321309Y-153602380D01*
X136892738Y-154602380D01*
X136892738Y-153602380D01*
X137559404Y-153602380D02*
X137749880Y-153602380D01*
X137845119Y-153650000D01*
X137940357Y-153745238D01*
X137987976Y-153935714D01*
X137987976Y-154269047D01*
X137940357Y-154459523D01*
X137845119Y-154554761D01*
X137749880Y-154602380D01*
X137559404Y-154602380D01*
X137464166Y-154554761D01*
X137368928Y-154459523D01*
X137321309Y-154269047D01*
X137321309Y-153935714D01*
X137368928Y-153745238D01*
X137464166Y-153650000D01*
X137559404Y-153602380D01*
X138416547Y-154602380D02*
X138416547Y-153602380D01*
X138987976Y-154602380D01*
X138987976Y-153602380D01*
X139464166Y-154221428D02*
X140226071Y-154221428D01*
X140702261Y-154602380D02*
X140702261Y-153602380D01*
X141083214Y-153602380D01*
X141178452Y-153650000D01*
X141226071Y-153697619D01*
X141273690Y-153792857D01*
X141273690Y-153935714D01*
X141226071Y-154030952D01*
X141178452Y-154078571D01*
X141083214Y-154126190D01*
X140702261Y-154126190D01*
X142178452Y-154602380D02*
X141702261Y-154602380D01*
X141702261Y-153602380D01*
X142464166Y-154316666D02*
X142940357Y-154316666D01*
X142368928Y-154602380D02*
X142702261Y-153602380D01*
X143035595Y-154602380D01*
X143226071Y-153602380D02*
X143797500Y-153602380D01*
X143511785Y-154602380D02*
X143511785Y-153602380D01*
X144130833Y-154078571D02*
X144464166Y-154078571D01*
X144607023Y-154602380D02*
X144130833Y-154602380D01*
X144130833Y-153602380D01*
X144607023Y-153602380D01*
X145035595Y-154602380D02*
X145035595Y-153602380D01*
X145273690Y-153602380D01*
X145416547Y-153650000D01*
X145511785Y-153745238D01*
X145559404Y-153840476D01*
X145607023Y-154030952D01*
X145607023Y-154173809D01*
X145559404Y-154364285D01*
X145511785Y-154459523D01*
X145416547Y-154554761D01*
X145273690Y-154602380D01*
X145035595Y-154602380D01*
D11*
G36*
X109223946Y-63930573D02*
G01*
X109237621Y-63949407D01*
X109274715Y-64001474D01*
X109334260Y-64085403D01*
X109415290Y-64199823D01*
X109516838Y-64343362D01*
X109637936Y-64514650D01*
X109777619Y-64712316D01*
X109934919Y-64934988D01*
X110108870Y-65181294D01*
X110298503Y-65449865D01*
X110502854Y-65739328D01*
X110720953Y-66048313D01*
X110951836Y-66375448D01*
X111194535Y-66719362D01*
X111448082Y-67078684D01*
X111711512Y-67452043D01*
X111983857Y-67838067D01*
X112264150Y-68235386D01*
X112551424Y-68642628D01*
X112844714Y-69058423D01*
X113143051Y-69481398D01*
X113445468Y-69910183D01*
X113751000Y-70343407D01*
X114058678Y-70779698D01*
X114367537Y-71217685D01*
X114676609Y-71655997D01*
X114984927Y-72093264D01*
X115291525Y-72528112D01*
X115595435Y-72959173D01*
X115895692Y-73385074D01*
X116191326Y-73804444D01*
X116481373Y-74215912D01*
X116764865Y-74618107D01*
X117040835Y-75009658D01*
X117308317Y-75389193D01*
X117566342Y-75755341D01*
X117813946Y-76106732D01*
X118050160Y-76441993D01*
X118274017Y-76759755D01*
X118484552Y-77058645D01*
X118680796Y-77337292D01*
X118861784Y-77594326D01*
X119026547Y-77828375D01*
X119174120Y-78038068D01*
X119303536Y-78222034D01*
X119413827Y-78378901D01*
X119504027Y-78507299D01*
X119573168Y-78605855D01*
X119620284Y-78673200D01*
X119644409Y-78707962D01*
X119647396Y-78712424D01*
X119648116Y-78719748D01*
X119646655Y-78736595D01*
X119642829Y-78763814D01*
X119636455Y-78802256D01*
X119627349Y-78852773D01*
X119615327Y-78916216D01*
X119600204Y-78993434D01*
X119581798Y-79085280D01*
X119559925Y-79192603D01*
X119534400Y-79316256D01*
X119505039Y-79457088D01*
X119471659Y-79615951D01*
X119434076Y-79793695D01*
X119392106Y-79991171D01*
X119345566Y-80209231D01*
X119294270Y-80448725D01*
X119238036Y-80710503D01*
X119176680Y-80995418D01*
X119110017Y-81304319D01*
X119037864Y-81638058D01*
X118960037Y-81997485D01*
X118876352Y-82383451D01*
X118786626Y-82796807D01*
X118690674Y-83238405D01*
X118588312Y-83709094D01*
X118479357Y-84209726D01*
X118363625Y-84741152D01*
X118240932Y-85304222D01*
X118111094Y-85899788D01*
X117973927Y-86528699D01*
X117829247Y-87191808D01*
X117676871Y-87889965D01*
X117516615Y-88624021D01*
X117348295Y-89394826D01*
X117171726Y-90203233D01*
X116986725Y-91050090D01*
X116793109Y-91936250D01*
X116590693Y-92862563D01*
X116505167Y-93253924D01*
X116293851Y-94220944D01*
X116091446Y-95147357D01*
X115897790Y-96033907D01*
X115712722Y-96881338D01*
X115536081Y-97690393D01*
X115367706Y-98461816D01*
X115207438Y-99196350D01*
X115055113Y-99894739D01*
X114910573Y-100557726D01*
X114773655Y-101186055D01*
X114644199Y-101780470D01*
X114522045Y-102341714D01*
X114407030Y-102870530D01*
X114298995Y-103367663D01*
X114197778Y-103833855D01*
X114103218Y-104269851D01*
X114015155Y-104676393D01*
X113933427Y-105054226D01*
X113857875Y-105404093D01*
X113788336Y-105726737D01*
X113724650Y-106022903D01*
X113666656Y-106293333D01*
X113614193Y-106538771D01*
X113567101Y-106759961D01*
X113525218Y-106957647D01*
X113488383Y-107132571D01*
X113456436Y-107285478D01*
X113429216Y-107417111D01*
X113406561Y-107528213D01*
X113388311Y-107619529D01*
X113374305Y-107691801D01*
X113364383Y-107745774D01*
X113358382Y-107782190D01*
X113356143Y-107801794D01*
X113356375Y-107805500D01*
X113367265Y-107826527D01*
X113397750Y-107883998D01*
X113447378Y-107977072D01*
X113515696Y-108104906D01*
X113602254Y-108266659D01*
X113706598Y-108461489D01*
X113828276Y-108688554D01*
X113966838Y-108947012D01*
X114121830Y-109236023D01*
X114292800Y-109554743D01*
X114479297Y-109902332D01*
X114680868Y-110277947D01*
X114897062Y-110680747D01*
X115127426Y-111109889D01*
X115371509Y-111564533D01*
X115628858Y-112043837D01*
X115899021Y-112546958D01*
X116181546Y-113073054D01*
X116475982Y-113621285D01*
X116781876Y-114190809D01*
X117098776Y-114780782D01*
X117426230Y-115390365D01*
X117763786Y-116018715D01*
X118110992Y-116664990D01*
X118467396Y-117328349D01*
X118832546Y-118007949D01*
X119205990Y-118702950D01*
X119587276Y-119412509D01*
X119975952Y-120135784D01*
X120371566Y-120871934D01*
X120773665Y-121620117D01*
X121181798Y-122379491D01*
X121595513Y-123149215D01*
X122014357Y-123928446D01*
X122262232Y-124389584D01*
X122683804Y-125173868D01*
X123100488Y-125949095D01*
X123511833Y-126714425D01*
X123917387Y-127469017D01*
X124316700Y-128212032D01*
X124709320Y-128942627D01*
X125094795Y-129659964D01*
X125472675Y-130363202D01*
X125842509Y-131051500D01*
X126203844Y-131724018D01*
X126556230Y-132379917D01*
X126899215Y-133018354D01*
X127232348Y-133638490D01*
X127555178Y-134239486D01*
X127867254Y-134820499D01*
X128168124Y-135380691D01*
X128457337Y-135919220D01*
X128734442Y-136435246D01*
X128998987Y-136927929D01*
X129250521Y-137396429D01*
X129488593Y-137839905D01*
X129712752Y-138257516D01*
X129922546Y-138648424D01*
X130117524Y-139011786D01*
X130297234Y-139346763D01*
X130461227Y-139652514D01*
X130609049Y-139928199D01*
X130740251Y-140172978D01*
X130854380Y-140386010D01*
X130950985Y-140566456D01*
X131029615Y-140713473D01*
X131089820Y-140826223D01*
X131131146Y-140903865D01*
X131153144Y-140945558D01*
X131156875Y-140952958D01*
X131155603Y-140954873D01*
X131150458Y-140957323D01*
X131140782Y-140960409D01*
X131125918Y-140964231D01*
X131105206Y-140968890D01*
X131077991Y-140974488D01*
X131043614Y-140981124D01*
X131001417Y-140988901D01*
X130950742Y-140997918D01*
X130890933Y-141008278D01*
X130821331Y-141020079D01*
X130741278Y-141033425D01*
X130650117Y-141048415D01*
X130547190Y-141065150D01*
X130431839Y-141083732D01*
X130303407Y-141104260D01*
X130161235Y-141126837D01*
X130004667Y-141151563D01*
X129833044Y-141178538D01*
X129645709Y-141207864D01*
X129442003Y-141239642D01*
X129221270Y-141273973D01*
X128982851Y-141310957D01*
X128726089Y-141350695D01*
X128450325Y-141393288D01*
X128154903Y-141438838D01*
X127839165Y-141487445D01*
X127502452Y-141539209D01*
X127144108Y-141594233D01*
X126763473Y-141652616D01*
X126359892Y-141714460D01*
X125932705Y-141779865D01*
X125481256Y-141848933D01*
X125004885Y-141921764D01*
X124502937Y-141998459D01*
X123974753Y-142079120D01*
X123419674Y-142163846D01*
X122837045Y-142252739D01*
X122226206Y-142345901D01*
X121586500Y-142443430D01*
X120917269Y-142545430D01*
X120217856Y-142652000D01*
X119487603Y-142763241D01*
X118725853Y-142879255D01*
X117931946Y-143000142D01*
X117105226Y-143126003D01*
X116245036Y-143256939D01*
X115350716Y-143393051D01*
X114421610Y-143534439D01*
X113457060Y-143681206D01*
X112456408Y-143833451D01*
X111418996Y-143991275D01*
X110344167Y-144154780D01*
X109231262Y-144324066D01*
X108079625Y-144499235D01*
X106888597Y-144680386D01*
X105657521Y-144867621D01*
X104385739Y-145061042D01*
X103413500Y-145208902D01*
X102898754Y-145287191D01*
X102394569Y-145363886D01*
X101902568Y-145438738D01*
X101424376Y-145511501D01*
X100961616Y-145581927D01*
X100515913Y-145649769D01*
X100088889Y-145714779D01*
X99682170Y-145776710D01*
X99297378Y-145835314D01*
X98936139Y-145890344D01*
X98600075Y-145941553D01*
X98290810Y-145988693D01*
X98009969Y-146031517D01*
X97759175Y-146069777D01*
X97540052Y-146103226D01*
X97354224Y-146131617D01*
X97203315Y-146154702D01*
X97088948Y-146172233D01*
X97012748Y-146183964D01*
X96976339Y-146189646D01*
X96973542Y-146190111D01*
X96931767Y-146191632D01*
X96915334Y-146180693D01*
X96918753Y-146158952D01*
X96928902Y-146096449D01*
X96945614Y-145994192D01*
X96968722Y-145853187D01*
X96998062Y-145674442D01*
X97033467Y-145458963D01*
X97074771Y-145207757D01*
X97121808Y-144921831D01*
X97174413Y-144602192D01*
X97232419Y-144249847D01*
X97295660Y-143865802D01*
X97363970Y-143451065D01*
X97437184Y-143006642D01*
X97515135Y-142533540D01*
X97597658Y-142032767D01*
X97684587Y-141505328D01*
X97775755Y-140952231D01*
X97870996Y-140374483D01*
X97970145Y-139773090D01*
X98073036Y-139149060D01*
X98179503Y-138503399D01*
X98289379Y-137837114D01*
X98402500Y-137151212D01*
X98518698Y-136446700D01*
X98637808Y-135724584D01*
X98759664Y-134985873D01*
X98884100Y-134231571D01*
X99010950Y-133462687D01*
X99140049Y-132680228D01*
X99271229Y-131885199D01*
X99404326Y-131078608D01*
X99539173Y-130261462D01*
X99581816Y-130003059D01*
X102248299Y-113845506D01*
X95285254Y-94172628D01*
X94971926Y-93287351D01*
X94662040Y-92411753D01*
X94355896Y-91546686D01*
X94053797Y-90693003D01*
X93756043Y-89851554D01*
X93462936Y-89023193D01*
X93174777Y-88208771D01*
X92891866Y-87409139D01*
X92614506Y-86625151D01*
X92342997Y-85857657D01*
X92077641Y-85107511D01*
X91818738Y-84375563D01*
X91566591Y-83662666D01*
X91321499Y-82969672D01*
X91083765Y-82297433D01*
X90853690Y-81646801D01*
X90631574Y-81018627D01*
X90417720Y-80413764D01*
X90212427Y-79833064D01*
X90015998Y-79277378D01*
X89828734Y-78747559D01*
X89650935Y-78244459D01*
X89482903Y-77768929D01*
X89324940Y-77321821D01*
X89177346Y-76903989D01*
X89040422Y-76516282D01*
X88914470Y-76159554D01*
X88799792Y-75834656D01*
X88696687Y-75542441D01*
X88605458Y-75283760D01*
X88526405Y-75059465D01*
X88459831Y-74870409D01*
X88409605Y-74727594D01*
X88910258Y-74727594D01*
X88917565Y-74748593D01*
X88938694Y-74808644D01*
X88973342Y-74906891D01*
X89021206Y-75042479D01*
X89081984Y-75214552D01*
X89155373Y-75422255D01*
X89241071Y-75664732D01*
X89338774Y-75941127D01*
X89448180Y-76250586D01*
X89568986Y-76592251D01*
X89700890Y-76965268D01*
X89843590Y-77368782D01*
X89996781Y-77801936D01*
X90160162Y-78263875D01*
X90333431Y-78753743D01*
X90516283Y-79270685D01*
X90708417Y-79813845D01*
X90909531Y-80382368D01*
X91119320Y-80975398D01*
X91337484Y-81592079D01*
X91563718Y-82231556D01*
X91797720Y-82892973D01*
X92039189Y-83575475D01*
X92287820Y-84278207D01*
X92543312Y-85000311D01*
X92805361Y-85740934D01*
X93073665Y-86499219D01*
X93347922Y-87274310D01*
X93627828Y-88065353D01*
X93913082Y-88871491D01*
X94203379Y-89691870D01*
X94498419Y-90525633D01*
X94797897Y-91371924D01*
X95101512Y-92229889D01*
X95408960Y-93098672D01*
X95719939Y-93977416D01*
X95825717Y-94276311D01*
X102734668Y-113798872D01*
X100110751Y-129697826D01*
X99976478Y-130511444D01*
X99843904Y-131314814D01*
X99713198Y-132106921D01*
X99584525Y-132886750D01*
X99458055Y-133653287D01*
X99333952Y-134405515D01*
X99212386Y-135142420D01*
X99093524Y-135862988D01*
X98977532Y-136566202D01*
X98864578Y-137251049D01*
X98754830Y-137916512D01*
X98648454Y-138561578D01*
X98545618Y-139185230D01*
X98446489Y-139786455D01*
X98351235Y-140364236D01*
X98260023Y-140917560D01*
X98173020Y-141445411D01*
X98090393Y-141946773D01*
X98012310Y-142420633D01*
X97938939Y-142865974D01*
X97870445Y-143281783D01*
X97806998Y-143667044D01*
X97748763Y-144020741D01*
X97695909Y-144341861D01*
X97648602Y-144629388D01*
X97607011Y-144882306D01*
X97571301Y-145099602D01*
X97541641Y-145280259D01*
X97518198Y-145423264D01*
X97501140Y-145527601D01*
X97490632Y-145592254D01*
X97486844Y-145616210D01*
X97486834Y-145616326D01*
X97504961Y-145626589D01*
X97549244Y-145625721D01*
X97555625Y-145624776D01*
X97579877Y-145621055D01*
X97644974Y-145611121D01*
X97749909Y-145595127D01*
X97893674Y-145573226D01*
X98075261Y-145545573D01*
X98293665Y-145512320D01*
X98547877Y-145473620D01*
X98836891Y-145429626D01*
X99159699Y-145380493D01*
X99515294Y-145326372D01*
X99902669Y-145267418D01*
X100320816Y-145203784D01*
X100768729Y-145135622D01*
X101245400Y-145063087D01*
X101749822Y-144986331D01*
X102280988Y-144905507D01*
X102837891Y-144820770D01*
X103419522Y-144732272D01*
X104024876Y-144640166D01*
X104652945Y-144544605D01*
X105302722Y-144445744D01*
X105973199Y-144343735D01*
X106663369Y-144238731D01*
X107372226Y-144130886D01*
X108098761Y-144020353D01*
X108841968Y-143907286D01*
X109600840Y-143791836D01*
X110374368Y-143674159D01*
X111161547Y-143554406D01*
X111961369Y-143432732D01*
X112772826Y-143309289D01*
X113594912Y-143184231D01*
X113996834Y-143123090D01*
X114823482Y-142997327D01*
X115639910Y-142873096D01*
X116445113Y-142750550D01*
X117238087Y-142629842D01*
X118017827Y-142511125D01*
X118783329Y-142394554D01*
X119533588Y-142280281D01*
X120267600Y-142168459D01*
X120984361Y-142059243D01*
X121682865Y-141952785D01*
X122362109Y-141849238D01*
X123021087Y-141748757D01*
X123658797Y-141651494D01*
X124274232Y-141557604D01*
X124866389Y-141467238D01*
X125434263Y-141380551D01*
X125976850Y-141297697D01*
X126493145Y-141218827D01*
X126982143Y-141144096D01*
X127442842Y-141073658D01*
X127874235Y-141007665D01*
X128275318Y-140946270D01*
X128645087Y-140889628D01*
X128982538Y-140837892D01*
X129286666Y-140791215D01*
X129556467Y-140749750D01*
X129790935Y-140713650D01*
X129989068Y-140683070D01*
X130149859Y-140658162D01*
X130272306Y-140639080D01*
X130355402Y-140625977D01*
X130398144Y-140619007D01*
X130404056Y-140617875D01*
X130403346Y-140611899D01*
X130396820Y-140595279D01*
X130384125Y-140567357D01*
X130364908Y-140527474D01*
X130338816Y-140474969D01*
X130305498Y-140409185D01*
X130264600Y-140329461D01*
X130215769Y-140235140D01*
X130158654Y-140125560D01*
X130092901Y-140000064D01*
X130018158Y-139857992D01*
X129934072Y-139698685D01*
X129840290Y-139521483D01*
X129736461Y-139325728D01*
X129622231Y-139110760D01*
X129497247Y-138875921D01*
X129361158Y-138620550D01*
X129213610Y-138343989D01*
X129054251Y-138045579D01*
X128882728Y-137724660D01*
X128698689Y-137380573D01*
X128501780Y-137012659D01*
X128291650Y-136620259D01*
X128067946Y-136202714D01*
X127830315Y-135759363D01*
X127578404Y-135289550D01*
X127311861Y-134792613D01*
X127030334Y-134267894D01*
X126733469Y-133714733D01*
X126420913Y-133132472D01*
X126092316Y-132520452D01*
X125747323Y-131878012D01*
X125385582Y-131204494D01*
X125006740Y-130499239D01*
X124610446Y-129761588D01*
X124196345Y-128990880D01*
X123764086Y-128186458D01*
X123313316Y-127347662D01*
X122843683Y-126473832D01*
X122354833Y-125564310D01*
X121846414Y-124618437D01*
X121635704Y-124226441D01*
X112832545Y-107849631D01*
X115999496Y-93355955D01*
X116205208Y-92414453D01*
X116402050Y-91513447D01*
X116590204Y-90652082D01*
X116769857Y-89829501D01*
X116941194Y-89044847D01*
X117104399Y-88297264D01*
X117259657Y-87585895D01*
X117407154Y-86909884D01*
X117547074Y-86268376D01*
X117679603Y-85660512D01*
X117804925Y-85085437D01*
X117923226Y-84542294D01*
X118034690Y-84030227D01*
X118139503Y-83548379D01*
X118237849Y-83095895D01*
X118329914Y-82671916D01*
X118415883Y-82275588D01*
X118495940Y-81906053D01*
X118570270Y-81562455D01*
X118639060Y-81243938D01*
X118702492Y-80949646D01*
X118760754Y-80678721D01*
X118814029Y-80430307D01*
X118862503Y-80203548D01*
X118906360Y-79997587D01*
X118945786Y-79811569D01*
X118980966Y-79644635D01*
X119012085Y-79495931D01*
X119039327Y-79364600D01*
X119062878Y-79249784D01*
X119082923Y-79150629D01*
X119099646Y-79066276D01*
X119113233Y-78995870D01*
X119123869Y-78938555D01*
X119131739Y-78893473D01*
X119137028Y-78859769D01*
X119139920Y-78836586D01*
X119140601Y-78823068D01*
X119139833Y-78818848D01*
X119122910Y-78793825D01*
X119082744Y-78735921D01*
X119020317Y-78646524D01*
X118936609Y-78527026D01*
X118832601Y-78378814D01*
X118709275Y-78203280D01*
X118567611Y-78001811D01*
X118408590Y-77775798D01*
X118233192Y-77526631D01*
X118042400Y-77255699D01*
X117837193Y-76964391D01*
X117618554Y-76654097D01*
X117387461Y-76326207D01*
X117144898Y-75982110D01*
X116891843Y-75623195D01*
X116629280Y-75250853D01*
X116358187Y-74866472D01*
X116079547Y-74471443D01*
X115794340Y-74067154D01*
X115503547Y-73654996D01*
X115208148Y-73236358D01*
X114909126Y-72812629D01*
X114607461Y-72385199D01*
X114304133Y-71955457D01*
X114000124Y-71524794D01*
X113696415Y-71094598D01*
X113393986Y-70666260D01*
X113093818Y-70241168D01*
X112796893Y-69820712D01*
X112504191Y-69406282D01*
X112216693Y-68999268D01*
X111935380Y-68601058D01*
X111661233Y-68213043D01*
X111395234Y-67836611D01*
X111138362Y-67473154D01*
X110891598Y-67124059D01*
X110655925Y-66790716D01*
X110432322Y-66474516D01*
X110221770Y-66176848D01*
X110025251Y-65899101D01*
X109843745Y-65642664D01*
X109678234Y-65408928D01*
X109529697Y-65199281D01*
X109399117Y-65015114D01*
X109287474Y-64857816D01*
X109195748Y-64728777D01*
X109124922Y-64629385D01*
X109075975Y-64561031D01*
X109049889Y-64525104D01*
X109045630Y-64519667D01*
X109026000Y-64529132D01*
X108969696Y-64557157D01*
X108877815Y-64603188D01*
X108751454Y-64666670D01*
X108591710Y-64747049D01*
X108399683Y-64843771D01*
X108176468Y-64956281D01*
X107923164Y-65084025D01*
X107640869Y-65226449D01*
X107330679Y-65382997D01*
X106993692Y-65553116D01*
X106631006Y-65736251D01*
X106243719Y-65931847D01*
X105832928Y-66139352D01*
X105399730Y-66358209D01*
X104945223Y-66587865D01*
X104470505Y-66827764D01*
X103976673Y-67077354D01*
X103464824Y-67336079D01*
X102936057Y-67603385D01*
X102391469Y-67878718D01*
X101832157Y-68161522D01*
X101259220Y-68451245D01*
X100673753Y-68747331D01*
X100076856Y-69049226D01*
X99469626Y-69356375D01*
X98967162Y-69610552D01*
X98238597Y-69979174D01*
X97532224Y-70336678D01*
X96848696Y-70682732D01*
X96188664Y-71017005D01*
X95552781Y-71339164D01*
X94941698Y-71648878D01*
X94356068Y-71945816D01*
X93796541Y-72229645D01*
X93263772Y-72500033D01*
X92758410Y-72756650D01*
X92281109Y-72999163D01*
X91832521Y-73227241D01*
X91413296Y-73440551D01*
X91024089Y-73638762D01*
X90665549Y-73821543D01*
X90338330Y-73988561D01*
X90043084Y-74139485D01*
X89780462Y-74273983D01*
X89551116Y-74391724D01*
X89355699Y-74492374D01*
X89194862Y-74575604D01*
X89069258Y-74641081D01*
X88979538Y-74688473D01*
X88926355Y-74717449D01*
X88910258Y-74727594D01*
X88409605Y-74727594D01*
X88406035Y-74717443D01*
X88365319Y-74601419D01*
X88337985Y-74523189D01*
X88324333Y-74483605D01*
X88322729Y-74478584D01*
X88341474Y-74467851D01*
X88396927Y-74438576D01*
X88488014Y-74391305D01*
X88613657Y-74326583D01*
X88772780Y-74244958D01*
X88964307Y-74146975D01*
X89187163Y-74033181D01*
X89440270Y-73904123D01*
X89722553Y-73760346D01*
X90032935Y-73602397D01*
X90370341Y-73430822D01*
X90733693Y-73246168D01*
X91121916Y-73048981D01*
X91533934Y-72839807D01*
X91968670Y-72619193D01*
X92425048Y-72387684D01*
X92901992Y-72145828D01*
X93398427Y-71894170D01*
X93913274Y-71633257D01*
X94445459Y-71363635D01*
X94993905Y-71085851D01*
X95557537Y-70800451D01*
X96135276Y-70507981D01*
X96726049Y-70208987D01*
X97328778Y-69904017D01*
X97942387Y-69593615D01*
X98565800Y-69278329D01*
X98760442Y-69179906D01*
X99529761Y-68790925D01*
X100262157Y-68420660D01*
X100958468Y-68068689D01*
X101619530Y-67734593D01*
X102246183Y-67417951D01*
X102839264Y-67118344D01*
X103399610Y-66835349D01*
X103928061Y-66568548D01*
X104425453Y-66317520D01*
X104892625Y-66081844D01*
X105330415Y-65861100D01*
X105739660Y-65654868D01*
X106121198Y-65462728D01*
X106475868Y-65284258D01*
X106804507Y-65119039D01*
X107107953Y-64966650D01*
X107387044Y-64826671D01*
X107642618Y-64698681D01*
X107875514Y-64582261D01*
X108086568Y-64476989D01*
X108276618Y-64382446D01*
X108446504Y-64298211D01*
X108597061Y-64223864D01*
X108729130Y-64158984D01*
X108843547Y-64103151D01*
X108941150Y-64055944D01*
X109022777Y-64016944D01*
X109089266Y-63985730D01*
X109141456Y-63961881D01*
X109180183Y-63944977D01*
X109206286Y-63934598D01*
X109220603Y-63930324D01*
X109223946Y-63930573D01*
G37*
X109223946Y-63930573D02*
X109237621Y-63949407D01*
X109274715Y-64001474D01*
X109334260Y-64085403D01*
X109415290Y-64199823D01*
X109516838Y-64343362D01*
X109637936Y-64514650D01*
X109777619Y-64712316D01*
X109934919Y-64934988D01*
X110108870Y-65181294D01*
X110298503Y-65449865D01*
X110502854Y-65739328D01*
X110720953Y-66048313D01*
X110951836Y-66375448D01*
X111194535Y-66719362D01*
X111448082Y-67078684D01*
X111711512Y-67452043D01*
X111983857Y-67838067D01*
X112264150Y-68235386D01*
X112551424Y-68642628D01*
X112844714Y-69058423D01*
X113143051Y-69481398D01*
X113445468Y-69910183D01*
X113751000Y-70343407D01*
X114058678Y-70779698D01*
X114367537Y-71217685D01*
X114676609Y-71655997D01*
X114984927Y-72093264D01*
X115291525Y-72528112D01*
X115595435Y-72959173D01*
X115895692Y-73385074D01*
X116191326Y-73804444D01*
X116481373Y-74215912D01*
X116764865Y-74618107D01*
X117040835Y-75009658D01*
X117308317Y-75389193D01*
X117566342Y-75755341D01*
X117813946Y-76106732D01*
X118050160Y-76441993D01*
X118274017Y-76759755D01*
X118484552Y-77058645D01*
X118680796Y-77337292D01*
X118861784Y-77594326D01*
X119026547Y-77828375D01*
X119174120Y-78038068D01*
X119303536Y-78222034D01*
X119413827Y-78378901D01*
X119504027Y-78507299D01*
X119573168Y-78605855D01*
X119620284Y-78673200D01*
X119644409Y-78707962D01*
X119647396Y-78712424D01*
X119648116Y-78719748D01*
X119646655Y-78736595D01*
X119642829Y-78763814D01*
X119636455Y-78802256D01*
X119627349Y-78852773D01*
X119615327Y-78916216D01*
X119600204Y-78993434D01*
X119581798Y-79085280D01*
X119559925Y-79192603D01*
X119534400Y-79316256D01*
X119505039Y-79457088D01*
X119471659Y-79615951D01*
X119434076Y-79793695D01*
X119392106Y-79991171D01*
X119345566Y-80209231D01*
X119294270Y-80448725D01*
X119238036Y-80710503D01*
X119176680Y-80995418D01*
X119110017Y-81304319D01*
X119037864Y-81638058D01*
X118960037Y-81997485D01*
X118876352Y-82383451D01*
X118786626Y-82796807D01*
X118690674Y-83238405D01*
X118588312Y-83709094D01*
X118479357Y-84209726D01*
X118363625Y-84741152D01*
X118240932Y-85304222D01*
X118111094Y-85899788D01*
X117973927Y-86528699D01*
X117829247Y-87191808D01*
X117676871Y-87889965D01*
X117516615Y-88624021D01*
X117348295Y-89394826D01*
X117171726Y-90203233D01*
X116986725Y-91050090D01*
X116793109Y-91936250D01*
X116590693Y-92862563D01*
X116505167Y-93253924D01*
X116293851Y-94220944D01*
X116091446Y-95147357D01*
X115897790Y-96033907D01*
X115712722Y-96881338D01*
X115536081Y-97690393D01*
X115367706Y-98461816D01*
X115207438Y-99196350D01*
X115055113Y-99894739D01*
X114910573Y-100557726D01*
X114773655Y-101186055D01*
X114644199Y-101780470D01*
X114522045Y-102341714D01*
X114407030Y-102870530D01*
X114298995Y-103367663D01*
X114197778Y-103833855D01*
X114103218Y-104269851D01*
X114015155Y-104676393D01*
X113933427Y-105054226D01*
X113857875Y-105404093D01*
X113788336Y-105726737D01*
X113724650Y-106022903D01*
X113666656Y-106293333D01*
X113614193Y-106538771D01*
X113567101Y-106759961D01*
X113525218Y-106957647D01*
X113488383Y-107132571D01*
X113456436Y-107285478D01*
X113429216Y-107417111D01*
X113406561Y-107528213D01*
X113388311Y-107619529D01*
X113374305Y-107691801D01*
X113364383Y-107745774D01*
X113358382Y-107782190D01*
X113356143Y-107801794D01*
X113356375Y-107805500D01*
X113367265Y-107826527D01*
X113397750Y-107883998D01*
X113447378Y-107977072D01*
X113515696Y-108104906D01*
X113602254Y-108266659D01*
X113706598Y-108461489D01*
X113828276Y-108688554D01*
X113966838Y-108947012D01*
X114121830Y-109236023D01*
X114292800Y-109554743D01*
X114479297Y-109902332D01*
X114680868Y-110277947D01*
X114897062Y-110680747D01*
X115127426Y-111109889D01*
X115371509Y-111564533D01*
X115628858Y-112043837D01*
X115899021Y-112546958D01*
X116181546Y-113073054D01*
X116475982Y-113621285D01*
X116781876Y-114190809D01*
X117098776Y-114780782D01*
X117426230Y-115390365D01*
X117763786Y-116018715D01*
X118110992Y-116664990D01*
X118467396Y-117328349D01*
X118832546Y-118007949D01*
X119205990Y-118702950D01*
X119587276Y-119412509D01*
X119975952Y-120135784D01*
X120371566Y-120871934D01*
X120773665Y-121620117D01*
X121181798Y-122379491D01*
X121595513Y-123149215D01*
X122014357Y-123928446D01*
X122262232Y-124389584D01*
X122683804Y-125173868D01*
X123100488Y-125949095D01*
X123511833Y-126714425D01*
X123917387Y-127469017D01*
X124316700Y-128212032D01*
X124709320Y-128942627D01*
X125094795Y-129659964D01*
X125472675Y-130363202D01*
X125842509Y-131051500D01*
X126203844Y-131724018D01*
X126556230Y-132379917D01*
X126899215Y-133018354D01*
X127232348Y-133638490D01*
X127555178Y-134239486D01*
X127867254Y-134820499D01*
X128168124Y-135380691D01*
X128457337Y-135919220D01*
X128734442Y-136435246D01*
X128998987Y-136927929D01*
X129250521Y-137396429D01*
X129488593Y-137839905D01*
X129712752Y-138257516D01*
X129922546Y-138648424D01*
X130117524Y-139011786D01*
X130297234Y-139346763D01*
X130461227Y-139652514D01*
X130609049Y-139928199D01*
X130740251Y-140172978D01*
X130854380Y-140386010D01*
X130950985Y-140566456D01*
X131029615Y-140713473D01*
X131089820Y-140826223D01*
X131131146Y-140903865D01*
X131153144Y-140945558D01*
X131156875Y-140952958D01*
X131155603Y-140954873D01*
X131150458Y-140957323D01*
X131140782Y-140960409D01*
X131125918Y-140964231D01*
X131105206Y-140968890D01*
X131077991Y-140974488D01*
X131043614Y-140981124D01*
X131001417Y-140988901D01*
X130950742Y-140997918D01*
X130890933Y-141008278D01*
X130821331Y-141020079D01*
X130741278Y-141033425D01*
X130650117Y-141048415D01*
X130547190Y-141065150D01*
X130431839Y-141083732D01*
X130303407Y-141104260D01*
X130161235Y-141126837D01*
X130004667Y-141151563D01*
X129833044Y-141178538D01*
X129645709Y-141207864D01*
X129442003Y-141239642D01*
X129221270Y-141273973D01*
X128982851Y-141310957D01*
X128726089Y-141350695D01*
X128450325Y-141393288D01*
X128154903Y-141438838D01*
X127839165Y-141487445D01*
X127502452Y-141539209D01*
X127144108Y-141594233D01*
X126763473Y-141652616D01*
X126359892Y-141714460D01*
X125932705Y-141779865D01*
X125481256Y-141848933D01*
X125004885Y-141921764D01*
X124502937Y-141998459D01*
X123974753Y-142079120D01*
X123419674Y-142163846D01*
X122837045Y-142252739D01*
X122226206Y-142345901D01*
X121586500Y-142443430D01*
X120917269Y-142545430D01*
X120217856Y-142652000D01*
X119487603Y-142763241D01*
X118725853Y-142879255D01*
X117931946Y-143000142D01*
X117105226Y-143126003D01*
X116245036Y-143256939D01*
X115350716Y-143393051D01*
X114421610Y-143534439D01*
X113457060Y-143681206D01*
X112456408Y-143833451D01*
X111418996Y-143991275D01*
X110344167Y-144154780D01*
X109231262Y-144324066D01*
X108079625Y-144499235D01*
X106888597Y-144680386D01*
X105657521Y-144867621D01*
X104385739Y-145061042D01*
X103413500Y-145208902D01*
X102898754Y-145287191D01*
X102394569Y-145363886D01*
X101902568Y-145438738D01*
X101424376Y-145511501D01*
X100961616Y-145581927D01*
X100515913Y-145649769D01*
X100088889Y-145714779D01*
X99682170Y-145776710D01*
X99297378Y-145835314D01*
X98936139Y-145890344D01*
X98600075Y-145941553D01*
X98290810Y-145988693D01*
X98009969Y-146031517D01*
X97759175Y-146069777D01*
X97540052Y-146103226D01*
X97354224Y-146131617D01*
X97203315Y-146154702D01*
X97088948Y-146172233D01*
X97012748Y-146183964D01*
X96976339Y-146189646D01*
X96973542Y-146190111D01*
X96931767Y-146191632D01*
X96915334Y-146180693D01*
X96918753Y-146158952D01*
X96928902Y-146096449D01*
X96945614Y-145994192D01*
X96968722Y-145853187D01*
X96998062Y-145674442D01*
X97033467Y-145458963D01*
X97074771Y-145207757D01*
X97121808Y-144921831D01*
X97174413Y-144602192D01*
X97232419Y-144249847D01*
X97295660Y-143865802D01*
X97363970Y-143451065D01*
X97437184Y-143006642D01*
X97515135Y-142533540D01*
X97597658Y-142032767D01*
X97684587Y-141505328D01*
X97775755Y-140952231D01*
X97870996Y-140374483D01*
X97970145Y-139773090D01*
X98073036Y-139149060D01*
X98179503Y-138503399D01*
X98289379Y-137837114D01*
X98402500Y-137151212D01*
X98518698Y-136446700D01*
X98637808Y-135724584D01*
X98759664Y-134985873D01*
X98884100Y-134231571D01*
X99010950Y-133462687D01*
X99140049Y-132680228D01*
X99271229Y-131885199D01*
X99404326Y-131078608D01*
X99539173Y-130261462D01*
X99581816Y-130003059D01*
X102248299Y-113845506D01*
X95285254Y-94172628D01*
X94971926Y-93287351D01*
X94662040Y-92411753D01*
X94355896Y-91546686D01*
X94053797Y-90693003D01*
X93756043Y-89851554D01*
X93462936Y-89023193D01*
X93174777Y-88208771D01*
X92891866Y-87409139D01*
X92614506Y-86625151D01*
X92342997Y-85857657D01*
X92077641Y-85107511D01*
X91818738Y-84375563D01*
X91566591Y-83662666D01*
X91321499Y-82969672D01*
X91083765Y-82297433D01*
X90853690Y-81646801D01*
X90631574Y-81018627D01*
X90417720Y-80413764D01*
X90212427Y-79833064D01*
X90015998Y-79277378D01*
X89828734Y-78747559D01*
X89650935Y-78244459D01*
X89482903Y-77768929D01*
X89324940Y-77321821D01*
X89177346Y-76903989D01*
X89040422Y-76516282D01*
X88914470Y-76159554D01*
X88799792Y-75834656D01*
X88696687Y-75542441D01*
X88605458Y-75283760D01*
X88526405Y-75059465D01*
X88459831Y-74870409D01*
X88409605Y-74727594D01*
X88910258Y-74727594D01*
X88917565Y-74748593D01*
X88938694Y-74808644D01*
X88973342Y-74906891D01*
X89021206Y-75042479D01*
X89081984Y-75214552D01*
X89155373Y-75422255D01*
X89241071Y-75664732D01*
X89338774Y-75941127D01*
X89448180Y-76250586D01*
X89568986Y-76592251D01*
X89700890Y-76965268D01*
X89843590Y-77368782D01*
X89996781Y-77801936D01*
X90160162Y-78263875D01*
X90333431Y-78753743D01*
X90516283Y-79270685D01*
X90708417Y-79813845D01*
X90909531Y-80382368D01*
X91119320Y-80975398D01*
X91337484Y-81592079D01*
X91563718Y-82231556D01*
X91797720Y-82892973D01*
X92039189Y-83575475D01*
X92287820Y-84278207D01*
X92543312Y-85000311D01*
X92805361Y-85740934D01*
X93073665Y-86499219D01*
X93347922Y-87274310D01*
X93627828Y-88065353D01*
X93913082Y-88871491D01*
X94203379Y-89691870D01*
X94498419Y-90525633D01*
X94797897Y-91371924D01*
X95101512Y-92229889D01*
X95408960Y-93098672D01*
X95719939Y-93977416D01*
X95825717Y-94276311D01*
X102734668Y-113798872D01*
X100110751Y-129697826D01*
X99976478Y-130511444D01*
X99843904Y-131314814D01*
X99713198Y-132106921D01*
X99584525Y-132886750D01*
X99458055Y-133653287D01*
X99333952Y-134405515D01*
X99212386Y-135142420D01*
X99093524Y-135862988D01*
X98977532Y-136566202D01*
X98864578Y-137251049D01*
X98754830Y-137916512D01*
X98648454Y-138561578D01*
X98545618Y-139185230D01*
X98446489Y-139786455D01*
X98351235Y-140364236D01*
X98260023Y-140917560D01*
X98173020Y-141445411D01*
X98090393Y-141946773D01*
X98012310Y-142420633D01*
X97938939Y-142865974D01*
X97870445Y-143281783D01*
X97806998Y-143667044D01*
X97748763Y-144020741D01*
X97695909Y-144341861D01*
X97648602Y-144629388D01*
X97607011Y-144882306D01*
X97571301Y-145099602D01*
X97541641Y-145280259D01*
X97518198Y-145423264D01*
X97501140Y-145527601D01*
X97490632Y-145592254D01*
X97486844Y-145616210D01*
X97486834Y-145616326D01*
X97504961Y-145626589D01*
X97549244Y-145625721D01*
X97555625Y-145624776D01*
X97579877Y-145621055D01*
X97644974Y-145611121D01*
X97749909Y-145595127D01*
X97893674Y-145573226D01*
X98075261Y-145545573D01*
X98293665Y-145512320D01*
X98547877Y-145473620D01*
X98836891Y-145429626D01*
X99159699Y-145380493D01*
X99515294Y-145326372D01*
X99902669Y-145267418D01*
X100320816Y-145203784D01*
X100768729Y-145135622D01*
X101245400Y-145063087D01*
X101749822Y-144986331D01*
X102280988Y-144905507D01*
X102837891Y-144820770D01*
X103419522Y-144732272D01*
X104024876Y-144640166D01*
X104652945Y-144544605D01*
X105302722Y-144445744D01*
X105973199Y-144343735D01*
X106663369Y-144238731D01*
X107372226Y-144130886D01*
X108098761Y-144020353D01*
X108841968Y-143907286D01*
X109600840Y-143791836D01*
X110374368Y-143674159D01*
X111161547Y-143554406D01*
X111961369Y-143432732D01*
X112772826Y-143309289D01*
X113594912Y-143184231D01*
X113996834Y-143123090D01*
X114823482Y-142997327D01*
X115639910Y-142873096D01*
X116445113Y-142750550D01*
X117238087Y-142629842D01*
X118017827Y-142511125D01*
X118783329Y-142394554D01*
X119533588Y-142280281D01*
X120267600Y-142168459D01*
X120984361Y-142059243D01*
X121682865Y-141952785D01*
X122362109Y-141849238D01*
X123021087Y-141748757D01*
X123658797Y-141651494D01*
X124274232Y-141557604D01*
X124866389Y-141467238D01*
X125434263Y-141380551D01*
X125976850Y-141297697D01*
X126493145Y-141218827D01*
X126982143Y-141144096D01*
X127442842Y-141073658D01*
X127874235Y-141007665D01*
X128275318Y-140946270D01*
X128645087Y-140889628D01*
X128982538Y-140837892D01*
X129286666Y-140791215D01*
X129556467Y-140749750D01*
X129790935Y-140713650D01*
X129989068Y-140683070D01*
X130149859Y-140658162D01*
X130272306Y-140639080D01*
X130355402Y-140625977D01*
X130398144Y-140619007D01*
X130404056Y-140617875D01*
X130403346Y-140611899D01*
X130396820Y-140595279D01*
X130384125Y-140567357D01*
X130364908Y-140527474D01*
X130338816Y-140474969D01*
X130305498Y-140409185D01*
X130264600Y-140329461D01*
X130215769Y-140235140D01*
X130158654Y-140125560D01*
X130092901Y-140000064D01*
X130018158Y-139857992D01*
X129934072Y-139698685D01*
X129840290Y-139521483D01*
X129736461Y-139325728D01*
X129622231Y-139110760D01*
X129497247Y-138875921D01*
X129361158Y-138620550D01*
X129213610Y-138343989D01*
X129054251Y-138045579D01*
X128882728Y-137724660D01*
X128698689Y-137380573D01*
X128501780Y-137012659D01*
X128291650Y-136620259D01*
X128067946Y-136202714D01*
X127830315Y-135759363D01*
X127578404Y-135289550D01*
X127311861Y-134792613D01*
X127030334Y-134267894D01*
X126733469Y-133714733D01*
X126420913Y-133132472D01*
X126092316Y-132520452D01*
X125747323Y-131878012D01*
X125385582Y-131204494D01*
X125006740Y-130499239D01*
X124610446Y-129761588D01*
X124196345Y-128990880D01*
X123764086Y-128186458D01*
X123313316Y-127347662D01*
X122843683Y-126473832D01*
X122354833Y-125564310D01*
X121846414Y-124618437D01*
X121635704Y-124226441D01*
X112832545Y-107849631D01*
X115999496Y-93355955D01*
X116205208Y-92414453D01*
X116402050Y-91513447D01*
X116590204Y-90652082D01*
X116769857Y-89829501D01*
X116941194Y-89044847D01*
X117104399Y-88297264D01*
X117259657Y-87585895D01*
X117407154Y-86909884D01*
X117547074Y-86268376D01*
X117679603Y-85660512D01*
X117804925Y-85085437D01*
X117923226Y-84542294D01*
X118034690Y-84030227D01*
X118139503Y-83548379D01*
X118237849Y-83095895D01*
X118329914Y-82671916D01*
X118415883Y-82275588D01*
X118495940Y-81906053D01*
X118570270Y-81562455D01*
X118639060Y-81243938D01*
X118702492Y-80949646D01*
X118760754Y-80678721D01*
X118814029Y-80430307D01*
X118862503Y-80203548D01*
X118906360Y-79997587D01*
X118945786Y-79811569D01*
X118980966Y-79644635D01*
X119012085Y-79495931D01*
X119039327Y-79364600D01*
X119062878Y-79249784D01*
X119082923Y-79150629D01*
X119099646Y-79066276D01*
X119113233Y-78995870D01*
X119123869Y-78938555D01*
X119131739Y-78893473D01*
X119137028Y-78859769D01*
X119139920Y-78836586D01*
X119140601Y-78823068D01*
X119139833Y-78818848D01*
X119122910Y-78793825D01*
X119082744Y-78735921D01*
X119020317Y-78646524D01*
X118936609Y-78527026D01*
X118832601Y-78378814D01*
X118709275Y-78203280D01*
X118567611Y-78001811D01*
X118408590Y-77775798D01*
X118233192Y-77526631D01*
X118042400Y-77255699D01*
X117837193Y-76964391D01*
X117618554Y-76654097D01*
X117387461Y-76326207D01*
X117144898Y-75982110D01*
X116891843Y-75623195D01*
X116629280Y-75250853D01*
X116358187Y-74866472D01*
X116079547Y-74471443D01*
X115794340Y-74067154D01*
X115503547Y-73654996D01*
X115208148Y-73236358D01*
X114909126Y-72812629D01*
X114607461Y-72385199D01*
X114304133Y-71955457D01*
X114000124Y-71524794D01*
X113696415Y-71094598D01*
X113393986Y-70666260D01*
X113093818Y-70241168D01*
X112796893Y-69820712D01*
X112504191Y-69406282D01*
X112216693Y-68999268D01*
X111935380Y-68601058D01*
X111661233Y-68213043D01*
X111395234Y-67836611D01*
X111138362Y-67473154D01*
X110891598Y-67124059D01*
X110655925Y-66790716D01*
X110432322Y-66474516D01*
X110221770Y-66176848D01*
X110025251Y-65899101D01*
X109843745Y-65642664D01*
X109678234Y-65408928D01*
X109529697Y-65199281D01*
X109399117Y-65015114D01*
X109287474Y-64857816D01*
X109195748Y-64728777D01*
X109124922Y-64629385D01*
X109075975Y-64561031D01*
X109049889Y-64525104D01*
X109045630Y-64519667D01*
X109026000Y-64529132D01*
X108969696Y-64557157D01*
X108877815Y-64603188D01*
X108751454Y-64666670D01*
X108591710Y-64747049D01*
X108399683Y-64843771D01*
X108176468Y-64956281D01*
X107923164Y-65084025D01*
X107640869Y-65226449D01*
X107330679Y-65382997D01*
X106993692Y-65553116D01*
X106631006Y-65736251D01*
X106243719Y-65931847D01*
X105832928Y-66139352D01*
X105399730Y-66358209D01*
X104945223Y-66587865D01*
X104470505Y-66827764D01*
X103976673Y-67077354D01*
X103464824Y-67336079D01*
X102936057Y-67603385D01*
X102391469Y-67878718D01*
X101832157Y-68161522D01*
X101259220Y-68451245D01*
X100673753Y-68747331D01*
X100076856Y-69049226D01*
X99469626Y-69356375D01*
X98967162Y-69610552D01*
X98238597Y-69979174D01*
X97532224Y-70336678D01*
X96848696Y-70682732D01*
X96188664Y-71017005D01*
X95552781Y-71339164D01*
X94941698Y-71648878D01*
X94356068Y-71945816D01*
X93796541Y-72229645D01*
X93263772Y-72500033D01*
X92758410Y-72756650D01*
X92281109Y-72999163D01*
X91832521Y-73227241D01*
X91413296Y-73440551D01*
X91024089Y-73638762D01*
X90665549Y-73821543D01*
X90338330Y-73988561D01*
X90043084Y-74139485D01*
X89780462Y-74273983D01*
X89551116Y-74391724D01*
X89355699Y-74492374D01*
X89194862Y-74575604D01*
X89069258Y-74641081D01*
X88979538Y-74688473D01*
X88926355Y-74717449D01*
X88910258Y-74727594D01*
X88409605Y-74727594D01*
X88406035Y-74717443D01*
X88365319Y-74601419D01*
X88337985Y-74523189D01*
X88324333Y-74483605D01*
X88322729Y-74478584D01*
X88341474Y-74467851D01*
X88396927Y-74438576D01*
X88488014Y-74391305D01*
X88613657Y-74326583D01*
X88772780Y-74244958D01*
X88964307Y-74146975D01*
X89187163Y-74033181D01*
X89440270Y-73904123D01*
X89722553Y-73760346D01*
X90032935Y-73602397D01*
X90370341Y-73430822D01*
X90733693Y-73246168D01*
X91121916Y-73048981D01*
X91533934Y-72839807D01*
X91968670Y-72619193D01*
X92425048Y-72387684D01*
X92901992Y-72145828D01*
X93398427Y-71894170D01*
X93913274Y-71633257D01*
X94445459Y-71363635D01*
X94993905Y-71085851D01*
X95557537Y-70800451D01*
X96135276Y-70507981D01*
X96726049Y-70208987D01*
X97328778Y-69904017D01*
X97942387Y-69593615D01*
X98565800Y-69278329D01*
X98760442Y-69179906D01*
X99529761Y-68790925D01*
X100262157Y-68420660D01*
X100958468Y-68068689D01*
X101619530Y-67734593D01*
X102246183Y-67417951D01*
X102839264Y-67118344D01*
X103399610Y-66835349D01*
X103928061Y-66568548D01*
X104425453Y-66317520D01*
X104892625Y-66081844D01*
X105330415Y-65861100D01*
X105739660Y-65654868D01*
X106121198Y-65462728D01*
X106475868Y-65284258D01*
X106804507Y-65119039D01*
X107107953Y-64966650D01*
X107387044Y-64826671D01*
X107642618Y-64698681D01*
X107875514Y-64582261D01*
X108086568Y-64476989D01*
X108276618Y-64382446D01*
X108446504Y-64298211D01*
X108597061Y-64223864D01*
X108729130Y-64158984D01*
X108843547Y-64103151D01*
X108941150Y-64055944D01*
X109022777Y-64016944D01*
X109089266Y-63985730D01*
X109141456Y-63961881D01*
X109180183Y-63944977D01*
X109206286Y-63934598D01*
X109220603Y-63930324D01*
X109223946Y-63930573D01*
G36*
X105596340Y-139080691D02*
G01*
X105685375Y-139084100D01*
X105756613Y-139092089D01*
X105822313Y-139106275D01*
X105894730Y-139128272D01*
X105928686Y-139139744D01*
X106153462Y-139238351D01*
X106353079Y-139370421D01*
X106525656Y-139534058D01*
X106669311Y-139727365D01*
X106782162Y-139948447D01*
X106814005Y-140031953D01*
X106837295Y-140101434D01*
X106853534Y-140161373D01*
X106863961Y-140222037D01*
X106869815Y-140293693D01*
X106872336Y-140386606D01*
X106872764Y-140511044D01*
X106872752Y-140518584D01*
X106868170Y-140716676D01*
X106853382Y-140889033D01*
X106825725Y-141051326D01*
X106782531Y-141219226D01*
X106721619Y-141407015D01*
X106582389Y-141749788D01*
X106404410Y-142091939D01*
X106191012Y-142428219D01*
X105945526Y-142753378D01*
X105672624Y-143060767D01*
X105542152Y-143191371D01*
X105408179Y-143316211D01*
X105275305Y-143431736D01*
X105148130Y-143534395D01*
X105031256Y-143620638D01*
X104929281Y-143686915D01*
X104846806Y-143729674D01*
X104788431Y-143745366D01*
X104785627Y-143745366D01*
X104742050Y-143738764D01*
X104672211Y-143722371D01*
X104590097Y-143699522D01*
X104577667Y-143695769D01*
X104282353Y-143588557D01*
X103978834Y-143446505D01*
X103673902Y-143274363D01*
X103374346Y-143076879D01*
X103086959Y-142858803D01*
X102818531Y-142624883D01*
X102575853Y-142379869D01*
X102399955Y-142172889D01*
X102244897Y-141956138D01*
X102110044Y-141728520D01*
X101998136Y-141496664D01*
X101911916Y-141267193D01*
X101854123Y-141046737D01*
X101827500Y-140841920D01*
X101826000Y-140785443D01*
X101846735Y-140557127D01*
X101907260Y-140333473D01*
X102005058Y-140120602D01*
X102137610Y-139924631D01*
X102217859Y-139833086D01*
X102402697Y-139667878D01*
X102604953Y-139541221D01*
X102825310Y-139452791D01*
X103064455Y-139402264D01*
X103145531Y-139394011D01*
X103340508Y-139395933D01*
X103542456Y-139428275D01*
X103740488Y-139487584D01*
X103923719Y-139570405D01*
X104081265Y-139673284D01*
X104115446Y-139701806D01*
X104169819Y-139747290D01*
X104212431Y-139778616D01*
X104231665Y-139788296D01*
X104251882Y-139771791D01*
X104285262Y-139729247D01*
X104313083Y-139687755D01*
X104443465Y-139519231D01*
X104607345Y-139369907D01*
X104798408Y-139244587D01*
X105010342Y-139148075D01*
X105032953Y-139140015D01*
X105109770Y-139114896D01*
X105176906Y-139098019D01*
X105246565Y-139087743D01*
X105330948Y-139082426D01*
X105442259Y-139080427D01*
X105477250Y-139080248D01*
X105596340Y-139080691D01*
G37*
X105596340Y-139080691D02*
X105685375Y-139084100D01*
X105756613Y-139092089D01*
X105822313Y-139106275D01*
X105894730Y-139128272D01*
X105928686Y-139139744D01*
X106153462Y-139238351D01*
X106353079Y-139370421D01*
X106525656Y-139534058D01*
X106669311Y-139727365D01*
X106782162Y-139948447D01*
X106814005Y-140031953D01*
X106837295Y-140101434D01*
X106853534Y-140161373D01*
X106863961Y-140222037D01*
X106869815Y-140293693D01*
X106872336Y-140386606D01*
X106872764Y-140511044D01*
X106872752Y-140518584D01*
X106868170Y-140716676D01*
X106853382Y-140889033D01*
X106825725Y-141051326D01*
X106782531Y-141219226D01*
X106721619Y-141407015D01*
X106582389Y-141749788D01*
X106404410Y-142091939D01*
X106191012Y-142428219D01*
X105945526Y-142753378D01*
X105672624Y-143060767D01*
X105542152Y-143191371D01*
X105408179Y-143316211D01*
X105275305Y-143431736D01*
X105148130Y-143534395D01*
X105031256Y-143620638D01*
X104929281Y-143686915D01*
X104846806Y-143729674D01*
X104788431Y-143745366D01*
X104785627Y-143745366D01*
X104742050Y-143738764D01*
X104672211Y-143722371D01*
X104590097Y-143699522D01*
X104577667Y-143695769D01*
X104282353Y-143588557D01*
X103978834Y-143446505D01*
X103673902Y-143274363D01*
X103374346Y-143076879D01*
X103086959Y-142858803D01*
X102818531Y-142624883D01*
X102575853Y-142379869D01*
X102399955Y-142172889D01*
X102244897Y-141956138D01*
X102110044Y-141728520D01*
X101998136Y-141496664D01*
X101911916Y-141267193D01*
X101854123Y-141046737D01*
X101827500Y-140841920D01*
X101826000Y-140785443D01*
X101846735Y-140557127D01*
X101907260Y-140333473D01*
X102005058Y-140120602D01*
X102137610Y-139924631D01*
X102217859Y-139833086D01*
X102402697Y-139667878D01*
X102604953Y-139541221D01*
X102825310Y-139452791D01*
X103064455Y-139402264D01*
X103145531Y-139394011D01*
X103340508Y-139395933D01*
X103542456Y-139428275D01*
X103740488Y-139487584D01*
X103923719Y-139570405D01*
X104081265Y-139673284D01*
X104115446Y-139701806D01*
X104169819Y-139747290D01*
X104212431Y-139778616D01*
X104231665Y-139788296D01*
X104251882Y-139771791D01*
X104285262Y-139729247D01*
X104313083Y-139687755D01*
X104443465Y-139519231D01*
X104607345Y-139369907D01*
X104798408Y-139244587D01*
X105010342Y-139148075D01*
X105032953Y-139140015D01*
X105109770Y-139114896D01*
X105176906Y-139098019D01*
X105246565Y-139087743D01*
X105330948Y-139082426D01*
X105442259Y-139080427D01*
X105477250Y-139080248D01*
X105596340Y-139080691D01*
G36*
X110031447Y-138694558D02*
G01*
X110024839Y-138716386D01*
X109996405Y-138769045D01*
X109948664Y-138848735D01*
X109884136Y-138951657D01*
X109805343Y-139074008D01*
X109714802Y-139211990D01*
X109615036Y-139361801D01*
X109508563Y-139519642D01*
X109397903Y-139681712D01*
X109285577Y-139844211D01*
X109174105Y-140003338D01*
X109066006Y-140155293D01*
X109026127Y-140210655D01*
X108956562Y-140309013D01*
X108898621Y-140395125D01*
X108855790Y-140463450D01*
X108831556Y-140508446D01*
X108828664Y-140524471D01*
X108862603Y-140542930D01*
X108923262Y-140582858D01*
X109004133Y-140639492D01*
X109098709Y-140708069D01*
X109200484Y-140783827D01*
X109302950Y-140862001D01*
X109399601Y-140937830D01*
X109458685Y-140985627D01*
X109549375Y-141063066D01*
X109653220Y-141156632D01*
X109766569Y-141262575D01*
X109885771Y-141377146D01*
X110007177Y-141496593D01*
X110127135Y-141617166D01*
X110241996Y-141735115D01*
X110348108Y-141846688D01*
X110441820Y-141948136D01*
X110519484Y-142035709D01*
X110577447Y-142105655D01*
X110612059Y-142154224D01*
X110619670Y-142177666D01*
X110619342Y-142178047D01*
X110596473Y-142183725D01*
X110537810Y-142194248D01*
X110449489Y-142208630D01*
X110337647Y-142225887D01*
X110208421Y-142245033D01*
X110146124Y-142254018D01*
X109682576Y-142320319D01*
X109456271Y-142080223D01*
X109351971Y-141972830D01*
X109231835Y-141854277D01*
X109110195Y-141738439D01*
X109001385Y-141639193D01*
X108994025Y-141632703D01*
X108871092Y-141526879D01*
X108747179Y-141424286D01*
X108626751Y-141328236D01*
X108514273Y-141242043D01*
X108414210Y-141169017D01*
X108331025Y-141112471D01*
X108269183Y-141075717D01*
X108233150Y-141062068D01*
X108227066Y-141063712D01*
X108227202Y-141086687D01*
X108232932Y-141146538D01*
X108243631Y-141238270D01*
X108258672Y-141356884D01*
X108277429Y-141497384D01*
X108299274Y-141654774D01*
X108314884Y-141764120D01*
X108338487Y-141930749D01*
X108359434Y-142084563D01*
X108377087Y-142220407D01*
X108390809Y-142333122D01*
X108399965Y-142417552D01*
X108403917Y-142468540D01*
X108403436Y-142481201D01*
X108378856Y-142495937D01*
X108315025Y-142512811D01*
X108211003Y-142532021D01*
X108065846Y-142553763D01*
X108035590Y-142557918D01*
X107915517Y-142574487D01*
X107808735Y-142589721D01*
X107722902Y-142602489D01*
X107665678Y-142611658D01*
X107646206Y-142615474D01*
X107639633Y-142612155D01*
X107632123Y-142597052D01*
X107623274Y-142567694D01*
X107612682Y-142521614D01*
X107599945Y-142456344D01*
X107584660Y-142369413D01*
X107566422Y-142258355D01*
X107544830Y-142120699D01*
X107519480Y-141953978D01*
X107489969Y-141755722D01*
X107455894Y-141523463D01*
X107416851Y-141254733D01*
X107372439Y-140947062D01*
X107362419Y-140877458D01*
X107320079Y-140581450D01*
X107281149Y-140305712D01*
X107245939Y-140052613D01*
X107214763Y-139824522D01*
X107187932Y-139623808D01*
X107165758Y-139452841D01*
X107148552Y-139313989D01*
X107136626Y-139209621D01*
X107130292Y-139142107D01*
X107129863Y-139113815D01*
X107130213Y-139113176D01*
X107156710Y-139104743D01*
X107217802Y-139092343D01*
X107306080Y-139077267D01*
X107414133Y-139060806D01*
X107498667Y-139049002D01*
X107617525Y-139032734D01*
X107723144Y-139017762D01*
X107807736Y-139005229D01*
X107863514Y-138996281D01*
X107881123Y-138992796D01*
X107891352Y-138995307D01*
X107901515Y-139011370D01*
X107912416Y-139045016D01*
X107924855Y-139100276D01*
X107939636Y-139181183D01*
X107957559Y-139291766D01*
X107979428Y-139436058D01*
X108006043Y-139618089D01*
X108007443Y-139627773D01*
X108030957Y-139786748D01*
X108053298Y-139930842D01*
X108073616Y-140055092D01*
X108091060Y-140154536D01*
X108104778Y-140224212D01*
X108113917Y-140259157D01*
X108116315Y-140262226D01*
X108131148Y-140243039D01*
X108166825Y-140192403D01*
X108220754Y-140114123D01*
X108290345Y-140012007D01*
X108373007Y-139889861D01*
X108466150Y-139751491D01*
X108567182Y-139600703D01*
X108601422Y-139549452D01*
X108704432Y-139395280D01*
X108800267Y-139252084D01*
X108886350Y-139123700D01*
X108960102Y-139013961D01*
X109018946Y-138926702D01*
X109060303Y-138865758D01*
X109081595Y-138834962D01*
X109083761Y-138832088D01*
X109107578Y-138824958D01*
X109165741Y-138813550D01*
X109250930Y-138798927D01*
X109355822Y-138782151D01*
X109473098Y-138764284D01*
X109595434Y-138746390D01*
X109715511Y-138729530D01*
X109826007Y-138714766D01*
X109919600Y-138703162D01*
X109988969Y-138695780D01*
X110026793Y-138693683D01*
X110031447Y-138694558D01*
G37*
X110031447Y-138694558D02*
X110024839Y-138716386D01*
X109996405Y-138769045D01*
X109948664Y-138848735D01*
X109884136Y-138951657D01*
X109805343Y-139074008D01*
X109714802Y-139211990D01*
X109615036Y-139361801D01*
X109508563Y-139519642D01*
X109397903Y-139681712D01*
X109285577Y-139844211D01*
X109174105Y-140003338D01*
X109066006Y-140155293D01*
X109026127Y-140210655D01*
X108956562Y-140309013D01*
X108898621Y-140395125D01*
X108855790Y-140463450D01*
X108831556Y-140508446D01*
X108828664Y-140524471D01*
X108862603Y-140542930D01*
X108923262Y-140582858D01*
X109004133Y-140639492D01*
X109098709Y-140708069D01*
X109200484Y-140783827D01*
X109302950Y-140862001D01*
X109399601Y-140937830D01*
X109458685Y-140985627D01*
X109549375Y-141063066D01*
X109653220Y-141156632D01*
X109766569Y-141262575D01*
X109885771Y-141377146D01*
X110007177Y-141496593D01*
X110127135Y-141617166D01*
X110241996Y-141735115D01*
X110348108Y-141846688D01*
X110441820Y-141948136D01*
X110519484Y-142035709D01*
X110577447Y-142105655D01*
X110612059Y-142154224D01*
X110619670Y-142177666D01*
X110619342Y-142178047D01*
X110596473Y-142183725D01*
X110537810Y-142194248D01*
X110449489Y-142208630D01*
X110337647Y-142225887D01*
X110208421Y-142245033D01*
X110146124Y-142254018D01*
X109682576Y-142320319D01*
X109456271Y-142080223D01*
X109351971Y-141972830D01*
X109231835Y-141854277D01*
X109110195Y-141738439D01*
X109001385Y-141639193D01*
X108994025Y-141632703D01*
X108871092Y-141526879D01*
X108747179Y-141424286D01*
X108626751Y-141328236D01*
X108514273Y-141242043D01*
X108414210Y-141169017D01*
X108331025Y-141112471D01*
X108269183Y-141075717D01*
X108233150Y-141062068D01*
X108227066Y-141063712D01*
X108227202Y-141086687D01*
X108232932Y-141146538D01*
X108243631Y-141238270D01*
X108258672Y-141356884D01*
X108277429Y-141497384D01*
X108299274Y-141654774D01*
X108314884Y-141764120D01*
X108338487Y-141930749D01*
X108359434Y-142084563D01*
X108377087Y-142220407D01*
X108390809Y-142333122D01*
X108399965Y-142417552D01*
X108403917Y-142468540D01*
X108403436Y-142481201D01*
X108378856Y-142495937D01*
X108315025Y-142512811D01*
X108211003Y-142532021D01*
X108065846Y-142553763D01*
X108035590Y-142557918D01*
X107915517Y-142574487D01*
X107808735Y-142589721D01*
X107722902Y-142602489D01*
X107665678Y-142611658D01*
X107646206Y-142615474D01*
X107639633Y-142612155D01*
X107632123Y-142597052D01*
X107623274Y-142567694D01*
X107612682Y-142521614D01*
X107599945Y-142456344D01*
X107584660Y-142369413D01*
X107566422Y-142258355D01*
X107544830Y-142120699D01*
X107519480Y-141953978D01*
X107489969Y-141755722D01*
X107455894Y-141523463D01*
X107416851Y-141254733D01*
X107372439Y-140947062D01*
X107362419Y-140877458D01*
X107320079Y-140581450D01*
X107281149Y-140305712D01*
X107245939Y-140052613D01*
X107214763Y-139824522D01*
X107187932Y-139623808D01*
X107165758Y-139452841D01*
X107148552Y-139313989D01*
X107136626Y-139209621D01*
X107130292Y-139142107D01*
X107129863Y-139113815D01*
X107130213Y-139113176D01*
X107156710Y-139104743D01*
X107217802Y-139092343D01*
X107306080Y-139077267D01*
X107414133Y-139060806D01*
X107498667Y-139049002D01*
X107617525Y-139032734D01*
X107723144Y-139017762D01*
X107807736Y-139005229D01*
X107863514Y-138996281D01*
X107881123Y-138992796D01*
X107891352Y-138995307D01*
X107901515Y-139011370D01*
X107912416Y-139045016D01*
X107924855Y-139100276D01*
X107939636Y-139181183D01*
X107957559Y-139291766D01*
X107979428Y-139436058D01*
X108006043Y-139618089D01*
X108007443Y-139627773D01*
X108030957Y-139786748D01*
X108053298Y-139930842D01*
X108073616Y-140055092D01*
X108091060Y-140154536D01*
X108104778Y-140224212D01*
X108113917Y-140259157D01*
X108116315Y-140262226D01*
X108131148Y-140243039D01*
X108166825Y-140192403D01*
X108220754Y-140114123D01*
X108290345Y-140012007D01*
X108373007Y-139889861D01*
X108466150Y-139751491D01*
X108567182Y-139600703D01*
X108601422Y-139549452D01*
X108704432Y-139395280D01*
X108800267Y-139252084D01*
X108886350Y-139123700D01*
X108960102Y-139013961D01*
X109018946Y-138926702D01*
X109060303Y-138865758D01*
X109081595Y-138834962D01*
X109083761Y-138832088D01*
X109107578Y-138824958D01*
X109165741Y-138813550D01*
X109250930Y-138798927D01*
X109355822Y-138782151D01*
X109473098Y-138764284D01*
X109595434Y-138746390D01*
X109715511Y-138729530D01*
X109826007Y-138714766D01*
X109919600Y-138703162D01*
X109988969Y-138695780D01*
X110026793Y-138693683D01*
X110031447Y-138694558D01*
G36*
X112000089Y-139250089D02*
G01*
X112180782Y-139288242D01*
X112342980Y-139355943D01*
X112495141Y-139456367D01*
X112588922Y-139537177D01*
X112722262Y-139690190D01*
X112832457Y-139877428D01*
X112918841Y-140097244D01*
X112980743Y-140347990D01*
X113013645Y-140584558D01*
X113028082Y-140735200D01*
X112956833Y-140747764D01*
X112919901Y-140753558D01*
X112846258Y-140764500D01*
X112741109Y-140779839D01*
X112609663Y-140798822D01*
X112457127Y-140820697D01*
X112288709Y-140844712D01*
X112113000Y-140869636D01*
X111937293Y-140894656D01*
X111775170Y-140918050D01*
X111631320Y-140939118D01*
X111510430Y-140957160D01*
X111417189Y-140971475D01*
X111356285Y-140981364D01*
X111332406Y-140986127D01*
X111332276Y-140986211D01*
X111331721Y-141012291D01*
X111352345Y-141059527D01*
X111387842Y-141116874D01*
X111431904Y-141173292D01*
X111450398Y-141193009D01*
X111535182Y-141267084D01*
X111622237Y-141317375D01*
X111722178Y-141347539D01*
X111845620Y-141361237D01*
X111943667Y-141363043D01*
X112201407Y-141342969D01*
X112451013Y-141284427D01*
X112679043Y-141195567D01*
X112832358Y-141124731D01*
X112929894Y-141431595D01*
X112963198Y-141538239D01*
X112990624Y-141629665D01*
X113010130Y-141698767D01*
X113019673Y-141738443D01*
X113020007Y-141745100D01*
X112971443Y-141775905D01*
X112889923Y-141813881D01*
X112783619Y-141856168D01*
X112660702Y-141899908D01*
X112529343Y-141942241D01*
X112397715Y-141980308D01*
X112273990Y-142011250D01*
X112235601Y-142019552D01*
X112121176Y-142036694D01*
X111984127Y-142047317D01*
X111836748Y-142051416D01*
X111691335Y-142048988D01*
X111560184Y-142040029D01*
X111455589Y-142024534D01*
X111435667Y-142019806D01*
X111219065Y-141942770D01*
X111028477Y-141833040D01*
X110864831Y-141692022D01*
X110729054Y-141521121D01*
X110622074Y-141321743D01*
X110544817Y-141095292D01*
X110498211Y-140843175D01*
X110483167Y-140576282D01*
X110491107Y-140450947D01*
X111239393Y-140450947D01*
X111300488Y-140439676D01*
X111339771Y-140433332D01*
X111413508Y-140422245D01*
X111514224Y-140407509D01*
X111634442Y-140390214D01*
X111766689Y-140371454D01*
X111787463Y-140368530D01*
X112213342Y-140308655D01*
X112196527Y-140250025D01*
X112139464Y-140116307D01*
X112055635Y-140009983D01*
X111950241Y-139934524D01*
X111828480Y-139893400D01*
X111695555Y-139890081D01*
X111664464Y-139894932D01*
X111523605Y-139938343D01*
X111412841Y-140010295D01*
X111330774Y-140112335D01*
X111276003Y-140246007D01*
X111254878Y-140347182D01*
X111239393Y-140450947D01*
X110491107Y-140450947D01*
X110498705Y-140331036D01*
X110546271Y-140111309D01*
X110627290Y-139913369D01*
X110743189Y-139733483D01*
X110852656Y-139609386D01*
X111024642Y-139463016D01*
X111214189Y-139353838D01*
X111423309Y-139281057D01*
X111654017Y-139243878D01*
X111792445Y-139238313D01*
X112000089Y-139250089D01*
G37*
X112000089Y-139250089D02*
X112180782Y-139288242D01*
X112342980Y-139355943D01*
X112495141Y-139456367D01*
X112588922Y-139537177D01*
X112722262Y-139690190D01*
X112832457Y-139877428D01*
X112918841Y-140097244D01*
X112980743Y-140347990D01*
X113013645Y-140584558D01*
X113028082Y-140735200D01*
X112956833Y-140747764D01*
X112919901Y-140753558D01*
X112846258Y-140764500D01*
X112741109Y-140779839D01*
X112609663Y-140798822D01*
X112457127Y-140820697D01*
X112288709Y-140844712D01*
X112113000Y-140869636D01*
X111937293Y-140894656D01*
X111775170Y-140918050D01*
X111631320Y-140939118D01*
X111510430Y-140957160D01*
X111417189Y-140971475D01*
X111356285Y-140981364D01*
X111332406Y-140986127D01*
X111332276Y-140986211D01*
X111331721Y-141012291D01*
X111352345Y-141059527D01*
X111387842Y-141116874D01*
X111431904Y-141173292D01*
X111450398Y-141193009D01*
X111535182Y-141267084D01*
X111622237Y-141317375D01*
X111722178Y-141347539D01*
X111845620Y-141361237D01*
X111943667Y-141363043D01*
X112201407Y-141342969D01*
X112451013Y-141284427D01*
X112679043Y-141195567D01*
X112832358Y-141124731D01*
X112929894Y-141431595D01*
X112963198Y-141538239D01*
X112990624Y-141629665D01*
X113010130Y-141698767D01*
X113019673Y-141738443D01*
X113020007Y-141745100D01*
X112971443Y-141775905D01*
X112889923Y-141813881D01*
X112783619Y-141856168D01*
X112660702Y-141899908D01*
X112529343Y-141942241D01*
X112397715Y-141980308D01*
X112273990Y-142011250D01*
X112235601Y-142019552D01*
X112121176Y-142036694D01*
X111984127Y-142047317D01*
X111836748Y-142051416D01*
X111691335Y-142048988D01*
X111560184Y-142040029D01*
X111455589Y-142024534D01*
X111435667Y-142019806D01*
X111219065Y-141942770D01*
X111028477Y-141833040D01*
X110864831Y-141692022D01*
X110729054Y-141521121D01*
X110622074Y-141321743D01*
X110544817Y-141095292D01*
X110498211Y-140843175D01*
X110483167Y-140576282D01*
X110491107Y-140450947D01*
X111239393Y-140450947D01*
X111300488Y-140439676D01*
X111339771Y-140433332D01*
X111413508Y-140422245D01*
X111514224Y-140407509D01*
X111634442Y-140390214D01*
X111766689Y-140371454D01*
X111787463Y-140368530D01*
X112213342Y-140308655D01*
X112196527Y-140250025D01*
X112139464Y-140116307D01*
X112055635Y-140009983D01*
X111950241Y-139934524D01*
X111828480Y-139893400D01*
X111695555Y-139890081D01*
X111664464Y-139894932D01*
X111523605Y-139938343D01*
X111412841Y-140010295D01*
X111330774Y-140112335D01*
X111276003Y-140246007D01*
X111254878Y-140347182D01*
X111239393Y-140450947D01*
X110491107Y-140450947D01*
X110498705Y-140331036D01*
X110546271Y-140111309D01*
X110627290Y-139913369D01*
X110743189Y-139733483D01*
X110852656Y-139609386D01*
X111024642Y-139463016D01*
X111214189Y-139353838D01*
X111423309Y-139281057D01*
X111654017Y-139243878D01*
X111792445Y-139238313D01*
X112000089Y-139250089D01*
G36*
X114831976Y-138818368D02*
G01*
X114973812Y-138831151D01*
X115062695Y-138848199D01*
X115259806Y-138919797D01*
X115434202Y-139026564D01*
X115585230Y-139167537D01*
X115712237Y-139341755D01*
X115814568Y-139548256D01*
X115891570Y-139786078D01*
X115942591Y-140054260D01*
X115954785Y-140161334D01*
X115969086Y-140312085D01*
X115898418Y-140324539D01*
X115861625Y-140330308D01*
X115788114Y-140341226D01*
X115683089Y-140356542D01*
X115551752Y-140375505D01*
X115399305Y-140397365D01*
X115230951Y-140421369D01*
X115055167Y-140446303D01*
X114879460Y-140471323D01*
X114717337Y-140494717D01*
X114573487Y-140515785D01*
X114452597Y-140533826D01*
X114359355Y-140548142D01*
X114298451Y-140558031D01*
X114274572Y-140562794D01*
X114274443Y-140562877D01*
X114273888Y-140588958D01*
X114294512Y-140636193D01*
X114330009Y-140693541D01*
X114374071Y-140749959D01*
X114392564Y-140769675D01*
X114474614Y-140842050D01*
X114557838Y-140891657D01*
X114652611Y-140921984D01*
X114769308Y-140936518D01*
X114896417Y-140939033D01*
X115139906Y-140919549D01*
X115378685Y-140864474D01*
X115621676Y-140771692D01*
X115642314Y-140762230D01*
X115774378Y-140700937D01*
X115871987Y-141008032D01*
X115905305Y-141114718D01*
X115932747Y-141206187D01*
X115952270Y-141275339D01*
X115961833Y-141315071D01*
X115962174Y-141321767D01*
X115913610Y-141352572D01*
X115832090Y-141390547D01*
X115725786Y-141432835D01*
X115602868Y-141476575D01*
X115471510Y-141518908D01*
X115339882Y-141556975D01*
X115216156Y-141587917D01*
X115177768Y-141596218D01*
X115063343Y-141613361D01*
X114926294Y-141623983D01*
X114778915Y-141628083D01*
X114633502Y-141625655D01*
X114502350Y-141616695D01*
X114397756Y-141601201D01*
X114377834Y-141596473D01*
X114161564Y-141519486D01*
X113971147Y-141409712D01*
X113807543Y-141268608D01*
X113671713Y-141097631D01*
X113564618Y-140898236D01*
X113487218Y-140671880D01*
X113440475Y-140420018D01*
X113425334Y-140152949D01*
X113429271Y-140027613D01*
X114181560Y-140027613D01*
X114242655Y-140015923D01*
X114281944Y-140009483D01*
X114355696Y-139998378D01*
X114456433Y-139983694D01*
X114576679Y-139966520D01*
X114708956Y-139947944D01*
X114729710Y-139945057D01*
X115155669Y-139885882D01*
X115138774Y-139826972D01*
X115082478Y-139695401D01*
X114999530Y-139589404D01*
X114895734Y-139512797D01*
X114776893Y-139469397D01*
X114648809Y-139463018D01*
X114597960Y-139471309D01*
X114457496Y-139518979D01*
X114348361Y-139593246D01*
X114268504Y-139696424D01*
X114215877Y-139830827D01*
X114197045Y-139923848D01*
X114181560Y-140027613D01*
X113429271Y-140027613D01*
X113429518Y-140019753D01*
X113441023Y-139894194D01*
X113458279Y-139793163D01*
X113459111Y-139789686D01*
X113533300Y-139569402D01*
X113641849Y-139370889D01*
X113781551Y-139197358D01*
X113949203Y-139052019D01*
X114141600Y-138938084D01*
X114355537Y-138858764D01*
X114399321Y-138847644D01*
X114528355Y-138826600D01*
X114678032Y-138816846D01*
X114831976Y-138818368D01*
G37*
X114831976Y-138818368D02*
X114973812Y-138831151D01*
X115062695Y-138848199D01*
X115259806Y-138919797D01*
X115434202Y-139026564D01*
X115585230Y-139167537D01*
X115712237Y-139341755D01*
X115814568Y-139548256D01*
X115891570Y-139786078D01*
X115942591Y-140054260D01*
X115954785Y-140161334D01*
X115969086Y-140312085D01*
X115898418Y-140324539D01*
X115861625Y-140330308D01*
X115788114Y-140341226D01*
X115683089Y-140356542D01*
X115551752Y-140375505D01*
X115399305Y-140397365D01*
X115230951Y-140421369D01*
X115055167Y-140446303D01*
X114879460Y-140471323D01*
X114717337Y-140494717D01*
X114573487Y-140515785D01*
X114452597Y-140533826D01*
X114359355Y-140548142D01*
X114298451Y-140558031D01*
X114274572Y-140562794D01*
X114274443Y-140562877D01*
X114273888Y-140588958D01*
X114294512Y-140636193D01*
X114330009Y-140693541D01*
X114374071Y-140749959D01*
X114392564Y-140769675D01*
X114474614Y-140842050D01*
X114557838Y-140891657D01*
X114652611Y-140921984D01*
X114769308Y-140936518D01*
X114896417Y-140939033D01*
X115139906Y-140919549D01*
X115378685Y-140864474D01*
X115621676Y-140771692D01*
X115642314Y-140762230D01*
X115774378Y-140700937D01*
X115871987Y-141008032D01*
X115905305Y-141114718D01*
X115932747Y-141206187D01*
X115952270Y-141275339D01*
X115961833Y-141315071D01*
X115962174Y-141321767D01*
X115913610Y-141352572D01*
X115832090Y-141390547D01*
X115725786Y-141432835D01*
X115602868Y-141476575D01*
X115471510Y-141518908D01*
X115339882Y-141556975D01*
X115216156Y-141587917D01*
X115177768Y-141596218D01*
X115063343Y-141613361D01*
X114926294Y-141623983D01*
X114778915Y-141628083D01*
X114633502Y-141625655D01*
X114502350Y-141616695D01*
X114397756Y-141601201D01*
X114377834Y-141596473D01*
X114161564Y-141519486D01*
X113971147Y-141409712D01*
X113807543Y-141268608D01*
X113671713Y-141097631D01*
X113564618Y-140898236D01*
X113487218Y-140671880D01*
X113440475Y-140420018D01*
X113425334Y-140152949D01*
X113429271Y-140027613D01*
X114181560Y-140027613D01*
X114242655Y-140015923D01*
X114281944Y-140009483D01*
X114355696Y-139998378D01*
X114456433Y-139983694D01*
X114576679Y-139966520D01*
X114708956Y-139947944D01*
X114729710Y-139945057D01*
X115155669Y-139885882D01*
X115138774Y-139826972D01*
X115082478Y-139695401D01*
X114999530Y-139589404D01*
X114895734Y-139512797D01*
X114776893Y-139469397D01*
X114648809Y-139463018D01*
X114597960Y-139471309D01*
X114457496Y-139518979D01*
X114348361Y-139593246D01*
X114268504Y-139696424D01*
X114215877Y-139830827D01*
X114197045Y-139923848D01*
X114181560Y-140027613D01*
X113429271Y-140027613D01*
X113429518Y-140019753D01*
X113441023Y-139894194D01*
X113458279Y-139793163D01*
X113459111Y-139789686D01*
X113533300Y-139569402D01*
X113641849Y-139370889D01*
X113781551Y-139197358D01*
X113949203Y-139052019D01*
X114141600Y-138938084D01*
X114355537Y-138858764D01*
X114399321Y-138847644D01*
X114528355Y-138826600D01*
X114678032Y-138816846D01*
X114831976Y-138818368D01*
G36*
X117970088Y-138417250D02*
G01*
X118161242Y-138471082D01*
X118326805Y-138558451D01*
X118467263Y-138679678D01*
X118583100Y-138835089D01*
X118674804Y-139025007D01*
X118737524Y-139227417D01*
X118750017Y-139286893D01*
X118766479Y-139378024D01*
X118786123Y-139495343D01*
X118808164Y-139633381D01*
X118831813Y-139786669D01*
X118856285Y-139949741D01*
X118880792Y-140117127D01*
X118904547Y-140283359D01*
X118926764Y-140442969D01*
X118946656Y-140590488D01*
X118963435Y-140720450D01*
X118976315Y-140827384D01*
X118984510Y-140905824D01*
X118987231Y-140950301D01*
X118986505Y-140957670D01*
X118963679Y-140968200D01*
X118907132Y-140982425D01*
X118825181Y-140999052D01*
X118726144Y-141016788D01*
X118618337Y-141034339D01*
X118510079Y-141050414D01*
X118409686Y-141063718D01*
X118325476Y-141072960D01*
X118265766Y-141076845D01*
X118238874Y-141074081D01*
X118238699Y-141073921D01*
X118233125Y-141051024D01*
X118222343Y-140990904D01*
X118207089Y-140898255D01*
X118188103Y-140777767D01*
X118166122Y-140634132D01*
X118141886Y-140472043D01*
X118116132Y-140296190D01*
X118114136Y-140282414D01*
X118087300Y-140100812D01*
X118060786Y-139928423D01*
X118035512Y-139770720D01*
X118012399Y-139633176D01*
X117992365Y-139521263D01*
X117976330Y-139440454D01*
X117965394Y-139396750D01*
X117913751Y-139269045D01*
X117855012Y-139178690D01*
X117782995Y-139120715D01*
X117691515Y-139090147D01*
X117574390Y-139082013D01*
X117574000Y-139082017D01*
X117502510Y-139086718D01*
X117417412Y-139097929D01*
X117330634Y-139113351D01*
X117254100Y-139130685D01*
X117199736Y-139147632D01*
X117181613Y-139157665D01*
X117183084Y-139179419D01*
X117190101Y-139238997D01*
X117202113Y-139332332D01*
X117218568Y-139455357D01*
X117238915Y-139604004D01*
X117262602Y-139774205D01*
X117289077Y-139961893D01*
X117317790Y-140163001D01*
X117320193Y-140179724D01*
X117349112Y-140381586D01*
X117375955Y-140570221D01*
X117400158Y-140741581D01*
X117421158Y-140891620D01*
X117438391Y-141016290D01*
X117451296Y-141111544D01*
X117459309Y-141173335D01*
X117461867Y-141197617D01*
X117461816Y-141197821D01*
X117440528Y-141201714D01*
X117384520Y-141210302D01*
X117301013Y-141222521D01*
X117197228Y-141237307D01*
X117129500Y-141246790D01*
X117012166Y-141263319D01*
X116906046Y-141278641D01*
X116819894Y-141291464D01*
X116762464Y-141300496D01*
X116747049Y-141303228D01*
X116692682Y-141314010D01*
X116509272Y-140030005D01*
X116476872Y-139801776D01*
X116446626Y-139585985D01*
X116419020Y-139386276D01*
X116394538Y-139206293D01*
X116373666Y-139049680D01*
X116356889Y-138920082D01*
X116344692Y-138821141D01*
X116337560Y-138756503D01*
X116335979Y-138729811D01*
X116336113Y-138729413D01*
X116363124Y-138711798D01*
X116424035Y-138685551D01*
X116511864Y-138653031D01*
X116619630Y-138616596D01*
X116740351Y-138578604D01*
X116867045Y-138541415D01*
X116992731Y-138507386D01*
X116995509Y-138506670D01*
X117126499Y-138475862D01*
X117270026Y-138446743D01*
X117407619Y-138422832D01*
X117509060Y-138408897D01*
X117752856Y-138396630D01*
X117970088Y-138417250D01*
G37*
X117970088Y-138417250D02*
X118161242Y-138471082D01*
X118326805Y-138558451D01*
X118467263Y-138679678D01*
X118583100Y-138835089D01*
X118674804Y-139025007D01*
X118737524Y-139227417D01*
X118750017Y-139286893D01*
X118766479Y-139378024D01*
X118786123Y-139495343D01*
X118808164Y-139633381D01*
X118831813Y-139786669D01*
X118856285Y-139949741D01*
X118880792Y-140117127D01*
X118904547Y-140283359D01*
X118926764Y-140442969D01*
X118946656Y-140590488D01*
X118963435Y-140720450D01*
X118976315Y-140827384D01*
X118984510Y-140905824D01*
X118987231Y-140950301D01*
X118986505Y-140957670D01*
X118963679Y-140968200D01*
X118907132Y-140982425D01*
X118825181Y-140999052D01*
X118726144Y-141016788D01*
X118618337Y-141034339D01*
X118510079Y-141050414D01*
X118409686Y-141063718D01*
X118325476Y-141072960D01*
X118265766Y-141076845D01*
X118238874Y-141074081D01*
X118238699Y-141073921D01*
X118233125Y-141051024D01*
X118222343Y-140990904D01*
X118207089Y-140898255D01*
X118188103Y-140777767D01*
X118166122Y-140634132D01*
X118141886Y-140472043D01*
X118116132Y-140296190D01*
X118114136Y-140282414D01*
X118087300Y-140100812D01*
X118060786Y-139928423D01*
X118035512Y-139770720D01*
X118012399Y-139633176D01*
X117992365Y-139521263D01*
X117976330Y-139440454D01*
X117965394Y-139396750D01*
X117913751Y-139269045D01*
X117855012Y-139178690D01*
X117782995Y-139120715D01*
X117691515Y-139090147D01*
X117574390Y-139082013D01*
X117574000Y-139082017D01*
X117502510Y-139086718D01*
X117417412Y-139097929D01*
X117330634Y-139113351D01*
X117254100Y-139130685D01*
X117199736Y-139147632D01*
X117181613Y-139157665D01*
X117183084Y-139179419D01*
X117190101Y-139238997D01*
X117202113Y-139332332D01*
X117218568Y-139455357D01*
X117238915Y-139604004D01*
X117262602Y-139774205D01*
X117289077Y-139961893D01*
X117317790Y-140163001D01*
X117320193Y-140179724D01*
X117349112Y-140381586D01*
X117375955Y-140570221D01*
X117400158Y-140741581D01*
X117421158Y-140891620D01*
X117438391Y-141016290D01*
X117451296Y-141111544D01*
X117459309Y-141173335D01*
X117461867Y-141197617D01*
X117461816Y-141197821D01*
X117440528Y-141201714D01*
X117384520Y-141210302D01*
X117301013Y-141222521D01*
X117197228Y-141237307D01*
X117129500Y-141246790D01*
X117012166Y-141263319D01*
X116906046Y-141278641D01*
X116819894Y-141291464D01*
X116762464Y-141300496D01*
X116747049Y-141303228D01*
X116692682Y-141314010D01*
X116509272Y-140030005D01*
X116476872Y-139801776D01*
X116446626Y-139585985D01*
X116419020Y-139386276D01*
X116394538Y-139206293D01*
X116373666Y-139049680D01*
X116356889Y-138920082D01*
X116344692Y-138821141D01*
X116337560Y-138756503D01*
X116335979Y-138729811D01*
X116336113Y-138729413D01*
X116363124Y-138711798D01*
X116424035Y-138685551D01*
X116511864Y-138653031D01*
X116619630Y-138616596D01*
X116740351Y-138578604D01*
X116867045Y-138541415D01*
X116992731Y-138507386D01*
X116995509Y-138506670D01*
X117126499Y-138475862D01*
X117270026Y-138446743D01*
X117407619Y-138422832D01*
X117509060Y-138408897D01*
X117752856Y-138396630D01*
X117970088Y-138417250D01*
G36*
X120816041Y-138004164D02*
G01*
X121002479Y-138058511D01*
X121161319Y-138144630D01*
X121292890Y-138262700D01*
X121397518Y-138412901D01*
X121475531Y-138595414D01*
X121479100Y-138606534D01*
X121497385Y-138677192D01*
X121520109Y-138786438D01*
X121546671Y-138930825D01*
X121576468Y-139106910D01*
X121608898Y-139311247D01*
X121643356Y-139540391D01*
X121647840Y-139571044D01*
X121674363Y-139752632D01*
X121699351Y-139923157D01*
X121722058Y-140077576D01*
X121741740Y-140210845D01*
X121757652Y-140317921D01*
X121769047Y-140393759D01*
X121775182Y-140433316D01*
X121775511Y-140435277D01*
X121786610Y-140500136D01*
X121516513Y-140587605D01*
X121350979Y-140640068D01*
X121212567Y-140680909D01*
X121088755Y-140713357D01*
X120967022Y-140740639D01*
X120834846Y-140765983D01*
X120801917Y-140771830D01*
X120666357Y-140791289D01*
X120517324Y-140805470D01*
X120366329Y-140813906D01*
X120224883Y-140816130D01*
X120104498Y-140811672D01*
X120031890Y-140803126D01*
X119851654Y-140753367D01*
X119700766Y-140673458D01*
X119577942Y-140562470D01*
X119481895Y-140419469D01*
X119470146Y-140396086D01*
X119401368Y-140215828D01*
X119366327Y-140033405D01*
X119365441Y-139878317D01*
X120137849Y-139878317D01*
X120143824Y-139983059D01*
X120170535Y-140057553D01*
X120216640Y-140121626D01*
X120271077Y-140160465D01*
X120347932Y-140180075D01*
X120454991Y-140188204D01*
X120581723Y-140184878D01*
X120717593Y-140170124D01*
X120781989Y-140159177D01*
X120860446Y-140143119D01*
X120921464Y-140128671D01*
X120954192Y-140118454D01*
X120956592Y-140116964D01*
X120958438Y-140092439D01*
X120954272Y-140036048D01*
X120945502Y-139957604D01*
X120933535Y-139866919D01*
X120919779Y-139773804D01*
X120905642Y-139688072D01*
X120892531Y-139619536D01*
X120881854Y-139578007D01*
X120878233Y-139570759D01*
X120847705Y-139563536D01*
X120785919Y-139564548D01*
X120702835Y-139572374D01*
X120608412Y-139585597D01*
X120512610Y-139602797D01*
X120425390Y-139622557D01*
X120356712Y-139643457D01*
X120350205Y-139645968D01*
X120242586Y-139706229D01*
X120171285Y-139784860D01*
X120137849Y-139878317D01*
X119365441Y-139878317D01*
X119365313Y-139856040D01*
X119398616Y-139690955D01*
X119438033Y-139595156D01*
X119527063Y-139465728D01*
X119652915Y-139350803D01*
X119812075Y-139252026D01*
X120001032Y-139171045D01*
X120216272Y-139109507D01*
X120454284Y-139069056D01*
X120586355Y-139056872D01*
X120693653Y-139048958D01*
X120763522Y-139038828D01*
X120800760Y-139021252D01*
X120810163Y-138991001D01*
X120796530Y-138942845D01*
X120764656Y-138871554D01*
X120761862Y-138865554D01*
X120698009Y-138764806D01*
X120629777Y-138706804D01*
X120538722Y-138671428D01*
X120417018Y-138656513D01*
X120270708Y-138661407D01*
X120105835Y-138685458D01*
X119928443Y-138728014D01*
X119744575Y-138788422D01*
X119694476Y-138807760D01*
X119626012Y-138833064D01*
X119574280Y-138848466D01*
X119550310Y-138850690D01*
X119550205Y-138850594D01*
X119540368Y-138827678D01*
X119520489Y-138771860D01*
X119493133Y-138690651D01*
X119460865Y-138591562D01*
X119448106Y-138551593D01*
X119356506Y-138263091D01*
X119412461Y-138234578D01*
X119520101Y-138188060D01*
X119658975Y-138140456D01*
X119818168Y-138094586D01*
X119986761Y-138053270D01*
X120153837Y-138019329D01*
X120308479Y-137995581D01*
X120359068Y-137990065D01*
X120601680Y-137981409D01*
X120816041Y-138004164D01*
G37*
X120816041Y-138004164D02*
X121002479Y-138058511D01*
X121161319Y-138144630D01*
X121292890Y-138262700D01*
X121397518Y-138412901D01*
X121475531Y-138595414D01*
X121479100Y-138606534D01*
X121497385Y-138677192D01*
X121520109Y-138786438D01*
X121546671Y-138930825D01*
X121576468Y-139106910D01*
X121608898Y-139311247D01*
X121643356Y-139540391D01*
X121647840Y-139571044D01*
X121674363Y-139752632D01*
X121699351Y-139923157D01*
X121722058Y-140077576D01*
X121741740Y-140210845D01*
X121757652Y-140317921D01*
X121769047Y-140393759D01*
X121775182Y-140433316D01*
X121775511Y-140435277D01*
X121786610Y-140500136D01*
X121516513Y-140587605D01*
X121350979Y-140640068D01*
X121212567Y-140680909D01*
X121088755Y-140713357D01*
X120967022Y-140740639D01*
X120834846Y-140765983D01*
X120801917Y-140771830D01*
X120666357Y-140791289D01*
X120517324Y-140805470D01*
X120366329Y-140813906D01*
X120224883Y-140816130D01*
X120104498Y-140811672D01*
X120031890Y-140803126D01*
X119851654Y-140753367D01*
X119700766Y-140673458D01*
X119577942Y-140562470D01*
X119481895Y-140419469D01*
X119470146Y-140396086D01*
X119401368Y-140215828D01*
X119366327Y-140033405D01*
X119365441Y-139878317D01*
X120137849Y-139878317D01*
X120143824Y-139983059D01*
X120170535Y-140057553D01*
X120216640Y-140121626D01*
X120271077Y-140160465D01*
X120347932Y-140180075D01*
X120454991Y-140188204D01*
X120581723Y-140184878D01*
X120717593Y-140170124D01*
X120781989Y-140159177D01*
X120860446Y-140143119D01*
X120921464Y-140128671D01*
X120954192Y-140118454D01*
X120956592Y-140116964D01*
X120958438Y-140092439D01*
X120954272Y-140036048D01*
X120945502Y-139957604D01*
X120933535Y-139866919D01*
X120919779Y-139773804D01*
X120905642Y-139688072D01*
X120892531Y-139619536D01*
X120881854Y-139578007D01*
X120878233Y-139570759D01*
X120847705Y-139563536D01*
X120785919Y-139564548D01*
X120702835Y-139572374D01*
X120608412Y-139585597D01*
X120512610Y-139602797D01*
X120425390Y-139622557D01*
X120356712Y-139643457D01*
X120350205Y-139645968D01*
X120242586Y-139706229D01*
X120171285Y-139784860D01*
X120137849Y-139878317D01*
X119365441Y-139878317D01*
X119365313Y-139856040D01*
X119398616Y-139690955D01*
X119438033Y-139595156D01*
X119527063Y-139465728D01*
X119652915Y-139350803D01*
X119812075Y-139252026D01*
X120001032Y-139171045D01*
X120216272Y-139109507D01*
X120454284Y-139069056D01*
X120586355Y-139056872D01*
X120693653Y-139048958D01*
X120763522Y-139038828D01*
X120800760Y-139021252D01*
X120810163Y-138991001D01*
X120796530Y-138942845D01*
X120764656Y-138871554D01*
X120761862Y-138865554D01*
X120698009Y-138764806D01*
X120629777Y-138706804D01*
X120538722Y-138671428D01*
X120417018Y-138656513D01*
X120270708Y-138661407D01*
X120105835Y-138685458D01*
X119928443Y-138728014D01*
X119744575Y-138788422D01*
X119694476Y-138807760D01*
X119626012Y-138833064D01*
X119574280Y-138848466D01*
X119550310Y-138850690D01*
X119550205Y-138850594D01*
X119540368Y-138827678D01*
X119520489Y-138771860D01*
X119493133Y-138690651D01*
X119460865Y-138591562D01*
X119448106Y-138551593D01*
X119356506Y-138263091D01*
X119412461Y-138234578D01*
X119520101Y-138188060D01*
X119658975Y-138140456D01*
X119818168Y-138094586D01*
X119986761Y-138053270D01*
X120153837Y-138019329D01*
X120308479Y-137995581D01*
X120359068Y-137990065D01*
X120601680Y-137981409D01*
X120816041Y-138004164D01*
G36*
X123763654Y-137596688D02*
G01*
X123945917Y-137653089D01*
X124102276Y-137739770D01*
X124211590Y-137833440D01*
X124298352Y-137943406D01*
X124378486Y-138084185D01*
X124446280Y-138244266D01*
X124493620Y-138401917D01*
X124506176Y-138462382D01*
X124522664Y-138553904D01*
X124542313Y-138671136D01*
X124564347Y-138808731D01*
X124587995Y-138961343D01*
X124612483Y-139123625D01*
X124637037Y-139290230D01*
X124660884Y-139455813D01*
X124683251Y-139615025D01*
X124703364Y-139762521D01*
X124720449Y-139892954D01*
X124733735Y-140000977D01*
X124742446Y-140081245D01*
X124745811Y-140128409D01*
X124744839Y-140138717D01*
X124720458Y-140146092D01*
X124662815Y-140157427D01*
X124580168Y-140171528D01*
X124480776Y-140187201D01*
X124372897Y-140203253D01*
X124264787Y-140218490D01*
X124164707Y-140231720D01*
X124080912Y-140241747D01*
X124021661Y-140247379D01*
X123995213Y-140247423D01*
X123994739Y-140247127D01*
X123989503Y-140224625D01*
X123979036Y-140165101D01*
X123964103Y-140073438D01*
X123945474Y-139954519D01*
X123923915Y-139813230D01*
X123900194Y-139654453D01*
X123880559Y-139520747D01*
X123848312Y-139300250D01*
X123821192Y-139117323D01*
X123798362Y-138967628D01*
X123778988Y-138846823D01*
X123762232Y-138750568D01*
X123747259Y-138674522D01*
X123733233Y-138614346D01*
X123719318Y-138565699D01*
X123704678Y-138524241D01*
X123688477Y-138485631D01*
X123675949Y-138458376D01*
X123610055Y-138354820D01*
X123524128Y-138286728D01*
X123417232Y-138250695D01*
X123370979Y-138248979D01*
X123299671Y-138254091D01*
X123214073Y-138264334D01*
X123124950Y-138278013D01*
X123043067Y-138293434D01*
X122979187Y-138308903D01*
X122944076Y-138322724D01*
X122941093Y-138325660D01*
X122942226Y-138348875D01*
X122948912Y-138409877D01*
X122960607Y-138504559D01*
X122976769Y-138628816D01*
X122996852Y-138778542D01*
X123020314Y-138949632D01*
X123046610Y-139137980D01*
X123075197Y-139339480D01*
X123077406Y-139354925D01*
X123106210Y-139556759D01*
X123132958Y-139745329D01*
X123157090Y-139916594D01*
X123178043Y-140066512D01*
X123195255Y-140191040D01*
X123208165Y-140286136D01*
X123216210Y-140347757D01*
X123218829Y-140371861D01*
X123218784Y-140372050D01*
X123197622Y-140375506D01*
X123141488Y-140383607D01*
X123057367Y-140395375D01*
X122952246Y-140409829D01*
X122865667Y-140421593D01*
X122746841Y-140437933D01*
X122641278Y-140452958D01*
X122556758Y-140465521D01*
X122501058Y-140474474D01*
X122483493Y-140477948D01*
X122475942Y-140475057D01*
X122467731Y-140460365D01*
X122458367Y-140430980D01*
X122447356Y-140384012D01*
X122434205Y-140316570D01*
X122418420Y-140225765D01*
X122399510Y-140108705D01*
X122376979Y-139962501D01*
X122350335Y-139784261D01*
X122319085Y-139571095D01*
X122282735Y-139320112D01*
X122265645Y-139201445D01*
X122227654Y-138936907D01*
X122195422Y-138711120D01*
X122168597Y-138520945D01*
X122146824Y-138363242D01*
X122129750Y-138234873D01*
X122117022Y-138132699D01*
X122108285Y-138053581D01*
X122103187Y-137994379D01*
X122101373Y-137951956D01*
X122102490Y-137923171D01*
X122106185Y-137904886D01*
X122112104Y-137893962D01*
X122117785Y-137888715D01*
X122150742Y-137872526D01*
X122215617Y-137846793D01*
X122303945Y-137814673D01*
X122407261Y-137779322D01*
X122441467Y-137768051D01*
X122762812Y-137673408D01*
X123055066Y-137608926D01*
X123318866Y-137574630D01*
X123554850Y-137570543D01*
X123763654Y-137596688D01*
G37*
X123763654Y-137596688D02*
X123945917Y-137653089D01*
X124102276Y-137739770D01*
X124211590Y-137833440D01*
X124298352Y-137943406D01*
X124378486Y-138084185D01*
X124446280Y-138244266D01*
X124493620Y-138401917D01*
X124506176Y-138462382D01*
X124522664Y-138553904D01*
X124542313Y-138671136D01*
X124564347Y-138808731D01*
X124587995Y-138961343D01*
X124612483Y-139123625D01*
X124637037Y-139290230D01*
X124660884Y-139455813D01*
X124683251Y-139615025D01*
X124703364Y-139762521D01*
X124720449Y-139892954D01*
X124733735Y-140000977D01*
X124742446Y-140081245D01*
X124745811Y-140128409D01*
X124744839Y-140138717D01*
X124720458Y-140146092D01*
X124662815Y-140157427D01*
X124580168Y-140171528D01*
X124480776Y-140187201D01*
X124372897Y-140203253D01*
X124264787Y-140218490D01*
X124164707Y-140231720D01*
X124080912Y-140241747D01*
X124021661Y-140247379D01*
X123995213Y-140247423D01*
X123994739Y-140247127D01*
X123989503Y-140224625D01*
X123979036Y-140165101D01*
X123964103Y-140073438D01*
X123945474Y-139954519D01*
X123923915Y-139813230D01*
X123900194Y-139654453D01*
X123880559Y-139520747D01*
X123848312Y-139300250D01*
X123821192Y-139117323D01*
X123798362Y-138967628D01*
X123778988Y-138846823D01*
X123762232Y-138750568D01*
X123747259Y-138674522D01*
X123733233Y-138614346D01*
X123719318Y-138565699D01*
X123704678Y-138524241D01*
X123688477Y-138485631D01*
X123675949Y-138458376D01*
X123610055Y-138354820D01*
X123524128Y-138286728D01*
X123417232Y-138250695D01*
X123370979Y-138248979D01*
X123299671Y-138254091D01*
X123214073Y-138264334D01*
X123124950Y-138278013D01*
X123043067Y-138293434D01*
X122979187Y-138308903D01*
X122944076Y-138322724D01*
X122941093Y-138325660D01*
X122942226Y-138348875D01*
X122948912Y-138409877D01*
X122960607Y-138504559D01*
X122976769Y-138628816D01*
X122996852Y-138778542D01*
X123020314Y-138949632D01*
X123046610Y-139137980D01*
X123075197Y-139339480D01*
X123077406Y-139354925D01*
X123106210Y-139556759D01*
X123132958Y-139745329D01*
X123157090Y-139916594D01*
X123178043Y-140066512D01*
X123195255Y-140191040D01*
X123208165Y-140286136D01*
X123216210Y-140347757D01*
X123218829Y-140371861D01*
X123218784Y-140372050D01*
X123197622Y-140375506D01*
X123141488Y-140383607D01*
X123057367Y-140395375D01*
X122952246Y-140409829D01*
X122865667Y-140421593D01*
X122746841Y-140437933D01*
X122641278Y-140452958D01*
X122556758Y-140465521D01*
X122501058Y-140474474D01*
X122483493Y-140477948D01*
X122475942Y-140475057D01*
X122467731Y-140460365D01*
X122458367Y-140430980D01*
X122447356Y-140384012D01*
X122434205Y-140316570D01*
X122418420Y-140225765D01*
X122399510Y-140108705D01*
X122376979Y-139962501D01*
X122350335Y-139784261D01*
X122319085Y-139571095D01*
X122282735Y-139320112D01*
X122265645Y-139201445D01*
X122227654Y-138936907D01*
X122195422Y-138711120D01*
X122168597Y-138520945D01*
X122146824Y-138363242D01*
X122129750Y-138234873D01*
X122117022Y-138132699D01*
X122108285Y-138053581D01*
X122103187Y-137994379D01*
X122101373Y-137951956D01*
X122102490Y-137923171D01*
X122106185Y-137904886D01*
X122112104Y-137893962D01*
X122117785Y-137888715D01*
X122150742Y-137872526D01*
X122215617Y-137846793D01*
X122303945Y-137814673D01*
X122407261Y-137779322D01*
X122441467Y-137768051D01*
X122762812Y-137673408D01*
X123055066Y-137608926D01*
X123318866Y-137574630D01*
X123554850Y-137570543D01*
X123763654Y-137596688D01*
G36*
X112178733Y-107707965D02*
G01*
X112215270Y-107749049D01*
X112260841Y-107808721D01*
X112309533Y-107878238D01*
X112355428Y-107948857D01*
X112392613Y-108011834D01*
X112415171Y-108058425D01*
X112417767Y-108079455D01*
X112399395Y-108092093D01*
X112347651Y-108127162D01*
X112264296Y-108183478D01*
X112151090Y-108259857D01*
X112009796Y-108355114D01*
X111842174Y-108468065D01*
X111649985Y-108597524D01*
X111434991Y-108742308D01*
X111198954Y-108901232D01*
X110943633Y-109073110D01*
X110670791Y-109256759D01*
X110382189Y-109450994D01*
X110079587Y-109654631D01*
X109764748Y-109866484D01*
X109439432Y-110085369D01*
X109105400Y-110310102D01*
X108764414Y-110539497D01*
X108418235Y-110772372D01*
X108068624Y-111007540D01*
X107717342Y-111243817D01*
X107366151Y-111480019D01*
X107016812Y-111714961D01*
X106671086Y-111947458D01*
X106330734Y-112176326D01*
X105997517Y-112400381D01*
X105673197Y-112618437D01*
X105359535Y-112829310D01*
X105058291Y-113031816D01*
X104771228Y-113224769D01*
X104500107Y-113406986D01*
X104246688Y-113577282D01*
X104012733Y-113734472D01*
X103800003Y-113877371D01*
X103610259Y-114004796D01*
X103445263Y-114115560D01*
X103306776Y-114208481D01*
X103196559Y-114282373D01*
X103116373Y-114336051D01*
X103067979Y-114368331D01*
X103053445Y-114377887D01*
X103036306Y-114365270D01*
X103001687Y-114323720D01*
X102954865Y-114260000D01*
X102908820Y-114192563D01*
X102858251Y-114112998D01*
X102819842Y-114046305D01*
X102797766Y-114000173D01*
X102794990Y-113982840D01*
X102814587Y-113968994D01*
X102867509Y-113932799D01*
X102951994Y-113875439D01*
X103066277Y-113798097D01*
X103208598Y-113701958D01*
X103377192Y-113588206D01*
X103570298Y-113458024D01*
X103786152Y-113312597D01*
X104022993Y-113153109D01*
X104279057Y-112980743D01*
X104552581Y-112796684D01*
X104841803Y-112602116D01*
X105144961Y-112398223D01*
X105460291Y-112186188D01*
X105786031Y-111967196D01*
X106120419Y-111742430D01*
X106461691Y-111513075D01*
X106808085Y-111280315D01*
X107157838Y-111045334D01*
X107509187Y-110809315D01*
X107860370Y-110573444D01*
X108209625Y-110338902D01*
X108555188Y-110106876D01*
X108895297Y-109878548D01*
X109228189Y-109655104D01*
X109552101Y-109437725D01*
X109865271Y-109227598D01*
X110165936Y-109025905D01*
X110452334Y-108833832D01*
X110722701Y-108652561D01*
X110975276Y-108483276D01*
X111208295Y-108327163D01*
X111419995Y-108185404D01*
X111608614Y-108059184D01*
X111772390Y-107949687D01*
X111909560Y-107858097D01*
X112018360Y-107785597D01*
X112097029Y-107733372D01*
X112143803Y-107702606D01*
X112157145Y-107694214D01*
X112178733Y-107707965D01*
G37*
X112178733Y-107707965D02*
X112215270Y-107749049D01*
X112260841Y-107808721D01*
X112309533Y-107878238D01*
X112355428Y-107948857D01*
X112392613Y-108011834D01*
X112415171Y-108058425D01*
X112417767Y-108079455D01*
X112399395Y-108092093D01*
X112347651Y-108127162D01*
X112264296Y-108183478D01*
X112151090Y-108259857D01*
X112009796Y-108355114D01*
X111842174Y-108468065D01*
X111649985Y-108597524D01*
X111434991Y-108742308D01*
X111198954Y-108901232D01*
X110943633Y-109073110D01*
X110670791Y-109256759D01*
X110382189Y-109450994D01*
X110079587Y-109654631D01*
X109764748Y-109866484D01*
X109439432Y-110085369D01*
X109105400Y-110310102D01*
X108764414Y-110539497D01*
X108418235Y-110772372D01*
X108068624Y-111007540D01*
X107717342Y-111243817D01*
X107366151Y-111480019D01*
X107016812Y-111714961D01*
X106671086Y-111947458D01*
X106330734Y-112176326D01*
X105997517Y-112400381D01*
X105673197Y-112618437D01*
X105359535Y-112829310D01*
X105058291Y-113031816D01*
X104771228Y-113224769D01*
X104500107Y-113406986D01*
X104246688Y-113577282D01*
X104012733Y-113734472D01*
X103800003Y-113877371D01*
X103610259Y-114004796D01*
X103445263Y-114115560D01*
X103306776Y-114208481D01*
X103196559Y-114282373D01*
X103116373Y-114336051D01*
X103067979Y-114368331D01*
X103053445Y-114377887D01*
X103036306Y-114365270D01*
X103001687Y-114323720D01*
X102954865Y-114260000D01*
X102908820Y-114192563D01*
X102858251Y-114112998D01*
X102819842Y-114046305D01*
X102797766Y-114000173D01*
X102794990Y-113982840D01*
X102814587Y-113968994D01*
X102867509Y-113932799D01*
X102951994Y-113875439D01*
X103066277Y-113798097D01*
X103208598Y-113701958D01*
X103377192Y-113588206D01*
X103570298Y-113458024D01*
X103786152Y-113312597D01*
X104022993Y-113153109D01*
X104279057Y-112980743D01*
X104552581Y-112796684D01*
X104841803Y-112602116D01*
X105144961Y-112398223D01*
X105460291Y-112186188D01*
X105786031Y-111967196D01*
X106120419Y-111742430D01*
X106461691Y-111513075D01*
X106808085Y-111280315D01*
X107157838Y-111045334D01*
X107509187Y-110809315D01*
X107860370Y-110573444D01*
X108209625Y-110338902D01*
X108555188Y-110106876D01*
X108895297Y-109878548D01*
X109228189Y-109655104D01*
X109552101Y-109437725D01*
X109865271Y-109227598D01*
X110165936Y-109025905D01*
X110452334Y-108833832D01*
X110722701Y-108652561D01*
X110975276Y-108483276D01*
X111208295Y-108327163D01*
X111419995Y-108185404D01*
X111608614Y-108059184D01*
X111772390Y-107949687D01*
X111909560Y-107858097D01*
X112018360Y-107785597D01*
X112097029Y-107733372D01*
X112143803Y-107702606D01*
X112157145Y-107694214D01*
X112178733Y-107707965D01*
G36*
X103919266Y-86682142D02*
G01*
X104110735Y-86750727D01*
X104286570Y-86852607D01*
X104441409Y-86986564D01*
X104527036Y-87088600D01*
X104635338Y-87253599D01*
X104721981Y-87427734D01*
X104788760Y-87617249D01*
X104837473Y-87828384D01*
X104869915Y-88067382D01*
X104887884Y-88340484D01*
X104887971Y-88342750D01*
X104888509Y-88690136D01*
X104862114Y-89005209D01*
X104808667Y-89288417D01*
X104728046Y-89540208D01*
X104620130Y-89761031D01*
X104484798Y-89951334D01*
X104440443Y-90000837D01*
X104287391Y-90139190D01*
X104123545Y-90239226D01*
X103942538Y-90304729D01*
X103919530Y-90310408D01*
X103784884Y-90331619D01*
X103629447Y-90339641D01*
X103471960Y-90334505D01*
X103331167Y-90316240D01*
X103299921Y-90309420D01*
X103119218Y-90245063D01*
X102946973Y-90144136D01*
X102790726Y-90012392D01*
X102658018Y-89855584D01*
X102611295Y-89783940D01*
X102522057Y-89603280D01*
X102448921Y-89389535D01*
X102392843Y-89149154D01*
X102354776Y-88888584D01*
X102335677Y-88614270D01*
X102335820Y-88565167D01*
X103128883Y-88565167D01*
X103138205Y-88774874D01*
X103160895Y-89003656D01*
X103194153Y-89194208D01*
X103239134Y-89349573D01*
X103296990Y-89472796D01*
X103368875Y-89566918D01*
X103455942Y-89634983D01*
X103466417Y-89640966D01*
X103526916Y-89658725D01*
X103608943Y-89664155D01*
X103693628Y-89657572D01*
X103762096Y-89639288D01*
X103769093Y-89635928D01*
X103855576Y-89573590D01*
X103927643Y-89482723D01*
X103986227Y-89360820D01*
X104032262Y-89205373D01*
X104066679Y-89013875D01*
X104090412Y-88783819D01*
X104091456Y-88769580D01*
X104101023Y-88540795D01*
X104097388Y-88316418D01*
X104081404Y-88102827D01*
X104053922Y-87906396D01*
X104015794Y-87733502D01*
X103967872Y-87590521D01*
X103921811Y-87499983D01*
X103852299Y-87420209D01*
X103761983Y-87357969D01*
X103665171Y-87321823D01*
X103614584Y-87316167D01*
X103520300Y-87334615D01*
X103424805Y-87384503D01*
X103341789Y-87457646D01*
X103311022Y-87497658D01*
X103255432Y-87607688D01*
X103208822Y-87753094D01*
X103172028Y-87927711D01*
X103145884Y-88125373D01*
X103131225Y-88339913D01*
X103128883Y-88565167D01*
X102335820Y-88565167D01*
X102336502Y-88332662D01*
X102356558Y-88064694D01*
X102402975Y-87783805D01*
X102476038Y-87529495D01*
X102574661Y-87303649D01*
X102697760Y-87108152D01*
X102844251Y-86944889D01*
X103013050Y-86815745D01*
X103104290Y-86765139D01*
X103304675Y-86688351D01*
X103510874Y-86649735D01*
X103717525Y-86648071D01*
X103919266Y-86682142D01*
G37*
X103919266Y-86682142D02*
X104110735Y-86750727D01*
X104286570Y-86852607D01*
X104441409Y-86986564D01*
X104527036Y-87088600D01*
X104635338Y-87253599D01*
X104721981Y-87427734D01*
X104788760Y-87617249D01*
X104837473Y-87828384D01*
X104869915Y-88067382D01*
X104887884Y-88340484D01*
X104887971Y-88342750D01*
X104888509Y-88690136D01*
X104862114Y-89005209D01*
X104808667Y-89288417D01*
X104728046Y-89540208D01*
X104620130Y-89761031D01*
X104484798Y-89951334D01*
X104440443Y-90000837D01*
X104287391Y-90139190D01*
X104123545Y-90239226D01*
X103942538Y-90304729D01*
X103919530Y-90310408D01*
X103784884Y-90331619D01*
X103629447Y-90339641D01*
X103471960Y-90334505D01*
X103331167Y-90316240D01*
X103299921Y-90309420D01*
X103119218Y-90245063D01*
X102946973Y-90144136D01*
X102790726Y-90012392D01*
X102658018Y-89855584D01*
X102611295Y-89783940D01*
X102522057Y-89603280D01*
X102448921Y-89389535D01*
X102392843Y-89149154D01*
X102354776Y-88888584D01*
X102335677Y-88614270D01*
X102335820Y-88565167D01*
X103128883Y-88565167D01*
X103138205Y-88774874D01*
X103160895Y-89003656D01*
X103194153Y-89194208D01*
X103239134Y-89349573D01*
X103296990Y-89472796D01*
X103368875Y-89566918D01*
X103455942Y-89634983D01*
X103466417Y-89640966D01*
X103526916Y-89658725D01*
X103608943Y-89664155D01*
X103693628Y-89657572D01*
X103762096Y-89639288D01*
X103769093Y-89635928D01*
X103855576Y-89573590D01*
X103927643Y-89482723D01*
X103986227Y-89360820D01*
X104032262Y-89205373D01*
X104066679Y-89013875D01*
X104090412Y-88783819D01*
X104091456Y-88769580D01*
X104101023Y-88540795D01*
X104097388Y-88316418D01*
X104081404Y-88102827D01*
X104053922Y-87906396D01*
X104015794Y-87733502D01*
X103967872Y-87590521D01*
X103921811Y-87499983D01*
X103852299Y-87420209D01*
X103761983Y-87357969D01*
X103665171Y-87321823D01*
X103614584Y-87316167D01*
X103520300Y-87334615D01*
X103424805Y-87384503D01*
X103341789Y-87457646D01*
X103311022Y-87497658D01*
X103255432Y-87607688D01*
X103208822Y-87753094D01*
X103172028Y-87927711D01*
X103145884Y-88125373D01*
X103131225Y-88339913D01*
X103128883Y-88565167D01*
X102335820Y-88565167D01*
X102336502Y-88332662D01*
X102356558Y-88064694D01*
X102402975Y-87783805D01*
X102476038Y-87529495D01*
X102574661Y-87303649D01*
X102697760Y-87108152D01*
X102844251Y-86944889D01*
X103013050Y-86815745D01*
X103104290Y-86765139D01*
X103304675Y-86688351D01*
X103510874Y-86649735D01*
X103717525Y-86648071D01*
X103919266Y-86682142D01*
G36*
X109535314Y-86653483D02*
G01*
X109626936Y-86666781D01*
X109834222Y-86724354D01*
X110020674Y-86818293D01*
X110185607Y-86947736D01*
X110328339Y-87111820D01*
X110448187Y-87309681D01*
X110544468Y-87540456D01*
X110616499Y-87803284D01*
X110644068Y-87951849D01*
X110659335Y-88085398D01*
X110668538Y-88247120D01*
X110671925Y-88426798D01*
X110669743Y-88614215D01*
X110662241Y-88799152D01*
X110649666Y-88971391D01*
X110632266Y-89120716D01*
X110613197Y-89224894D01*
X110536440Y-89485432D01*
X110435862Y-89712770D01*
X110312234Y-89906202D01*
X110166330Y-90065021D01*
X109998921Y-90188522D01*
X109810780Y-90275998D01*
X109602679Y-90326744D01*
X109393084Y-90340368D01*
X109299285Y-90337150D01*
X109210190Y-90330543D01*
X109143727Y-90321914D01*
X109139084Y-90321006D01*
X108935178Y-90258556D01*
X108751684Y-90159602D01*
X108589633Y-90025278D01*
X108450057Y-89856717D01*
X108333986Y-89655051D01*
X108242452Y-89421415D01*
X108207258Y-89297149D01*
X108158686Y-89053297D01*
X108129586Y-88792166D01*
X108119504Y-88522220D01*
X108121571Y-88456324D01*
X108921750Y-88456324D01*
X108924374Y-88607334D01*
X108932997Y-88819477D01*
X108946292Y-88994605D01*
X108964954Y-89137848D01*
X108989673Y-89254335D01*
X109021141Y-89349197D01*
X109026051Y-89360874D01*
X109078905Y-89460908D01*
X109142828Y-89548328D01*
X109208836Y-89611741D01*
X109238422Y-89630208D01*
X109326634Y-89657338D01*
X109426045Y-89663525D01*
X109516991Y-89648412D01*
X109547593Y-89635807D01*
X109636507Y-89574127D01*
X109710203Y-89488430D01*
X109769461Y-89376043D01*
X109815061Y-89234294D01*
X109847782Y-89060510D01*
X109868403Y-88852019D01*
X109877704Y-88606148D01*
X109878432Y-88501500D01*
X109876985Y-88314345D01*
X109872109Y-88160901D01*
X109862819Y-88032617D01*
X109848130Y-87920941D01*
X109827061Y-87817322D01*
X109798625Y-87713209D01*
X109781472Y-87658706D01*
X109723319Y-87529081D01*
X109645901Y-87428917D01*
X109554401Y-87360126D01*
X109454000Y-87324619D01*
X109349883Y-87324305D01*
X109247231Y-87361096D01*
X109158781Y-87429116D01*
X109082936Y-87525723D01*
X109022299Y-87648792D01*
X108976366Y-87800854D01*
X108944632Y-87984441D01*
X108926595Y-88202087D01*
X108921750Y-88456324D01*
X108121571Y-88456324D01*
X108127986Y-88251917D01*
X108154576Y-87989721D01*
X108198820Y-87744091D01*
X108260263Y-87523489D01*
X108309385Y-87397130D01*
X108422958Y-87187254D01*
X108561542Y-87009435D01*
X108722441Y-86865168D01*
X108902962Y-86755946D01*
X109100411Y-86683262D01*
X109312093Y-86648610D01*
X109535314Y-86653483D01*
G37*
X109535314Y-86653483D02*
X109626936Y-86666781D01*
X109834222Y-86724354D01*
X110020674Y-86818293D01*
X110185607Y-86947736D01*
X110328339Y-87111820D01*
X110448187Y-87309681D01*
X110544468Y-87540456D01*
X110616499Y-87803284D01*
X110644068Y-87951849D01*
X110659335Y-88085398D01*
X110668538Y-88247120D01*
X110671925Y-88426798D01*
X110669743Y-88614215D01*
X110662241Y-88799152D01*
X110649666Y-88971391D01*
X110632266Y-89120716D01*
X110613197Y-89224894D01*
X110536440Y-89485432D01*
X110435862Y-89712770D01*
X110312234Y-89906202D01*
X110166330Y-90065021D01*
X109998921Y-90188522D01*
X109810780Y-90275998D01*
X109602679Y-90326744D01*
X109393084Y-90340368D01*
X109299285Y-90337150D01*
X109210190Y-90330543D01*
X109143727Y-90321914D01*
X109139084Y-90321006D01*
X108935178Y-90258556D01*
X108751684Y-90159602D01*
X108589633Y-90025278D01*
X108450057Y-89856717D01*
X108333986Y-89655051D01*
X108242452Y-89421415D01*
X108207258Y-89297149D01*
X108158686Y-89053297D01*
X108129586Y-88792166D01*
X108119504Y-88522220D01*
X108121571Y-88456324D01*
X108921750Y-88456324D01*
X108924374Y-88607334D01*
X108932997Y-88819477D01*
X108946292Y-88994605D01*
X108964954Y-89137848D01*
X108989673Y-89254335D01*
X109021141Y-89349197D01*
X109026051Y-89360874D01*
X109078905Y-89460908D01*
X109142828Y-89548328D01*
X109208836Y-89611741D01*
X109238422Y-89630208D01*
X109326634Y-89657338D01*
X109426045Y-89663525D01*
X109516991Y-89648412D01*
X109547593Y-89635807D01*
X109636507Y-89574127D01*
X109710203Y-89488430D01*
X109769461Y-89376043D01*
X109815061Y-89234294D01*
X109847782Y-89060510D01*
X109868403Y-88852019D01*
X109877704Y-88606148D01*
X109878432Y-88501500D01*
X109876985Y-88314345D01*
X109872109Y-88160901D01*
X109862819Y-88032617D01*
X109848130Y-87920941D01*
X109827061Y-87817322D01*
X109798625Y-87713209D01*
X109781472Y-87658706D01*
X109723319Y-87529081D01*
X109645901Y-87428917D01*
X109554401Y-87360126D01*
X109454000Y-87324619D01*
X109349883Y-87324305D01*
X109247231Y-87361096D01*
X109158781Y-87429116D01*
X109082936Y-87525723D01*
X109022299Y-87648792D01*
X108976366Y-87800854D01*
X108944632Y-87984441D01*
X108926595Y-88202087D01*
X108921750Y-88456324D01*
X108121571Y-88456324D01*
X108127986Y-88251917D01*
X108154576Y-87989721D01*
X108198820Y-87744091D01*
X108260263Y-87523489D01*
X108309385Y-87397130D01*
X108422958Y-87187254D01*
X108561542Y-87009435D01*
X108722441Y-86865168D01*
X108902962Y-86755946D01*
X109100411Y-86683262D01*
X109312093Y-86648610D01*
X109535314Y-86653483D01*
G36*
X100725334Y-86648526D02*
G01*
X100969647Y-86681846D01*
X101179275Y-86738097D01*
X101355689Y-86818196D01*
X101500360Y-86923058D01*
X101614762Y-87053599D01*
X101700365Y-87210734D01*
X101722657Y-87268900D01*
X101753298Y-87387342D01*
X101772829Y-87526124D01*
X101780151Y-87668809D01*
X101774164Y-87798964D01*
X101762761Y-87868438D01*
X101729306Y-87974702D01*
X101676459Y-88099853D01*
X101611013Y-88229519D01*
X101539763Y-88349324D01*
X101524941Y-88371532D01*
X101493602Y-88410808D01*
X101436602Y-88475531D01*
X101358167Y-88561166D01*
X101262525Y-88663180D01*
X101153904Y-88777041D01*
X101036530Y-88898215D01*
X100979366Y-88956584D01*
X100818797Y-89120661D01*
X100686726Y-89257282D01*
X100581295Y-89368494D01*
X100500644Y-89456345D01*
X100442913Y-89522882D01*
X100406245Y-89570153D01*
X100388779Y-89600207D01*
X100386667Y-89609456D01*
X100407041Y-89612662D01*
X100464991Y-89615607D01*
X100555763Y-89618202D01*
X100674599Y-89620360D01*
X100816744Y-89621992D01*
X100977441Y-89623012D01*
X101138084Y-89623334D01*
X101889500Y-89623334D01*
X101889500Y-90279500D01*
X99518834Y-90279500D01*
X99518834Y-90033847D01*
X99522095Y-89890379D01*
X99533506Y-89760873D01*
X99555510Y-89641081D01*
X99590548Y-89526758D01*
X99641063Y-89413655D01*
X99709495Y-89297528D01*
X99798286Y-89174129D01*
X99909880Y-89039211D01*
X100046717Y-88888528D01*
X100211239Y-88717834D01*
X100363441Y-88565000D01*
X100518313Y-88410137D01*
X100645218Y-88280627D01*
X100746894Y-88172684D01*
X100826082Y-88082521D01*
X100885520Y-88006350D01*
X100927948Y-87940384D01*
X100956105Y-87880836D01*
X100972730Y-87823917D01*
X100980562Y-87765842D01*
X100982357Y-87709266D01*
X100968314Y-87581077D01*
X100924675Y-87480888D01*
X100849177Y-87404367D01*
X100810000Y-87379667D01*
X100751846Y-87351458D01*
X100694298Y-87335476D01*
X100621974Y-87328709D01*
X100545417Y-87327893D01*
X100424744Y-87337130D01*
X100307368Y-87365199D01*
X100186597Y-87415161D01*
X100055739Y-87490076D01*
X99908103Y-87593005D01*
X99822856Y-87658319D01*
X99801683Y-87651307D01*
X99761300Y-87611039D01*
X99700880Y-87536558D01*
X99619595Y-87426906D01*
X99605093Y-87406727D01*
X99411391Y-87136250D01*
X99501875Y-87054842D01*
X99676078Y-86923472D01*
X99878659Y-86813560D01*
X100099769Y-86728375D01*
X100329560Y-86671190D01*
X100558183Y-86645275D01*
X100725334Y-86648526D01*
G37*
X100725334Y-86648526D02*
X100969647Y-86681846D01*
X101179275Y-86738097D01*
X101355689Y-86818196D01*
X101500360Y-86923058D01*
X101614762Y-87053599D01*
X101700365Y-87210734D01*
X101722657Y-87268900D01*
X101753298Y-87387342D01*
X101772829Y-87526124D01*
X101780151Y-87668809D01*
X101774164Y-87798964D01*
X101762761Y-87868438D01*
X101729306Y-87974702D01*
X101676459Y-88099853D01*
X101611013Y-88229519D01*
X101539763Y-88349324D01*
X101524941Y-88371532D01*
X101493602Y-88410808D01*
X101436602Y-88475531D01*
X101358167Y-88561166D01*
X101262525Y-88663180D01*
X101153904Y-88777041D01*
X101036530Y-88898215D01*
X100979366Y-88956584D01*
X100818797Y-89120661D01*
X100686726Y-89257282D01*
X100581295Y-89368494D01*
X100500644Y-89456345D01*
X100442913Y-89522882D01*
X100406245Y-89570153D01*
X100388779Y-89600207D01*
X100386667Y-89609456D01*
X100407041Y-89612662D01*
X100464991Y-89615607D01*
X100555763Y-89618202D01*
X100674599Y-89620360D01*
X100816744Y-89621992D01*
X100977441Y-89623012D01*
X101138084Y-89623334D01*
X101889500Y-89623334D01*
X101889500Y-90279500D01*
X99518834Y-90279500D01*
X99518834Y-90033847D01*
X99522095Y-89890379D01*
X99533506Y-89760873D01*
X99555510Y-89641081D01*
X99590548Y-89526758D01*
X99641063Y-89413655D01*
X99709495Y-89297528D01*
X99798286Y-89174129D01*
X99909880Y-89039211D01*
X100046717Y-88888528D01*
X100211239Y-88717834D01*
X100363441Y-88565000D01*
X100518313Y-88410137D01*
X100645218Y-88280627D01*
X100746894Y-88172684D01*
X100826082Y-88082521D01*
X100885520Y-88006350D01*
X100927948Y-87940384D01*
X100956105Y-87880836D01*
X100972730Y-87823917D01*
X100980562Y-87765842D01*
X100982357Y-87709266D01*
X100968314Y-87581077D01*
X100924675Y-87480888D01*
X100849177Y-87404367D01*
X100810000Y-87379667D01*
X100751846Y-87351458D01*
X100694298Y-87335476D01*
X100621974Y-87328709D01*
X100545417Y-87327893D01*
X100424744Y-87337130D01*
X100307368Y-87365199D01*
X100186597Y-87415161D01*
X100055739Y-87490076D01*
X99908103Y-87593005D01*
X99822856Y-87658319D01*
X99801683Y-87651307D01*
X99761300Y-87611039D01*
X99700880Y-87536558D01*
X99619595Y-87426906D01*
X99605093Y-87406727D01*
X99411391Y-87136250D01*
X99501875Y-87054842D01*
X99676078Y-86923472D01*
X99878659Y-86813560D01*
X100099769Y-86728375D01*
X100329560Y-86671190D01*
X100558183Y-86645275D01*
X100725334Y-86648526D01*
G36*
X106594144Y-86660638D02*
G01*
X106745934Y-86678659D01*
X106851260Y-86700439D01*
X107051450Y-86770899D01*
X107218500Y-86867699D01*
X107352401Y-86990824D01*
X107453141Y-87140260D01*
X107520709Y-87315990D01*
X107555095Y-87517999D01*
X107558850Y-87694459D01*
X107554094Y-87799677D01*
X107546323Y-87876870D01*
X107532347Y-87940344D01*
X107508975Y-88004408D01*
X107473018Y-88083368D01*
X107471353Y-88086872D01*
X107424517Y-88180039D01*
X107374412Y-88267251D01*
X107317091Y-88353378D01*
X107248606Y-88443288D01*
X107165010Y-88541850D01*
X107062356Y-88653935D01*
X106936696Y-88784410D01*
X106784083Y-88938144D01*
X106769181Y-88952999D01*
X106653151Y-89069512D01*
X106542419Y-89182447D01*
X106441925Y-89286631D01*
X106356609Y-89376892D01*
X106291410Y-89448059D01*
X106251271Y-89494959D01*
X106250197Y-89496334D01*
X106159789Y-89612750D01*
X106913895Y-89618309D01*
X107668000Y-89623868D01*
X107668000Y-90279500D01*
X105297334Y-90279500D01*
X105297701Y-90062542D01*
X105306821Y-89858964D01*
X105335010Y-89682921D01*
X105384639Y-89523050D01*
X105432323Y-89416817D01*
X105479108Y-89329721D01*
X105531648Y-89244741D01*
X105593569Y-89157585D01*
X105668494Y-89063959D01*
X105760049Y-88959571D01*
X105871856Y-88840128D01*
X106007541Y-88701337D01*
X106170728Y-88538905D01*
X106187205Y-88522667D01*
X106334908Y-88376164D01*
X106454689Y-88254380D01*
X106549644Y-88153232D01*
X106622873Y-88068634D01*
X106677475Y-87996501D01*
X106716548Y-87932748D01*
X106743191Y-87873290D01*
X106760503Y-87814042D01*
X106771354Y-87752598D01*
X106769098Y-87631946D01*
X106732333Y-87518348D01*
X106676760Y-87437378D01*
X106610874Y-87389037D01*
X106518278Y-87349143D01*
X106414491Y-87323194D01*
X106334500Y-87316167D01*
X106208602Y-87331958D01*
X106066625Y-87376327D01*
X105918901Y-87444768D01*
X105775764Y-87532776D01*
X105692978Y-87595920D01*
X105638910Y-87638509D01*
X105598715Y-87665703D01*
X105582239Y-87671628D01*
X105558360Y-87642508D01*
X105518158Y-87588155D01*
X105466788Y-87516086D01*
X105409405Y-87433815D01*
X105351163Y-87348860D01*
X105297218Y-87268734D01*
X105252724Y-87200953D01*
X105222837Y-87153034D01*
X105212667Y-87132812D01*
X105231148Y-87098163D01*
X105282237Y-87051095D01*
X105359403Y-86995318D01*
X105456113Y-86934546D01*
X105565836Y-86872489D01*
X105682040Y-86812858D01*
X105798194Y-86759365D01*
X105907765Y-86715722D01*
X105995834Y-86687804D01*
X106117337Y-86665730D01*
X106266472Y-86653976D01*
X106429866Y-86652345D01*
X106594144Y-86660638D01*
G37*
X106594144Y-86660638D02*
X106745934Y-86678659D01*
X106851260Y-86700439D01*
X107051450Y-86770899D01*
X107218500Y-86867699D01*
X107352401Y-86990824D01*
X107453141Y-87140260D01*
X107520709Y-87315990D01*
X107555095Y-87517999D01*
X107558850Y-87694459D01*
X107554094Y-87799677D01*
X107546323Y-87876870D01*
X107532347Y-87940344D01*
X107508975Y-88004408D01*
X107473018Y-88083368D01*
X107471353Y-88086872D01*
X107424517Y-88180039D01*
X107374412Y-88267251D01*
X107317091Y-88353378D01*
X107248606Y-88443288D01*
X107165010Y-88541850D01*
X107062356Y-88653935D01*
X106936696Y-88784410D01*
X106784083Y-88938144D01*
X106769181Y-88952999D01*
X106653151Y-89069512D01*
X106542419Y-89182447D01*
X106441925Y-89286631D01*
X106356609Y-89376892D01*
X106291410Y-89448059D01*
X106251271Y-89494959D01*
X106250197Y-89496334D01*
X106159789Y-89612750D01*
X106913895Y-89618309D01*
X107668000Y-89623868D01*
X107668000Y-90279500D01*
X105297334Y-90279500D01*
X105297701Y-90062542D01*
X105306821Y-89858964D01*
X105335010Y-89682921D01*
X105384639Y-89523050D01*
X105432323Y-89416817D01*
X105479108Y-89329721D01*
X105531648Y-89244741D01*
X105593569Y-89157585D01*
X105668494Y-89063959D01*
X105760049Y-88959571D01*
X105871856Y-88840128D01*
X106007541Y-88701337D01*
X106170728Y-88538905D01*
X106187205Y-88522667D01*
X106334908Y-88376164D01*
X106454689Y-88254380D01*
X106549644Y-88153232D01*
X106622873Y-88068634D01*
X106677475Y-87996501D01*
X106716548Y-87932748D01*
X106743191Y-87873290D01*
X106760503Y-87814042D01*
X106771354Y-87752598D01*
X106769098Y-87631946D01*
X106732333Y-87518348D01*
X106676760Y-87437378D01*
X106610874Y-87389037D01*
X106518278Y-87349143D01*
X106414491Y-87323194D01*
X106334500Y-87316167D01*
X106208602Y-87331958D01*
X106066625Y-87376327D01*
X105918901Y-87444768D01*
X105775764Y-87532776D01*
X105692978Y-87595920D01*
X105638910Y-87638509D01*
X105598715Y-87665703D01*
X105582239Y-87671628D01*
X105558360Y-87642508D01*
X105518158Y-87588155D01*
X105466788Y-87516086D01*
X105409405Y-87433815D01*
X105351163Y-87348860D01*
X105297218Y-87268734D01*
X105252724Y-87200953D01*
X105222837Y-87153034D01*
X105212667Y-87132812D01*
X105231148Y-87098163D01*
X105282237Y-87051095D01*
X105359403Y-86995318D01*
X105456113Y-86934546D01*
X105565836Y-86872489D01*
X105682040Y-86812858D01*
X105798194Y-86759365D01*
X105907765Y-86715722D01*
X105995834Y-86687804D01*
X106117337Y-86665730D01*
X106266472Y-86653976D01*
X106429866Y-86652345D01*
X106594144Y-86660638D01*
G36*
X95355163Y-81473217D02*
G01*
X95605561Y-81524457D01*
X95727292Y-81559043D01*
X95840560Y-81597958D01*
X95937898Y-81638012D01*
X96011836Y-81676013D01*
X96054905Y-81708770D01*
X96061677Y-81719316D01*
X96058654Y-81748393D01*
X96043004Y-81809523D01*
X96016968Y-81895121D01*
X95982790Y-81997605D01*
X95961716Y-82057358D01*
X95917264Y-82178479D01*
X95883312Y-82264096D01*
X95857512Y-82319040D01*
X95837512Y-82348141D01*
X95820965Y-82356233D01*
X95816780Y-82355441D01*
X95783850Y-82344051D01*
X95720793Y-82321693D01*
X95637282Y-82291810D01*
X95560667Y-82264232D01*
X95473880Y-82233380D01*
X95405562Y-82211658D01*
X95344890Y-82197454D01*
X95281043Y-82189155D01*
X95203201Y-82185149D01*
X95100541Y-82183821D01*
X95019865Y-82183637D01*
X94701312Y-82183250D01*
X94539706Y-82263098D01*
X94376433Y-82365932D01*
X94243843Y-82497922D01*
X94141945Y-82659039D01*
X94070754Y-82849260D01*
X94030280Y-83068558D01*
X94020536Y-83316907D01*
X94022211Y-83368584D01*
X94044352Y-83601065D01*
X94090173Y-83800285D01*
X94161185Y-83969049D01*
X94258902Y-84110163D01*
X94384839Y-84226432D01*
X94534090Y-84317481D01*
X94686344Y-84373570D01*
X94865516Y-84405947D01*
X95063594Y-84414815D01*
X95272566Y-84400380D01*
X95484421Y-84362847D01*
X95691148Y-84302419D01*
X95733195Y-84286826D01*
X95810365Y-84258225D01*
X95870994Y-84237937D01*
X95905557Y-84229059D01*
X95909914Y-84229358D01*
X95918313Y-84250096D01*
X95937434Y-84302611D01*
X95964400Y-84378594D01*
X95996331Y-84469733D01*
X96030350Y-84567717D01*
X96063578Y-84664235D01*
X96093138Y-84750976D01*
X96116150Y-84819629D01*
X96129737Y-84861883D01*
X96132167Y-84871110D01*
X96114454Y-84881449D01*
X96067644Y-84904534D01*
X96001230Y-84935710D01*
X95989292Y-84941196D01*
X95834378Y-85001661D01*
X95652700Y-85055260D01*
X95459745Y-85097740D01*
X95359584Y-85114096D01*
X95259629Y-85123794D01*
X95130398Y-85129863D01*
X94984791Y-85132321D01*
X94835708Y-85131185D01*
X94696050Y-85126473D01*
X94578716Y-85118202D01*
X94534084Y-85112969D01*
X94396660Y-85085618D01*
X94247004Y-85042656D01*
X94101243Y-84989561D01*
X93975501Y-84931814D01*
X93936560Y-84909933D01*
X93742921Y-84774604D01*
X93580838Y-84619213D01*
X93447260Y-84439503D01*
X93339134Y-84231216D01*
X93253406Y-83990093D01*
X93238242Y-83935926D01*
X93218618Y-83859717D01*
X93204208Y-83792732D01*
X93194219Y-83726125D01*
X93187858Y-83651055D01*
X93184331Y-83558677D01*
X93182845Y-83440149D01*
X93182593Y-83315667D01*
X93183186Y-83165406D01*
X93185344Y-83049101D01*
X93189735Y-82958386D01*
X93197025Y-82884893D01*
X93207883Y-82820256D01*
X93222974Y-82756106D01*
X93229006Y-82733584D01*
X93320405Y-82471763D01*
X93444619Y-82230896D01*
X93598729Y-82016342D01*
X93653358Y-81954676D01*
X93832688Y-81792852D01*
X94039336Y-81660707D01*
X94269670Y-81559044D01*
X94520053Y-81488662D01*
X94786853Y-81450363D01*
X95066434Y-81444948D01*
X95355163Y-81473217D01*
G37*
X95355163Y-81473217D02*
X95605561Y-81524457D01*
X95727292Y-81559043D01*
X95840560Y-81597958D01*
X95937898Y-81638012D01*
X96011836Y-81676013D01*
X96054905Y-81708770D01*
X96061677Y-81719316D01*
X96058654Y-81748393D01*
X96043004Y-81809523D01*
X96016968Y-81895121D01*
X95982790Y-81997605D01*
X95961716Y-82057358D01*
X95917264Y-82178479D01*
X95883312Y-82264096D01*
X95857512Y-82319040D01*
X95837512Y-82348141D01*
X95820965Y-82356233D01*
X95816780Y-82355441D01*
X95783850Y-82344051D01*
X95720793Y-82321693D01*
X95637282Y-82291810D01*
X95560667Y-82264232D01*
X95473880Y-82233380D01*
X95405562Y-82211658D01*
X95344890Y-82197454D01*
X95281043Y-82189155D01*
X95203201Y-82185149D01*
X95100541Y-82183821D01*
X95019865Y-82183637D01*
X94701312Y-82183250D01*
X94539706Y-82263098D01*
X94376433Y-82365932D01*
X94243843Y-82497922D01*
X94141945Y-82659039D01*
X94070754Y-82849260D01*
X94030280Y-83068558D01*
X94020536Y-83316907D01*
X94022211Y-83368584D01*
X94044352Y-83601065D01*
X94090173Y-83800285D01*
X94161185Y-83969049D01*
X94258902Y-84110163D01*
X94384839Y-84226432D01*
X94534090Y-84317481D01*
X94686344Y-84373570D01*
X94865516Y-84405947D01*
X95063594Y-84414815D01*
X95272566Y-84400380D01*
X95484421Y-84362847D01*
X95691148Y-84302419D01*
X95733195Y-84286826D01*
X95810365Y-84258225D01*
X95870994Y-84237937D01*
X95905557Y-84229059D01*
X95909914Y-84229358D01*
X95918313Y-84250096D01*
X95937434Y-84302611D01*
X95964400Y-84378594D01*
X95996331Y-84469733D01*
X96030350Y-84567717D01*
X96063578Y-84664235D01*
X96093138Y-84750976D01*
X96116150Y-84819629D01*
X96129737Y-84861883D01*
X96132167Y-84871110D01*
X96114454Y-84881449D01*
X96067644Y-84904534D01*
X96001230Y-84935710D01*
X95989292Y-84941196D01*
X95834378Y-85001661D01*
X95652700Y-85055260D01*
X95459745Y-85097740D01*
X95359584Y-85114096D01*
X95259629Y-85123794D01*
X95130398Y-85129863D01*
X94984791Y-85132321D01*
X94835708Y-85131185D01*
X94696050Y-85126473D01*
X94578716Y-85118202D01*
X94534084Y-85112969D01*
X94396660Y-85085618D01*
X94247004Y-85042656D01*
X94101243Y-84989561D01*
X93975501Y-84931814D01*
X93936560Y-84909933D01*
X93742921Y-84774604D01*
X93580838Y-84619213D01*
X93447260Y-84439503D01*
X93339134Y-84231216D01*
X93253406Y-83990093D01*
X93238242Y-83935926D01*
X93218618Y-83859717D01*
X93204208Y-83792732D01*
X93194219Y-83726125D01*
X93187858Y-83651055D01*
X93184331Y-83558677D01*
X93182845Y-83440149D01*
X93182593Y-83315667D01*
X93183186Y-83165406D01*
X93185344Y-83049101D01*
X93189735Y-82958386D01*
X93197025Y-82884893D01*
X93207883Y-82820256D01*
X93222974Y-82756106D01*
X93229006Y-82733584D01*
X93320405Y-82471763D01*
X93444619Y-82230896D01*
X93598729Y-82016342D01*
X93653358Y-81954676D01*
X93832688Y-81792852D01*
X94039336Y-81660707D01*
X94269670Y-81559044D01*
X94520053Y-81488662D01*
X94786853Y-81450363D01*
X95066434Y-81444948D01*
X95355163Y-81473217D01*
G36*
X104344711Y-82314318D02*
G01*
X104520185Y-82330578D01*
X104684801Y-82356428D01*
X104744765Y-82369286D01*
X104839941Y-82392031D01*
X104918776Y-82411767D01*
X104972844Y-82426321D01*
X104993620Y-82433397D01*
X104991708Y-82455111D01*
X104982075Y-82509072D01*
X104966675Y-82586316D01*
X104947460Y-82677878D01*
X104926386Y-82774793D01*
X104905406Y-82868096D01*
X104886475Y-82948823D01*
X104871547Y-83008008D01*
X104862575Y-83036687D01*
X104861882Y-83037784D01*
X104839734Y-83036002D01*
X104786725Y-83024501D01*
X104712610Y-83005495D01*
X104679161Y-82996267D01*
X104566383Y-82971125D01*
X104440491Y-82953783D01*
X104311026Y-82944424D01*
X104187528Y-82943229D01*
X104079538Y-82950378D01*
X103996598Y-82966054D01*
X103957995Y-82982560D01*
X103901120Y-83040848D01*
X103880012Y-83111289D01*
X103893975Y-83184526D01*
X103942312Y-83251205D01*
X103980109Y-83279753D01*
X104030460Y-83306596D01*
X104109536Y-83343841D01*
X104206586Y-83386607D01*
X104310857Y-83430013D01*
X104313084Y-83430911D01*
X104520160Y-83519562D01*
X104689094Y-83604811D01*
X104823455Y-83690489D01*
X104926812Y-83780431D01*
X105002732Y-83878468D01*
X105054785Y-83988435D01*
X105086540Y-84114164D01*
X105101564Y-84259488D01*
X105102425Y-84278750D01*
X105104977Y-84386489D01*
X105101662Y-84465898D01*
X105090952Y-84530756D01*
X105071323Y-84594845D01*
X105065755Y-84609947D01*
X104988421Y-84756312D01*
X104875447Y-84881482D01*
X104728654Y-84983981D01*
X104549861Y-85062331D01*
X104482417Y-85083120D01*
X104397516Y-85099745D01*
X104280655Y-85112889D01*
X104142086Y-85122314D01*
X103992057Y-85127782D01*
X103840819Y-85129052D01*
X103698622Y-85125885D01*
X103575716Y-85118044D01*
X103487584Y-85106321D01*
X103383397Y-85084101D01*
X103279695Y-85058136D01*
X103184618Y-85030927D01*
X103106303Y-85004974D01*
X103052890Y-84982777D01*
X103032516Y-84966838D01*
X103032500Y-84966510D01*
X103036711Y-84939784D01*
X103048284Y-84879633D01*
X103065627Y-84794011D01*
X103087149Y-84690868D01*
X103096000Y-84649167D01*
X103118607Y-84542502D01*
X103137665Y-84451372D01*
X103151599Y-84383398D01*
X103158834Y-84346205D01*
X103159500Y-84341682D01*
X103176874Y-84342434D01*
X103220345Y-84355999D01*
X103238875Y-84362955D01*
X103417750Y-84424309D01*
X103589479Y-84463759D01*
X103771019Y-84484396D01*
X103932920Y-84489431D01*
X104070146Y-84487697D01*
X104171253Y-84480078D01*
X104242271Y-84464638D01*
X104289230Y-84439439D01*
X104318161Y-84402544D01*
X104332992Y-84360894D01*
X104336166Y-84309934D01*
X104317083Y-84261000D01*
X104272558Y-84211748D01*
X104199404Y-84159838D01*
X104094435Y-84102928D01*
X103954465Y-84038675D01*
X103815667Y-83980622D01*
X103682231Y-83925077D01*
X103579911Y-83878558D01*
X103499869Y-83836093D01*
X103433269Y-83792710D01*
X103371273Y-83743439D01*
X103332231Y-83708632D01*
X103230160Y-83587418D01*
X103157715Y-83443438D01*
X103115225Y-83284490D01*
X103103022Y-83118370D01*
X103121438Y-82952873D01*
X103170801Y-82795796D01*
X103251444Y-82654935D01*
X103285705Y-82612511D01*
X103386945Y-82521843D01*
X103520501Y-82439452D01*
X103676433Y-82371078D01*
X103741584Y-82349323D01*
X103856816Y-82325153D01*
X104002659Y-82311400D01*
X104168747Y-82307857D01*
X104344711Y-82314318D01*
G37*
X104344711Y-82314318D02*
X104520185Y-82330578D01*
X104684801Y-82356428D01*
X104744765Y-82369286D01*
X104839941Y-82392031D01*
X104918776Y-82411767D01*
X104972844Y-82426321D01*
X104993620Y-82433397D01*
X104991708Y-82455111D01*
X104982075Y-82509072D01*
X104966675Y-82586316D01*
X104947460Y-82677878D01*
X104926386Y-82774793D01*
X104905406Y-82868096D01*
X104886475Y-82948823D01*
X104871547Y-83008008D01*
X104862575Y-83036687D01*
X104861882Y-83037784D01*
X104839734Y-83036002D01*
X104786725Y-83024501D01*
X104712610Y-83005495D01*
X104679161Y-82996267D01*
X104566383Y-82971125D01*
X104440491Y-82953783D01*
X104311026Y-82944424D01*
X104187528Y-82943229D01*
X104079538Y-82950378D01*
X103996598Y-82966054D01*
X103957995Y-82982560D01*
X103901120Y-83040848D01*
X103880012Y-83111289D01*
X103893975Y-83184526D01*
X103942312Y-83251205D01*
X103980109Y-83279753D01*
X104030460Y-83306596D01*
X104109536Y-83343841D01*
X104206586Y-83386607D01*
X104310857Y-83430013D01*
X104313084Y-83430911D01*
X104520160Y-83519562D01*
X104689094Y-83604811D01*
X104823455Y-83690489D01*
X104926812Y-83780431D01*
X105002732Y-83878468D01*
X105054785Y-83988435D01*
X105086540Y-84114164D01*
X105101564Y-84259488D01*
X105102425Y-84278750D01*
X105104977Y-84386489D01*
X105101662Y-84465898D01*
X105090952Y-84530756D01*
X105071323Y-84594845D01*
X105065755Y-84609947D01*
X104988421Y-84756312D01*
X104875447Y-84881482D01*
X104728654Y-84983981D01*
X104549861Y-85062331D01*
X104482417Y-85083120D01*
X104397516Y-85099745D01*
X104280655Y-85112889D01*
X104142086Y-85122314D01*
X103992057Y-85127782D01*
X103840819Y-85129052D01*
X103698622Y-85125885D01*
X103575716Y-85118044D01*
X103487584Y-85106321D01*
X103383397Y-85084101D01*
X103279695Y-85058136D01*
X103184618Y-85030927D01*
X103106303Y-85004974D01*
X103052890Y-84982777D01*
X103032516Y-84966838D01*
X103032500Y-84966510D01*
X103036711Y-84939784D01*
X103048284Y-84879633D01*
X103065627Y-84794011D01*
X103087149Y-84690868D01*
X103096000Y-84649167D01*
X103118607Y-84542502D01*
X103137665Y-84451372D01*
X103151599Y-84383398D01*
X103158834Y-84346205D01*
X103159500Y-84341682D01*
X103176874Y-84342434D01*
X103220345Y-84355999D01*
X103238875Y-84362955D01*
X103417750Y-84424309D01*
X103589479Y-84463759D01*
X103771019Y-84484396D01*
X103932920Y-84489431D01*
X104070146Y-84487697D01*
X104171253Y-84480078D01*
X104242271Y-84464638D01*
X104289230Y-84439439D01*
X104318161Y-84402544D01*
X104332992Y-84360894D01*
X104336166Y-84309934D01*
X104317083Y-84261000D01*
X104272558Y-84211748D01*
X104199404Y-84159838D01*
X104094435Y-84102928D01*
X103954465Y-84038675D01*
X103815667Y-83980622D01*
X103682231Y-83925077D01*
X103579911Y-83878558D01*
X103499869Y-83836093D01*
X103433269Y-83792710D01*
X103371273Y-83743439D01*
X103332231Y-83708632D01*
X103230160Y-83587418D01*
X103157715Y-83443438D01*
X103115225Y-83284490D01*
X103103022Y-83118370D01*
X103121438Y-82952873D01*
X103170801Y-82795796D01*
X103251444Y-82654935D01*
X103285705Y-82612511D01*
X103386945Y-82521843D01*
X103520501Y-82439452D01*
X103676433Y-82371078D01*
X103741584Y-82349323D01*
X103856816Y-82325153D01*
X104002659Y-82311400D01*
X104168747Y-82307857D01*
X104344711Y-82314318D01*
G36*
X106412395Y-81600068D02*
G01*
X106415110Y-81655881D01*
X106417255Y-81740850D01*
X106418662Y-81848386D01*
X106419167Y-81971584D01*
X106419167Y-82363167D01*
X107329334Y-82363167D01*
X107329334Y-83019334D01*
X106416749Y-83019334D01*
X106423249Y-83617292D01*
X106425333Y-83793262D01*
X106427575Y-83932097D01*
X106430361Y-84038995D01*
X106434079Y-84119155D01*
X106439114Y-84177774D01*
X106445854Y-84220050D01*
X106454684Y-84251182D01*
X106465992Y-84276367D01*
X106473228Y-84289262D01*
X106528942Y-84366097D01*
X106595009Y-84417043D01*
X106680489Y-84446270D01*
X106794444Y-84457951D01*
X106841183Y-84458667D01*
X107004809Y-84449284D01*
X107161815Y-84423059D01*
X107287536Y-84385656D01*
X107301580Y-84387195D01*
X107314832Y-84407068D01*
X107328915Y-84450711D01*
X107345453Y-84523556D01*
X107366071Y-84631039D01*
X107374074Y-84675186D01*
X107392519Y-84783381D01*
X107406527Y-84876483D01*
X107415070Y-84946712D01*
X107417121Y-84986287D01*
X107415871Y-84991819D01*
X107391230Y-85003757D01*
X107335598Y-85023577D01*
X107258796Y-85047904D01*
X107215660Y-85060663D01*
X107055629Y-85096026D01*
X106872402Y-85118905D01*
X106683456Y-85128158D01*
X106506267Y-85122641D01*
X106419167Y-85112747D01*
X106234354Y-85065867D01*
X106066670Y-84986236D01*
X105921964Y-84877871D01*
X105806082Y-84744794D01*
X105752824Y-84654761D01*
X105729912Y-84606819D01*
X105710197Y-84559344D01*
X105693440Y-84508880D01*
X105679403Y-84451970D01*
X105667846Y-84385158D01*
X105658531Y-84304988D01*
X105651219Y-84208005D01*
X105645670Y-84090752D01*
X105641646Y-83949773D01*
X105638908Y-83781613D01*
X105637217Y-83582815D01*
X105636334Y-83349922D01*
X105636020Y-83079480D01*
X105636000Y-82964958D01*
X105636000Y-81707807D01*
X105683625Y-81697236D01*
X105717237Y-81690987D01*
X105782138Y-81679873D01*
X105869831Y-81665268D01*
X105971818Y-81648543D01*
X106079601Y-81631073D01*
X106184685Y-81614229D01*
X106278570Y-81599385D01*
X106352762Y-81587914D01*
X106398761Y-81581187D01*
X106409276Y-81580000D01*
X106412395Y-81600068D01*
G37*
X106412395Y-81600068D02*
X106415110Y-81655881D01*
X106417255Y-81740850D01*
X106418662Y-81848386D01*
X106419167Y-81971584D01*
X106419167Y-82363167D01*
X107329334Y-82363167D01*
X107329334Y-83019334D01*
X106416749Y-83019334D01*
X106423249Y-83617292D01*
X106425333Y-83793262D01*
X106427575Y-83932097D01*
X106430361Y-84038995D01*
X106434079Y-84119155D01*
X106439114Y-84177774D01*
X106445854Y-84220050D01*
X106454684Y-84251182D01*
X106465992Y-84276367D01*
X106473228Y-84289262D01*
X106528942Y-84366097D01*
X106595009Y-84417043D01*
X106680489Y-84446270D01*
X106794444Y-84457951D01*
X106841183Y-84458667D01*
X107004809Y-84449284D01*
X107161815Y-84423059D01*
X107287536Y-84385656D01*
X107301580Y-84387195D01*
X107314832Y-84407068D01*
X107328915Y-84450711D01*
X107345453Y-84523556D01*
X107366071Y-84631039D01*
X107374074Y-84675186D01*
X107392519Y-84783381D01*
X107406527Y-84876483D01*
X107415070Y-84946712D01*
X107417121Y-84986287D01*
X107415871Y-84991819D01*
X107391230Y-85003757D01*
X107335598Y-85023577D01*
X107258796Y-85047904D01*
X107215660Y-85060663D01*
X107055629Y-85096026D01*
X106872402Y-85118905D01*
X106683456Y-85128158D01*
X106506267Y-85122641D01*
X106419167Y-85112747D01*
X106234354Y-85065867D01*
X106066670Y-84986236D01*
X105921964Y-84877871D01*
X105806082Y-84744794D01*
X105752824Y-84654761D01*
X105729912Y-84606819D01*
X105710197Y-84559344D01*
X105693440Y-84508880D01*
X105679403Y-84451970D01*
X105667846Y-84385158D01*
X105658531Y-84304988D01*
X105651219Y-84208005D01*
X105645670Y-84090752D01*
X105641646Y-83949773D01*
X105638908Y-83781613D01*
X105637217Y-83582815D01*
X105636334Y-83349922D01*
X105636020Y-83079480D01*
X105636000Y-82964958D01*
X105636000Y-81707807D01*
X105683625Y-81697236D01*
X105717237Y-81690987D01*
X105782138Y-81679873D01*
X105869831Y-81665268D01*
X105971818Y-81648543D01*
X106079601Y-81631073D01*
X106184685Y-81614229D01*
X106278570Y-81599385D01*
X106352762Y-81587914D01*
X106398761Y-81581187D01*
X106409276Y-81580000D01*
X106412395Y-81600068D01*
G36*
X116449320Y-82328777D02*
G01*
X116722808Y-82383535D01*
X116737917Y-82387325D01*
X116816464Y-82407733D01*
X116877230Y-82424462D01*
X116910176Y-82434717D01*
X116913212Y-82436181D01*
X116911106Y-82457720D01*
X116901211Y-82511475D01*
X116885516Y-82588474D01*
X116866007Y-82679742D01*
X116844671Y-82776307D01*
X116823496Y-82869197D01*
X116804467Y-82949437D01*
X116789573Y-83008055D01*
X116780800Y-83036077D01*
X116780148Y-83037074D01*
X116757280Y-83035760D01*
X116703606Y-83024888D01*
X116629011Y-83006568D01*
X116595994Y-82997754D01*
X116486782Y-82973460D01*
X116359096Y-82953229D01*
X116236793Y-82940728D01*
X116217792Y-82939613D01*
X116060531Y-82940716D01*
X115939561Y-82961611D01*
X115855247Y-83002086D01*
X115807954Y-83061931D01*
X115798047Y-83140934D01*
X115804689Y-83178070D01*
X115823503Y-83216047D01*
X115863479Y-83254580D01*
X115928948Y-83296232D01*
X116024241Y-83343567D01*
X116153688Y-83399149D01*
X116229917Y-83429783D01*
X116448351Y-83523892D01*
X116627103Y-83618419D01*
X116768789Y-83715418D01*
X116876029Y-83816945D01*
X116951441Y-83925056D01*
X116994326Y-84029904D01*
X117016787Y-84147164D01*
X117024410Y-84282349D01*
X117018014Y-84421746D01*
X116998419Y-84551639D01*
X116966444Y-84658316D01*
X116955332Y-84682260D01*
X116862365Y-84816472D01*
X116733698Y-84929926D01*
X116571276Y-85021221D01*
X116398098Y-85083211D01*
X116324093Y-85097485D01*
X116217710Y-85109470D01*
X116088858Y-85118855D01*
X115947446Y-85125333D01*
X115803383Y-85128595D01*
X115666578Y-85128332D01*
X115546941Y-85124236D01*
X115454379Y-85115998D01*
X115436167Y-85113174D01*
X115380452Y-85101340D01*
X115303604Y-85082390D01*
X115215729Y-85059146D01*
X115126935Y-85034433D01*
X115047326Y-85011074D01*
X114987011Y-84991892D01*
X114956096Y-84979712D01*
X114954587Y-84978633D01*
X114956708Y-84957297D01*
X114966081Y-84901791D01*
X114981376Y-84819401D01*
X115001262Y-84717410D01*
X115012796Y-84659938D01*
X115034859Y-84550685D01*
X115053595Y-84457310D01*
X115067549Y-84387108D01*
X115075267Y-84347371D01*
X115076334Y-84341186D01*
X115094979Y-84344997D01*
X115145037Y-84359387D01*
X115217689Y-84381757D01*
X115263956Y-84396479D01*
X115473484Y-84454923D01*
X115667120Y-84488717D01*
X115861230Y-84500628D01*
X115880667Y-84500722D01*
X116029291Y-84492890D01*
X116140036Y-84468823D01*
X116214413Y-84427796D01*
X116253932Y-84369085D01*
X116261667Y-84318023D01*
X116241436Y-84264961D01*
X116182819Y-84205763D01*
X116088932Y-84142645D01*
X115962889Y-84077828D01*
X115865673Y-84036028D01*
X115650520Y-83944418D01*
X115473710Y-83856861D01*
X115331943Y-83769801D01*
X115221919Y-83679683D01*
X115140337Y-83582950D01*
X115083896Y-83476046D01*
X115049297Y-83355415D01*
X115033239Y-83217500D01*
X115031118Y-83136802D01*
X115040877Y-82969578D01*
X115073075Y-82830951D01*
X115130961Y-82711782D01*
X115217783Y-82602935D01*
X115222713Y-82597835D01*
X115362614Y-82483962D01*
X115532384Y-82397137D01*
X115728982Y-82337784D01*
X115949365Y-82306324D01*
X116190492Y-82303181D01*
X116449320Y-82328777D01*
G37*
X116449320Y-82328777D02*
X116722808Y-82383535D01*
X116737917Y-82387325D01*
X116816464Y-82407733D01*
X116877230Y-82424462D01*
X116910176Y-82434717D01*
X116913212Y-82436181D01*
X116911106Y-82457720D01*
X116901211Y-82511475D01*
X116885516Y-82588474D01*
X116866007Y-82679742D01*
X116844671Y-82776307D01*
X116823496Y-82869197D01*
X116804467Y-82949437D01*
X116789573Y-83008055D01*
X116780800Y-83036077D01*
X116780148Y-83037074D01*
X116757280Y-83035760D01*
X116703606Y-83024888D01*
X116629011Y-83006568D01*
X116595994Y-82997754D01*
X116486782Y-82973460D01*
X116359096Y-82953229D01*
X116236793Y-82940728D01*
X116217792Y-82939613D01*
X116060531Y-82940716D01*
X115939561Y-82961611D01*
X115855247Y-83002086D01*
X115807954Y-83061931D01*
X115798047Y-83140934D01*
X115804689Y-83178070D01*
X115823503Y-83216047D01*
X115863479Y-83254580D01*
X115928948Y-83296232D01*
X116024241Y-83343567D01*
X116153688Y-83399149D01*
X116229917Y-83429783D01*
X116448351Y-83523892D01*
X116627103Y-83618419D01*
X116768789Y-83715418D01*
X116876029Y-83816945D01*
X116951441Y-83925056D01*
X116994326Y-84029904D01*
X117016787Y-84147164D01*
X117024410Y-84282349D01*
X117018014Y-84421746D01*
X116998419Y-84551639D01*
X116966444Y-84658316D01*
X116955332Y-84682260D01*
X116862365Y-84816472D01*
X116733698Y-84929926D01*
X116571276Y-85021221D01*
X116398098Y-85083211D01*
X116324093Y-85097485D01*
X116217710Y-85109470D01*
X116088858Y-85118855D01*
X115947446Y-85125333D01*
X115803383Y-85128595D01*
X115666578Y-85128332D01*
X115546941Y-85124236D01*
X115454379Y-85115998D01*
X115436167Y-85113174D01*
X115380452Y-85101340D01*
X115303604Y-85082390D01*
X115215729Y-85059146D01*
X115126935Y-85034433D01*
X115047326Y-85011074D01*
X114987011Y-84991892D01*
X114956096Y-84979712D01*
X114954587Y-84978633D01*
X114956708Y-84957297D01*
X114966081Y-84901791D01*
X114981376Y-84819401D01*
X115001262Y-84717410D01*
X115012796Y-84659938D01*
X115034859Y-84550685D01*
X115053595Y-84457310D01*
X115067549Y-84387108D01*
X115075267Y-84347371D01*
X115076334Y-84341186D01*
X115094979Y-84344997D01*
X115145037Y-84359387D01*
X115217689Y-84381757D01*
X115263956Y-84396479D01*
X115473484Y-84454923D01*
X115667120Y-84488717D01*
X115861230Y-84500628D01*
X115880667Y-84500722D01*
X116029291Y-84492890D01*
X116140036Y-84468823D01*
X116214413Y-84427796D01*
X116253932Y-84369085D01*
X116261667Y-84318023D01*
X116241436Y-84264961D01*
X116182819Y-84205763D01*
X116088932Y-84142645D01*
X115962889Y-84077828D01*
X115865673Y-84036028D01*
X115650520Y-83944418D01*
X115473710Y-83856861D01*
X115331943Y-83769801D01*
X115221919Y-83679683D01*
X115140337Y-83582950D01*
X115083896Y-83476046D01*
X115049297Y-83355415D01*
X115033239Y-83217500D01*
X115031118Y-83136802D01*
X115040877Y-82969578D01*
X115073075Y-82830951D01*
X115130961Y-82711782D01*
X115217783Y-82602935D01*
X115222713Y-82597835D01*
X115362614Y-82483962D01*
X115532384Y-82397137D01*
X115728982Y-82337784D01*
X115949365Y-82306324D01*
X116190492Y-82303181D01*
X116449320Y-82328777D01*
G36*
X113374536Y-82305283D02*
G01*
X113414750Y-82307163D01*
X113646359Y-82333169D01*
X113843751Y-82381605D01*
X114009399Y-82453774D01*
X114145772Y-82550982D01*
X114255341Y-82674534D01*
X114321975Y-82786391D01*
X114349988Y-82846008D01*
X114373415Y-82906042D01*
X114392616Y-82970714D01*
X114407952Y-83044248D01*
X114419782Y-83130866D01*
X114428466Y-83234789D01*
X114434365Y-83360241D01*
X114437837Y-83511443D01*
X114439244Y-83692619D01*
X114438944Y-83907990D01*
X114437462Y-84141167D01*
X114430750Y-84998417D01*
X114166167Y-85047338D01*
X114039316Y-85066495D01*
X113887888Y-85082463D01*
X113720068Y-85095018D01*
X113544043Y-85103937D01*
X113367998Y-85108997D01*
X113200119Y-85109976D01*
X113048592Y-85106651D01*
X112921602Y-85098798D01*
X112827335Y-85086194D01*
X112817374Y-85084074D01*
X112619762Y-85022460D01*
X112453117Y-84934684D01*
X112318830Y-84821807D01*
X112218290Y-84684886D01*
X112176315Y-84595715D01*
X112144041Y-84476964D01*
X112126472Y-84334815D01*
X112124132Y-84196777D01*
X112898001Y-84196777D01*
X112900975Y-84241192D01*
X112923037Y-84343261D01*
X112972836Y-84417515D01*
X113055086Y-84469306D01*
X113121646Y-84491737D01*
X113227232Y-84510641D01*
X113356886Y-84519761D01*
X113493350Y-84518485D01*
X113602296Y-84508706D01*
X113700500Y-84495246D01*
X113700500Y-84224206D01*
X113698707Y-84093363D01*
X113693229Y-84003000D01*
X113683917Y-83951412D01*
X113675577Y-83937762D01*
X113639638Y-83929235D01*
X113572130Y-83924079D01*
X113483670Y-83922118D01*
X113384873Y-83923180D01*
X113286356Y-83927091D01*
X113198735Y-83933678D01*
X113132625Y-83942767D01*
X113115059Y-83946925D01*
X113027208Y-83989932D01*
X112959261Y-84049613D01*
X112919591Y-84099270D01*
X112901091Y-84142015D01*
X112898001Y-84196777D01*
X112124132Y-84196777D01*
X112123935Y-84185203D01*
X112136759Y-84044061D01*
X112162697Y-83934548D01*
X112231936Y-83797485D01*
X112337638Y-83674952D01*
X112475436Y-83570293D01*
X112640965Y-83486849D01*
X112822084Y-83429762D01*
X112920763Y-83413124D01*
X113048309Y-83400967D01*
X113191452Y-83393698D01*
X113336921Y-83391720D01*
X113471448Y-83395438D01*
X113581762Y-83405258D01*
X113589375Y-83406354D01*
X113653727Y-83414802D01*
X113686740Y-83413212D01*
X113698813Y-83398610D01*
X113700382Y-83374604D01*
X113680772Y-83255168D01*
X113627164Y-83145238D01*
X113546507Y-83054129D01*
X113445751Y-82991157D01*
X113403399Y-82976478D01*
X113323946Y-82963958D01*
X113214161Y-82959024D01*
X113085252Y-82961095D01*
X112948426Y-82969591D01*
X112814890Y-82983931D01*
X112695851Y-83003534D01*
X112642167Y-83015938D01*
X112565429Y-83034083D01*
X112505326Y-83044400D01*
X112472706Y-83045129D01*
X112470319Y-83043854D01*
X112462532Y-83018931D01*
X112450141Y-82960071D01*
X112434656Y-82875224D01*
X112417584Y-82772343D01*
X112411746Y-82735058D01*
X112393280Y-82608002D01*
X112383032Y-82517903D01*
X112380693Y-82460254D01*
X112385954Y-82430546D01*
X112390534Y-82425204D01*
X112429178Y-82411219D01*
X112501304Y-82393843D01*
X112598350Y-82374626D01*
X112711754Y-82355117D01*
X112832954Y-82336867D01*
X112953389Y-82321426D01*
X112980834Y-82318353D01*
X113105273Y-82308808D01*
X113244496Y-82304246D01*
X113374536Y-82305283D01*
G37*
X113374536Y-82305283D02*
X113414750Y-82307163D01*
X113646359Y-82333169D01*
X113843751Y-82381605D01*
X114009399Y-82453774D01*
X114145772Y-82550982D01*
X114255341Y-82674534D01*
X114321975Y-82786391D01*
X114349988Y-82846008D01*
X114373415Y-82906042D01*
X114392616Y-82970714D01*
X114407952Y-83044248D01*
X114419782Y-83130866D01*
X114428466Y-83234789D01*
X114434365Y-83360241D01*
X114437837Y-83511443D01*
X114439244Y-83692619D01*
X114438944Y-83907990D01*
X114437462Y-84141167D01*
X114430750Y-84998417D01*
X114166167Y-85047338D01*
X114039316Y-85066495D01*
X113887888Y-85082463D01*
X113720068Y-85095018D01*
X113544043Y-85103937D01*
X113367998Y-85108997D01*
X113200119Y-85109976D01*
X113048592Y-85106651D01*
X112921602Y-85098798D01*
X112827335Y-85086194D01*
X112817374Y-85084074D01*
X112619762Y-85022460D01*
X112453117Y-84934684D01*
X112318830Y-84821807D01*
X112218290Y-84684886D01*
X112176315Y-84595715D01*
X112144041Y-84476964D01*
X112126472Y-84334815D01*
X112124132Y-84196777D01*
X112898001Y-84196777D01*
X112900975Y-84241192D01*
X112923037Y-84343261D01*
X112972836Y-84417515D01*
X113055086Y-84469306D01*
X113121646Y-84491737D01*
X113227232Y-84510641D01*
X113356886Y-84519761D01*
X113493350Y-84518485D01*
X113602296Y-84508706D01*
X113700500Y-84495246D01*
X113700500Y-84224206D01*
X113698707Y-84093363D01*
X113693229Y-84003000D01*
X113683917Y-83951412D01*
X113675577Y-83937762D01*
X113639638Y-83929235D01*
X113572130Y-83924079D01*
X113483670Y-83922118D01*
X113384873Y-83923180D01*
X113286356Y-83927091D01*
X113198735Y-83933678D01*
X113132625Y-83942767D01*
X113115059Y-83946925D01*
X113027208Y-83989932D01*
X112959261Y-84049613D01*
X112919591Y-84099270D01*
X112901091Y-84142015D01*
X112898001Y-84196777D01*
X112124132Y-84196777D01*
X112123935Y-84185203D01*
X112136759Y-84044061D01*
X112162697Y-83934548D01*
X112231936Y-83797485D01*
X112337638Y-83674952D01*
X112475436Y-83570293D01*
X112640965Y-83486849D01*
X112822084Y-83429762D01*
X112920763Y-83413124D01*
X113048309Y-83400967D01*
X113191452Y-83393698D01*
X113336921Y-83391720D01*
X113471448Y-83395438D01*
X113581762Y-83405258D01*
X113589375Y-83406354D01*
X113653727Y-83414802D01*
X113686740Y-83413212D01*
X113698813Y-83398610D01*
X113700382Y-83374604D01*
X113680772Y-83255168D01*
X113627164Y-83145238D01*
X113546507Y-83054129D01*
X113445751Y-82991157D01*
X113403399Y-82976478D01*
X113323946Y-82963958D01*
X113214161Y-82959024D01*
X113085252Y-82961095D01*
X112948426Y-82969591D01*
X112814890Y-82983931D01*
X112695851Y-83003534D01*
X112642167Y-83015938D01*
X112565429Y-83034083D01*
X112505326Y-83044400D01*
X112472706Y-83045129D01*
X112470319Y-83043854D01*
X112462532Y-83018931D01*
X112450141Y-82960071D01*
X112434656Y-82875224D01*
X112417584Y-82772343D01*
X112411746Y-82735058D01*
X112393280Y-82608002D01*
X112383032Y-82517903D01*
X112380693Y-82460254D01*
X112385954Y-82430546D01*
X112390534Y-82425204D01*
X112429178Y-82411219D01*
X112501304Y-82393843D01*
X112598350Y-82374626D01*
X112711754Y-82355117D01*
X112832954Y-82336867D01*
X112953389Y-82321426D01*
X112980834Y-82318353D01*
X113105273Y-82308808D01*
X113244496Y-82304246D01*
X113374536Y-82305283D01*
G36*
X97320397Y-81107561D02*
G01*
X97326767Y-81127266D01*
X97331464Y-81163680D01*
X97334738Y-81221120D01*
X97336843Y-81303902D01*
X97338032Y-81416341D01*
X97338555Y-81562755D01*
X97338667Y-81734545D01*
X97338667Y-82378776D01*
X97460375Y-82350135D01*
X97567279Y-82333049D01*
X97699533Y-82323786D01*
X97842426Y-82322282D01*
X97981248Y-82328471D01*
X98101290Y-82342287D01*
X98154428Y-82353228D01*
X98347367Y-82419630D01*
X98508767Y-82512669D01*
X98640600Y-82634372D01*
X98744836Y-82786771D01*
X98823444Y-82971894D01*
X98852470Y-83072250D01*
X98861771Y-83113724D01*
X98869574Y-83161058D01*
X98876064Y-83218514D01*
X98881428Y-83290358D01*
X98885850Y-83380855D01*
X98889517Y-83494268D01*
X98892614Y-83634863D01*
X98895326Y-83806903D01*
X98897839Y-84014653D01*
X98899211Y-84146459D01*
X98908464Y-85072500D01*
X98124762Y-85072500D01*
X98117095Y-84199375D01*
X98114998Y-83979937D01*
X98112794Y-83798658D01*
X98110292Y-83651365D01*
X98107300Y-83533884D01*
X98103627Y-83442042D01*
X98099081Y-83371664D01*
X98093471Y-83318576D01*
X98086606Y-83278606D01*
X98078294Y-83247580D01*
X98072740Y-83232051D01*
X98028556Y-83139296D01*
X97974922Y-83075416D01*
X97899760Y-83027033D01*
X97878417Y-83016809D01*
X97765820Y-82985975D01*
X97624574Y-82982698D01*
X97465667Y-83005500D01*
X97349250Y-83029917D01*
X97343755Y-84051209D01*
X97338260Y-85072500D01*
X96576667Y-85072500D01*
X96576667Y-81223530D01*
X96634875Y-81211767D01*
X96677064Y-81204220D01*
X96751321Y-81191892D01*
X96847865Y-81176373D01*
X96956913Y-81159253D01*
X96978834Y-81155859D01*
X97086789Y-81138829D01*
X97181802Y-81123185D01*
X97254921Y-81110449D01*
X97297195Y-81102142D01*
X97301625Y-81101014D01*
X97312101Y-81100249D01*
X97320397Y-81107561D01*
G37*
X97320397Y-81107561D02*
X97326767Y-81127266D01*
X97331464Y-81163680D01*
X97334738Y-81221120D01*
X97336843Y-81303902D01*
X97338032Y-81416341D01*
X97338555Y-81562755D01*
X97338667Y-81734545D01*
X97338667Y-82378776D01*
X97460375Y-82350135D01*
X97567279Y-82333049D01*
X97699533Y-82323786D01*
X97842426Y-82322282D01*
X97981248Y-82328471D01*
X98101290Y-82342287D01*
X98154428Y-82353228D01*
X98347367Y-82419630D01*
X98508767Y-82512669D01*
X98640600Y-82634372D01*
X98744836Y-82786771D01*
X98823444Y-82971894D01*
X98852470Y-83072250D01*
X98861771Y-83113724D01*
X98869574Y-83161058D01*
X98876064Y-83218514D01*
X98881428Y-83290358D01*
X98885850Y-83380855D01*
X98889517Y-83494268D01*
X98892614Y-83634863D01*
X98895326Y-83806903D01*
X98897839Y-84014653D01*
X98899211Y-84146459D01*
X98908464Y-85072500D01*
X98124762Y-85072500D01*
X98117095Y-84199375D01*
X98114998Y-83979937D01*
X98112794Y-83798658D01*
X98110292Y-83651365D01*
X98107300Y-83533884D01*
X98103627Y-83442042D01*
X98099081Y-83371664D01*
X98093471Y-83318576D01*
X98086606Y-83278606D01*
X98078294Y-83247580D01*
X98072740Y-83232051D01*
X98028556Y-83139296D01*
X97974922Y-83075416D01*
X97899760Y-83027033D01*
X97878417Y-83016809D01*
X97765820Y-82985975D01*
X97624574Y-82982698D01*
X97465667Y-83005500D01*
X97349250Y-83029917D01*
X97343755Y-84051209D01*
X97338260Y-85072500D01*
X96576667Y-85072500D01*
X96576667Y-81223530D01*
X96634875Y-81211767D01*
X96677064Y-81204220D01*
X96751321Y-81191892D01*
X96847865Y-81176373D01*
X96956913Y-81159253D01*
X96978834Y-81155859D01*
X97086789Y-81138829D01*
X97181802Y-81123185D01*
X97254921Y-81110449D01*
X97297195Y-81102142D01*
X97301625Y-81101014D01*
X97312101Y-81100249D01*
X97320397Y-81107561D01*
G36*
X100932281Y-82337210D02*
G01*
X101024737Y-82350158D01*
X101119030Y-82366784D01*
X101202529Y-82383552D01*
X101262927Y-82397898D01*
X101281217Y-82403587D01*
X101333545Y-82423482D01*
X101269445Y-82744390D01*
X101205346Y-83065298D01*
X101150548Y-83053446D01*
X100951510Y-83014977D01*
X100781915Y-82993023D01*
X100632455Y-82987060D01*
X100493819Y-82996564D01*
X100402542Y-83011286D01*
X100344334Y-83022697D01*
X100344334Y-85072500D01*
X99561167Y-85072500D01*
X99561167Y-82513126D01*
X99704042Y-82470856D01*
X100030007Y-82389290D01*
X100346725Y-82339521D01*
X100649162Y-82322007D01*
X100932281Y-82337210D01*
G37*
X100932281Y-82337210D02*
X101024737Y-82350158D01*
X101119030Y-82366784D01*
X101202529Y-82383552D01*
X101262927Y-82397898D01*
X101281217Y-82403587D01*
X101333545Y-82423482D01*
X101269445Y-82744390D01*
X101205346Y-83065298D01*
X101150548Y-83053446D01*
X100951510Y-83014977D01*
X100781915Y-82993023D01*
X100632455Y-82987060D01*
X100493819Y-82996564D01*
X100402542Y-83011286D01*
X100344334Y-83022697D01*
X100344334Y-85072500D01*
X99561167Y-85072500D01*
X99561167Y-82513126D01*
X99704042Y-82470856D01*
X100030007Y-82389290D01*
X100346725Y-82339521D01*
X100649162Y-82322007D01*
X100932281Y-82337210D01*
G36*
X102503334Y-85072500D02*
G01*
X101720167Y-85072500D01*
X101720167Y-82363167D01*
X102503334Y-82363167D01*
X102503334Y-85072500D01*
G37*
X102503334Y-85072500D02*
X101720167Y-85072500D01*
X101720167Y-82363167D01*
X102503334Y-82363167D01*
X102503334Y-85072500D01*
G36*
X110816930Y-82334948D02*
G01*
X111014019Y-82377755D01*
X111182020Y-82449949D01*
X111322265Y-82552225D01*
X111436086Y-82685277D01*
X111500111Y-82795794D01*
X111528023Y-82855859D01*
X111551478Y-82915891D01*
X111570860Y-82980096D01*
X111586553Y-83052683D01*
X111598942Y-83137858D01*
X111608411Y-83239828D01*
X111615345Y-83362800D01*
X111620128Y-83510982D01*
X111623144Y-83688580D01*
X111624777Y-83899802D01*
X111625412Y-84148854D01*
X111625428Y-84167625D01*
X111626167Y-85072500D01*
X110864167Y-85072500D01*
X110863454Y-84389875D01*
X110862411Y-84123904D01*
X110859490Y-83896808D01*
X110854106Y-83705147D01*
X110845673Y-83545482D01*
X110833606Y-83414373D01*
X110817318Y-83308382D01*
X110796225Y-83224069D01*
X110769742Y-83157996D01*
X110737281Y-83106722D01*
X110698259Y-83066809D01*
X110652089Y-83034817D01*
X110630761Y-83023089D01*
X110562392Y-82993204D01*
X110498377Y-82982009D01*
X110416071Y-82985546D01*
X110416053Y-82985547D01*
X110329331Y-82999007D01*
X110243612Y-83020186D01*
X110207722Y-83032498D01*
X110153706Y-83056337D01*
X110130331Y-83079031D01*
X110128560Y-83114185D01*
X110133588Y-83144123D01*
X110136813Y-83181026D01*
X110140272Y-83255494D01*
X110143845Y-83362759D01*
X110147415Y-83498053D01*
X110150862Y-83656611D01*
X110154070Y-83833663D01*
X110156920Y-84024442D01*
X110158443Y-84146459D01*
X110169131Y-85072500D01*
X109385057Y-85072500D01*
X109377595Y-84199375D01*
X109375411Y-83966262D01*
X109372831Y-83771467D01*
X109369305Y-83610975D01*
X109364286Y-83480772D01*
X109357224Y-83376842D01*
X109347572Y-83295171D01*
X109334781Y-83231744D01*
X109318303Y-83182546D01*
X109297589Y-83143562D01*
X109272092Y-83110777D01*
X109241262Y-83080177D01*
X109222430Y-83063347D01*
X109156978Y-83017271D01*
X109082132Y-82990157D01*
X108988082Y-82980034D01*
X108865018Y-82984929D01*
X108842284Y-82986946D01*
X108684000Y-83001779D01*
X108684000Y-85072500D01*
X107921677Y-85072500D01*
X107927130Y-83766979D01*
X107932584Y-82461459D01*
X107996084Y-82443875D01*
X108206209Y-82394378D01*
X108428068Y-82360030D01*
X108671147Y-82339734D01*
X108944934Y-82332389D01*
X108959167Y-82332343D01*
X109102073Y-82332247D01*
X109210024Y-82333186D01*
X109290399Y-82335904D01*
X109350575Y-82341145D01*
X109397931Y-82349655D01*
X109439844Y-82362178D01*
X109483693Y-82379457D01*
X109501574Y-82387072D01*
X109584219Y-82425705D01*
X109663936Y-82468091D01*
X109710339Y-82496482D01*
X109789448Y-82550238D01*
X109919349Y-82479150D01*
X110108441Y-82394678D01*
X110310571Y-82342811D01*
X110534036Y-82321587D01*
X110589419Y-82320834D01*
X110816930Y-82334948D01*
G37*
X110816930Y-82334948D02*
X111014019Y-82377755D01*
X111182020Y-82449949D01*
X111322265Y-82552225D01*
X111436086Y-82685277D01*
X111500111Y-82795794D01*
X111528023Y-82855859D01*
X111551478Y-82915891D01*
X111570860Y-82980096D01*
X111586553Y-83052683D01*
X111598942Y-83137858D01*
X111608411Y-83239828D01*
X111615345Y-83362800D01*
X111620128Y-83510982D01*
X111623144Y-83688580D01*
X111624777Y-83899802D01*
X111625412Y-84148854D01*
X111625428Y-84167625D01*
X111626167Y-85072500D01*
X110864167Y-85072500D01*
X110863454Y-84389875D01*
X110862411Y-84123904D01*
X110859490Y-83896808D01*
X110854106Y-83705147D01*
X110845673Y-83545482D01*
X110833606Y-83414373D01*
X110817318Y-83308382D01*
X110796225Y-83224069D01*
X110769742Y-83157996D01*
X110737281Y-83106722D01*
X110698259Y-83066809D01*
X110652089Y-83034817D01*
X110630761Y-83023089D01*
X110562392Y-82993204D01*
X110498377Y-82982009D01*
X110416071Y-82985546D01*
X110416053Y-82985547D01*
X110329331Y-82999007D01*
X110243612Y-83020186D01*
X110207722Y-83032498D01*
X110153706Y-83056337D01*
X110130331Y-83079031D01*
X110128560Y-83114185D01*
X110133588Y-83144123D01*
X110136813Y-83181026D01*
X110140272Y-83255494D01*
X110143845Y-83362759D01*
X110147415Y-83498053D01*
X110150862Y-83656611D01*
X110154070Y-83833663D01*
X110156920Y-84024442D01*
X110158443Y-84146459D01*
X110169131Y-85072500D01*
X109385057Y-85072500D01*
X109377595Y-84199375D01*
X109375411Y-83966262D01*
X109372831Y-83771467D01*
X109369305Y-83610975D01*
X109364286Y-83480772D01*
X109357224Y-83376842D01*
X109347572Y-83295171D01*
X109334781Y-83231744D01*
X109318303Y-83182546D01*
X109297589Y-83143562D01*
X109272092Y-83110777D01*
X109241262Y-83080177D01*
X109222430Y-83063347D01*
X109156978Y-83017271D01*
X109082132Y-82990157D01*
X108988082Y-82980034D01*
X108865018Y-82984929D01*
X108842284Y-82986946D01*
X108684000Y-83001779D01*
X108684000Y-85072500D01*
X107921677Y-85072500D01*
X107927130Y-83766979D01*
X107932584Y-82461459D01*
X107996084Y-82443875D01*
X108206209Y-82394378D01*
X108428068Y-82360030D01*
X108671147Y-82339734D01*
X108944934Y-82332389D01*
X108959167Y-82332343D01*
X109102073Y-82332247D01*
X109210024Y-82333186D01*
X109290399Y-82335904D01*
X109350575Y-82341145D01*
X109397931Y-82349655D01*
X109439844Y-82362178D01*
X109483693Y-82379457D01*
X109501574Y-82387072D01*
X109584219Y-82425705D01*
X109663936Y-82468091D01*
X109710339Y-82496482D01*
X109789448Y-82550238D01*
X109919349Y-82479150D01*
X110108441Y-82394678D01*
X110310571Y-82342811D01*
X110534036Y-82321587D01*
X110589419Y-82320834D01*
X110816930Y-82334948D01*
G36*
X102155412Y-81160580D02*
G01*
X102291412Y-81188163D01*
X102405207Y-81251543D01*
X102495128Y-81349662D01*
X102520989Y-81392642D01*
X102547793Y-81449854D01*
X102561265Y-81504548D01*
X102564115Y-81573217D01*
X102561285Y-81637731D01*
X102539963Y-81773064D01*
X102491935Y-81879123D01*
X102413684Y-81962051D01*
X102352628Y-82002217D01*
X102252411Y-82040517D01*
X102133289Y-82059395D01*
X102013993Y-82057330D01*
X101923891Y-82037036D01*
X101814202Y-81974796D01*
X101727623Y-81882651D01*
X101668720Y-81768751D01*
X101642061Y-81641248D01*
X101646036Y-81541192D01*
X101672438Y-81430530D01*
X101719084Y-81343970D01*
X101791353Y-81267883D01*
X101888657Y-81201706D01*
X101998940Y-81166512D01*
X102132147Y-81159370D01*
X102155412Y-81160580D01*
G37*
X102155412Y-81160580D02*
X102291412Y-81188163D01*
X102405207Y-81251543D01*
X102495128Y-81349662D01*
X102520989Y-81392642D01*
X102547793Y-81449854D01*
X102561265Y-81504548D01*
X102564115Y-81573217D01*
X102561285Y-81637731D01*
X102539963Y-81773064D01*
X102491935Y-81879123D01*
X102413684Y-81962051D01*
X102352628Y-82002217D01*
X102252411Y-82040517D01*
X102133289Y-82059395D01*
X102013993Y-82057330D01*
X101923891Y-82037036D01*
X101814202Y-81974796D01*
X101727623Y-81882651D01*
X101668720Y-81768751D01*
X101642061Y-81641248D01*
X101646036Y-81541192D01*
X101672438Y-81430530D01*
X101719084Y-81343970D01*
X101791353Y-81267883D01*
X101888657Y-81201706D01*
X101998940Y-81166512D01*
X102132147Y-81159370D01*
X102155412Y-81160580D01*
G36*
X110619953Y-77447209D02*
G01*
X110647241Y-77541110D01*
X110683362Y-77659439D01*
X110726298Y-77796111D01*
X110774030Y-77945046D01*
X110824541Y-78100160D01*
X110875811Y-78255372D01*
X110925823Y-78404598D01*
X110972556Y-78541758D01*
X111013994Y-78660768D01*
X111048118Y-78755546D01*
X111072909Y-78820009D01*
X111083139Y-78842923D01*
X111093674Y-78858697D01*
X111104451Y-78860410D01*
X111117642Y-78843409D01*
X111135414Y-78803040D01*
X111159939Y-78734650D01*
X111193385Y-78633586D01*
X111221749Y-78545636D01*
X111261008Y-78420265D01*
X111307868Y-78265685D01*
X111358889Y-78093552D01*
X111410628Y-77915525D01*
X111459642Y-77743261D01*
X111476763Y-77682000D01*
X111619941Y-77166750D01*
X112026794Y-77160996D01*
X112167443Y-77159232D01*
X112271125Y-77158777D01*
X112343198Y-77160063D01*
X112389017Y-77163519D01*
X112413941Y-77169576D01*
X112423327Y-77178664D01*
X112422532Y-77191214D01*
X112422077Y-77192746D01*
X112288638Y-77617849D01*
X112161257Y-78007620D01*
X112037679Y-78368237D01*
X111915648Y-78705878D01*
X111792908Y-79026720D01*
X111667204Y-79336939D01*
X111536281Y-79642715D01*
X111486655Y-79754643D01*
X111375859Y-79990907D01*
X111270928Y-80189133D01*
X111168967Y-80352696D01*
X111067082Y-80484975D01*
X110962377Y-80589347D01*
X110851957Y-80669190D01*
X110732929Y-80727882D01*
X110621595Y-80763983D01*
X110501034Y-80785111D01*
X110354334Y-80795199D01*
X110196165Y-80794454D01*
X110041199Y-80783082D01*
X109904108Y-80761290D01*
X109871178Y-80753415D01*
X109795050Y-80732552D01*
X109736276Y-80714705D01*
X109705687Y-80703205D01*
X109703964Y-80702019D01*
X109704368Y-80678876D01*
X109712404Y-80623554D01*
X109726227Y-80545134D01*
X109743990Y-80452695D01*
X109763846Y-80355319D01*
X109783949Y-80262084D01*
X109802453Y-80182071D01*
X109817512Y-80124360D01*
X109826579Y-80099016D01*
X109850852Y-80088670D01*
X109904829Y-80094180D01*
X109965405Y-80108242D01*
X110143290Y-80139860D01*
X110298659Y-80135837D01*
X110432318Y-80095864D01*
X110545070Y-80019631D01*
X110637722Y-79906829D01*
X110677966Y-79834148D01*
X110719564Y-79748529D01*
X110556830Y-79400318D01*
X110287374Y-78793639D01*
X110053069Y-78201328D01*
X109851733Y-77617787D01*
X109807757Y-77477379D01*
X109776365Y-77373792D01*
X109750050Y-77284403D01*
X109731086Y-77217139D01*
X109721750Y-77179927D01*
X109721167Y-77175754D01*
X109741434Y-77169298D01*
X109798648Y-77163854D01*
X109887432Y-77159680D01*
X110002407Y-77157033D01*
X110130010Y-77156167D01*
X110538853Y-77156167D01*
X110619953Y-77447209D01*
G37*
X110619953Y-77447209D02*
X110647241Y-77541110D01*
X110683362Y-77659439D01*
X110726298Y-77796111D01*
X110774030Y-77945046D01*
X110824541Y-78100160D01*
X110875811Y-78255372D01*
X110925823Y-78404598D01*
X110972556Y-78541758D01*
X111013994Y-78660768D01*
X111048118Y-78755546D01*
X111072909Y-78820009D01*
X111083139Y-78842923D01*
X111093674Y-78858697D01*
X111104451Y-78860410D01*
X111117642Y-78843409D01*
X111135414Y-78803040D01*
X111159939Y-78734650D01*
X111193385Y-78633586D01*
X111221749Y-78545636D01*
X111261008Y-78420265D01*
X111307868Y-78265685D01*
X111358889Y-78093552D01*
X111410628Y-77915525D01*
X111459642Y-77743261D01*
X111476763Y-77682000D01*
X111619941Y-77166750D01*
X112026794Y-77160996D01*
X112167443Y-77159232D01*
X112271125Y-77158777D01*
X112343198Y-77160063D01*
X112389017Y-77163519D01*
X112413941Y-77169576D01*
X112423327Y-77178664D01*
X112422532Y-77191214D01*
X112422077Y-77192746D01*
X112288638Y-77617849D01*
X112161257Y-78007620D01*
X112037679Y-78368237D01*
X111915648Y-78705878D01*
X111792908Y-79026720D01*
X111667204Y-79336939D01*
X111536281Y-79642715D01*
X111486655Y-79754643D01*
X111375859Y-79990907D01*
X111270928Y-80189133D01*
X111168967Y-80352696D01*
X111067082Y-80484975D01*
X110962377Y-80589347D01*
X110851957Y-80669190D01*
X110732929Y-80727882D01*
X110621595Y-80763983D01*
X110501034Y-80785111D01*
X110354334Y-80795199D01*
X110196165Y-80794454D01*
X110041199Y-80783082D01*
X109904108Y-80761290D01*
X109871178Y-80753415D01*
X109795050Y-80732552D01*
X109736276Y-80714705D01*
X109705687Y-80703205D01*
X109703964Y-80702019D01*
X109704368Y-80678876D01*
X109712404Y-80623554D01*
X109726227Y-80545134D01*
X109743990Y-80452695D01*
X109763846Y-80355319D01*
X109783949Y-80262084D01*
X109802453Y-80182071D01*
X109817512Y-80124360D01*
X109826579Y-80099016D01*
X109850852Y-80088670D01*
X109904829Y-80094180D01*
X109965405Y-80108242D01*
X110143290Y-80139860D01*
X110298659Y-80135837D01*
X110432318Y-80095864D01*
X110545070Y-80019631D01*
X110637722Y-79906829D01*
X110677966Y-79834148D01*
X110719564Y-79748529D01*
X110556830Y-79400318D01*
X110287374Y-78793639D01*
X110053069Y-78201328D01*
X109851733Y-77617787D01*
X109807757Y-77477379D01*
X109776365Y-77373792D01*
X109750050Y-77284403D01*
X109731086Y-77217139D01*
X109721750Y-77179927D01*
X109721167Y-77175754D01*
X109741434Y-77169298D01*
X109798648Y-77163854D01*
X109887432Y-77159680D01*
X110002407Y-77157033D01*
X110130010Y-77156167D01*
X110538853Y-77156167D01*
X110619953Y-77447209D01*
G36*
X103928835Y-77103792D02*
G01*
X104150599Y-77143232D01*
X104351788Y-77217914D01*
X104530234Y-77326343D01*
X104683765Y-77467021D01*
X104810212Y-77638452D01*
X104907404Y-77839140D01*
X104950261Y-77971084D01*
X104967346Y-78058861D01*
X104981328Y-78182513D01*
X104991580Y-78335653D01*
X104995435Y-78431222D01*
X105006046Y-78764360D01*
X104138759Y-78769888D01*
X103271473Y-78775417D01*
X103299715Y-78872261D01*
X103354853Y-78988884D01*
X103444158Y-79085916D01*
X103563804Y-79162436D01*
X103709965Y-79217524D01*
X103878816Y-79250258D01*
X104066529Y-79259718D01*
X104269279Y-79244983D01*
X104483239Y-79205132D01*
X104578148Y-79179926D01*
X104655239Y-79159032D01*
X104714097Y-79145808D01*
X104745274Y-79142269D01*
X104747900Y-79143718D01*
X104751532Y-79168094D01*
X104760892Y-79226372D01*
X104774702Y-79310705D01*
X104791684Y-79413246D01*
X104798267Y-79452750D01*
X104815407Y-79560126D01*
X104828660Y-79652415D01*
X104836998Y-79721687D01*
X104839397Y-79760012D01*
X104838626Y-79764676D01*
X104811365Y-79781426D01*
X104750959Y-79803298D01*
X104665942Y-79828007D01*
X104564850Y-79853267D01*
X104456217Y-79876793D01*
X104348578Y-79896300D01*
X104344834Y-79896898D01*
X104197358Y-79914181D01*
X104030512Y-79923711D01*
X103857810Y-79925501D01*
X103692765Y-79919568D01*
X103548890Y-79905927D01*
X103487584Y-79895922D01*
X103396203Y-79871489D01*
X103286228Y-79832463D01*
X103175716Y-79785435D01*
X103146547Y-79771440D01*
X102956478Y-79656455D01*
X102798616Y-79515164D01*
X102672678Y-79347043D01*
X102578383Y-79151567D01*
X102515448Y-78928211D01*
X102483590Y-78676452D01*
X102479210Y-78532000D01*
X102493103Y-78273367D01*
X102512643Y-78168683D01*
X103284814Y-78168683D01*
X103285995Y-78195243D01*
X103302663Y-78213695D01*
X103339311Y-78225504D01*
X103400431Y-78232139D01*
X103490514Y-78235066D01*
X103614053Y-78235753D01*
X103771084Y-78235667D01*
X104255667Y-78235667D01*
X104237246Y-78153683D01*
X104187362Y-78004088D01*
X104112742Y-77888696D01*
X104013625Y-77807713D01*
X103890245Y-77761344D01*
X103772198Y-77749298D01*
X103632926Y-77768581D01*
X103509490Y-77824973D01*
X103407254Y-77914565D01*
X103331583Y-78033449D01*
X103310951Y-78085367D01*
X103294630Y-78132547D01*
X103284814Y-78168683D01*
X102512643Y-78168683D01*
X102536116Y-78042932D01*
X102609648Y-77836894D01*
X102715102Y-77651456D01*
X102853878Y-77482816D01*
X102873390Y-77462974D01*
X103038349Y-77320657D01*
X103212998Y-77215898D01*
X103404121Y-77145687D01*
X103618501Y-77107013D01*
X103688667Y-77101091D01*
X103928835Y-77103792D01*
G37*
X103928835Y-77103792D02*
X104150599Y-77143232D01*
X104351788Y-77217914D01*
X104530234Y-77326343D01*
X104683765Y-77467021D01*
X104810212Y-77638452D01*
X104907404Y-77839140D01*
X104950261Y-77971084D01*
X104967346Y-78058861D01*
X104981328Y-78182513D01*
X104991580Y-78335653D01*
X104995435Y-78431222D01*
X105006046Y-78764360D01*
X104138759Y-78769888D01*
X103271473Y-78775417D01*
X103299715Y-78872261D01*
X103354853Y-78988884D01*
X103444158Y-79085916D01*
X103563804Y-79162436D01*
X103709965Y-79217524D01*
X103878816Y-79250258D01*
X104066529Y-79259718D01*
X104269279Y-79244983D01*
X104483239Y-79205132D01*
X104578148Y-79179926D01*
X104655239Y-79159032D01*
X104714097Y-79145808D01*
X104745274Y-79142269D01*
X104747900Y-79143718D01*
X104751532Y-79168094D01*
X104760892Y-79226372D01*
X104774702Y-79310705D01*
X104791684Y-79413246D01*
X104798267Y-79452750D01*
X104815407Y-79560126D01*
X104828660Y-79652415D01*
X104836998Y-79721687D01*
X104839397Y-79760012D01*
X104838626Y-79764676D01*
X104811365Y-79781426D01*
X104750959Y-79803298D01*
X104665942Y-79828007D01*
X104564850Y-79853267D01*
X104456217Y-79876793D01*
X104348578Y-79896300D01*
X104344834Y-79896898D01*
X104197358Y-79914181D01*
X104030512Y-79923711D01*
X103857810Y-79925501D01*
X103692765Y-79919568D01*
X103548890Y-79905927D01*
X103487584Y-79895922D01*
X103396203Y-79871489D01*
X103286228Y-79832463D01*
X103175716Y-79785435D01*
X103146547Y-79771440D01*
X102956478Y-79656455D01*
X102798616Y-79515164D01*
X102672678Y-79347043D01*
X102578383Y-79151567D01*
X102515448Y-78928211D01*
X102483590Y-78676452D01*
X102479210Y-78532000D01*
X102493103Y-78273367D01*
X102512643Y-78168683D01*
X103284814Y-78168683D01*
X103285995Y-78195243D01*
X103302663Y-78213695D01*
X103339311Y-78225504D01*
X103400431Y-78232139D01*
X103490514Y-78235066D01*
X103614053Y-78235753D01*
X103771084Y-78235667D01*
X104255667Y-78235667D01*
X104237246Y-78153683D01*
X104187362Y-78004088D01*
X104112742Y-77888696D01*
X104013625Y-77807713D01*
X103890245Y-77761344D01*
X103772198Y-77749298D01*
X103632926Y-77768581D01*
X103509490Y-77824973D01*
X103407254Y-77914565D01*
X103331583Y-78033449D01*
X103310951Y-78085367D01*
X103294630Y-78132547D01*
X103284814Y-78168683D01*
X102512643Y-78168683D01*
X102536116Y-78042932D01*
X102609648Y-77836894D01*
X102715102Y-77651456D01*
X102853878Y-77482816D01*
X102873390Y-77462974D01*
X103038349Y-77320657D01*
X103212998Y-77215898D01*
X103404121Y-77145687D01*
X103618501Y-77107013D01*
X103688667Y-77101091D01*
X103928835Y-77103792D01*
G36*
X99228099Y-76685209D02*
G01*
X99333009Y-76905812D01*
X99447414Y-77152826D01*
X99565450Y-77413211D01*
X99681257Y-77673926D01*
X99788973Y-77921932D01*
X99867984Y-78108667D01*
X99907734Y-78202828D01*
X99942338Y-78282529D01*
X99968234Y-78339721D01*
X99981859Y-78366355D01*
X99982255Y-78366860D01*
X99993466Y-78352015D01*
X100018903Y-78302826D01*
X100056400Y-78223982D01*
X100103789Y-78120169D01*
X100158903Y-77996075D01*
X100219576Y-77856388D01*
X100236664Y-77816527D01*
X100313834Y-77638516D01*
X100400291Y-77443311D01*
X100490536Y-77243049D01*
X100579071Y-77049867D01*
X100660398Y-76875902D01*
X100706026Y-76780459D01*
X100933808Y-76309500D01*
X101674470Y-76309500D01*
X101686408Y-76367709D01*
X101692945Y-76410124D01*
X101702809Y-76487636D01*
X101715237Y-76593206D01*
X101729470Y-76719793D01*
X101744744Y-76860360D01*
X101760299Y-77007866D01*
X101775372Y-77155273D01*
X101789202Y-77295542D01*
X101801028Y-77421634D01*
X101803793Y-77452500D01*
X101815066Y-77586215D01*
X101827625Y-77746120D01*
X101841124Y-77926870D01*
X101855217Y-78123121D01*
X101869558Y-78329530D01*
X101883801Y-78540752D01*
X101897600Y-78751444D01*
X101910610Y-78956262D01*
X101922484Y-79149860D01*
X101932877Y-79326896D01*
X101941444Y-79482025D01*
X101947837Y-79609903D01*
X101951711Y-79705187D01*
X101952764Y-79754375D01*
X101953000Y-79865500D01*
X101173784Y-79865500D01*
X101161882Y-79669709D01*
X101157732Y-79593735D01*
X101152368Y-79483833D01*
X101146165Y-79348374D01*
X101139501Y-79195732D01*
X101132751Y-79034282D01*
X101127880Y-78913000D01*
X101118285Y-78682321D01*
X101108244Y-78464524D01*
X101097986Y-78263120D01*
X101087737Y-78081620D01*
X101077726Y-77923533D01*
X101068181Y-77792370D01*
X101059329Y-77691641D01*
X101051397Y-77624856D01*
X101044615Y-77595525D01*
X101042371Y-77594948D01*
X101030074Y-77619270D01*
X101001497Y-77682525D01*
X100956694Y-77784588D01*
X100895718Y-77925338D01*
X100818623Y-78104649D01*
X100725460Y-78322400D01*
X100616283Y-78578466D01*
X100491146Y-78872724D01*
X100379705Y-79135250D01*
X100262980Y-79410417D01*
X99681034Y-79410417D01*
X99286116Y-78483853D01*
X98891198Y-77557288D01*
X98866348Y-77933519D01*
X98860185Y-78028794D01*
X98854352Y-78123790D01*
X98848630Y-78222990D01*
X98842799Y-78330876D01*
X98836640Y-78451928D01*
X98829934Y-78590630D01*
X98822461Y-78751461D01*
X98814003Y-78938906D01*
X98804340Y-79157443D01*
X98793253Y-79411557D01*
X98787109Y-79553292D01*
X98773599Y-79865500D01*
X97988461Y-79865500D01*
X98002934Y-79510959D01*
X98009006Y-79379017D01*
X98017721Y-79212960D01*
X98028569Y-79020887D01*
X98041040Y-78810897D01*
X98054621Y-78591091D01*
X98068804Y-78369567D01*
X98083076Y-78154426D01*
X98096927Y-77953767D01*
X98109846Y-77775690D01*
X98121323Y-77628294D01*
X98122729Y-77611250D01*
X98136398Y-77454583D01*
X98152131Y-77287057D01*
X98169209Y-77115223D01*
X98186913Y-76945636D01*
X98204523Y-76784845D01*
X98221321Y-76639404D01*
X98236588Y-76515864D01*
X98249603Y-76420778D01*
X98259647Y-76360698D01*
X98260404Y-76357125D01*
X98265180Y-76340334D01*
X98274999Y-76328041D01*
X98295725Y-76319546D01*
X98333223Y-76314146D01*
X98393357Y-76311141D01*
X98481993Y-76309829D01*
X98604994Y-76309508D01*
X98658594Y-76309500D01*
X99046381Y-76309500D01*
X99228099Y-76685209D01*
G37*
X99228099Y-76685209D02*
X99333009Y-76905812D01*
X99447414Y-77152826D01*
X99565450Y-77413211D01*
X99681257Y-77673926D01*
X99788973Y-77921932D01*
X99867984Y-78108667D01*
X99907734Y-78202828D01*
X99942338Y-78282529D01*
X99968234Y-78339721D01*
X99981859Y-78366355D01*
X99982255Y-78366860D01*
X99993466Y-78352015D01*
X100018903Y-78302826D01*
X100056400Y-78223982D01*
X100103789Y-78120169D01*
X100158903Y-77996075D01*
X100219576Y-77856388D01*
X100236664Y-77816527D01*
X100313834Y-77638516D01*
X100400291Y-77443311D01*
X100490536Y-77243049D01*
X100579071Y-77049867D01*
X100660398Y-76875902D01*
X100706026Y-76780459D01*
X100933808Y-76309500D01*
X101674470Y-76309500D01*
X101686408Y-76367709D01*
X101692945Y-76410124D01*
X101702809Y-76487636D01*
X101715237Y-76593206D01*
X101729470Y-76719793D01*
X101744744Y-76860360D01*
X101760299Y-77007866D01*
X101775372Y-77155273D01*
X101789202Y-77295542D01*
X101801028Y-77421634D01*
X101803793Y-77452500D01*
X101815066Y-77586215D01*
X101827625Y-77746120D01*
X101841124Y-77926870D01*
X101855217Y-78123121D01*
X101869558Y-78329530D01*
X101883801Y-78540752D01*
X101897600Y-78751444D01*
X101910610Y-78956262D01*
X101922484Y-79149860D01*
X101932877Y-79326896D01*
X101941444Y-79482025D01*
X101947837Y-79609903D01*
X101951711Y-79705187D01*
X101952764Y-79754375D01*
X101953000Y-79865500D01*
X101173784Y-79865500D01*
X101161882Y-79669709D01*
X101157732Y-79593735D01*
X101152368Y-79483833D01*
X101146165Y-79348374D01*
X101139501Y-79195732D01*
X101132751Y-79034282D01*
X101127880Y-78913000D01*
X101118285Y-78682321D01*
X101108244Y-78464524D01*
X101097986Y-78263120D01*
X101087737Y-78081620D01*
X101077726Y-77923533D01*
X101068181Y-77792370D01*
X101059329Y-77691641D01*
X101051397Y-77624856D01*
X101044615Y-77595525D01*
X101042371Y-77594948D01*
X101030074Y-77619270D01*
X101001497Y-77682525D01*
X100956694Y-77784588D01*
X100895718Y-77925338D01*
X100818623Y-78104649D01*
X100725460Y-78322400D01*
X100616283Y-78578466D01*
X100491146Y-78872724D01*
X100379705Y-79135250D01*
X100262980Y-79410417D01*
X99681034Y-79410417D01*
X99286116Y-78483853D01*
X98891198Y-77557288D01*
X98866348Y-77933519D01*
X98860185Y-78028794D01*
X98854352Y-78123790D01*
X98848630Y-78222990D01*
X98842799Y-78330876D01*
X98836640Y-78451928D01*
X98829934Y-78590630D01*
X98822461Y-78751461D01*
X98814003Y-78938906D01*
X98804340Y-79157443D01*
X98793253Y-79411557D01*
X98787109Y-79553292D01*
X98773599Y-79865500D01*
X97988461Y-79865500D01*
X98002934Y-79510959D01*
X98009006Y-79379017D01*
X98017721Y-79212960D01*
X98028569Y-79020887D01*
X98041040Y-78810897D01*
X98054621Y-78591091D01*
X98068804Y-78369567D01*
X98083076Y-78154426D01*
X98096927Y-77953767D01*
X98109846Y-77775690D01*
X98121323Y-77628294D01*
X98122729Y-77611250D01*
X98136398Y-77454583D01*
X98152131Y-77287057D01*
X98169209Y-77115223D01*
X98186913Y-76945636D01*
X98204523Y-76784845D01*
X98221321Y-76639404D01*
X98236588Y-76515864D01*
X98249603Y-76420778D01*
X98259647Y-76360698D01*
X98260404Y-76357125D01*
X98265180Y-76340334D01*
X98274999Y-76328041D01*
X98295725Y-76319546D01*
X98333223Y-76314146D01*
X98393357Y-76311141D01*
X98481993Y-76309829D01*
X98604994Y-76309508D01*
X98658594Y-76309500D01*
X99046381Y-76309500D01*
X99228099Y-76685209D01*
G36*
X107056962Y-77149958D02*
G01*
X107071617Y-77152484D01*
X107167574Y-77170172D01*
X107247480Y-77186467D01*
X107302515Y-77199465D01*
X107323567Y-77206844D01*
X107323513Y-77230275D01*
X107316002Y-77286112D01*
X107302777Y-77365441D01*
X107285581Y-77459346D01*
X107266158Y-77558913D01*
X107246249Y-77655227D01*
X107227599Y-77739372D01*
X107211950Y-77802434D01*
X107201046Y-77835497D01*
X107200447Y-77836552D01*
X107172139Y-77843946D01*
X107106680Y-77837953D01*
X107020241Y-77821704D01*
X106893250Y-77800729D01*
X106753646Y-77788006D01*
X106616203Y-77784125D01*
X106495697Y-77789678D01*
X106435042Y-77798303D01*
X106355667Y-77814252D01*
X106355667Y-79865500D01*
X105572500Y-79865500D01*
X105572500Y-77306126D01*
X105720992Y-77261903D01*
X106075718Y-77174149D01*
X106416730Y-77126232D01*
X106743866Y-77118163D01*
X107056962Y-77149958D01*
G37*
X107056962Y-77149958D02*
X107071617Y-77152484D01*
X107167574Y-77170172D01*
X107247480Y-77186467D01*
X107302515Y-77199465D01*
X107323567Y-77206844D01*
X107323513Y-77230275D01*
X107316002Y-77286112D01*
X107302777Y-77365441D01*
X107285581Y-77459346D01*
X107266158Y-77558913D01*
X107246249Y-77655227D01*
X107227599Y-77739372D01*
X107211950Y-77802434D01*
X107201046Y-77835497D01*
X107200447Y-77836552D01*
X107172139Y-77843946D01*
X107106680Y-77837953D01*
X107020241Y-77821704D01*
X106893250Y-77800729D01*
X106753646Y-77788006D01*
X106616203Y-77784125D01*
X106495697Y-77789678D01*
X106435042Y-77798303D01*
X106355667Y-77814252D01*
X106355667Y-79865500D01*
X105572500Y-79865500D01*
X105572500Y-77306126D01*
X105720992Y-77261903D01*
X106075718Y-77174149D01*
X106416730Y-77126232D01*
X106743866Y-77118163D01*
X107056962Y-77149958D01*
G36*
X108986259Y-77129779D02*
G01*
X109174804Y-77144880D01*
X109330043Y-77169661D01*
X109438057Y-77199955D01*
X109483031Y-77216603D01*
X109420036Y-77530343D01*
X109397718Y-77639861D01*
X109377975Y-77733672D01*
X109362408Y-77804406D01*
X109352618Y-77844694D01*
X109350377Y-77851130D01*
X109328097Y-77850352D01*
X109274413Y-77842200D01*
X109199292Y-77828269D01*
X109167314Y-77821815D01*
X108985314Y-77794069D01*
X108803157Y-77784012D01*
X108637344Y-77792320D01*
X108594042Y-77798365D01*
X108493500Y-77814927D01*
X108493500Y-79865500D01*
X107710334Y-79865500D01*
X107710334Y-77310881D01*
X107895542Y-77255865D01*
X108078162Y-77204646D01*
X108236411Y-77168136D01*
X108384740Y-77144167D01*
X108537599Y-77130571D01*
X108709441Y-77125179D01*
X108768667Y-77124834D01*
X108986259Y-77129779D01*
G37*
X108986259Y-77129779D02*
X109174804Y-77144880D01*
X109330043Y-77169661D01*
X109438057Y-77199955D01*
X109483031Y-77216603D01*
X109420036Y-77530343D01*
X109397718Y-77639861D01*
X109377975Y-77733672D01*
X109362408Y-77804406D01*
X109352618Y-77844694D01*
X109350377Y-77851130D01*
X109328097Y-77850352D01*
X109274413Y-77842200D01*
X109199292Y-77828269D01*
X109167314Y-77821815D01*
X108985314Y-77794069D01*
X108803157Y-77784012D01*
X108637344Y-77792320D01*
X108594042Y-77798365D01*
X108493500Y-77814927D01*
X108493500Y-79865500D01*
X107710334Y-79865500D01*
X107710334Y-77310881D01*
X107895542Y-77255865D01*
X108078162Y-77204646D01*
X108236411Y-77168136D01*
X108384740Y-77144167D01*
X108537599Y-77130571D01*
X108709441Y-77125179D01*
X108768667Y-77124834D01*
X108986259Y-77129779D01*
M02*
