G04 #@! TF.GenerationSoftware,KiCad,Pcbnew,5.1.7*
G04 #@! TF.CreationDate,2020-12-05T21:44:05-08:00*
G04 #@! TF.ProjectId,xmascard2020,786d6173-6361-4726-9432-3032302e6b69,rev?*
G04 #@! TF.SameCoordinates,Original*
G04 #@! TF.FileFunction,Profile,NP*
%FSLAX46Y46*%
G04 Gerber Fmt 4.6, Leading zero omitted, Abs format (unit mm)*
G04 Created by KiCad (PCBNEW 5.1.7) date 2020-12-05 21:44:05*
%MOMM*%
%LPD*%
G01*
G04 APERTURE LIST*
G04 #@! TA.AperFunction,Profile*
%ADD10C,0.050000*%
G04 #@! TD*
G04 #@! TA.AperFunction,Profile*
%ADD11C,0.100000*%
G04 #@! TD*
G04 APERTURE END LIST*
D10*
X111000000Y-61000000D02*
X111000000Y-54000000D01*
X113000000Y-61000000D02*
X111000000Y-61000000D01*
X111000000Y-54000000D02*
X113000000Y-54000000D01*
X113000000Y-54000000D02*
X113000000Y-61000000D01*
X107000000Y-61000000D02*
X107000000Y-54000000D01*
X109000000Y-61000000D02*
X107000000Y-61000000D01*
X109000000Y-54000000D02*
X109000000Y-61000000D01*
X107000000Y-54000000D02*
X109000000Y-54000000D01*
D11*
X103877724Y-53708994D02*
X103827940Y-53823788D01*
X103827940Y-53823788D02*
X103784506Y-53937100D01*
X103784506Y-53937100D02*
X103747450Y-54048996D01*
X103747450Y-54048996D02*
X103716264Y-54159508D01*
X103716264Y-54159508D02*
X103690808Y-54268700D01*
X103690808Y-54268700D02*
X103670770Y-54376636D01*
X103670770Y-54376636D02*
X103656123Y-54483347D01*
X103656123Y-54483347D02*
X103646584Y-54588898D01*
X103646584Y-54588898D02*
X103641814Y-54693332D01*
X103641814Y-54693332D02*
X103641645Y-54796701D01*
X103641645Y-54796701D02*
X103645793Y-54899063D01*
X103645793Y-54899063D02*
X103654063Y-55000494D01*
X103654063Y-55000494D02*
X103666311Y-55100965D01*
X103666311Y-55100965D02*
X103682059Y-55200646D01*
X103682059Y-55200646D02*
X103701448Y-55299480D01*
X103701448Y-55299480D02*
X103723884Y-55397580D01*
X103723884Y-55397580D02*
X103749510Y-55494975D01*
X103749510Y-55494975D02*
X103777648Y-55591749D01*
X103777648Y-55591749D02*
X103808523Y-55687902D01*
X103808523Y-55687902D02*
X103841599Y-55783519D01*
X103841599Y-55783519D02*
X103913679Y-55973342D01*
X103913679Y-55973342D02*
X103992249Y-56161612D01*
X103992249Y-56161612D02*
X104075307Y-56348782D01*
X104075307Y-56348782D02*
X104161047Y-56535218D01*
X104161047Y-56535218D02*
X104333654Y-56907639D01*
X104333654Y-56907639D02*
X104416514Y-57094413D01*
X104416514Y-57094413D02*
X104494944Y-57282147D01*
X104494944Y-57282147D02*
X104566854Y-57471265D01*
X104566854Y-57471265D02*
X104599789Y-57566458D01*
X104599789Y-57566458D02*
X104630326Y-57662131D01*
X104630326Y-57662131D02*
X104658491Y-57758369D01*
X104658491Y-57758369D02*
X104683779Y-57855228D01*
X104683779Y-57855228D02*
X104706215Y-57952707D01*
X104706215Y-57952707D02*
X104725293Y-58050893D01*
X104725293Y-58050893D02*
X104740900Y-58149840D01*
X104740900Y-58149840D02*
X104752979Y-58249605D01*
X104752979Y-58249605D02*
X104760938Y-58350217D01*
X104760938Y-58350217D02*
X104764917Y-58451761D01*
X104764917Y-58451761D02*
X104764438Y-58554236D01*
X104764438Y-58554236D02*
X104759499Y-58657755D01*
X104759499Y-58657755D02*
X104749480Y-58762346D01*
X104749480Y-58762346D02*
X104734522Y-58868039D01*
X104734522Y-58868039D02*
X104714315Y-58974888D01*
X104714315Y-58974888D02*
X104688548Y-59083007D01*
X104688548Y-59083007D02*
X104657052Y-59192368D01*
X104657052Y-59192368D02*
X104619517Y-59303056D01*
X104619517Y-59303056D02*
X104575772Y-59415126D01*
X104575772Y-59415126D02*
X104525649Y-59528636D01*
X104525649Y-59528636D02*
X104468866Y-59643614D01*
X104468866Y-59643614D02*
X104405056Y-59760143D01*
X104405056Y-59760143D02*
X104334275Y-59878253D01*
X104334275Y-59878253D02*
X104256014Y-59998000D01*
X104256014Y-59998000D02*
X104170106Y-60119440D01*
X104170106Y-60119440D02*
X104076577Y-60242630D01*
X104076577Y-60242630D02*
X102999110Y-60809361D01*
X102999110Y-60809361D02*
X101906881Y-61379421D01*
X101906881Y-61379421D02*
X100801502Y-61952361D01*
X100801502Y-61952361D02*
X99684635Y-62527699D01*
X99684635Y-62527699D02*
X98557976Y-63104956D01*
X98557976Y-63104956D02*
X97423161Y-63683709D01*
X97423161Y-63683709D02*
X95135806Y-64843755D01*
X95135806Y-64843755D02*
X92835921Y-66004168D01*
X92835921Y-66004168D02*
X90536882Y-67161195D01*
X90536882Y-67161195D02*
X88252068Y-68311137D01*
X88252068Y-68311137D02*
X85994855Y-69450299D01*
X85994855Y-69450299D02*
X85874882Y-69512755D01*
X85874882Y-69512755D02*
X85756913Y-69577666D01*
X85756913Y-69577666D02*
X85641004Y-69645004D01*
X85641004Y-69645004D02*
X85527156Y-69714741D01*
X85527156Y-69714741D02*
X85415407Y-69786764D01*
X85415407Y-69786764D02*
X85305747Y-69861102D01*
X85305747Y-69861102D02*
X85198203Y-69937640D01*
X85198203Y-69937640D02*
X85092796Y-70016380D01*
X85092796Y-70016380D02*
X84989551Y-70097265D01*
X84989551Y-70097265D02*
X84888470Y-70180267D01*
X84888470Y-70180267D02*
X84789588Y-70265272D01*
X84789588Y-70265272D02*
X84692913Y-70352309D01*
X84692913Y-70352309D02*
X84598467Y-70441322D01*
X84598467Y-70441322D02*
X84506265Y-70532226D01*
X84506265Y-70532226D02*
X84416338Y-70625021D01*
X84416338Y-70625021D02*
X84328702Y-70719593D01*
X84328702Y-70719593D02*
X84243355Y-70815972D01*
X84243355Y-70815972D02*
X84160331Y-70914073D01*
X84160331Y-70914073D02*
X84079647Y-71013867D01*
X84079647Y-71013867D02*
X84001316Y-71115297D01*
X84001316Y-71115297D02*
X83925370Y-71218308D01*
X83925370Y-71218308D02*
X83851811Y-71322872D01*
X83851811Y-71322872D02*
X83780672Y-71428931D01*
X83780672Y-71428931D02*
X83711965Y-71536429D01*
X83711965Y-71536429D02*
X83645707Y-71645367D01*
X83645707Y-71645367D02*
X83581917Y-71755659D01*
X83581917Y-71755659D02*
X83520607Y-71867250D01*
X83520607Y-71867250D02*
X83461811Y-71980139D01*
X83461811Y-71980139D02*
X83405545Y-72094213D01*
X83405545Y-72094213D02*
X83351807Y-72209501D01*
X83351807Y-72209501D02*
X83300631Y-72325918D01*
X83300631Y-72325918D02*
X83252033Y-72443407D01*
X83252033Y-72443407D02*
X83206042Y-72561940D01*
X83206042Y-72561940D02*
X83162662Y-72681461D01*
X83162662Y-72681461D02*
X83121906Y-72801942D01*
X83121906Y-72801942D02*
X83083823Y-72923326D01*
X83083823Y-72923326D02*
X83048395Y-73045584D01*
X83048395Y-73045584D02*
X83015658Y-73168633D01*
X83015658Y-73168633D02*
X82985624Y-73292444D01*
X82985624Y-73292444D02*
X82958324Y-73416989D01*
X82958324Y-73416989D02*
X82933762Y-73542211D01*
X82933762Y-73542211D02*
X82911969Y-73668025D01*
X82911969Y-73668025D02*
X82892958Y-73794461D01*
X82892958Y-73794461D02*
X82876748Y-73921404D01*
X82876748Y-73921404D02*
X82863354Y-74048856D01*
X82863354Y-74048856D02*
X82852791Y-74176731D01*
X82852791Y-74176731D02*
X82845091Y-74305029D01*
X82845091Y-74305029D02*
X82840255Y-74433666D01*
X82840255Y-74433666D02*
X82838315Y-74562613D01*
X82838315Y-74562613D02*
X82839285Y-74691815D01*
X82839285Y-74691815D02*
X82843182Y-74821242D01*
X82843182Y-74821242D02*
X82850023Y-74950810D01*
X82850023Y-74950810D02*
X82859838Y-75080519D01*
X82859838Y-75080519D02*
X82872628Y-75210313D01*
X82872628Y-75210313D02*
X82888424Y-75340135D01*
X82888424Y-75340135D02*
X82907245Y-75469929D01*
X82907245Y-75469929D02*
X82929100Y-75599695D01*
X82929100Y-75599695D02*
X82954012Y-75729320D01*
X82954012Y-75729320D02*
X82981994Y-75858803D01*
X82981994Y-75858803D02*
X83013078Y-75988089D01*
X83013078Y-75988089D02*
X83047266Y-76117121D01*
X83047266Y-76117121D02*
X83084585Y-76245871D01*
X83084585Y-76245871D02*
X83125072Y-76374282D01*
X83125072Y-76374282D02*
X83168707Y-76502327D01*
X83168707Y-76502327D02*
X96563709Y-114347168D01*
X96563709Y-114347168D02*
X91507360Y-144984646D01*
X91507360Y-144984646D02*
X91480408Y-145164986D01*
X91480408Y-145164986D02*
X91459184Y-145344480D01*
X91459184Y-145344480D02*
X91443578Y-145523126D01*
X91443578Y-145523126D02*
X91433530Y-145700926D01*
X91433530Y-145700926D02*
X91428958Y-145877597D01*
X91428958Y-145877597D02*
X91429777Y-146053139D01*
X91429777Y-146053139D02*
X91435929Y-146227553D01*
X91435929Y-146227553D02*
X91447303Y-146400555D01*
X91447303Y-146400555D02*
X91463841Y-146572146D01*
X91463841Y-146572146D02*
X91485459Y-146742326D01*
X91485459Y-146742326D02*
X91512101Y-146911095D01*
X91512101Y-146911095D02*
X91543654Y-147078171D01*
X91543654Y-147078171D02*
X91580060Y-147243553D01*
X91580060Y-147243553D02*
X91621265Y-147407242D01*
X91621265Y-147407242D02*
X91667126Y-147569237D01*
X91667126Y-147569237D02*
X91717615Y-147728975D01*
X91717615Y-147728975D02*
X91772677Y-147887019D01*
X91772677Y-147887019D02*
X91832169Y-148042806D01*
X91832169Y-148042806D02*
X91896036Y-148196335D01*
X91896036Y-148196335D02*
X91964221Y-148347888D01*
X91964221Y-148347888D02*
X92036639Y-148497184D01*
X92036639Y-148497184D02*
X92113206Y-148643939D01*
X92113206Y-148643939D02*
X92193865Y-148788155D01*
X92193865Y-148788155D02*
X92278504Y-148929830D01*
X92278504Y-148929830D02*
X92367065Y-149068966D01*
X92367065Y-149068966D02*
X92459436Y-149205562D01*
X92459436Y-149205562D02*
X92555618Y-149339053D01*
X92555618Y-149339053D02*
X92655440Y-149469722D01*
X92655440Y-149469722D02*
X92758902Y-149597568D01*
X92758902Y-149597568D02*
X92865893Y-149722593D01*
X92865893Y-149722593D02*
X92976326Y-149844230D01*
X92976326Y-149844230D02*
X93090118Y-149962764D01*
X93090118Y-149962764D02*
X93207212Y-150077910D01*
X93207212Y-150077910D02*
X93327524Y-150189953D01*
X93327524Y-150189953D02*
X93450996Y-150298608D01*
X93450996Y-150298608D02*
X93577516Y-150403595D01*
X93577516Y-150403595D02*
X93707028Y-150504913D01*
X93707028Y-150504913D02*
X93839418Y-150602844D01*
X93839418Y-150602844D02*
X93974687Y-150697106D01*
X93974687Y-150697106D02*
X94112694Y-150787135D01*
X94112694Y-150787135D02*
X94253354Y-150873495D01*
X94253354Y-150873495D02*
X94396610Y-150956186D01*
X94396610Y-150956186D02*
X94542406Y-151034644D01*
X94542406Y-151034644D02*
X94690629Y-151108868D01*
X94690629Y-151108868D02*
X94841194Y-151178859D01*
X94841194Y-151178859D02*
X94994074Y-151244617D01*
X94994074Y-151244617D02*
X95149155Y-151306141D01*
X95149155Y-151306141D02*
X95306381Y-151363150D01*
X95306381Y-151363150D02*
X95465639Y-151415644D01*
X95465639Y-151415644D02*
X95626873Y-151463621D01*
X95626873Y-151463621D02*
X95789997Y-151506801D01*
X95789997Y-151506801D02*
X95954956Y-151545184D01*
X95954956Y-151545184D02*
X96121665Y-151579050D01*
X96121665Y-151579050D02*
X96290010Y-151607837D01*
X96290010Y-151607837D02*
X96459964Y-151631544D01*
X96459964Y-151631544D02*
X96631386Y-151650170D01*
X96631386Y-151650170D02*
X96804276Y-151663717D01*
X96804276Y-151663717D02*
X96978491Y-151671901D01*
X96978491Y-151671901D02*
X97154005Y-151675006D01*
X97154005Y-151675006D02*
X97330733Y-151672748D01*
X97330733Y-151672748D02*
X97508533Y-151664846D01*
X97508533Y-151664846D02*
X97687405Y-151651581D01*
X97687405Y-151651581D02*
X97867237Y-151632673D01*
X97867237Y-151632673D02*
X98047944Y-151608119D01*
X98047944Y-151608119D02*
X131670741Y-146489455D01*
X131670741Y-146489455D02*
X131853903Y-146458693D01*
X131853903Y-146458693D02*
X132033961Y-146422568D01*
X132033961Y-146422568D02*
X132211479Y-146381364D01*
X132211479Y-146381364D02*
X132386457Y-146334797D01*
X132386457Y-146334797D02*
X132558330Y-146283433D01*
X132558330Y-146283433D02*
X132727381Y-146226988D01*
X132727381Y-146226988D02*
X132893610Y-146165746D01*
X132893610Y-146165746D02*
X133057017Y-146099706D01*
X133057017Y-146099706D02*
X133217037Y-146029151D01*
X133217037Y-146029151D02*
X133374234Y-145954079D01*
X133374234Y-145954079D02*
X133528328Y-145874775D01*
X133528328Y-145874775D02*
X133679034Y-145791237D01*
X133679034Y-145791237D02*
X133826637Y-145703184D01*
X133826637Y-145703184D02*
X133971134Y-145611179D01*
X133971134Y-145611179D02*
X134112245Y-145515224D01*
X134112245Y-145515224D02*
X134249970Y-145415317D01*
X134249970Y-145415317D02*
X134384025Y-145311460D01*
X134384025Y-145311460D02*
X134514694Y-145204215D01*
X134514694Y-145204215D02*
X134641976Y-145093302D01*
X134641976Y-145093302D02*
X134765590Y-144978720D01*
X134765590Y-144978720D02*
X134885534Y-144861033D01*
X134885534Y-144861033D02*
X135001810Y-144739960D01*
X135001810Y-144739960D02*
X135114416Y-144616064D01*
X135114416Y-144616064D02*
X135223072Y-144488782D01*
X135223072Y-144488782D02*
X135328059Y-144358395D01*
X135328059Y-144358395D02*
X135429094Y-144225468D01*
X135429094Y-144225468D02*
X135526179Y-144089720D01*
X135526179Y-144089720D02*
X135619312Y-143951148D01*
X135619312Y-143951148D02*
X135708212Y-143810320D01*
X135708212Y-143810320D02*
X135793161Y-143666951D01*
X135793161Y-143666951D02*
X135874159Y-143521042D01*
X135874159Y-143521042D02*
X135950641Y-143373157D01*
X135950641Y-143373157D02*
X136022890Y-143223015D01*
X136022890Y-143223015D02*
X136090905Y-143070897D01*
X136090905Y-143070897D02*
X136154405Y-142916804D01*
X136154405Y-142916804D02*
X136213672Y-142761017D01*
X136213672Y-142761017D02*
X136268705Y-142603537D01*
X136268705Y-142603537D02*
X136318941Y-142444364D01*
X136318941Y-142444364D02*
X136364379Y-142283497D01*
X136364379Y-142283497D02*
X136405583Y-142121502D01*
X136405583Y-142121502D02*
X136441990Y-141958095D01*
X136441990Y-141958095D02*
X136473599Y-141793560D01*
X136473599Y-141793560D02*
X136500410Y-141627895D01*
X136500410Y-141627895D02*
X136522705Y-141461384D01*
X136522705Y-141461384D02*
X136539921Y-141293744D01*
X136539921Y-141293744D02*
X136552056Y-141125257D01*
X136552056Y-141125257D02*
X136559394Y-140956489D01*
X136559394Y-140956489D02*
X136561652Y-140786873D01*
X136561652Y-140786873D02*
X136558830Y-140616693D01*
X136558830Y-140616693D02*
X136550928Y-140446231D01*
X136550928Y-140446231D02*
X136537663Y-140275769D01*
X136537663Y-140275769D02*
X136519319Y-140104742D01*
X136519319Y-140104742D02*
X136495612Y-139933715D01*
X136495612Y-139933715D02*
X136466543Y-139762971D01*
X136466543Y-139762971D02*
X136432394Y-139592226D01*
X136432394Y-139592226D02*
X136392319Y-139421764D01*
X136392319Y-139421764D02*
X136347163Y-139251866D01*
X136347163Y-139251866D02*
X136296081Y-139081969D01*
X136296081Y-139081969D02*
X136239636Y-138912918D01*
X136239636Y-138912918D02*
X136177548Y-138744713D01*
X136177548Y-138744713D02*
X136109814Y-138577073D01*
X136109814Y-138577073D02*
X136036154Y-138409998D01*
X136036154Y-138409998D02*
X135956850Y-138244333D01*
X135956850Y-138244333D02*
X135871619Y-138079798D01*
X135871619Y-138079798D02*
X119145719Y-106963670D01*
X119145719Y-106963670D02*
X125032028Y-80025165D01*
X125032028Y-80025165D02*
X125062508Y-79877224D01*
X125062508Y-79877224D02*
X125088755Y-79728945D01*
X125088755Y-79728945D02*
X125111050Y-79580383D01*
X125111050Y-79580383D02*
X125129677Y-79431483D01*
X125129677Y-79431483D02*
X125144070Y-79282582D01*
X125144070Y-79282582D02*
X125154795Y-79133682D01*
X125154795Y-79133682D02*
X125161568Y-78984612D01*
X125161568Y-78984612D02*
X125164672Y-78835881D01*
X125164672Y-78835881D02*
X125163826Y-78687150D01*
X125163826Y-78687150D02*
X125159028Y-78538729D01*
X125159028Y-78538729D02*
X125150279Y-78390506D01*
X125150279Y-78390506D02*
X125137861Y-78242734D01*
X125137861Y-78242734D02*
X125121775Y-78095443D01*
X125121775Y-78095443D02*
X125101737Y-77948687D01*
X125101737Y-77948687D02*
X125078030Y-77802524D01*
X125078030Y-77802524D02*
X125050655Y-77657039D01*
X125050655Y-77657039D02*
X125019328Y-77512315D01*
X125019328Y-77512315D02*
X124984332Y-77368410D01*
X124984332Y-77368410D02*
X124945668Y-77225436D01*
X124945668Y-77225436D02*
X124903335Y-77083422D01*
X124903335Y-77083422D02*
X124857615Y-76942452D01*
X124857615Y-76942452D02*
X124807944Y-76802611D01*
X124807944Y-76802611D02*
X124754604Y-76663955D01*
X124754604Y-76663955D02*
X124697595Y-76526569D01*
X124697595Y-76526569D02*
X124637199Y-76390538D01*
X124637199Y-76390538D02*
X124573135Y-76255918D01*
X124573135Y-76255918D02*
X124505401Y-76122822D01*
X124505401Y-76122822D02*
X124433999Y-75991250D01*
X124433999Y-75991250D02*
X124359210Y-75861315D01*
X124359210Y-75861315D02*
X124280753Y-75733102D01*
X124280753Y-75733102D02*
X124198908Y-75606694D01*
X124198908Y-75606694D02*
X124113395Y-75482121D01*
X124113395Y-75482121D02*
X116109008Y-64132160D01*
X116109008Y-64132160D02*
X115945602Y-63903278D01*
X115945602Y-63903278D02*
X115794895Y-63677190D01*
X115794895Y-63677190D02*
X115656888Y-63453867D01*
X115656888Y-63453867D02*
X115530735Y-63233254D01*
X115530735Y-63233254D02*
X115416717Y-63015322D01*
X115416717Y-63015322D02*
X115314271Y-62800071D01*
X115314271Y-62800071D02*
X115222548Y-62587389D01*
X115222548Y-62587389D02*
X115141551Y-62377331D01*
X115141551Y-62377331D02*
X115070995Y-62169813D01*
X115070995Y-62169813D02*
X115010317Y-61964807D01*
X115010317Y-61964807D02*
X114959517Y-61762284D01*
X114959517Y-61762284D02*
X114917466Y-61562217D01*
X114917466Y-61562217D02*
X114884446Y-61364576D01*
X114884446Y-61364576D02*
X114859893Y-61169335D01*
X114859893Y-61169335D02*
X114843242Y-60976408D01*
X114843242Y-60976408D02*
X114834211Y-60785823D01*
X114834211Y-60785823D02*
X114832517Y-60597525D01*
X114832517Y-60597525D02*
X114838162Y-60411456D01*
X114838162Y-60411456D02*
X114850015Y-60227616D01*
X114850015Y-60227616D02*
X114868077Y-60045978D01*
X114868077Y-60045978D02*
X114892066Y-59866456D01*
X114892066Y-59866456D02*
X114921417Y-59689108D01*
X114921417Y-59689108D02*
X114955849Y-59513791D01*
X114955849Y-59513791D02*
X114995077Y-59340535D01*
X114995077Y-59340535D02*
X115038257Y-59169311D01*
X115038257Y-59169311D02*
X115085671Y-59000062D01*
X115085671Y-59000062D02*
X115136753Y-58832761D01*
X115136753Y-58832761D02*
X115190657Y-58667379D01*
X115190657Y-58667379D02*
X115247666Y-58503887D01*
X115247666Y-58503887D02*
X115306933Y-58342259D01*
X115306933Y-58342259D02*
X115431675Y-58024392D01*
X115431675Y-58024392D02*
X115561215Y-57713524D01*
X115561215Y-57713524D02*
X115693295Y-57409373D01*
X115693295Y-57409373D02*
X115951811Y-56820263D01*
X115951811Y-56820263D02*
X116072320Y-56534738D01*
X116072320Y-56534738D02*
X116183233Y-56254859D01*
X116183233Y-56254859D02*
X116234033Y-56116965D01*
X116234033Y-56116965D02*
X116281164Y-55980398D01*
X116281164Y-55980398D02*
X116324626Y-55845128D01*
X116324626Y-55845128D02*
X116363573Y-55711073D01*
X116363573Y-55711073D02*
X116397722Y-55578259D01*
X116397722Y-55578259D02*
X116427073Y-55446602D01*
X116427073Y-55446602D02*
X116450780Y-55316131D01*
X116450780Y-55316131D02*
X116468560Y-55186732D01*
X116468560Y-55186732D02*
X116480413Y-55058462D01*
X116480413Y-55058462D02*
X116485493Y-54931208D01*
X116485493Y-54931208D02*
X116483800Y-54804970D01*
X116483800Y-54804970D02*
X116474486Y-54679737D01*
X116474486Y-54679737D02*
X116457835Y-54555449D01*
X116457835Y-54555449D02*
X116432717Y-54432067D01*
X116432717Y-54432067D02*
X116399415Y-54309560D01*
X116399415Y-54309560D02*
X116357082Y-54187911D01*
X116357082Y-54187911D02*
X116305717Y-54067089D01*
X116305717Y-54067089D02*
X116244757Y-53947032D01*
X116244757Y-53947032D02*
X116173920Y-53827739D01*
X116173920Y-53827739D02*
X116092640Y-53709144D01*
X116092640Y-53709144D02*
X115961124Y-53614557D01*
X115961124Y-53614557D02*
X115824528Y-53522767D01*
X115824528Y-53522767D02*
X115682571Y-53433825D01*
X115682571Y-53433825D02*
X115535251Y-53347716D01*
X115535251Y-53347716D02*
X115383415Y-53264452D01*
X115383415Y-53264452D02*
X115226500Y-53184055D01*
X115226500Y-53184055D02*
X115065351Y-53106503D01*
X115065351Y-53106503D02*
X114899404Y-53031847D01*
X114899404Y-53031847D02*
X114729506Y-52960055D01*
X114729506Y-52960055D02*
X114555375Y-52891173D01*
X114555375Y-52891173D02*
X114377575Y-52825170D01*
X114377575Y-52825170D02*
X114195824Y-52762096D01*
X114195824Y-52762096D02*
X114010686Y-52701932D01*
X114010686Y-52701932D02*
X113821880Y-52644695D01*
X113821880Y-52644695D02*
X113629969Y-52590401D01*
X113629969Y-52590401D02*
X113435235Y-52539034D01*
X113435235Y-52539034D02*
X113237680Y-52490627D01*
X113237680Y-52490627D02*
X113037302Y-52445192D01*
X113037302Y-52445192D02*
X112834384Y-52402717D01*
X112834384Y-52402717D02*
X112628926Y-52363234D01*
X112628926Y-52363234D02*
X112421493Y-52326726D01*
X112421493Y-52326726D02*
X112212084Y-52293224D01*
X112212084Y-52293224D02*
X112000700Y-52262727D01*
X112000700Y-52262727D02*
X111787904Y-52235238D01*
X111787904Y-52235238D02*
X111573415Y-52210772D01*
X111573415Y-52210772D02*
X111357798Y-52189343D01*
X111357798Y-52189343D02*
X111140769Y-52170955D01*
X111140769Y-52170955D02*
X110922893Y-52155620D01*
X110922893Y-52155620D02*
X110704284Y-52143339D01*
X110704284Y-52143339D02*
X110484912Y-52134128D01*
X110484912Y-52134128D02*
X110265231Y-52128003D01*
X110265231Y-52128003D02*
X110045210Y-52124949D01*
X110045210Y-52124949D02*
X109824879Y-52124997D01*
X109824879Y-52124997D02*
X109604887Y-52128146D01*
X109604887Y-52128146D02*
X109384867Y-52134399D01*
X109384867Y-52134399D02*
X109165495Y-52143784D01*
X109165495Y-52143784D02*
X108946463Y-52156304D01*
X108946463Y-52156304D02*
X108728361Y-52171941D01*
X108728361Y-52171941D02*
X108511079Y-52190594D01*
X108511079Y-52190594D02*
X108294896Y-52212548D01*
X108294896Y-52212548D02*
X108079984Y-52237651D01*
X108079984Y-52237651D02*
X107866483Y-52265950D01*
X107866483Y-52265950D02*
X107654591Y-52297417D01*
X107654591Y-52297417D02*
X107444448Y-52332080D01*
X107444448Y-52332080D02*
X107236224Y-52369940D01*
X107236224Y-52369940D02*
X107030202Y-52411015D01*
X107030202Y-52411015D02*
X106826268Y-52455304D01*
X106826268Y-52455304D02*
X106625044Y-52502822D01*
X106625044Y-52502822D02*
X106426331Y-52553568D01*
X106426331Y-52553568D02*
X106230356Y-52607560D01*
X106230356Y-52607560D02*
X106037401Y-52664795D01*
X106037401Y-52664795D02*
X105847606Y-52725309D01*
X105847606Y-52725309D02*
X105661170Y-52789085D01*
X105661170Y-52789085D02*
X105478065Y-52856153D01*
X105478065Y-52856153D02*
X105298769Y-52926482D01*
X105298769Y-52926482D02*
X105123311Y-53000137D01*
X105123311Y-53000137D02*
X104951833Y-53077082D01*
X104951833Y-53077082D02*
X104784475Y-53157337D01*
X104784475Y-53157337D02*
X104621407Y-53240920D01*
X104621407Y-53240920D02*
X104462968Y-53327839D01*
X104462968Y-53327839D02*
X104309157Y-53418102D01*
X104309157Y-53418102D02*
X104160256Y-53511704D01*
X104160256Y-53511704D02*
X104016295Y-53608664D01*
X104016295Y-53608664D02*
X103877724Y-53708994D01*
X103877724Y-53708994D02*
X103877724Y-53708994D01*
X103877724Y-53708994D02*
X103877724Y-53708994D01*
M02*
