G04 #@! TF.GenerationSoftware,KiCad,Pcbnew,5.1.7*
G04 #@! TF.CreationDate,2020-12-05T21:44:05-08:00*
G04 #@! TF.ProjectId,xmascard2020,786d6173-6361-4726-9432-3032302e6b69,rev?*
G04 #@! TF.SameCoordinates,Original*
G04 #@! TF.FileFunction,Soldermask,Top*
G04 #@! TF.FilePolarity,Negative*
%FSLAX46Y46*%
G04 Gerber Fmt 4.6, Leading zero omitted, Abs format (unit mm)*
G04 Created by KiCad (PCBNEW 5.1.7) date 2020-12-05 21:44:05*
%MOMM*%
%LPD*%
G01*
G04 APERTURE LIST*
%ADD10C,1.200000*%
%ADD11C,1.500000*%
%ADD12C,2.000000*%
%ADD13O,1.750000X1.200000*%
%ADD14C,0.100000*%
G04 APERTURE END LIST*
D10*
X108003979Y-126439771D03*
X108018184Y-128598709D03*
D11*
X108401681Y-131240554D03*
D12*
X130676080Y-140629509D03*
X97333344Y-145573779D03*
X102638279Y-113941039D03*
X108049830Y-110603211D03*
X112907443Y-107393204D03*
X119228024Y-78758856D03*
X108859436Y-64114997D03*
X88590972Y-74583013D03*
G36*
G01*
X107825001Y-121500000D02*
X106574999Y-121500000D01*
G75*
G02*
X106325000Y-121250001I0J249999D01*
G01*
X106325000Y-120549999D01*
G75*
G02*
X106574999Y-120300000I249999J0D01*
G01*
X107825001Y-120300000D01*
G75*
G02*
X108075000Y-120549999I0J-249999D01*
G01*
X108075000Y-121250001D01*
G75*
G02*
X107825001Y-121500000I-249999J0D01*
G01*
G37*
D13*
X107200000Y-118900000D03*
D14*
G36*
X95550444Y-67648545D02*
G01*
X97051455Y-66850444D01*
X97849556Y-68351455D01*
X96348545Y-69149556D01*
X95550444Y-67648545D01*
G37*
G36*
G01*
X98543636Y-66057037D02*
X98543636Y-66057037D01*
G75*
G02*
X99693192Y-66408491I399051J-750505D01*
G01*
X99693192Y-66408491D01*
G75*
G02*
X99341738Y-67558047I-750505J-399051D01*
G01*
X99341738Y-67558047D01*
G75*
G02*
X98192182Y-67206593I-399051J750505D01*
G01*
X98192182Y-67206593D01*
G75*
G02*
X98543636Y-66057037I750505J399051D01*
G01*
G37*
G36*
G01*
X100786323Y-64864579D02*
X100786323Y-64864579D01*
G75*
G02*
X101935879Y-65216033I399051J-750505D01*
G01*
X101935879Y-65216033D01*
G75*
G02*
X101584425Y-66365589I-750505J-399051D01*
G01*
X101584425Y-66365589D01*
G75*
G02*
X100434869Y-66014135I-399051J750505D01*
G01*
X100434869Y-66014135D01*
G75*
G02*
X100786323Y-64864579I750505J399051D01*
G01*
G37*
G36*
X117891261Y-74083819D02*
G01*
X116916181Y-72691261D01*
X118308739Y-71716181D01*
X119283819Y-73108739D01*
X117891261Y-74083819D01*
G37*
G36*
G01*
X115946837Y-71306894D02*
X115946837Y-71306894D01*
G75*
G02*
X116155576Y-70123075I696279J487540D01*
G01*
X116155576Y-70123075D01*
G75*
G02*
X117339395Y-70331814I487540J-696279D01*
G01*
X117339395Y-70331814D01*
G75*
G02*
X117130656Y-71515633I-696279J-487540D01*
G01*
X117130656Y-71515633D01*
G75*
G02*
X115946837Y-71306894I-487540J696279D01*
G01*
G37*
G36*
G01*
X114489953Y-69226248D02*
X114489953Y-69226248D01*
G75*
G02*
X114698692Y-68042429I696279J487540D01*
G01*
X114698692Y-68042429D01*
G75*
G02*
X115882511Y-68251168I487540J-696279D01*
G01*
X115882511Y-68251168D01*
G75*
G02*
X115673772Y-69434987I-696279J-487540D01*
G01*
X115673772Y-69434987D01*
G75*
G02*
X114489953Y-69226248I-487540J696279D01*
G01*
G37*
G36*
G01*
X113033069Y-67145601D02*
X113033069Y-67145601D01*
G75*
G02*
X113241808Y-65961782I696279J487540D01*
G01*
X113241808Y-65961782D01*
G75*
G02*
X114425627Y-66170521I487540J-696279D01*
G01*
X114425627Y-66170521D01*
G75*
G02*
X114216888Y-67354340I-696279J-487540D01*
G01*
X114216888Y-67354340D01*
G75*
G02*
X113033069Y-67145601I-487540J696279D01*
G01*
G37*
M02*
