G04 #@! TF.GenerationSoftware,KiCad,Pcbnew,5.1.7*
G04 #@! TF.CreationDate,2020-12-05T21:44:05-08:00*
G04 #@! TF.ProjectId,xmascard2020,786d6173-6361-4726-9432-3032302e6b69,rev?*
G04 #@! TF.SameCoordinates,Original*
G04 #@! TF.FileFunction,Legend,Bot*
G04 #@! TF.FilePolarity,Positive*
%FSLAX46Y46*%
G04 Gerber Fmt 4.6, Leading zero omitted, Abs format (unit mm)*
G04 Created by KiCad (PCBNEW 5.1.7) date 2020-12-05 21:44:05*
%MOMM*%
%LPD*%
G01*
G04 APERTURE LIST*
%ADD10C,0.120000*%
%ADD11C,0.150000*%
G04 APERTURE END LIST*
D10*
X116340580Y-81210000D02*
X116059420Y-81210000D01*
X116340580Y-80190000D02*
X116059420Y-80190000D01*
X104246328Y-108150754D02*
X100105527Y-108878677D01*
X112879832Y-100764421D02*
X112118499Y-103605754D01*
X111129832Y-97733332D02*
X112879832Y-100764421D01*
X104179832Y-85695579D02*
X101338499Y-84934246D01*
X93466328Y-89479246D02*
X90765527Y-92701323D01*
X112118499Y-103605754D02*
X109988076Y-104835754D01*
X104791924Y-107835754D02*
X104246328Y-108150754D01*
X101338499Y-84934246D02*
X99208076Y-86164246D01*
X94011924Y-89164246D02*
X93466328Y-89479246D01*
X104179832Y-85695579D02*
X105929832Y-88726668D01*
X90765830Y-92718187D02*
G75*
G03*
X91595483Y-96078848I1646896J-1376167D01*
G01*
X97582845Y-106482322D02*
G75*
G03*
X100105527Y-108878677I2139881J-273324D01*
G01*
X118420168Y-142404421D02*
X116670168Y-139373332D01*
X128588076Y-138935754D02*
X129133672Y-138620754D01*
X121261501Y-143165754D02*
X123391924Y-141935754D01*
X117808076Y-120264246D02*
X118353672Y-119949246D01*
X110481501Y-124494246D02*
X112611924Y-123264246D01*
X129133672Y-138620754D02*
X131834473Y-135398677D01*
X118420168Y-142404421D02*
X121261501Y-143165754D01*
X111470168Y-130366668D02*
X109720168Y-127335579D01*
X109720168Y-127335579D02*
X110481501Y-124494246D01*
X118353672Y-119949246D02*
X122494473Y-119221323D01*
X125017155Y-121617678D02*
G75*
G03*
X122494473Y-119221323I-2139881J273324D01*
G01*
X131834170Y-135381813D02*
G75*
G03*
X131004517Y-132021152I-1646896J1376167D01*
G01*
X96559420Y-84110000D02*
X96840580Y-84110000D01*
X96559420Y-83090000D02*
X96840580Y-83090000D01*
X109310000Y-123260000D02*
X108060000Y-123260000D01*
X109310000Y-122010000D02*
X109310000Y-123260000D01*
X104900000Y-119900000D02*
X105400000Y-119900000D01*
X105400000Y-119800000D02*
X104900000Y-119800000D01*
X105400000Y-120000000D02*
X105400000Y-119800000D01*
X104900000Y-120000000D02*
X105400000Y-120000000D01*
X106400000Y-116840000D02*
X106400000Y-117450000D01*
X107700000Y-116840000D02*
X107700000Y-117450000D01*
X106400000Y-122960000D02*
X106400000Y-122350000D01*
X107700000Y-122960000D02*
X107700000Y-122350000D01*
X108400000Y-119400000D02*
X109010000Y-119400000D01*
X108400000Y-117450000D02*
X108400000Y-119400000D01*
X104900000Y-117450000D02*
X108400000Y-117450000D01*
X104900000Y-122350000D02*
X104900000Y-117450000D01*
X108400000Y-122350000D02*
X104900000Y-122350000D01*
X108400000Y-120400000D02*
X108400000Y-122350000D01*
X109010000Y-120400000D02*
X108400000Y-120400000D01*
X109110000Y-121200000D02*
X109110000Y-121500000D01*
X109210000Y-121500000D02*
X109010000Y-121500000D01*
X109210000Y-121200000D02*
X109210000Y-121500000D01*
X109010000Y-121200000D02*
X109210000Y-121200000D01*
X109010000Y-116840000D02*
X109010000Y-122960000D01*
X104290000Y-116840000D02*
X109010000Y-116840000D01*
X104290000Y-122960000D02*
X104290000Y-116840000D01*
X109010000Y-122960000D02*
X104290000Y-122960000D01*
X94901283Y-67450077D02*
X95525680Y-68624397D01*
X96075603Y-66825680D02*
X94901283Y-67450077D01*
X97196946Y-66229451D02*
X98445741Y-68578091D01*
X98445741Y-68578091D02*
X102984091Y-66165008D01*
X97196946Y-66229451D02*
X101735297Y-63816367D01*
X101735297Y-63816367D02*
X102984091Y-66165008D01*
X117773384Y-74752329D02*
X118862857Y-73989472D01*
X117010528Y-73662857D02*
X117773384Y-74752329D01*
X116282086Y-72622534D02*
X118461030Y-71096820D01*
X118461030Y-71096820D02*
X114055963Y-64805733D01*
X116282086Y-72622534D02*
X111877019Y-66331446D01*
X111877019Y-66331446D02*
X114055963Y-64805733D01*
X115960000Y-100320000D02*
X114500000Y-100320000D01*
X115960000Y-103480000D02*
X113800000Y-103480000D01*
X115960000Y-103480000D02*
X115960000Y-102550000D01*
X115960000Y-100320000D02*
X115960000Y-101250000D01*
X105022500Y-81362742D02*
X105022500Y-81837258D01*
X103977500Y-81362742D02*
X103977500Y-81837258D01*
X108362742Y-84777500D02*
X108837258Y-84777500D01*
X108362742Y-85822500D02*
X108837258Y-85822500D01*
X115062742Y-99622500D02*
X115537258Y-99622500D01*
X115062742Y-98577500D02*
X115537258Y-98577500D01*
X115527064Y-111235000D02*
X115072936Y-111235000D01*
X115527064Y-109765000D02*
X115072936Y-109765000D01*
X96640000Y-76840000D02*
X96640000Y-77070000D01*
X96640000Y-81560000D02*
X96640000Y-81330000D01*
X96640000Y-81560000D02*
X99360000Y-81560000D01*
X99360000Y-81560000D02*
X99360000Y-80250000D01*
X95500000Y-81330000D02*
X96640000Y-81330000D01*
X99360000Y-76840000D02*
X96640000Y-76840000D01*
X99360000Y-78150000D02*
X99360000Y-76840000D01*
X110800000Y-84285000D02*
X107200000Y-84285000D01*
X110800000Y-84285000D02*
X113000000Y-84285000D01*
X110800000Y-77515000D02*
X108600000Y-77515000D01*
X110800000Y-77515000D02*
X113000000Y-77515000D01*
D11*
X118100000Y-117475000D02*
X118100000Y-118600000D01*
X109625000Y-117475000D02*
X109625000Y-113325000D01*
X118575000Y-117475000D02*
X118575000Y-113325000D01*
X109625000Y-117475000D02*
X110182500Y-117475000D01*
X109625000Y-113325000D02*
X110182500Y-113325000D01*
X118575000Y-113325000D02*
X118017500Y-113325000D01*
X118575000Y-117475000D02*
X118100000Y-117475000D01*
D10*
X121688024Y-79894000D02*
X117628024Y-79894000D01*
X121688024Y-77624000D02*
X121688024Y-79894000D01*
X117628024Y-77624000D02*
X121688024Y-77624000D01*
X107724436Y-65715000D02*
X107724436Y-61655000D01*
X107724436Y-61655000D02*
X109994436Y-61655000D01*
X109994436Y-61655000D02*
X109994436Y-65715000D01*
X91050972Y-75718000D02*
X86990972Y-75718000D01*
X91050972Y-73448000D02*
X91050972Y-75718000D01*
X86990972Y-73448000D02*
X91050972Y-73448000D01*
X132889019Y-139066078D02*
X130859019Y-142582141D01*
X130923141Y-137931078D02*
X132889019Y-139066078D01*
X128893141Y-141447141D02*
X130923141Y-137931078D01*
X105800000Y-130165000D02*
X109860000Y-130165000D01*
X109860000Y-130165000D02*
X109860000Y-132435000D01*
X109860000Y-132435000D02*
X105800000Y-132435000D01*
X109660000Y-129935000D02*
X105600000Y-129935000D01*
X109660000Y-127665000D02*
X109660000Y-129935000D01*
X105600000Y-127665000D02*
X109660000Y-127665000D01*
X105400000Y-125165000D02*
X109460000Y-125165000D01*
X109460000Y-125165000D02*
X109460000Y-127435000D01*
X109460000Y-127435000D02*
X105400000Y-127435000D01*
X99793344Y-146708000D02*
X95733344Y-146708000D01*
X99793344Y-144438000D02*
X99793344Y-146708000D01*
X95733344Y-144438000D02*
X99793344Y-144438000D01*
X101038279Y-112806000D02*
X105098279Y-112806000D01*
X105098279Y-112806000D02*
X105098279Y-115076000D01*
X105098279Y-115076000D02*
X101038279Y-115076000D01*
X110509830Y-111738000D02*
X106449830Y-111738000D01*
X110509830Y-109468000D02*
X110509830Y-111738000D01*
X106449830Y-109468000D02*
X110509830Y-109468000D01*
X111307443Y-106258000D02*
X115367443Y-106258000D01*
X115367443Y-106258000D02*
X115367443Y-108528000D01*
X115367443Y-108528000D02*
X111307443Y-108528000D01*
D11*
X116466666Y-82557142D02*
X116514285Y-82604761D01*
X116657142Y-82652380D01*
X116752380Y-82652380D01*
X116895238Y-82604761D01*
X116990476Y-82509523D01*
X117038095Y-82414285D01*
X117085714Y-82223809D01*
X117085714Y-82080952D01*
X117038095Y-81890476D01*
X116990476Y-81795238D01*
X116895238Y-81700000D01*
X116752380Y-81652380D01*
X116657142Y-81652380D01*
X116514285Y-81700000D01*
X116466666Y-81747619D01*
X116085714Y-81747619D02*
X116038095Y-81700000D01*
X115942857Y-81652380D01*
X115704761Y-81652380D01*
X115609523Y-81700000D01*
X115561904Y-81747619D01*
X115514285Y-81842857D01*
X115514285Y-81938095D01*
X115561904Y-82080952D01*
X116133333Y-82652380D01*
X115514285Y-82652380D01*
X96866666Y-85387142D02*
X96914285Y-85434761D01*
X97057142Y-85482380D01*
X97152380Y-85482380D01*
X97295238Y-85434761D01*
X97390476Y-85339523D01*
X97438095Y-85244285D01*
X97485714Y-85053809D01*
X97485714Y-84910952D01*
X97438095Y-84720476D01*
X97390476Y-84625238D01*
X97295238Y-84530000D01*
X97152380Y-84482380D01*
X97057142Y-84482380D01*
X96914285Y-84530000D01*
X96866666Y-84577619D01*
X95914285Y-85482380D02*
X96485714Y-85482380D01*
X96200000Y-85482380D02*
X96200000Y-84482380D01*
X96295238Y-84625238D01*
X96390476Y-84720476D01*
X96485714Y-84768095D01*
X109552380Y-119566666D02*
X110266666Y-119566666D01*
X110409523Y-119519047D01*
X110504761Y-119423809D01*
X110552380Y-119280952D01*
X110552380Y-119185714D01*
X110552380Y-120566666D02*
X110552380Y-119995238D01*
X110552380Y-120280952D02*
X109552380Y-120280952D01*
X109695238Y-120185714D01*
X109790476Y-120090476D01*
X109838095Y-119995238D01*
X103271428Y-115638095D02*
X103271428Y-116400000D01*
X103128571Y-116876190D02*
X103128571Y-117209523D01*
X103652380Y-117352380D02*
X103652380Y-116876190D01*
X102652380Y-116876190D01*
X102652380Y-117352380D01*
X102652380Y-117685714D02*
X103652380Y-118352380D01*
X102652380Y-118352380D02*
X103652380Y-117685714D01*
X102652380Y-118590476D02*
X102652380Y-119161904D01*
X103652380Y-118876190D02*
X102652380Y-118876190D01*
X103747619Y-119257142D02*
X103747619Y-120019047D01*
X103652380Y-120257142D02*
X102652380Y-120257142D01*
X102652380Y-120638095D01*
X102700000Y-120733333D01*
X102747619Y-120780952D01*
X102842857Y-120828571D01*
X102985714Y-120828571D01*
X103080952Y-120780952D01*
X103128571Y-120733333D01*
X103176190Y-120638095D01*
X103176190Y-120257142D01*
X102652380Y-121161904D02*
X103652380Y-121400000D01*
X102938095Y-121590476D01*
X103652380Y-121780952D01*
X102652380Y-122019047D01*
X103652380Y-122971428D02*
X103176190Y-122638095D01*
X103652380Y-122400000D02*
X102652380Y-122400000D01*
X102652380Y-122780952D01*
X102700000Y-122876190D01*
X102747619Y-122923809D01*
X102842857Y-122971428D01*
X102985714Y-122971428D01*
X103080952Y-122923809D01*
X103128571Y-122876190D01*
X103176190Y-122780952D01*
X103176190Y-122400000D01*
X103271428Y-123400000D02*
X103271428Y-124161904D01*
X103652380Y-123780952D02*
X102890476Y-123780952D01*
X95282741Y-69131093D02*
X94652064Y-69466430D01*
X94548285Y-69575542D01*
X94508906Y-69704344D01*
X94533928Y-69852835D01*
X94578640Y-69936925D01*
X94997449Y-68797398D02*
X95017138Y-68732997D01*
X95014471Y-68626551D01*
X94902693Y-68416326D01*
X94815936Y-68354591D01*
X94751535Y-68334902D01*
X94645089Y-68337568D01*
X94560999Y-68382280D01*
X94457219Y-68491392D01*
X94220947Y-69264203D01*
X93930322Y-68717617D01*
X104475079Y-65672636D02*
X103760312Y-66052684D01*
X103653866Y-66055350D01*
X103589465Y-66035661D01*
X103502709Y-65973927D01*
X103413285Y-65805746D01*
X103410619Y-65699300D01*
X103430308Y-65634899D01*
X103492043Y-65548142D01*
X104206810Y-65168094D01*
X103374931Y-65125025D02*
X103151373Y-64704574D01*
X103167372Y-65343250D02*
X103893829Y-64579462D01*
X102854391Y-64754618D01*
X102429631Y-63955761D02*
X103006572Y-64026519D01*
X102697900Y-64460302D02*
X103580848Y-63990831D01*
X103402001Y-63654470D01*
X103315245Y-63592735D01*
X103250844Y-63573046D01*
X103144398Y-63575712D01*
X103018262Y-63642780D01*
X102956528Y-63729536D01*
X102936839Y-63793937D01*
X102939505Y-63900383D01*
X103118351Y-64236744D01*
X103178444Y-63234018D02*
X102910174Y-62729477D01*
X102161361Y-63451219D02*
X103044309Y-62981748D01*
X119395382Y-74168848D02*
X119805079Y-74753957D01*
X119926026Y-74843665D01*
X120058667Y-74867053D01*
X120203002Y-74824121D01*
X120281016Y-74769495D01*
X119083324Y-74387353D02*
X118576230Y-74742425D01*
X119067786Y-74863290D01*
X118950764Y-74945230D01*
X118900063Y-75038863D01*
X118888369Y-75105184D01*
X118903988Y-75210511D01*
X119040554Y-75405548D01*
X119134187Y-75456249D01*
X119200508Y-75467943D01*
X119305835Y-75452324D01*
X119539879Y-75288445D01*
X119590580Y-75194811D01*
X119602274Y-75128491D01*
X113736782Y-64302573D02*
X113647073Y-64423520D01*
X113452037Y-64560085D01*
X113346709Y-64575705D01*
X113280389Y-64564010D01*
X113186755Y-64513309D01*
X113132129Y-64435295D01*
X113116510Y-64329967D01*
X113128204Y-64263647D01*
X113178905Y-64170013D01*
X113307621Y-64021753D01*
X113358322Y-63928120D01*
X113370017Y-63861799D01*
X113354397Y-63756472D01*
X113299771Y-63678457D01*
X113206138Y-63627756D01*
X113139817Y-63616062D01*
X113034490Y-63631681D01*
X112839453Y-63768247D01*
X112749745Y-63889193D01*
X112449381Y-64041378D02*
X112827921Y-64997096D01*
X112262195Y-64521240D01*
X112515863Y-65215601D01*
X111747251Y-64533015D01*
X112008769Y-65570672D02*
X111435193Y-64751520D01*
X111240156Y-64888086D01*
X111150448Y-65009033D01*
X111127060Y-65141674D01*
X111142679Y-65247001D01*
X111212924Y-65430344D01*
X111294864Y-65547365D01*
X111443124Y-65676081D01*
X111536757Y-65726782D01*
X111669398Y-65750171D01*
X111813733Y-65707238D01*
X112008769Y-65570672D01*
X115295238Y-104947619D02*
X115390476Y-104900000D01*
X115485714Y-104804761D01*
X115628571Y-104661904D01*
X115723809Y-104614285D01*
X115819047Y-104614285D01*
X115771428Y-104852380D02*
X115866666Y-104804761D01*
X115961904Y-104709523D01*
X116009523Y-104519047D01*
X116009523Y-104185714D01*
X115961904Y-103995238D01*
X115866666Y-103900000D01*
X115771428Y-103852380D01*
X115580952Y-103852380D01*
X115485714Y-103900000D01*
X115390476Y-103995238D01*
X115342857Y-104185714D01*
X115342857Y-104519047D01*
X115390476Y-104709523D01*
X115485714Y-104804761D01*
X115580952Y-104852380D01*
X115771428Y-104852380D01*
X114390476Y-104852380D02*
X114961904Y-104852380D01*
X114676190Y-104852380D02*
X114676190Y-103852380D01*
X114771428Y-103995238D01*
X114866666Y-104090476D01*
X114961904Y-104138095D01*
X103522380Y-81433333D02*
X103046190Y-81100000D01*
X103522380Y-80861904D02*
X102522380Y-80861904D01*
X102522380Y-81242857D01*
X102570000Y-81338095D01*
X102617619Y-81385714D01*
X102712857Y-81433333D01*
X102855714Y-81433333D01*
X102950952Y-81385714D01*
X102998571Y-81338095D01*
X103046190Y-81242857D01*
X103046190Y-80861904D01*
X103522380Y-82385714D02*
X103522380Y-81814285D01*
X103522380Y-82100000D02*
X102522380Y-82100000D01*
X102665238Y-82004761D01*
X102760476Y-81909523D01*
X102808095Y-81814285D01*
X108766666Y-87182380D02*
X109100000Y-86706190D01*
X109338095Y-87182380D02*
X109338095Y-86182380D01*
X108957142Y-86182380D01*
X108861904Y-86230000D01*
X108814285Y-86277619D01*
X108766666Y-86372857D01*
X108766666Y-86515714D01*
X108814285Y-86610952D01*
X108861904Y-86658571D01*
X108957142Y-86706190D01*
X109338095Y-86706190D01*
X108385714Y-86277619D02*
X108338095Y-86230000D01*
X108242857Y-86182380D01*
X108004761Y-86182380D01*
X107909523Y-86230000D01*
X107861904Y-86277619D01*
X107814285Y-86372857D01*
X107814285Y-86468095D01*
X107861904Y-86610952D01*
X108433333Y-87182380D01*
X107814285Y-87182380D01*
X115466666Y-98052380D02*
X115800000Y-97576190D01*
X116038095Y-98052380D02*
X116038095Y-97052380D01*
X115657142Y-97052380D01*
X115561904Y-97100000D01*
X115514285Y-97147619D01*
X115466666Y-97242857D01*
X115466666Y-97385714D01*
X115514285Y-97480952D01*
X115561904Y-97528571D01*
X115657142Y-97576190D01*
X116038095Y-97576190D01*
X115133333Y-97052380D02*
X114514285Y-97052380D01*
X114847619Y-97433333D01*
X114704761Y-97433333D01*
X114609523Y-97480952D01*
X114561904Y-97528571D01*
X114514285Y-97623809D01*
X114514285Y-97861904D01*
X114561904Y-97957142D01*
X114609523Y-98004761D01*
X114704761Y-98052380D01*
X114990476Y-98052380D01*
X115085714Y-98004761D01*
X115133333Y-97957142D01*
X112466666Y-111052380D02*
X112800000Y-110576190D01*
X113038095Y-111052380D02*
X113038095Y-110052380D01*
X112657142Y-110052380D01*
X112561904Y-110100000D01*
X112514285Y-110147619D01*
X112466666Y-110242857D01*
X112466666Y-110385714D01*
X112514285Y-110480952D01*
X112561904Y-110528571D01*
X112657142Y-110576190D01*
X113038095Y-110576190D01*
X111609523Y-110385714D02*
X111609523Y-111052380D01*
X111847619Y-110004761D02*
X112085714Y-110719047D01*
X111466666Y-110719047D01*
X112004761Y-88666666D02*
X112052380Y-88809523D01*
X112052380Y-89047619D01*
X112004761Y-89142857D01*
X111957142Y-89190476D01*
X111861904Y-89238095D01*
X111766666Y-89238095D01*
X111671428Y-89190476D01*
X111623809Y-89142857D01*
X111576190Y-89047619D01*
X111528571Y-88857142D01*
X111480952Y-88761904D01*
X111433333Y-88714285D01*
X111338095Y-88666666D01*
X111242857Y-88666666D01*
X111147619Y-88714285D01*
X111100000Y-88761904D01*
X111052380Y-88857142D01*
X111052380Y-89095238D01*
X111100000Y-89238095D01*
X111052380Y-89571428D02*
X112052380Y-89809523D01*
X111338095Y-90000000D01*
X112052380Y-90190476D01*
X111052380Y-90428571D01*
X112052380Y-91333333D02*
X112052380Y-90761904D01*
X112052380Y-91047619D02*
X111052380Y-91047619D01*
X111195238Y-90952380D01*
X111290476Y-90857142D01*
X111338095Y-90761904D01*
X118652380Y-88414285D02*
X117652380Y-88414285D01*
X117652380Y-88795238D01*
X117700000Y-88890476D01*
X117747619Y-88938095D01*
X117842857Y-88985714D01*
X117985714Y-88985714D01*
X118080952Y-88938095D01*
X118128571Y-88890476D01*
X118176190Y-88795238D01*
X118176190Y-88414285D01*
X118652380Y-89985714D02*
X118176190Y-89652380D01*
X118652380Y-89414285D02*
X117652380Y-89414285D01*
X117652380Y-89795238D01*
X117700000Y-89890476D01*
X117747619Y-89938095D01*
X117842857Y-89985714D01*
X117985714Y-89985714D01*
X118080952Y-89938095D01*
X118128571Y-89890476D01*
X118176190Y-89795238D01*
X118176190Y-89414285D01*
X117652380Y-90604761D02*
X117652380Y-90795238D01*
X117700000Y-90890476D01*
X117795238Y-90985714D01*
X117985714Y-91033333D01*
X118319047Y-91033333D01*
X118509523Y-90985714D01*
X118604761Y-90890476D01*
X118652380Y-90795238D01*
X118652380Y-90604761D01*
X118604761Y-90509523D01*
X118509523Y-90414285D01*
X118319047Y-90366666D01*
X117985714Y-90366666D01*
X117795238Y-90414285D01*
X117700000Y-90509523D01*
X117652380Y-90604761D01*
X117700000Y-91985714D02*
X117652380Y-91890476D01*
X117652380Y-91747619D01*
X117700000Y-91604761D01*
X117795238Y-91509523D01*
X117890476Y-91461904D01*
X118080952Y-91414285D01*
X118223809Y-91414285D01*
X118414285Y-91461904D01*
X118509523Y-91509523D01*
X118604761Y-91604761D01*
X118652380Y-91747619D01*
X118652380Y-91842857D01*
X118604761Y-91985714D01*
X118557142Y-92033333D01*
X118223809Y-92033333D01*
X118223809Y-91842857D01*
X106733333Y-71604761D02*
X106590476Y-71652380D01*
X106352380Y-71652380D01*
X106257142Y-71604761D01*
X106209523Y-71557142D01*
X106161904Y-71461904D01*
X106161904Y-71366666D01*
X106209523Y-71271428D01*
X106257142Y-71223809D01*
X106352380Y-71176190D01*
X106542857Y-71128571D01*
X106638095Y-71080952D01*
X106685714Y-71033333D01*
X106733333Y-70938095D01*
X106733333Y-70842857D01*
X106685714Y-70747619D01*
X106638095Y-70700000D01*
X106542857Y-70652380D01*
X106304761Y-70652380D01*
X106161904Y-70700000D01*
X105828571Y-70652380D02*
X105590476Y-71652380D01*
X105400000Y-70938095D01*
X105209523Y-71652380D01*
X104971428Y-70652380D01*
X104638095Y-70747619D02*
X104590476Y-70700000D01*
X104495238Y-70652380D01*
X104257142Y-70652380D01*
X104161904Y-70700000D01*
X104114285Y-70747619D01*
X104066666Y-70842857D01*
X104066666Y-70938095D01*
X104114285Y-71080952D01*
X104685714Y-71652380D01*
X104066666Y-71652380D01*
X98761904Y-82152380D02*
X98761904Y-82961904D01*
X98714285Y-83057142D01*
X98666666Y-83104761D01*
X98571428Y-83152380D01*
X98380952Y-83152380D01*
X98285714Y-83104761D01*
X98238095Y-83057142D01*
X98190476Y-82961904D01*
X98190476Y-82152380D01*
X97190476Y-83152380D02*
X97761904Y-83152380D01*
X97476190Y-83152380D02*
X97476190Y-82152380D01*
X97571428Y-82295238D01*
X97666666Y-82390476D01*
X97761904Y-82438095D01*
X111361904Y-75852380D02*
X111361904Y-76661904D01*
X111314285Y-76757142D01*
X111266666Y-76804761D01*
X111171428Y-76852380D01*
X110980952Y-76852380D01*
X110885714Y-76804761D01*
X110838095Y-76757142D01*
X110790476Y-76661904D01*
X110790476Y-75852380D01*
X110361904Y-75947619D02*
X110314285Y-75900000D01*
X110219047Y-75852380D01*
X109980952Y-75852380D01*
X109885714Y-75900000D01*
X109838095Y-75947619D01*
X109790476Y-76042857D01*
X109790476Y-76138095D01*
X109838095Y-76280952D01*
X110409523Y-76852380D01*
X109790476Y-76852380D01*
X118952380Y-114638095D02*
X119761904Y-114638095D01*
X119857142Y-114685714D01*
X119904761Y-114733333D01*
X119952380Y-114828571D01*
X119952380Y-115019047D01*
X119904761Y-115114285D01*
X119857142Y-115161904D01*
X119761904Y-115209523D01*
X118952380Y-115209523D01*
X118952380Y-115590476D02*
X118952380Y-116209523D01*
X119333333Y-115876190D01*
X119333333Y-116019047D01*
X119380952Y-116114285D01*
X119428571Y-116161904D01*
X119523809Y-116209523D01*
X119761904Y-116209523D01*
X119857142Y-116161904D01*
X119904761Y-116114285D01*
X119952380Y-116019047D01*
X119952380Y-115733333D01*
X119904761Y-115638095D01*
X119857142Y-115590476D01*
X119966119Y-77391380D02*
X119966119Y-76391380D01*
X119728024Y-76391380D01*
X119585166Y-76439000D01*
X119489928Y-76534238D01*
X119442309Y-76629476D01*
X119394690Y-76819952D01*
X119394690Y-76962809D01*
X119442309Y-77153285D01*
X119489928Y-77248523D01*
X119585166Y-77343761D01*
X119728024Y-77391380D01*
X119966119Y-77391380D01*
X119013738Y-76486619D02*
X118966119Y-76439000D01*
X118870881Y-76391380D01*
X118632785Y-76391380D01*
X118537547Y-76439000D01*
X118489928Y-76486619D01*
X118442309Y-76581857D01*
X118442309Y-76677095D01*
X118489928Y-76819952D01*
X119061357Y-77391380D01*
X118442309Y-77391380D01*
X107491816Y-63376904D02*
X106491816Y-63376904D01*
X106491816Y-63615000D01*
X106539436Y-63757857D01*
X106634674Y-63853095D01*
X106729912Y-63900714D01*
X106920388Y-63948333D01*
X107063245Y-63948333D01*
X107253721Y-63900714D01*
X107348959Y-63853095D01*
X107444197Y-63757857D01*
X107491816Y-63615000D01*
X107491816Y-63376904D01*
X107491816Y-64900714D02*
X107491816Y-64329285D01*
X107491816Y-64615000D02*
X106491816Y-64615000D01*
X106634674Y-64519761D01*
X106729912Y-64424523D01*
X106777531Y-64329285D01*
X89329067Y-73215380D02*
X89329067Y-72215380D01*
X89090972Y-72215380D01*
X88948114Y-72263000D01*
X88852876Y-72358238D01*
X88805257Y-72453476D01*
X88757638Y-72643952D01*
X88757638Y-72786809D01*
X88805257Y-72977285D01*
X88852876Y-73072523D01*
X88948114Y-73167761D01*
X89090972Y-73215380D01*
X89329067Y-73215380D01*
X88424305Y-72215380D02*
X87805257Y-72215380D01*
X88138591Y-72596333D01*
X87995733Y-72596333D01*
X87900495Y-72643952D01*
X87852876Y-72691571D01*
X87805257Y-72786809D01*
X87805257Y-73024904D01*
X87852876Y-73120142D01*
X87900495Y-73167761D01*
X87995733Y-73215380D01*
X88281448Y-73215380D01*
X88376686Y-73167761D01*
X88424305Y-73120142D01*
X133060821Y-141386981D02*
X132194795Y-140886981D01*
X132075747Y-141093177D01*
X132045558Y-141240705D01*
X132080418Y-141370802D01*
X132139087Y-141459661D01*
X132280235Y-141596138D01*
X132403952Y-141667567D01*
X132592719Y-141721565D01*
X132699007Y-141727945D01*
X132829105Y-141693086D01*
X132941773Y-141593177D01*
X133060821Y-141386981D01*
X131769185Y-142290827D02*
X132346535Y-142624160D01*
X131558318Y-141894154D02*
X132295955Y-142045100D01*
X131986431Y-142581211D01*
X104638095Y-131752380D02*
X104638095Y-130752380D01*
X104400000Y-130752380D01*
X104257142Y-130800000D01*
X104161904Y-130895238D01*
X104114285Y-130990476D01*
X104066666Y-131180952D01*
X104066666Y-131323809D01*
X104114285Y-131514285D01*
X104161904Y-131609523D01*
X104257142Y-131704761D01*
X104400000Y-131752380D01*
X104638095Y-131752380D01*
X103209523Y-130752380D02*
X103400000Y-130752380D01*
X103495238Y-130800000D01*
X103542857Y-130847619D01*
X103638095Y-130990476D01*
X103685714Y-131180952D01*
X103685714Y-131561904D01*
X103638095Y-131657142D01*
X103590476Y-131704761D01*
X103495238Y-131752380D01*
X103304761Y-131752380D01*
X103209523Y-131704761D01*
X103161904Y-131657142D01*
X103114285Y-131561904D01*
X103114285Y-131323809D01*
X103161904Y-131228571D01*
X103209523Y-131180952D01*
X103304761Y-131133333D01*
X103495238Y-131133333D01*
X103590476Y-131180952D01*
X103638095Y-131228571D01*
X103685714Y-131323809D01*
X104438095Y-129252380D02*
X104438095Y-128252380D01*
X104200000Y-128252380D01*
X104057142Y-128300000D01*
X103961904Y-128395238D01*
X103914285Y-128490476D01*
X103866666Y-128680952D01*
X103866666Y-128823809D01*
X103914285Y-129014285D01*
X103961904Y-129109523D01*
X104057142Y-129204761D01*
X104200000Y-129252380D01*
X104438095Y-129252380D01*
X103533333Y-128252380D02*
X102866666Y-128252380D01*
X103295238Y-129252380D01*
X104238095Y-126752380D02*
X104238095Y-125752380D01*
X104000000Y-125752380D01*
X103857142Y-125800000D01*
X103761904Y-125895238D01*
X103714285Y-125990476D01*
X103666666Y-126180952D01*
X103666666Y-126323809D01*
X103714285Y-126514285D01*
X103761904Y-126609523D01*
X103857142Y-126704761D01*
X104000000Y-126752380D01*
X104238095Y-126752380D01*
X103095238Y-126180952D02*
X103190476Y-126133333D01*
X103238095Y-126085714D01*
X103285714Y-125990476D01*
X103285714Y-125942857D01*
X103238095Y-125847619D01*
X103190476Y-125800000D01*
X103095238Y-125752380D01*
X102904761Y-125752380D01*
X102809523Y-125800000D01*
X102761904Y-125847619D01*
X102714285Y-125942857D01*
X102714285Y-125990476D01*
X102761904Y-126085714D01*
X102809523Y-126133333D01*
X102904761Y-126180952D01*
X103095238Y-126180952D01*
X103190476Y-126228571D01*
X103238095Y-126276190D01*
X103285714Y-126371428D01*
X103285714Y-126561904D01*
X103238095Y-126657142D01*
X103190476Y-126704761D01*
X103095238Y-126752380D01*
X102904761Y-126752380D01*
X102809523Y-126704761D01*
X102761904Y-126657142D01*
X102714285Y-126561904D01*
X102714285Y-126371428D01*
X102761904Y-126276190D01*
X102809523Y-126228571D01*
X102904761Y-126180952D01*
X98071439Y-144205380D02*
X98071439Y-143205380D01*
X97833344Y-143205380D01*
X97690486Y-143253000D01*
X97595248Y-143348238D01*
X97547629Y-143443476D01*
X97500010Y-143633952D01*
X97500010Y-143776809D01*
X97547629Y-143967285D01*
X97595248Y-144062523D01*
X97690486Y-144157761D01*
X97833344Y-144205380D01*
X98071439Y-144205380D01*
X96595248Y-143205380D02*
X97071439Y-143205380D01*
X97119058Y-143681571D01*
X97071439Y-143633952D01*
X96976201Y-143586333D01*
X96738105Y-143586333D01*
X96642867Y-143633952D01*
X96595248Y-143681571D01*
X96547629Y-143776809D01*
X96547629Y-144014904D01*
X96595248Y-144110142D01*
X96642867Y-144157761D01*
X96738105Y-144205380D01*
X96976201Y-144205380D01*
X97071439Y-144157761D01*
X97119058Y-144110142D01*
X103376374Y-112573380D02*
X103376374Y-111573380D01*
X103138279Y-111573380D01*
X102995421Y-111621000D01*
X102900183Y-111716238D01*
X102852564Y-111811476D01*
X102804945Y-112001952D01*
X102804945Y-112144809D01*
X102852564Y-112335285D01*
X102900183Y-112430523D01*
X102995421Y-112525761D01*
X103138279Y-112573380D01*
X103376374Y-112573380D01*
X102328755Y-112573380D02*
X102138279Y-112573380D01*
X102043040Y-112525761D01*
X101995421Y-112478142D01*
X101900183Y-112335285D01*
X101852564Y-112144809D01*
X101852564Y-111763857D01*
X101900183Y-111668619D01*
X101947802Y-111621000D01*
X102043040Y-111573380D01*
X102233517Y-111573380D01*
X102328755Y-111621000D01*
X102376374Y-111668619D01*
X102423993Y-111763857D01*
X102423993Y-112001952D01*
X102376374Y-112097190D01*
X102328755Y-112144809D01*
X102233517Y-112192428D01*
X102043040Y-112192428D01*
X101947802Y-112144809D01*
X101900183Y-112097190D01*
X101852564Y-112001952D01*
X109264115Y-109235380D02*
X109264115Y-108235380D01*
X109026020Y-108235380D01*
X108883163Y-108283000D01*
X108787925Y-108378238D01*
X108740306Y-108473476D01*
X108692687Y-108663952D01*
X108692687Y-108806809D01*
X108740306Y-108997285D01*
X108787925Y-109092523D01*
X108883163Y-109187761D01*
X109026020Y-109235380D01*
X109264115Y-109235380D01*
X107740306Y-109235380D02*
X108311734Y-109235380D01*
X108026020Y-109235380D02*
X108026020Y-108235380D01*
X108121258Y-108378238D01*
X108216496Y-108473476D01*
X108311734Y-108521095D01*
X107121258Y-108235380D02*
X107026020Y-108235380D01*
X106930782Y-108283000D01*
X106883163Y-108330619D01*
X106835544Y-108425857D01*
X106787925Y-108616333D01*
X106787925Y-108854428D01*
X106835544Y-109044904D01*
X106883163Y-109140142D01*
X106930782Y-109187761D01*
X107026020Y-109235380D01*
X107121258Y-109235380D01*
X107216496Y-109187761D01*
X107264115Y-109140142D01*
X107311734Y-109044904D01*
X107359353Y-108854428D01*
X107359353Y-108616333D01*
X107311734Y-108425857D01*
X107264115Y-108330619D01*
X107216496Y-108283000D01*
X107121258Y-108235380D01*
X114121728Y-106025380D02*
X114121728Y-105025380D01*
X113883633Y-105025380D01*
X113740776Y-105073000D01*
X113645538Y-105168238D01*
X113597919Y-105263476D01*
X113550300Y-105453952D01*
X113550300Y-105596809D01*
X113597919Y-105787285D01*
X113645538Y-105882523D01*
X113740776Y-105977761D01*
X113883633Y-106025380D01*
X114121728Y-106025380D01*
X112597919Y-106025380D02*
X113169347Y-106025380D01*
X112883633Y-106025380D02*
X112883633Y-105025380D01*
X112978871Y-105168238D01*
X113074109Y-105263476D01*
X113169347Y-105311095D01*
X111645538Y-106025380D02*
X112216966Y-106025380D01*
X111931252Y-106025380D02*
X111931252Y-105025380D01*
X112026490Y-105168238D01*
X112121728Y-105263476D01*
X112216966Y-105311095D01*
M02*
