G04 #@! TF.GenerationSoftware,KiCad,Pcbnew,5.1.7*
G04 #@! TF.CreationDate,2020-12-05T21:44:05-08:00*
G04 #@! TF.ProjectId,xmascard2020,786d6173-6361-4726-9432-3032302e6b69,rev?*
G04 #@! TF.SameCoordinates,Original*
G04 #@! TF.FileFunction,Paste,Bot*
G04 #@! TF.FilePolarity,Positive*
%FSLAX46Y46*%
G04 Gerber Fmt 4.6, Leading zero omitted, Abs format (unit mm)*
G04 Created by KiCad (PCBNEW 5.1.7) date 2020-12-05 21:44:05*
%MOMM*%
%LPD*%
G01*
G04 APERTURE LIST*
%ADD10C,0.100000*%
%ADD11R,0.900000X0.800000*%
%ADD12R,0.750000X1.000000*%
%ADD13R,1.000000X0.750000*%
%ADD14R,1.300000X0.900000*%
%ADD15R,0.400000X1.200000*%
G04 APERTURE END LIST*
G36*
G01*
X117425000Y-80450000D02*
X117425000Y-80950000D01*
G75*
G02*
X117200000Y-81175000I-225000J0D01*
G01*
X116750000Y-81175000D01*
G75*
G02*
X116525000Y-80950000I0J225000D01*
G01*
X116525000Y-80450000D01*
G75*
G02*
X116750000Y-80225000I225000J0D01*
G01*
X117200000Y-80225000D01*
G75*
G02*
X117425000Y-80450000I0J-225000D01*
G01*
G37*
G36*
G01*
X115875000Y-80450000D02*
X115875000Y-80950000D01*
G75*
G02*
X115650000Y-81175000I-225000J0D01*
G01*
X115200000Y-81175000D01*
G75*
G02*
X114975000Y-80950000I0J225000D01*
G01*
X114975000Y-80450000D01*
G75*
G02*
X115200000Y-80225000I225000J0D01*
G01*
X115650000Y-80225000D01*
G75*
G02*
X115875000Y-80450000I0J-225000D01*
G01*
G37*
D10*
G36*
X110009705Y-105793215D02*
G01*
X105610295Y-108333215D01*
X104975295Y-107233363D01*
X109374705Y-104693363D01*
X110009705Y-105793215D01*
G37*
G36*
X99024705Y-86766637D02*
G01*
X94625295Y-89306637D01*
X93990295Y-88206785D01*
X98389705Y-85666785D01*
X99024705Y-86766637D01*
G37*
G36*
X123575295Y-141333363D02*
G01*
X127974705Y-138793363D01*
X128609705Y-139893215D01*
X124210295Y-142433215D01*
X123575295Y-141333363D01*
G37*
G36*
X112590295Y-122306785D02*
G01*
X116989705Y-119766785D01*
X117624705Y-120866637D01*
X113225295Y-123406637D01*
X112590295Y-122306785D01*
G37*
G36*
G01*
X97025000Y-83850000D02*
X97025000Y-83350000D01*
G75*
G02*
X97250000Y-83125000I225000J0D01*
G01*
X97700000Y-83125000D01*
G75*
G02*
X97925000Y-83350000I0J-225000D01*
G01*
X97925000Y-83850000D01*
G75*
G02*
X97700000Y-84075000I-225000J0D01*
G01*
X97250000Y-84075000D01*
G75*
G02*
X97025000Y-83850000I0J225000D01*
G01*
G37*
G36*
G01*
X95475000Y-83850000D02*
X95475000Y-83350000D01*
G75*
G02*
X95700000Y-83125000I225000J0D01*
G01*
X96150000Y-83125000D01*
G75*
G02*
X96375000Y-83350000I0J-225000D01*
G01*
X96375000Y-83850000D01*
G75*
G02*
X96150000Y-84075000I-225000J0D01*
G01*
X95700000Y-84075000D01*
G75*
G02*
X95475000Y-83850000I0J225000D01*
G01*
G37*
D11*
X114200000Y-102850000D03*
X114200000Y-100950000D03*
X116200000Y-101900000D03*
G36*
G01*
X104225000Y-80375000D02*
X104775000Y-80375000D01*
G75*
G02*
X104975000Y-80575000I0J-200000D01*
G01*
X104975000Y-80975000D01*
G75*
G02*
X104775000Y-81175000I-200000J0D01*
G01*
X104225000Y-81175000D01*
G75*
G02*
X104025000Y-80975000I0J200000D01*
G01*
X104025000Y-80575000D01*
G75*
G02*
X104225000Y-80375000I200000J0D01*
G01*
G37*
G36*
G01*
X104225000Y-82025000D02*
X104775000Y-82025000D01*
G75*
G02*
X104975000Y-82225000I0J-200000D01*
G01*
X104975000Y-82625000D01*
G75*
G02*
X104775000Y-82825000I-200000J0D01*
G01*
X104225000Y-82825000D01*
G75*
G02*
X104025000Y-82625000I0J200000D01*
G01*
X104025000Y-82225000D01*
G75*
G02*
X104225000Y-82025000I200000J0D01*
G01*
G37*
G36*
G01*
X107375000Y-85575000D02*
X107375000Y-85025000D01*
G75*
G02*
X107575000Y-84825000I200000J0D01*
G01*
X107975000Y-84825000D01*
G75*
G02*
X108175000Y-85025000I0J-200000D01*
G01*
X108175000Y-85575000D01*
G75*
G02*
X107975000Y-85775000I-200000J0D01*
G01*
X107575000Y-85775000D01*
G75*
G02*
X107375000Y-85575000I0J200000D01*
G01*
G37*
G36*
G01*
X109025000Y-85575000D02*
X109025000Y-85025000D01*
G75*
G02*
X109225000Y-84825000I200000J0D01*
G01*
X109625000Y-84825000D01*
G75*
G02*
X109825000Y-85025000I0J-200000D01*
G01*
X109825000Y-85575000D01*
G75*
G02*
X109625000Y-85775000I-200000J0D01*
G01*
X109225000Y-85775000D01*
G75*
G02*
X109025000Y-85575000I0J200000D01*
G01*
G37*
G36*
G01*
X115725000Y-99375000D02*
X115725000Y-98825000D01*
G75*
G02*
X115925000Y-98625000I200000J0D01*
G01*
X116325000Y-98625000D01*
G75*
G02*
X116525000Y-98825000I0J-200000D01*
G01*
X116525000Y-99375000D01*
G75*
G02*
X116325000Y-99575000I-200000J0D01*
G01*
X115925000Y-99575000D01*
G75*
G02*
X115725000Y-99375000I0J200000D01*
G01*
G37*
G36*
G01*
X114075000Y-99375000D02*
X114075000Y-98825000D01*
G75*
G02*
X114275000Y-98625000I200000J0D01*
G01*
X114675000Y-98625000D01*
G75*
G02*
X114875000Y-98825000I0J-200000D01*
G01*
X114875000Y-99375000D01*
G75*
G02*
X114675000Y-99575000I-200000J0D01*
G01*
X114275000Y-99575000D01*
G75*
G02*
X114075000Y-99375000I0J200000D01*
G01*
G37*
G36*
G01*
X116900000Y-110049999D02*
X116900000Y-110950001D01*
G75*
G02*
X116650001Y-111200000I-249999J0D01*
G01*
X115949999Y-111200000D01*
G75*
G02*
X115700000Y-110950001I0J249999D01*
G01*
X115700000Y-110049999D01*
G75*
G02*
X115949999Y-109800000I249999J0D01*
G01*
X116650001Y-109800000D01*
G75*
G02*
X116900000Y-110049999I0J-249999D01*
G01*
G37*
G36*
G01*
X114900000Y-110049999D02*
X114900000Y-110950001D01*
G75*
G02*
X114650001Y-111200000I-249999J0D01*
G01*
X113949999Y-111200000D01*
G75*
G02*
X113700000Y-110950001I0J249999D01*
G01*
X113700000Y-110049999D01*
G75*
G02*
X113949999Y-109800000I249999J0D01*
G01*
X114650001Y-109800000D01*
G75*
G02*
X114900000Y-110049999I0J-249999D01*
G01*
G37*
D12*
X116675000Y-93200000D03*
X116675000Y-87200000D03*
X112925000Y-87200000D03*
X112925000Y-93200000D03*
D13*
X102400000Y-69825000D03*
X108400000Y-69825000D03*
X108400000Y-73575000D03*
X102400000Y-73575000D03*
D14*
X96050000Y-80700000D03*
X96050000Y-77700000D03*
D10*
G36*
X100000000Y-80066500D02*
G01*
X96875000Y-80066500D01*
X96875000Y-79650000D01*
X95400000Y-79650000D01*
X95400000Y-78750000D01*
X96875000Y-78750000D01*
X96875000Y-78333500D01*
X100000000Y-78333500D01*
X100000000Y-80066500D01*
G37*
G36*
G01*
X107200000Y-83925000D02*
X107200000Y-83725000D01*
G75*
G02*
X107300000Y-83625000I100000J0D01*
G01*
X108575000Y-83625000D01*
G75*
G02*
X108675000Y-83725000I0J-100000D01*
G01*
X108675000Y-83925000D01*
G75*
G02*
X108575000Y-84025000I-100000J0D01*
G01*
X107300000Y-84025000D01*
G75*
G02*
X107200000Y-83925000I0J100000D01*
G01*
G37*
G36*
G01*
X107200000Y-83275000D02*
X107200000Y-83075000D01*
G75*
G02*
X107300000Y-82975000I100000J0D01*
G01*
X108575000Y-82975000D01*
G75*
G02*
X108675000Y-83075000I0J-100000D01*
G01*
X108675000Y-83275000D01*
G75*
G02*
X108575000Y-83375000I-100000J0D01*
G01*
X107300000Y-83375000D01*
G75*
G02*
X107200000Y-83275000I0J100000D01*
G01*
G37*
G36*
G01*
X107200000Y-82625000D02*
X107200000Y-82425000D01*
G75*
G02*
X107300000Y-82325000I100000J0D01*
G01*
X108575000Y-82325000D01*
G75*
G02*
X108675000Y-82425000I0J-100000D01*
G01*
X108675000Y-82625000D01*
G75*
G02*
X108575000Y-82725000I-100000J0D01*
G01*
X107300000Y-82725000D01*
G75*
G02*
X107200000Y-82625000I0J100000D01*
G01*
G37*
G36*
G01*
X107200000Y-81975000D02*
X107200000Y-81775000D01*
G75*
G02*
X107300000Y-81675000I100000J0D01*
G01*
X108575000Y-81675000D01*
G75*
G02*
X108675000Y-81775000I0J-100000D01*
G01*
X108675000Y-81975000D01*
G75*
G02*
X108575000Y-82075000I-100000J0D01*
G01*
X107300000Y-82075000D01*
G75*
G02*
X107200000Y-81975000I0J100000D01*
G01*
G37*
G36*
G01*
X107200000Y-81325000D02*
X107200000Y-81125000D01*
G75*
G02*
X107300000Y-81025000I100000J0D01*
G01*
X108575000Y-81025000D01*
G75*
G02*
X108675000Y-81125000I0J-100000D01*
G01*
X108675000Y-81325000D01*
G75*
G02*
X108575000Y-81425000I-100000J0D01*
G01*
X107300000Y-81425000D01*
G75*
G02*
X107200000Y-81325000I0J100000D01*
G01*
G37*
G36*
G01*
X107200000Y-80675000D02*
X107200000Y-80475000D01*
G75*
G02*
X107300000Y-80375000I100000J0D01*
G01*
X108575000Y-80375000D01*
G75*
G02*
X108675000Y-80475000I0J-100000D01*
G01*
X108675000Y-80675000D01*
G75*
G02*
X108575000Y-80775000I-100000J0D01*
G01*
X107300000Y-80775000D01*
G75*
G02*
X107200000Y-80675000I0J100000D01*
G01*
G37*
G36*
G01*
X107200000Y-80025000D02*
X107200000Y-79825000D01*
G75*
G02*
X107300000Y-79725000I100000J0D01*
G01*
X108575000Y-79725000D01*
G75*
G02*
X108675000Y-79825000I0J-100000D01*
G01*
X108675000Y-80025000D01*
G75*
G02*
X108575000Y-80125000I-100000J0D01*
G01*
X107300000Y-80125000D01*
G75*
G02*
X107200000Y-80025000I0J100000D01*
G01*
G37*
G36*
G01*
X107200000Y-79375000D02*
X107200000Y-79175000D01*
G75*
G02*
X107300000Y-79075000I100000J0D01*
G01*
X108575000Y-79075000D01*
G75*
G02*
X108675000Y-79175000I0J-100000D01*
G01*
X108675000Y-79375000D01*
G75*
G02*
X108575000Y-79475000I-100000J0D01*
G01*
X107300000Y-79475000D01*
G75*
G02*
X107200000Y-79375000I0J100000D01*
G01*
G37*
G36*
G01*
X107200000Y-78725000D02*
X107200000Y-78525000D01*
G75*
G02*
X107300000Y-78425000I100000J0D01*
G01*
X108575000Y-78425000D01*
G75*
G02*
X108675000Y-78525000I0J-100000D01*
G01*
X108675000Y-78725000D01*
G75*
G02*
X108575000Y-78825000I-100000J0D01*
G01*
X107300000Y-78825000D01*
G75*
G02*
X107200000Y-78725000I0J100000D01*
G01*
G37*
G36*
G01*
X107200000Y-78075000D02*
X107200000Y-77875000D01*
G75*
G02*
X107300000Y-77775000I100000J0D01*
G01*
X108575000Y-77775000D01*
G75*
G02*
X108675000Y-77875000I0J-100000D01*
G01*
X108675000Y-78075000D01*
G75*
G02*
X108575000Y-78175000I-100000J0D01*
G01*
X107300000Y-78175000D01*
G75*
G02*
X107200000Y-78075000I0J100000D01*
G01*
G37*
G36*
G01*
X112925000Y-78075000D02*
X112925000Y-77875000D01*
G75*
G02*
X113025000Y-77775000I100000J0D01*
G01*
X114300000Y-77775000D01*
G75*
G02*
X114400000Y-77875000I0J-100000D01*
G01*
X114400000Y-78075000D01*
G75*
G02*
X114300000Y-78175000I-100000J0D01*
G01*
X113025000Y-78175000D01*
G75*
G02*
X112925000Y-78075000I0J100000D01*
G01*
G37*
G36*
G01*
X112925000Y-78725000D02*
X112925000Y-78525000D01*
G75*
G02*
X113025000Y-78425000I100000J0D01*
G01*
X114300000Y-78425000D01*
G75*
G02*
X114400000Y-78525000I0J-100000D01*
G01*
X114400000Y-78725000D01*
G75*
G02*
X114300000Y-78825000I-100000J0D01*
G01*
X113025000Y-78825000D01*
G75*
G02*
X112925000Y-78725000I0J100000D01*
G01*
G37*
G36*
G01*
X112925000Y-79375000D02*
X112925000Y-79175000D01*
G75*
G02*
X113025000Y-79075000I100000J0D01*
G01*
X114300000Y-79075000D01*
G75*
G02*
X114400000Y-79175000I0J-100000D01*
G01*
X114400000Y-79375000D01*
G75*
G02*
X114300000Y-79475000I-100000J0D01*
G01*
X113025000Y-79475000D01*
G75*
G02*
X112925000Y-79375000I0J100000D01*
G01*
G37*
G36*
G01*
X112925000Y-80025000D02*
X112925000Y-79825000D01*
G75*
G02*
X113025000Y-79725000I100000J0D01*
G01*
X114300000Y-79725000D01*
G75*
G02*
X114400000Y-79825000I0J-100000D01*
G01*
X114400000Y-80025000D01*
G75*
G02*
X114300000Y-80125000I-100000J0D01*
G01*
X113025000Y-80125000D01*
G75*
G02*
X112925000Y-80025000I0J100000D01*
G01*
G37*
G36*
G01*
X112925000Y-80675000D02*
X112925000Y-80475000D01*
G75*
G02*
X113025000Y-80375000I100000J0D01*
G01*
X114300000Y-80375000D01*
G75*
G02*
X114400000Y-80475000I0J-100000D01*
G01*
X114400000Y-80675000D01*
G75*
G02*
X114300000Y-80775000I-100000J0D01*
G01*
X113025000Y-80775000D01*
G75*
G02*
X112925000Y-80675000I0J100000D01*
G01*
G37*
G36*
G01*
X112925000Y-81325000D02*
X112925000Y-81125000D01*
G75*
G02*
X113025000Y-81025000I100000J0D01*
G01*
X114300000Y-81025000D01*
G75*
G02*
X114400000Y-81125000I0J-100000D01*
G01*
X114400000Y-81325000D01*
G75*
G02*
X114300000Y-81425000I-100000J0D01*
G01*
X113025000Y-81425000D01*
G75*
G02*
X112925000Y-81325000I0J100000D01*
G01*
G37*
G36*
G01*
X112925000Y-81975000D02*
X112925000Y-81775000D01*
G75*
G02*
X113025000Y-81675000I100000J0D01*
G01*
X114300000Y-81675000D01*
G75*
G02*
X114400000Y-81775000I0J-100000D01*
G01*
X114400000Y-81975000D01*
G75*
G02*
X114300000Y-82075000I-100000J0D01*
G01*
X113025000Y-82075000D01*
G75*
G02*
X112925000Y-81975000I0J100000D01*
G01*
G37*
G36*
G01*
X112925000Y-82625000D02*
X112925000Y-82425000D01*
G75*
G02*
X113025000Y-82325000I100000J0D01*
G01*
X114300000Y-82325000D01*
G75*
G02*
X114400000Y-82425000I0J-100000D01*
G01*
X114400000Y-82625000D01*
G75*
G02*
X114300000Y-82725000I-100000J0D01*
G01*
X113025000Y-82725000D01*
G75*
G02*
X112925000Y-82625000I0J100000D01*
G01*
G37*
G36*
G01*
X112925000Y-83275000D02*
X112925000Y-83075000D01*
G75*
G02*
X113025000Y-82975000I100000J0D01*
G01*
X114300000Y-82975000D01*
G75*
G02*
X114400000Y-83075000I0J-100000D01*
G01*
X114400000Y-83275000D01*
G75*
G02*
X114300000Y-83375000I-100000J0D01*
G01*
X113025000Y-83375000D01*
G75*
G02*
X112925000Y-83275000I0J100000D01*
G01*
G37*
G36*
G01*
X112925000Y-83925000D02*
X112925000Y-83725000D01*
G75*
G02*
X113025000Y-83625000I100000J0D01*
G01*
X114300000Y-83625000D01*
G75*
G02*
X114400000Y-83725000I0J-100000D01*
G01*
X114400000Y-83925000D01*
G75*
G02*
X114300000Y-84025000I-100000J0D01*
G01*
X113025000Y-84025000D01*
G75*
G02*
X112925000Y-83925000I0J100000D01*
G01*
G37*
D15*
X117592500Y-118000000D03*
X116957500Y-118000000D03*
X116322500Y-118000000D03*
X115687500Y-118000000D03*
X115052500Y-118000000D03*
X114417500Y-118000000D03*
X113782500Y-118000000D03*
X113147500Y-118000000D03*
X112512500Y-118000000D03*
X111877500Y-118000000D03*
X111242500Y-118000000D03*
X110607500Y-118000000D03*
X110607500Y-112800000D03*
X111242500Y-112800000D03*
X111877500Y-112800000D03*
X112512500Y-112800000D03*
X113147500Y-112800000D03*
X113782500Y-112800000D03*
X114417500Y-112800000D03*
X115052500Y-112800000D03*
X115687500Y-112800000D03*
X116322500Y-112800000D03*
X116957500Y-112800000D03*
X117592500Y-112800000D03*
G36*
G01*
X121428024Y-78134000D02*
X121428024Y-79384000D01*
G75*
G02*
X121178024Y-79634000I-250000J0D01*
G01*
X120253024Y-79634000D01*
G75*
G02*
X120003024Y-79384000I0J250000D01*
G01*
X120003024Y-78134000D01*
G75*
G02*
X120253024Y-77884000I250000J0D01*
G01*
X121178024Y-77884000D01*
G75*
G02*
X121428024Y-78134000I0J-250000D01*
G01*
G37*
G36*
G01*
X118453024Y-78134000D02*
X118453024Y-79384000D01*
G75*
G02*
X118203024Y-79634000I-250000J0D01*
G01*
X117278024Y-79634000D01*
G75*
G02*
X117028024Y-79384000I0J250000D01*
G01*
X117028024Y-78134000D01*
G75*
G02*
X117278024Y-77884000I250000J0D01*
G01*
X118203024Y-77884000D01*
G75*
G02*
X118453024Y-78134000I0J-250000D01*
G01*
G37*
G36*
G01*
X108234436Y-64890000D02*
X109484436Y-64890000D01*
G75*
G02*
X109734436Y-65140000I0J-250000D01*
G01*
X109734436Y-66065000D01*
G75*
G02*
X109484436Y-66315000I-250000J0D01*
G01*
X108234436Y-66315000D01*
G75*
G02*
X107984436Y-66065000I0J250000D01*
G01*
X107984436Y-65140000D01*
G75*
G02*
X108234436Y-64890000I250000J0D01*
G01*
G37*
G36*
G01*
X108234436Y-61915000D02*
X109484436Y-61915000D01*
G75*
G02*
X109734436Y-62165000I0J-250000D01*
G01*
X109734436Y-63090000D01*
G75*
G02*
X109484436Y-63340000I-250000J0D01*
G01*
X108234436Y-63340000D01*
G75*
G02*
X107984436Y-63090000I0J250000D01*
G01*
X107984436Y-62165000D01*
G75*
G02*
X108234436Y-61915000I250000J0D01*
G01*
G37*
G36*
G01*
X90790972Y-73958000D02*
X90790972Y-75208000D01*
G75*
G02*
X90540972Y-75458000I-250000J0D01*
G01*
X89615972Y-75458000D01*
G75*
G02*
X89365972Y-75208000I0J250000D01*
G01*
X89365972Y-73958000D01*
G75*
G02*
X89615972Y-73708000I250000J0D01*
G01*
X90540972Y-73708000D01*
G75*
G02*
X90790972Y-73958000I0J-250000D01*
G01*
G37*
G36*
G01*
X87815972Y-73958000D02*
X87815972Y-75208000D01*
G75*
G02*
X87565972Y-75458000I-250000J0D01*
G01*
X86640972Y-75458000D01*
G75*
G02*
X86390972Y-75208000I0J250000D01*
G01*
X86390972Y-73958000D01*
G75*
G02*
X86640972Y-73708000I250000J0D01*
G01*
X87565972Y-73708000D01*
G75*
G02*
X87815972Y-73958000I0J-250000D01*
G01*
G37*
G36*
G01*
X131234814Y-138411244D02*
X132317346Y-139036244D01*
G75*
G02*
X132408852Y-139377750I-125000J-216506D01*
G01*
X131946352Y-140178824D01*
G75*
G02*
X131604846Y-140270330I-216506J125000D01*
G01*
X130522314Y-139645330D01*
G75*
G02*
X130430808Y-139303824I125000J216506D01*
G01*
X130893308Y-138502750D01*
G75*
G02*
X131234814Y-138411244I216506J-125000D01*
G01*
G37*
G36*
G01*
X129747314Y-140987670D02*
X130829846Y-141612670D01*
G75*
G02*
X130921352Y-141954176I-125000J-216506D01*
G01*
X130458852Y-142755250D01*
G75*
G02*
X130117346Y-142846756I-216506J125000D01*
G01*
X129034814Y-142221756D01*
G75*
G02*
X128943308Y-141880250I125000J216506D01*
G01*
X129405808Y-141079176D01*
G75*
G02*
X129747314Y-140987670I216506J-125000D01*
G01*
G37*
G36*
G01*
X106625000Y-130675000D02*
X106625000Y-131925000D01*
G75*
G02*
X106375000Y-132175000I-250000J0D01*
G01*
X105450000Y-132175000D01*
G75*
G02*
X105200000Y-131925000I0J250000D01*
G01*
X105200000Y-130675000D01*
G75*
G02*
X105450000Y-130425000I250000J0D01*
G01*
X106375000Y-130425000D01*
G75*
G02*
X106625000Y-130675000I0J-250000D01*
G01*
G37*
G36*
G01*
X109600000Y-130675000D02*
X109600000Y-131925000D01*
G75*
G02*
X109350000Y-132175000I-250000J0D01*
G01*
X108425000Y-132175000D01*
G75*
G02*
X108175000Y-131925000I0J250000D01*
G01*
X108175000Y-130675000D01*
G75*
G02*
X108425000Y-130425000I250000J0D01*
G01*
X109350000Y-130425000D01*
G75*
G02*
X109600000Y-130675000I0J-250000D01*
G01*
G37*
G36*
G01*
X109400000Y-128175000D02*
X109400000Y-129425000D01*
G75*
G02*
X109150000Y-129675000I-250000J0D01*
G01*
X108225000Y-129675000D01*
G75*
G02*
X107975000Y-129425000I0J250000D01*
G01*
X107975000Y-128175000D01*
G75*
G02*
X108225000Y-127925000I250000J0D01*
G01*
X109150000Y-127925000D01*
G75*
G02*
X109400000Y-128175000I0J-250000D01*
G01*
G37*
G36*
G01*
X106425000Y-128175000D02*
X106425000Y-129425000D01*
G75*
G02*
X106175000Y-129675000I-250000J0D01*
G01*
X105250000Y-129675000D01*
G75*
G02*
X105000000Y-129425000I0J250000D01*
G01*
X105000000Y-128175000D01*
G75*
G02*
X105250000Y-127925000I250000J0D01*
G01*
X106175000Y-127925000D01*
G75*
G02*
X106425000Y-128175000I0J-250000D01*
G01*
G37*
G36*
G01*
X106225000Y-125675000D02*
X106225000Y-126925000D01*
G75*
G02*
X105975000Y-127175000I-250000J0D01*
G01*
X105050000Y-127175000D01*
G75*
G02*
X104800000Y-126925000I0J250000D01*
G01*
X104800000Y-125675000D01*
G75*
G02*
X105050000Y-125425000I250000J0D01*
G01*
X105975000Y-125425000D01*
G75*
G02*
X106225000Y-125675000I0J-250000D01*
G01*
G37*
G36*
G01*
X109200000Y-125675000D02*
X109200000Y-126925000D01*
G75*
G02*
X108950000Y-127175000I-250000J0D01*
G01*
X108025000Y-127175000D01*
G75*
G02*
X107775000Y-126925000I0J250000D01*
G01*
X107775000Y-125675000D01*
G75*
G02*
X108025000Y-125425000I250000J0D01*
G01*
X108950000Y-125425000D01*
G75*
G02*
X109200000Y-125675000I0J-250000D01*
G01*
G37*
G36*
G01*
X99533344Y-144948000D02*
X99533344Y-146198000D01*
G75*
G02*
X99283344Y-146448000I-250000J0D01*
G01*
X98358344Y-146448000D01*
G75*
G02*
X98108344Y-146198000I0J250000D01*
G01*
X98108344Y-144948000D01*
G75*
G02*
X98358344Y-144698000I250000J0D01*
G01*
X99283344Y-144698000D01*
G75*
G02*
X99533344Y-144948000I0J-250000D01*
G01*
G37*
G36*
G01*
X96558344Y-144948000D02*
X96558344Y-146198000D01*
G75*
G02*
X96308344Y-146448000I-250000J0D01*
G01*
X95383344Y-146448000D01*
G75*
G02*
X95133344Y-146198000I0J250000D01*
G01*
X95133344Y-144948000D01*
G75*
G02*
X95383344Y-144698000I250000J0D01*
G01*
X96308344Y-144698000D01*
G75*
G02*
X96558344Y-144948000I0J-250000D01*
G01*
G37*
G36*
G01*
X101863279Y-113316000D02*
X101863279Y-114566000D01*
G75*
G02*
X101613279Y-114816000I-250000J0D01*
G01*
X100688279Y-114816000D01*
G75*
G02*
X100438279Y-114566000I0J250000D01*
G01*
X100438279Y-113316000D01*
G75*
G02*
X100688279Y-113066000I250000J0D01*
G01*
X101613279Y-113066000D01*
G75*
G02*
X101863279Y-113316000I0J-250000D01*
G01*
G37*
G36*
G01*
X104838279Y-113316000D02*
X104838279Y-114566000D01*
G75*
G02*
X104588279Y-114816000I-250000J0D01*
G01*
X103663279Y-114816000D01*
G75*
G02*
X103413279Y-114566000I0J250000D01*
G01*
X103413279Y-113316000D01*
G75*
G02*
X103663279Y-113066000I250000J0D01*
G01*
X104588279Y-113066000D01*
G75*
G02*
X104838279Y-113316000I0J-250000D01*
G01*
G37*
G36*
G01*
X110249830Y-109978000D02*
X110249830Y-111228000D01*
G75*
G02*
X109999830Y-111478000I-250000J0D01*
G01*
X109074830Y-111478000D01*
G75*
G02*
X108824830Y-111228000I0J250000D01*
G01*
X108824830Y-109978000D01*
G75*
G02*
X109074830Y-109728000I250000J0D01*
G01*
X109999830Y-109728000D01*
G75*
G02*
X110249830Y-109978000I0J-250000D01*
G01*
G37*
G36*
G01*
X107274830Y-109978000D02*
X107274830Y-111228000D01*
G75*
G02*
X107024830Y-111478000I-250000J0D01*
G01*
X106099830Y-111478000D01*
G75*
G02*
X105849830Y-111228000I0J250000D01*
G01*
X105849830Y-109978000D01*
G75*
G02*
X106099830Y-109728000I250000J0D01*
G01*
X107024830Y-109728000D01*
G75*
G02*
X107274830Y-109978000I0J-250000D01*
G01*
G37*
G36*
G01*
X112132443Y-106768000D02*
X112132443Y-108018000D01*
G75*
G02*
X111882443Y-108268000I-250000J0D01*
G01*
X110957443Y-108268000D01*
G75*
G02*
X110707443Y-108018000I0J250000D01*
G01*
X110707443Y-106768000D01*
G75*
G02*
X110957443Y-106518000I250000J0D01*
G01*
X111882443Y-106518000D01*
G75*
G02*
X112132443Y-106768000I0J-250000D01*
G01*
G37*
G36*
G01*
X115107443Y-106768000D02*
X115107443Y-108018000D01*
G75*
G02*
X114857443Y-108268000I-250000J0D01*
G01*
X113932443Y-108268000D01*
G75*
G02*
X113682443Y-108018000I0J250000D01*
G01*
X113682443Y-106768000D01*
G75*
G02*
X113932443Y-106518000I250000J0D01*
G01*
X114857443Y-106518000D01*
G75*
G02*
X115107443Y-106768000I0J-250000D01*
G01*
G37*
M02*
